M48
;Layer_Color=9474304
;FILE_FORMAT=2:5
INCH,TZ
;TYPE=PLATED
T1F00S00C0.00800
T2F00S00C0.01200
T3F00S00C0.01600
T4F00S00C0.04000
T5F00S00C0.04200
T6F00S00C0.06000
T7F00S00C0.15748
;TYPE=NON_PLATED
T8F00S00C0.04200
T9F00S00C0.09450
T10F00S00C0.09488
%
T01
X148500Y-5500
X161000Y-4579
X168500Y-5500
X176297Y-2241
X191929Y1772
X191000Y16900
X189158Y29724
X189300Y38200
X200300Y39200
X205269Y41000
X202000Y46800
X197700Y45100
X216460Y43627
X214873Y37305
X229000Y37700
X228814Y19587
X238545Y26600
X249324Y35900
X210500Y25600
X218209Y13189
X205700Y7055
X177756Y19587
X169000Y11300
X168500Y34500
X172000Y32400
X180500Y34736
X161000Y31300
X153100Y30100
X148500Y34500
X155315Y21457
X146800Y9700
X144677Y-5325
X128500Y-5500
X126900Y-4110
X111024Y-1181
X95339Y3479
X98500Y14500
X100400Y17700
X91339Y27657
X88500Y34500
X95200Y41400
X101400Y38800
X108500Y34500
X113700Y34800
X120000Y33800
X128500Y34500
X131700Y30600
X138100Y31000
X132677Y16142
X122100Y11500
X112205Y25197
X79300Y27500
X78500Y14500
X80536Y9700
X68504Y16226
X58004Y23173
X48564Y30600
X48500Y34500
X39488Y39018
X60800Y39500
X68500Y34500
X72539Y45276
X79200Y51700
X78500Y54500
X85300Y48300
X69800Y59300
X64600Y63313
X38681Y63390
X38500Y54500
X45100Y55200
X24931Y56058
X31583Y47627
X31977Y72200
X28500Y74500
X14620Y72200
X18500Y94500
X19093Y98380
X16043Y110980
X8500Y114500
X-492Y113681
X-2953Y130709
X-4035Y148130
X-2953Y162200
X-591Y176673
X3445Y191437
X8500Y194500
X20177Y192913
X28500Y194500
X47447Y192913
X47100Y185300
X50514
X53700
X57300
X60600
X52264Y200886
X78500Y174500
X75400Y168800
X75200Y162200
Y154100
X70592Y151200
X68900Y145800
X74900Y145500
X78500Y134500
X73524Y120768
X73819Y115847
X68504Y115650
X63484Y116240
X63189Y120768
X48500Y114500
X28500
X12888Y126610
X18500Y134500
X11039Y142300
X11792Y153541
X8500Y154500
X12888Y165882
X18500Y174500
X16043Y179921
X38681Y137894
X58500Y94500
X78500
X98500
X96000Y72200
X108500Y74500
X117900Y56300
X122378
X126900
X132200Y56400
X136700Y56300
X141200
X143373Y102362
Y105217
X138779
Y102362
X128500Y114500
X108500
X88500
X108500Y154500
X128500
X138500Y174500
X118500
X138500Y134500
X48500Y74500
X3445Y97823
X147966Y102362
Y105217
X152559
Y102362
X148500Y114500
X168500
X171161Y104331
X178500Y94500
X190551Y95086
X191446Y87655
X198500Y94500
X191000Y103531
X208500Y114500
X218500Y134500
X238500
X258500
X255159Y129461
X256135Y141216
X255734Y154331
X248500Y154500
X253647Y167894
X258500Y174500
X278500
X278861Y167894
X280807Y154781
X288500Y154500
X295174Y161216
X296260Y147047
X295866Y133661
X278500Y134500
X280807Y140551
X278861Y121929
X268500Y154500
Y194500
X248500
X238500Y174500
X228500Y154500
X198500Y174500
X178500
X158500
X168500Y154500
X148500
X158500Y134500
X178500
X198500
X218500Y94500
X238500
X243714Y93554
X258500Y94500
X249324Y106189
X248500Y74500
X260000Y71536
X268500Y74500
X275492Y68701
X268764Y58418
X258500Y54500
X260000Y47138
X245927Y53706
X253150Y61910
X232874Y56394
X221700Y51600
X218500Y54500
X213596Y57500
X201900
Y54900
X202000Y52200
Y49481
X198500Y54500
X197300Y59600
X188500Y74500
X168500
X155400Y56300
X150900Y56400
X146100Y56300
X234055Y78347
X208500Y194500
X148500
X147474Y218898
Y221752
X158500Y214500
X198500
X204133Y237917
X208500Y234500
X228500
X232811Y248130
X238500Y254500
X248031Y254232
X236811Y264238
X223721Y273031
X208500Y274500
X207579Y281496
X208666Y264238
X219390Y257776
X218500Y254500
X198500
X190787Y244971
X177387Y249902
X178500Y254500
X161319Y253642
X158500Y254500
X168500Y274500
X165453Y278051
X181102Y275000
X188500Y274500
X195374Y269980
X193504Y286910
X178051Y291437
X160531Y293701
X234246Y210335
X238500Y214500
X258500
X268500Y234500
X142881Y221752
Y218898
X138287
Y221752
X138500Y214500
X118500
X98500
X88500Y234500
X89665Y238878
X100140Y244322
X114173Y249902
X118500Y254500
X127496Y252822
X133465Y293996
X116991Y292000
X70023Y274178
X73425Y258169
X78500Y254500
X58500
X60600Y249308
X57972Y266535
X45965Y256890
X68500Y234500
X79626Y232579
X58500Y214500
X8957Y205906
T02
X124802Y144770
X168898Y91732
X222539Y155315
X212894Y194882
X238779Y199311
X245381Y222547
X235827Y236614
X255217Y248130
X279626Y210335
X281890Y204134
T03
X254232Y123031
T04
X100787Y111929
Y121929
Y131929
Y141929
Y151929
Y161929
Y171929
Y181929
X190787
Y171929
Y161929
Y151929
Y141929
Y131929
Y121929
Y111929
T05
X31583Y83498
X27933Y94731
X39166Y98380
X42816Y87147
X264526Y90880
X268565Y101978
X272605Y113077
X274341Y180906
X285972Y182957
X95000Y272000
X90575Y282951
X48807Y230075
X41535Y220768
X34264Y211460
T06
X146000Y268378
Y292000
X127496Y280189
T07
X77205Y76205
X215000
X214500Y214000
X77205
T08
X291667Y171968
X287565Y195231
X100140Y290806
X78238Y281957
T09
X277613Y77109
X284547Y96161
X291482Y115214
X15650Y215261
X28133Y231239
X40616Y247216
T10
X13583Y83858
M30
