M48
;Layer_Color=9474304
;FILE_FORMAT=2:5
INCH,LZ
;TYPE=PLATED
T1F00S00C0.01575
T2F00S00C0.04000
T3F00S00C0.04016
T4F00S00C0.04055
%
T01
X0413Y02985
Y0333
X04375Y03425
T02
X04735Y0263
Y0273
Y0283
Y0293
Y0303
X03835
Y0293
Y0283
Y0273
Y0263
Y0313
Y0323
Y0333
X04735
Y0323
Y0313
T03
X0423Y03505
X0433
X0443
T04
X0413Y03505
M30
