G04*
G04 #@! TF.GenerationSoftware,Altium Limited,Altium Designer,18.1.9 (240)*
G04*
G04 Layer_Color=32896*
%FSLAX25Y25*%
%MOIN*%
G70*
G01*
G75*
%ADD12C,0.00787*%
%ADD14C,0.00446*%
%ADD15C,0.00408*%
%ADD16C,0.00100*%
%ADD17C,0.00394*%
D12*
X462213Y252931D02*
Y249389D01*
X461032Y250570D01*
X459851Y249389D01*
Y252931D01*
X456899Y249389D02*
X458080D01*
X458670Y249979D01*
Y251160D01*
X458080Y251751D01*
X456899D01*
X456309Y251160D01*
Y250570D01*
X458670D01*
X455128Y249389D02*
Y251751D01*
X454538D01*
X453948Y251160D01*
Y249389D01*
Y251160D01*
X453357Y251751D01*
X452767Y251160D01*
Y249389D01*
X450996D02*
X449815D01*
X449225Y249979D01*
Y251160D01*
X449815Y251751D01*
X450996D01*
X451586Y251160D01*
Y249979D01*
X450996Y249389D01*
X448044D02*
X446273D01*
X445682Y249979D01*
X446273Y250570D01*
X447454D01*
X448044Y251160D01*
X447454Y251751D01*
X445682D01*
X440960Y252931D02*
Y249389D01*
X439189D01*
X438598Y249979D01*
Y252341D01*
X439189Y252931D01*
X440960D01*
X437418Y249389D02*
X436237D01*
X436827D01*
Y252931D01*
X437418Y252341D01*
X460441Y246791D02*
X461622D01*
X462213Y246201D01*
Y243839D01*
X461622Y243249D01*
X460441D01*
X459851Y243839D01*
Y246201D01*
X460441Y246791D01*
X458670D02*
Y243249D01*
X456309D01*
X452767Y246791D02*
X455128D01*
Y243249D01*
X452767D01*
X455128Y245020D02*
X453948D01*
X451586Y246791D02*
Y243249D01*
X449815D01*
X449225Y243839D01*
Y246201D01*
X449815Y246791D01*
X451586D01*
X442140Y246201D02*
X442731Y246791D01*
X443911D01*
X444502Y246201D01*
Y245610D01*
X443911Y245020D01*
X442731D01*
X442140Y244429D01*
Y243839D01*
X442731Y243249D01*
X443911D01*
X444502Y243839D01*
X440960Y246791D02*
Y243249D01*
Y245020D01*
X440369Y245610D01*
X439189D01*
X438598Y245020D01*
Y243249D01*
X435646D02*
X436827D01*
X437418Y243839D01*
Y245020D01*
X436827Y245610D01*
X435646D01*
X435056Y245020D01*
Y244429D01*
X437418D01*
X433875Y243249D02*
X432695D01*
X433285D01*
Y245610D01*
X433875D01*
X430924Y243249D02*
X429743D01*
X430333D01*
Y246791D01*
X430924D01*
X425610D02*
Y243249D01*
X427381D01*
X427972Y243839D01*
Y245020D01*
X427381Y245610D01*
X425610D01*
X420887Y243249D02*
Y246791D01*
X419116D01*
X418526Y246201D01*
Y245020D01*
X419116Y244429D01*
X420887D01*
X419707D02*
X418526Y243249D01*
X415574D02*
X416755D01*
X417345Y243839D01*
Y245020D01*
X416755Y245610D01*
X415574D01*
X414984Y245020D01*
Y244429D01*
X417345D01*
X413803Y245610D02*
X412622Y243249D01*
X411442Y245610D01*
X406719Y243249D02*
Y245610D01*
X405538Y246791D01*
X404357Y245610D01*
Y243249D01*
Y245020D01*
X406719D01*
X403177Y243249D02*
Y243839D01*
X402586D01*
Y243249D01*
X403177D01*
X400225D02*
X399044D01*
X399634D01*
Y246791D01*
X400225Y246201D01*
X462213Y240651D02*
Y237108D01*
Y238289D01*
X459851Y240651D01*
X461622Y238880D01*
X459851Y237108D01*
X458670Y239470D02*
Y237699D01*
X458080Y237108D01*
X456309D01*
Y236518D01*
X456899Y235928D01*
X457490D01*
X456309Y237108D02*
Y239470D01*
X455128Y237108D02*
X453948D01*
X454538D01*
Y240651D01*
X455128D01*
X450405Y237108D02*
X451586D01*
X452177Y237699D01*
Y238880D01*
X451586Y239470D01*
X450405D01*
X449815Y238880D01*
Y238289D01*
X452177D01*
X445092Y237108D02*
Y240651D01*
X443321D01*
X442731Y240060D01*
Y238880D01*
X443321Y238289D01*
X445092D01*
X443911D02*
X442731Y237108D01*
X441550D02*
Y237699D01*
X440960D01*
Y237108D01*
X441550D01*
X459851Y233330D02*
X462213D01*
Y231558D01*
X461032Y232149D01*
X460441D01*
X459851Y231558D01*
Y230378D01*
X460441Y229787D01*
X461622D01*
X462213Y230378D01*
X458670Y229787D02*
X456309Y232149D01*
X455128Y229787D02*
X453948D01*
X454538D01*
Y233330D01*
X455128Y232739D01*
X452177D02*
X451586Y233330D01*
X450405D01*
X449815Y232739D01*
Y232149D01*
X450405Y231558D01*
X449815Y230968D01*
Y230378D01*
X450405Y229787D01*
X451586D01*
X452177Y230378D01*
Y230968D01*
X451586Y231558D01*
X452177Y232149D01*
Y232739D01*
X451586Y231558D02*
X450405D01*
X448634Y229787D02*
X446273Y232149D01*
X442731Y229787D02*
X445092D01*
X442731Y232149D01*
Y232739D01*
X443321Y233330D01*
X444502D01*
X445092Y232739D01*
X441550D02*
X440960Y233330D01*
X439779D01*
X439189Y232739D01*
Y230378D01*
X439779Y229787D01*
X440960D01*
X441550Y230378D01*
Y232739D01*
X438008Y229787D02*
X436827D01*
X437418D01*
Y233330D01*
X438008Y232739D01*
X435056Y230378D02*
X434466Y229787D01*
X433285D01*
X432695Y230378D01*
Y232739D01*
X433285Y233330D01*
X434466D01*
X435056Y232739D01*
Y232149D01*
X434466Y231558D01*
X432695D01*
D14*
X394849Y283974D02*
Y281000D01*
X393362D01*
X392866Y281496D01*
Y283478D01*
X393362Y283974D01*
X394849D01*
X391875D02*
X389893D01*
Y283478D01*
X391875Y281496D01*
Y281000D01*
X394849Y293974D02*
Y291000D01*
X393362D01*
X392866Y291496D01*
Y293478D01*
X393362Y293974D01*
X394849D01*
X389893D02*
X390884Y293478D01*
X391875Y292487D01*
Y291496D01*
X391379Y291000D01*
X390388D01*
X389893Y291496D01*
Y291991D01*
X390388Y292487D01*
X391875D01*
X394849Y321000D02*
Y322983D01*
X393858Y323974D01*
X392866Y322983D01*
Y321000D01*
Y322487D01*
X394849D01*
X391875Y323478D02*
X391379Y323974D01*
X390388D01*
X389893Y323478D01*
Y321496D01*
X390388Y321000D01*
X391379D01*
X391875Y321496D01*
Y323478D01*
X394849Y273974D02*
Y271000D01*
X393362D01*
X392866Y271496D01*
Y273478D01*
X393362Y273974D01*
X394849D01*
X391875Y273478D02*
X391379Y273974D01*
X390388D01*
X389893Y273478D01*
Y272983D01*
X390388Y272487D01*
X389893Y271991D01*
Y271496D01*
X390388Y271000D01*
X391379D01*
X391875Y271496D01*
Y271991D01*
X391379Y272487D01*
X391875Y272983D01*
Y273478D01*
X391379Y272487D02*
X390388D01*
X394849Y313974D02*
Y311000D01*
X393362D01*
X392866Y311496D01*
Y313478D01*
X393362Y313974D01*
X394849D01*
X391875Y313478D02*
X391379Y313974D01*
X390388D01*
X389893Y313478D01*
Y311496D01*
X390388Y311000D01*
X391379D01*
X391875Y311496D01*
Y313478D01*
X394849Y303974D02*
Y301000D01*
X393362D01*
X392866Y301496D01*
Y303478D01*
X393362Y303974D01*
X394849D01*
X389893D02*
X391875D01*
Y302487D01*
X390884Y302983D01*
X390388D01*
X389893Y302487D01*
Y301496D01*
X390388Y301000D01*
X391379D01*
X391875Y301496D01*
X465500Y313974D02*
Y311000D01*
X464013D01*
X463517Y311496D01*
Y313478D01*
X464013Y313974D01*
X465500D01*
X462526Y311000D02*
X461535D01*
X462030D01*
Y313974D01*
X462526Y313478D01*
X465500Y283974D02*
Y281000D01*
X464013D01*
X463517Y281496D01*
Y283478D01*
X464013Y283974D01*
X465500D01*
X461039Y281000D02*
Y283974D01*
X462526Y282487D01*
X460543D01*
X465500Y293974D02*
Y291000D01*
X464013D01*
X463517Y291496D01*
Y293478D01*
X464013Y293974D01*
X465500D01*
X462526Y293478D02*
X462030Y293974D01*
X461039D01*
X460543Y293478D01*
Y292983D01*
X461039Y292487D01*
X461535D01*
X461039D01*
X460543Y291991D01*
Y291496D01*
X461039Y291000D01*
X462030D01*
X462526Y291496D01*
X465500Y321000D02*
Y323974D01*
X464013D01*
X463517Y323478D01*
Y322487D01*
X464013Y321991D01*
X465500D01*
X464509D02*
X463517Y321000D01*
X462526Y323974D02*
X460543Y321000D01*
Y323974D02*
X462526Y321000D01*
X465500Y333974D02*
X463517D01*
X464509D01*
Y331000D01*
X462526Y333974D02*
X460543Y331000D01*
Y333974D02*
X462526Y331000D01*
X465500Y303974D02*
Y301000D01*
X464013D01*
X463517Y301496D01*
Y303478D01*
X464013Y303974D01*
X465500D01*
X460543Y301000D02*
X462526D01*
X460543Y302983D01*
Y303478D01*
X461039Y303974D01*
X462030D01*
X462526Y303478D01*
D15*
X397067Y331000D02*
Y333719D01*
X395707D01*
X395254Y333266D01*
Y332360D01*
X395707Y331906D01*
X397067D01*
X396161D02*
X395254Y331000D01*
X392535Y333266D02*
X392988Y333719D01*
X393895D01*
X394348Y333266D01*
Y332813D01*
X393895Y332360D01*
X392988D01*
X392535Y331906D01*
Y331453D01*
X392988Y331000D01*
X393895D01*
X394348Y331453D01*
X391629Y333719D02*
X389816D01*
X390722D01*
Y331000D01*
X397067Y263266D02*
X396614Y263719D01*
X395707D01*
X395254Y263266D01*
Y262813D01*
X395707Y262360D01*
X396161D01*
X395707D01*
X395254Y261906D01*
Y261453D01*
X395707Y261000D01*
X396614D01*
X397067Y261453D01*
X394348Y263719D02*
Y261906D01*
X393442Y261000D01*
X392535Y261906D01*
Y263719D01*
X391629Y263266D02*
X391176Y263719D01*
X390269D01*
X389816Y263266D01*
Y262813D01*
X390269Y262360D01*
X390722D01*
X390269D01*
X389816Y261906D01*
Y261453D01*
X390269Y261000D01*
X391176D01*
X391629Y261453D01*
X463687Y263719D02*
X465500D01*
Y262360D01*
X464594Y262813D01*
X464140D01*
X463687Y262360D01*
Y261453D01*
X464140Y261000D01*
X465047D01*
X465500Y261453D01*
X462781Y263719D02*
Y261906D01*
X461874Y261000D01*
X460968Y261906D01*
Y263719D01*
X463687Y273266D02*
X464140Y273719D01*
X465047D01*
X465500Y273266D01*
Y271453D01*
X465047Y271000D01*
X464140D01*
X463687Y271453D01*
Y272360D01*
X464594D01*
X462781Y271000D02*
Y273719D01*
X460968Y271000D01*
Y273719D01*
X460062D02*
Y271000D01*
X458702D01*
X458249Y271453D01*
Y273266D01*
X458702Y273719D01*
X460062D01*
D16*
X383000Y357500D02*
X382025Y357404D01*
X381087Y357119D01*
X380222Y356657D01*
X379465Y356035D01*
X378843Y355278D01*
X378381Y354413D01*
X378096Y353475D01*
X378000Y352500D01*
X478000D02*
X477904Y353475D01*
X477619Y354413D01*
X477157Y355278D01*
X476536Y356035D01*
X475778Y356657D01*
X474913Y357119D01*
X473976Y357404D01*
X473000Y357500D01*
Y227500D02*
X473976Y227596D01*
X474913Y227881D01*
X475778Y228343D01*
X476536Y228964D01*
X477157Y229722D01*
X477619Y230587D01*
X477904Y231524D01*
X478000Y232500D01*
X385500D02*
X385596Y231524D01*
X385881Y230587D01*
X386343Y229722D01*
X386965Y228964D01*
X387722Y228343D01*
X388587Y227881D01*
X389525Y227596D01*
X390500Y227500D01*
X478000Y232500D02*
Y352500D01*
X378000Y257500D02*
Y352500D01*
X382874Y357500D02*
X472874D01*
X378000Y257500D02*
X385500Y252500D01*
Y232500D02*
Y252500D01*
D17*
X426029Y293630D02*
X432722D01*
X426029Y297370D02*
X432722D01*
Y293630D02*
Y297370D01*
X426029Y293630D02*
Y297370D01*
X449646Y280331D02*
X455354D01*
X449646Y271669D02*
X455354D01*
Y280331D01*
X449646Y271669D02*
Y280331D01*
X445870Y333154D02*
Y339846D01*
X442130Y333154D02*
Y339846D01*
X445870D01*
X442130Y333154D02*
X445870D01*
X434370Y333197D02*
Y339890D01*
X430630Y333197D02*
Y339890D01*
X434370D01*
X430630Y333197D02*
X434370D01*
M02*
