G04*
G04 #@! TF.GenerationSoftware,Altium Limited,Altium Designer,18.1.9 (240)*
G04*
G04 Layer_Color=32896*
%FSLAX25Y25*%
%MOIN*%
G70*
G01*
G75*
G36*
X99787Y112929D02*
X101787D01*
Y110929D01*
X99787D01*
Y112929D01*
D02*
G37*
G36*
Y122929D02*
X101787D01*
Y120929D01*
X99787D01*
Y122929D01*
D02*
G37*
G36*
Y132929D02*
X101787D01*
Y130929D01*
X99787D01*
Y132929D01*
D02*
G37*
G36*
Y142929D02*
X101787D01*
Y140929D01*
X99787D01*
Y142929D01*
D02*
G37*
G36*
Y152929D02*
X101787D01*
Y150929D01*
X99787D01*
Y152929D01*
D02*
G37*
G36*
Y162929D02*
X101787D01*
Y160929D01*
X99787D01*
Y162929D01*
D02*
G37*
G36*
Y172929D02*
X101787D01*
Y170929D01*
X99787D01*
Y172929D01*
D02*
G37*
G36*
Y182929D02*
X101787D01*
Y180929D01*
X99787D01*
Y182929D01*
D02*
G37*
G36*
X189787Y112929D02*
X191787D01*
Y110929D01*
X189787D01*
Y112929D01*
D02*
G37*
G36*
Y122929D02*
X191787D01*
Y120929D01*
X189787D01*
Y122929D01*
D02*
G37*
G36*
Y132929D02*
X191787D01*
Y130929D01*
X189787D01*
Y132929D01*
D02*
G37*
G36*
Y142929D02*
X191787D01*
Y140929D01*
X189787D01*
Y142929D01*
D02*
G37*
G36*
Y152929D02*
X191787D01*
Y150929D01*
X189787D01*
Y152929D01*
D02*
G37*
G36*
Y162929D02*
X191787D01*
Y160929D01*
X189787D01*
Y162929D01*
D02*
G37*
G36*
Y172929D02*
X191787D01*
Y170929D01*
X189787D01*
Y172929D01*
D02*
G37*
G36*
Y182929D02*
X191787D01*
Y180929D01*
X189787D01*
Y182929D01*
D02*
G37*
M02*
