G04*
G04 #@! TF.GenerationSoftware,Altium Limited,Altium Designer,18.1.9 (240)*
G04*
G04 Layer_Color=32896*
%FSLAX25Y25*%
%MOIN*%
G70*
G01*
G75*
%ADD17C,0.00500*%
%ADD18C,0.00446*%
%ADD19C,0.00408*%
%ADD140C,0.00394*%
D17*
X173029Y127492D02*
X173363Y127826D01*
X174029D01*
X174362Y127492D01*
Y126160D01*
X174029Y125826D01*
X173363D01*
X173029Y126160D01*
Y126826D01*
X173696D01*
X172363Y125826D02*
Y127826D01*
X171030Y125826D01*
Y127826D01*
X170363D02*
Y125826D01*
X169364D01*
X169031Y126160D01*
Y127492D01*
X169364Y127826D01*
X170363D01*
X174756Y138062D02*
X173423D01*
X174090D01*
Y136063D01*
X172757D02*
Y138062D01*
X171757D01*
X171424Y137729D01*
Y137062D01*
X171757Y136729D01*
X172757D01*
X169424Y138062D02*
X170091Y137729D01*
X170757Y137062D01*
Y136396D01*
X170424Y136063D01*
X169757D01*
X169424Y136396D01*
Y136729D01*
X169757Y137062D01*
X170757D01*
X219132Y163610D02*
X219465Y163943D01*
X220131D01*
X220465Y163610D01*
Y163277D01*
X220131Y162943D01*
X219465D01*
X219132Y162610D01*
Y162277D01*
X219465Y161944D01*
X220131D01*
X220465Y162277D01*
X217132Y163610D02*
X217466Y163943D01*
X218132D01*
X218465Y163610D01*
Y162277D01*
X218132Y161944D01*
X217466D01*
X217132Y162277D01*
X216466Y163943D02*
Y161944D01*
X215133D01*
X221055Y173786D02*
X219722D01*
X220389D01*
Y171786D01*
X219056D02*
Y173786D01*
X218056D01*
X217723Y173452D01*
Y172786D01*
X218056Y172453D01*
X219056D01*
X217056Y171786D02*
X216390D01*
X216723D01*
Y173786D01*
X217056Y173452D01*
X219918Y138413D02*
X220251Y138746D01*
X220918D01*
X221251Y138413D01*
Y138080D01*
X220918Y137747D01*
X220251D01*
X219918Y137413D01*
Y137080D01*
X220251Y136747D01*
X220918D01*
X221251Y137080D01*
X219251Y138746D02*
Y136747D01*
X218252D01*
X217919Y137080D01*
Y138413D01*
X218252Y138746D01*
X219251D01*
X217252Y136747D02*
Y138080D01*
X216586Y138746D01*
X215919Y138080D01*
Y136747D01*
Y137747D01*
X217252D01*
X221251Y148589D02*
X219918D01*
X220584D01*
Y146589D01*
X219251D02*
Y148589D01*
X218252D01*
X217919Y148256D01*
Y147589D01*
X218252Y147256D01*
X219251D01*
X215919Y146589D02*
X217252D01*
X215919Y147922D01*
Y148256D01*
X216252Y148589D01*
X216919D01*
X217252Y148256D01*
X146739Y21431D02*
X148072D01*
Y20432D01*
X147405Y20765D01*
X147072D01*
X146739Y20432D01*
Y19765D01*
X147072Y19432D01*
X147739D01*
X148072Y19765D01*
X146072Y21431D02*
Y20098D01*
X145406Y19432D01*
X144739Y20098D01*
Y21431D01*
X149548Y31766D02*
X148215D01*
X148882D01*
Y29767D01*
X147549D02*
Y31766D01*
X146549D01*
X146216Y31433D01*
Y30766D01*
X146549Y30433D01*
X147549D01*
X145549Y31433D02*
X145216Y31766D01*
X144550D01*
X144217Y31433D01*
Y31100D01*
X144550Y30766D01*
X144883D01*
X144550D01*
X144217Y30433D01*
Y30100D01*
X144550Y29767D01*
X145216D01*
X145549Y30100D01*
X126269Y127427D02*
X125936Y127760D01*
X125270D01*
X124936Y127427D01*
Y127094D01*
X125270Y126760D01*
X125603D01*
X125270D01*
X124936Y126427D01*
Y126094D01*
X125270Y125761D01*
X125936D01*
X126269Y126094D01*
X124270Y127760D02*
Y126427D01*
X123603Y125761D01*
X122937Y126427D01*
Y127760D01*
X127450Y138095D02*
X126118D01*
X126784D01*
Y136095D01*
X125451D02*
Y138095D01*
X124451D01*
X124118Y137761D01*
Y137095D01*
X124451Y136762D01*
X125451D01*
X122452Y136095D02*
Y138095D01*
X123452Y137095D01*
X122119D01*
X159696Y1856D02*
X160029Y2189D01*
X160695D01*
X161028Y1856D01*
Y523D01*
X160695Y190D01*
X160029D01*
X159696Y523D01*
Y1190D01*
X160362D01*
X159029Y190D02*
Y2189D01*
X157696Y190D01*
Y2189D01*
X157030D02*
Y190D01*
X156030D01*
X155697Y523D01*
Y1856D01*
X156030Y2189D01*
X157030D01*
X161422Y12229D02*
X160089D01*
X160756D01*
Y10229D01*
X159423D02*
Y12229D01*
X158423D01*
X158090Y11895D01*
Y11229D01*
X158423Y10896D01*
X159423D01*
X156091Y12229D02*
X157423D01*
Y11229D01*
X156757Y11562D01*
X156424D01*
X156091Y11229D01*
Y10563D01*
X156424Y10229D01*
X157090D01*
X157423Y10563D01*
D18*
X204941Y154190D02*
Y151216D01*
X203454D01*
X202958Y151712D01*
Y153694D01*
X203454Y154190D01*
X204941D01*
X199984Y151216D02*
X201967D01*
X199984Y153199D01*
Y153694D01*
X200480Y154190D01*
X201471D01*
X201967Y153694D01*
X204941Y184190D02*
X202958D01*
X203949D01*
Y181216D01*
X201967Y184190D02*
X199984Y181216D01*
Y184190D02*
X201967Y181216D01*
X204941Y171216D02*
Y174190D01*
X203454D01*
X202958Y173694D01*
Y172703D01*
X203454Y172207D01*
X204941D01*
X203949D02*
X202958Y171216D01*
X201967Y174190D02*
X199984Y171216D01*
Y174190D02*
X201967Y171216D01*
X204941Y144190D02*
Y141216D01*
X203454D01*
X202958Y141712D01*
Y143694D01*
X203454Y144190D01*
X204941D01*
X201967Y143694D02*
X201471Y144190D01*
X200480D01*
X199984Y143694D01*
Y143199D01*
X200480Y142703D01*
X200975D01*
X200480D01*
X199984Y142207D01*
Y141712D01*
X200480Y141216D01*
X201471D01*
X201967Y141712D01*
X204941Y134190D02*
Y131216D01*
X203454D01*
X202958Y131712D01*
Y133694D01*
X203454Y134190D01*
X204941D01*
X200480Y131216D02*
Y134190D01*
X201967Y132703D01*
X199984D01*
X204941Y164190D02*
Y161216D01*
X203454D01*
X202958Y161712D01*
Y163694D01*
X203454Y164190D01*
X204941D01*
X201967Y161216D02*
X200975D01*
X201471D01*
Y164190D01*
X201967Y163694D01*
X91377Y153796D02*
Y150822D01*
X89890D01*
X89394Y151318D01*
Y153301D01*
X89890Y153796D01*
X91377D01*
X86420D02*
X88403D01*
Y152309D01*
X87411Y152805D01*
X86916D01*
X86420Y152309D01*
Y151318D01*
X86916Y150822D01*
X87907D01*
X88403Y151318D01*
X91377Y163796D02*
Y160822D01*
X89890D01*
X89394Y161318D01*
Y163301D01*
X89890Y163796D01*
X91377D01*
X88403Y163301D02*
X87907Y163796D01*
X86916D01*
X86420Y163301D01*
Y161318D01*
X86916Y160822D01*
X87907D01*
X88403Y161318D01*
Y163301D01*
X91377Y123796D02*
Y120822D01*
X89890D01*
X89394Y121318D01*
Y123301D01*
X89890Y123796D01*
X91377D01*
X88403Y123301D02*
X87907Y123796D01*
X86916D01*
X86420Y123301D01*
Y122805D01*
X86916Y122309D01*
X86420Y121814D01*
Y121318D01*
X86916Y120822D01*
X87907D01*
X88403Y121318D01*
Y121814D01*
X87907Y122309D01*
X88403Y122805D01*
Y123301D01*
X87907Y122309D02*
X86916D01*
X91377Y170822D02*
Y172805D01*
X90385Y173796D01*
X89394Y172805D01*
Y170822D01*
Y172309D01*
X91377D01*
X88403Y173301D02*
X87907Y173796D01*
X86916D01*
X86420Y173301D01*
Y171318D01*
X86916Y170822D01*
X87907D01*
X88403Y171318D01*
Y173301D01*
X91377Y143796D02*
Y140822D01*
X89890D01*
X89394Y141318D01*
Y143301D01*
X89890Y143796D01*
X91377D01*
X86420D02*
X87411Y143301D01*
X88403Y142309D01*
Y141318D01*
X87907Y140822D01*
X86916D01*
X86420Y141318D01*
Y141814D01*
X86916Y142309D01*
X88403D01*
X91377Y133796D02*
Y130822D01*
X89890D01*
X89394Y131318D01*
Y133301D01*
X89890Y133796D01*
X91377D01*
X88403D02*
X86420D01*
Y133301D01*
X88403Y131318D01*
Y130822D01*
D19*
X203128Y123482D02*
X203581Y123935D01*
X204488D01*
X204941Y123482D01*
Y121669D01*
X204488Y121216D01*
X203581D01*
X203128Y121669D01*
Y122576D01*
X204034D01*
X202222Y121216D02*
Y123935D01*
X200409Y121216D01*
Y123935D01*
X199503D02*
Y121216D01*
X198143D01*
X197690Y121669D01*
Y123482D01*
X198143Y123935D01*
X199503D01*
X203128Y113935D02*
X204941D01*
Y112576D01*
X204034Y113029D01*
X203581D01*
X203128Y112576D01*
Y111669D01*
X203581Y111216D01*
X204488D01*
X204941Y111669D01*
X202222Y113935D02*
Y112122D01*
X201315Y111216D01*
X200409Y112122D01*
Y113935D01*
X93594Y113088D02*
X93141Y113541D01*
X92235D01*
X91782Y113088D01*
Y112635D01*
X92235Y112182D01*
X92688D01*
X92235D01*
X91782Y111729D01*
Y111275D01*
X92235Y110822D01*
X93141D01*
X93594Y111275D01*
X90875Y113541D02*
Y111729D01*
X89969Y110822D01*
X89063Y111729D01*
Y113541D01*
X88156Y113088D02*
X87703Y113541D01*
X86797D01*
X86343Y113088D01*
Y112635D01*
X86797Y112182D01*
X87250D01*
X86797D01*
X86343Y111729D01*
Y111275D01*
X86797Y110822D01*
X87703D01*
X88156Y111275D01*
X93594Y180822D02*
Y183541D01*
X92235D01*
X91782Y183088D01*
Y182182D01*
X92235Y181729D01*
X93594D01*
X92688D02*
X91782Y180822D01*
X89063Y183088D02*
X89516Y183541D01*
X90422D01*
X90875Y183088D01*
Y182635D01*
X90422Y182182D01*
X89516D01*
X89063Y181729D01*
Y181275D01*
X89516Y180822D01*
X90422D01*
X90875Y181275D01*
X88156Y183541D02*
X86343D01*
X87250D01*
Y180822D01*
D140*
X165110Y125039D02*
Y138818D01*
Y125039D02*
X178890D01*
Y138818D01*
X165110D02*
X178890D01*
X211417Y160827D02*
Y174606D01*
Y160827D02*
X225197D01*
Y174606D01*
X211417D02*
X225197D01*
X211713Y135630D02*
Y149409D01*
Y135630D02*
X225492D01*
Y149409D01*
X211713D02*
X225492D01*
X139910Y18710D02*
Y32490D01*
Y18710D02*
X153690D01*
Y32490D01*
X139910D02*
X153690D01*
X117912Y125039D02*
Y138818D01*
Y125039D02*
X131692D01*
Y138818D01*
X117912D02*
X131692D01*
X151870Y-787D02*
Y12992D01*
Y-787D02*
X165650D01*
Y12992D01*
X151870D02*
X165650D01*
M02*
