G04*
G04 #@! TF.GenerationSoftware,Altium Limited,Altium Designer,18.1.9 (240)*
G04*
G04 Layer_Color=128*
%FSLAX25Y25*%
%MOIN*%
G70*
G01*
G75*
%ADD144C,0.00200*%
D144*
X98787Y111929D02*
X102787D01*
X100787Y109929D02*
Y113929D01*
X98787Y121929D02*
X102787D01*
X100787Y119929D02*
Y123929D01*
X98787Y131929D02*
X102787D01*
X100787Y129929D02*
Y133929D01*
X98787Y141929D02*
X102787D01*
X100787Y139929D02*
Y143929D01*
X98787Y151929D02*
X102787D01*
X100787Y149929D02*
Y153929D01*
X98787Y161929D02*
X102787D01*
X100787Y159929D02*
Y163929D01*
X98787Y171929D02*
X102787D01*
X100787Y169929D02*
Y173929D01*
X98787Y181929D02*
X102787D01*
X100787Y179929D02*
Y183929D01*
X188787Y111929D02*
X192787D01*
X190787Y109929D02*
Y113929D01*
X188787Y121929D02*
X192787D01*
X190787Y119929D02*
Y123929D01*
X188787Y131929D02*
X192787D01*
X190787Y129929D02*
Y133929D01*
X188787Y141929D02*
X192787D01*
X190787Y139929D02*
Y143929D01*
X188787Y151929D02*
X192787D01*
X190787Y149929D02*
Y153929D01*
X188787Y161929D02*
X192787D01*
X190787Y159929D02*
Y163929D01*
X188787Y171929D02*
X192787D01*
X190787Y169929D02*
Y173929D01*
X188787Y181929D02*
X192787D01*
X190787Y179929D02*
Y183929D01*
X25833Y94731D02*
X30033D01*
X27933Y92630D02*
Y96830D01*
X29483Y83498D02*
X33683D01*
X31583Y81397D02*
Y85597D01*
X8839Y83858D02*
X18327D01*
X13583Y79114D02*
Y88602D01*
X40716Y87147D02*
X44916D01*
X42816Y85047D02*
Y89247D01*
X37066Y98380D02*
X41266D01*
X39166Y96280D02*
Y100480D01*
X286757Y115214D02*
X296207D01*
X291482Y110489D02*
Y119939D01*
X272888Y77109D02*
X282338D01*
X277613Y72384D02*
Y81834D01*
X279822Y96161D02*
X289272D01*
X284547Y91436D02*
Y100886D01*
X266465Y101978D02*
X270665D01*
X268565Y99878D02*
Y104078D01*
X270505Y113077D02*
X274705D01*
X272605Y110977D02*
Y115177D01*
X262425Y90880D02*
X266625D01*
X264526Y88780D02*
Y92980D01*
X46707Y230075D02*
X50907D01*
X48807Y227975D02*
Y232175D01*
X32164Y211460D02*
X36364D01*
X34264Y209361D02*
Y213561D01*
X39435Y220768D02*
X43635D01*
X41535Y218668D02*
Y222868D01*
X23408Y231239D02*
X32858D01*
X28133Y226514D02*
Y235964D01*
X35891Y247216D02*
X45341D01*
X40616Y242491D02*
Y251941D01*
X10925Y215261D02*
X20375D01*
X15650Y210536D02*
Y219986D01*
X88476Y282951D02*
X92676D01*
X90575Y280851D02*
Y285051D01*
X92900Y272000D02*
X97100D01*
X95000Y269900D02*
Y274100D01*
X76139Y281957D02*
X80339D01*
X78238Y279857D02*
Y284057D01*
X98040Y290806D02*
X102240D01*
X100140Y288706D02*
Y292906D01*
X124496Y280189D02*
X130496D01*
X127496Y277189D02*
Y283189D01*
X143000Y292000D02*
X149000D01*
X146000Y289000D02*
Y295000D01*
X143000Y268378D02*
X149000D01*
X146000Y265378D02*
Y271378D01*
X283872Y182957D02*
X288072D01*
X285972Y180857D02*
Y185057D01*
X272241Y180906D02*
X276441D01*
X274341Y178806D02*
Y183006D01*
X285465Y195231D02*
X289665D01*
X287565Y193131D02*
Y197331D01*
X289567Y171968D02*
X293767D01*
X291667Y169868D02*
Y174068D01*
X69331Y76205D02*
X85079D01*
X77205Y68331D02*
Y84079D01*
X207126Y76205D02*
X222874D01*
X215000Y68331D02*
Y84079D01*
X206626Y214000D02*
X222374D01*
X214500Y206126D02*
Y221874D01*
X69331Y214000D02*
X85079D01*
X77205Y206126D02*
Y221874D01*
X221939Y155315D02*
X223139D01*
X222539Y154715D02*
Y155915D01*
X253432Y123031D02*
X255032D01*
X254232Y122231D02*
Y123831D01*
X288100Y154500D02*
X288900D01*
X288500Y154100D02*
Y154900D01*
X268100Y234500D02*
X268900D01*
X268500Y234100D02*
Y234900D01*
X268100Y194500D02*
X268900D01*
X268500Y194100D02*
Y194900D01*
X278100Y174500D02*
X278900D01*
X278500Y174100D02*
Y174900D01*
X268100Y154500D02*
X268900D01*
X268500Y154100D02*
Y154900D01*
X278100Y134500D02*
X278900D01*
X278500Y134100D02*
Y134900D01*
X268100Y74500D02*
X268900D01*
X268500Y74100D02*
Y74900D01*
X258100Y214500D02*
X258900D01*
X258500Y214100D02*
Y214900D01*
X248100Y194500D02*
X248900D01*
X248500Y194100D02*
Y194900D01*
X258100Y174500D02*
X258900D01*
X258500Y174100D02*
Y174900D01*
X248100Y154500D02*
X248900D01*
X248500Y154100D02*
Y154900D01*
X258100Y134500D02*
X258900D01*
X258500Y134100D02*
Y134900D01*
X258100Y94500D02*
X258900D01*
X258500Y94100D02*
Y94900D01*
X248100Y74500D02*
X248900D01*
X248500Y74100D02*
Y74900D01*
X258100Y54500D02*
X258900D01*
X258500Y54100D02*
Y54900D01*
X238100Y254500D02*
X238900D01*
X238500Y254100D02*
Y254900D01*
X228100Y234500D02*
X228900D01*
X228500Y234100D02*
Y234900D01*
X238100Y214500D02*
X238900D01*
X238500Y214100D02*
Y214900D01*
X238100Y174500D02*
X238900D01*
X238500Y174100D02*
Y174900D01*
X228100Y154500D02*
X228900D01*
X228500Y154100D02*
Y154900D01*
X238100Y134500D02*
X238900D01*
X238500Y134100D02*
Y134900D01*
X238100Y94500D02*
X238900D01*
X238500Y94100D02*
Y94900D01*
X208100Y274500D02*
X208900D01*
X208500Y274100D02*
Y274900D01*
X218100Y254500D02*
X218900D01*
X218500Y254100D02*
Y254900D01*
X208100Y234500D02*
X208900D01*
X208500Y234100D02*
Y234900D01*
X208100Y194500D02*
X208900D01*
X208500Y194100D02*
Y194900D01*
X218100Y134500D02*
X218900D01*
X218500Y134100D02*
Y134900D01*
X208100Y114500D02*
X208900D01*
X208500Y114100D02*
Y114900D01*
X218100Y94500D02*
X218900D01*
X218500Y94100D02*
Y94900D01*
X218100Y54500D02*
X218900D01*
X218500Y54100D02*
Y54900D01*
X188100Y274500D02*
X188900D01*
X188500Y274100D02*
Y274900D01*
X198100Y254500D02*
X198900D01*
X198500Y254100D02*
Y254900D01*
X198100Y214500D02*
X198900D01*
X198500Y214100D02*
Y214900D01*
X198100Y174500D02*
X198900D01*
X198500Y174100D02*
Y174900D01*
X198100Y134500D02*
X198900D01*
X198500Y134100D02*
Y134900D01*
X198100Y94500D02*
X198900D01*
X198500Y94100D02*
Y94900D01*
X188100Y74500D02*
X188900D01*
X188500Y74100D02*
Y74900D01*
X198100Y54500D02*
X198900D01*
X198500Y54100D02*
Y54900D01*
X168100Y274500D02*
X168900D01*
X168500Y274100D02*
Y274900D01*
X178100Y254500D02*
X178900D01*
X178500Y254100D02*
Y254900D01*
X178100Y174500D02*
X178900D01*
X178500Y174100D02*
Y174900D01*
X168100Y154500D02*
X168900D01*
X168500Y154100D02*
Y154900D01*
X178100Y134500D02*
X178900D01*
X178500Y134100D02*
Y134900D01*
X168100Y114500D02*
X168900D01*
X168500Y114100D02*
Y114900D01*
X178100Y94500D02*
X178900D01*
X178500Y94100D02*
Y94900D01*
X168100Y74500D02*
X168900D01*
X168500Y74100D02*
Y74900D01*
X168100Y34500D02*
X168900D01*
X168500Y34100D02*
Y34900D01*
X168100Y-5500D02*
X168900D01*
X168500Y-5900D02*
Y-5100D01*
X158100Y254500D02*
X158900D01*
X158500Y254100D02*
Y254900D01*
X158100Y214500D02*
X158900D01*
X158500Y214100D02*
Y214900D01*
X148100Y194500D02*
X148900D01*
X148500Y194100D02*
Y194900D01*
X158100Y174500D02*
X158900D01*
X158500Y174100D02*
Y174900D01*
X148100Y154500D02*
X148900D01*
X148500Y154100D02*
Y154900D01*
X158100Y134500D02*
X158900D01*
X158500Y134100D02*
Y134900D01*
X148100Y114500D02*
X148900D01*
X148500Y114100D02*
Y114900D01*
X148100Y34500D02*
X148900D01*
X148500Y34100D02*
Y34900D01*
X148100Y-5500D02*
X148900D01*
X148500Y-5900D02*
Y-5100D01*
X138100Y214500D02*
X138900D01*
X138500Y214100D02*
Y214900D01*
X138100Y174500D02*
X138900D01*
X138500Y174100D02*
Y174900D01*
X128100Y154500D02*
X128900D01*
X128500Y154100D02*
Y154900D01*
X138100Y134500D02*
X138900D01*
X138500Y134100D02*
Y134900D01*
X128100Y114500D02*
X128900D01*
X128500Y114100D02*
Y114900D01*
X128100Y34500D02*
X128900D01*
X128500Y34100D02*
Y34900D01*
X128100Y-5500D02*
X128900D01*
X128500Y-5900D02*
Y-5100D01*
X118100Y254500D02*
X118900D01*
X118500Y254100D02*
Y254900D01*
X118100Y214500D02*
X118900D01*
X118500Y214100D02*
Y214900D01*
X118100Y174500D02*
X118900D01*
X118500Y174100D02*
Y174900D01*
X108100Y154500D02*
X108900D01*
X108500Y154100D02*
Y154900D01*
X108100Y114500D02*
X108900D01*
X108500Y114100D02*
Y114900D01*
X108100Y74500D02*
X108900D01*
X108500Y74100D02*
Y74900D01*
X108100Y34500D02*
X108900D01*
X108500Y34100D02*
Y34900D01*
X88100Y234500D02*
X88900D01*
X88500Y234100D02*
Y234900D01*
X98100Y214500D02*
X98900D01*
X98500Y214100D02*
Y214900D01*
X88100Y114500D02*
X88900D01*
X88500Y114100D02*
Y114900D01*
X98100Y94500D02*
X98900D01*
X98500Y94100D02*
Y94900D01*
X88100Y34500D02*
X88900D01*
X88500Y34100D02*
Y34900D01*
X98100Y14500D02*
X98900D01*
X98500Y14100D02*
Y14900D01*
X78100Y254500D02*
X78900D01*
X78500Y254100D02*
Y254900D01*
X68100Y234500D02*
X68900D01*
X68500Y234100D02*
Y234900D01*
X78100Y174500D02*
X78900D01*
X78500Y174100D02*
Y174900D01*
X78100Y134500D02*
X78900D01*
X78500Y134100D02*
Y134900D01*
X78100Y94500D02*
X78900D01*
X78500Y94100D02*
Y94900D01*
X78100Y54500D02*
X78900D01*
X78500Y54100D02*
Y54900D01*
X68100Y34500D02*
X68900D01*
X68500Y34100D02*
Y34900D01*
X78100Y14500D02*
X78900D01*
X78500Y14100D02*
Y14900D01*
X58100Y254500D02*
X58900D01*
X58500Y254100D02*
Y254900D01*
X58100Y214500D02*
X58900D01*
X58500Y214100D02*
Y214900D01*
X48100Y114500D02*
X48900D01*
X48500Y114100D02*
Y114900D01*
X58100Y94500D02*
X58900D01*
X58500Y94100D02*
Y94900D01*
X48100Y74500D02*
X48900D01*
X48500Y74100D02*
Y74900D01*
X48100Y34500D02*
X48900D01*
X48500Y34100D02*
Y34900D01*
X28100Y194500D02*
X28900D01*
X28500Y194100D02*
Y194900D01*
X28100Y114500D02*
X28900D01*
X28500Y114100D02*
Y114900D01*
X28100Y74500D02*
X28900D01*
X28500Y74100D02*
Y74900D01*
X38100Y54500D02*
X38900D01*
X38500Y54100D02*
Y54900D01*
X8100Y194500D02*
X8900D01*
X8500Y194100D02*
Y194900D01*
X18100Y174500D02*
X18900D01*
X18500Y174100D02*
Y174900D01*
X8100Y154500D02*
X8900D01*
X8500Y154100D02*
Y154900D01*
X18100Y134500D02*
X18900D01*
X18500Y134100D02*
Y134900D01*
X8100Y114500D02*
X8900D01*
X8500Y114100D02*
Y114900D01*
X18100Y94500D02*
X18900D01*
X18500Y94100D02*
Y94900D01*
X191045Y87655D02*
X191846D01*
X191446Y87255D02*
Y88055D01*
X190600Y103531D02*
X191400D01*
X191000Y103131D02*
Y103931D01*
X213196Y57500D02*
X213996D01*
X213596Y57100D02*
Y57900D01*
X233655Y78347D02*
X234455D01*
X234055Y77947D02*
Y78746D01*
X243314Y93554D02*
X244114D01*
X243714Y93154D02*
Y93954D01*
X248924Y106189D02*
X249724D01*
X249324Y105789D02*
Y106589D01*
X254759Y129461D02*
X255559D01*
X255159Y129061D02*
Y129861D01*
X255734Y141216D02*
X256535D01*
X256135Y140816D02*
Y141616D01*
X255334Y154331D02*
X256134D01*
X255734Y153931D02*
Y154731D01*
X253247Y167894D02*
X254047D01*
X253647Y167494D02*
Y168294D01*
X233846Y210335D02*
X234646D01*
X234246Y209935D02*
Y210735D01*
X203733Y237917D02*
X204533D01*
X204133Y237517D02*
Y238317D01*
X190387Y244971D02*
X191187D01*
X190787Y244571D02*
Y245371D01*
X176987Y249902D02*
X177787D01*
X177387Y249502D02*
Y250302D01*
X160919Y253642D02*
X161719D01*
X161319Y253242D02*
Y254042D01*
X127096Y252822D02*
X127896D01*
X127496Y252422D02*
Y253222D01*
X113773Y249902D02*
X114573D01*
X114173Y249502D02*
Y250302D01*
X99740Y244322D02*
X100540D01*
X100140Y243922D02*
Y244722D01*
X89265Y238878D02*
X90065D01*
X89665Y238478D02*
Y239278D01*
X79226Y232579D02*
X80026D01*
X79626Y232179D02*
Y232979D01*
X51864Y200886D02*
X52664D01*
X52264Y200486D02*
Y201286D01*
X47047Y192913D02*
X47847D01*
X47447Y192513D02*
Y193313D01*
X60200Y249308D02*
X61000D01*
X60600Y248908D02*
Y249708D01*
X73025Y258169D02*
X73825D01*
X73425Y257769D02*
Y258569D01*
X165053Y278051D02*
X165853D01*
X165453Y277651D02*
Y278451D01*
X180702Y275000D02*
X181502D01*
X181102Y274600D02*
Y275400D01*
X194974Y269980D02*
X195774D01*
X195374Y269580D02*
Y270380D01*
X208266Y264238D02*
X209066D01*
X208666Y263838D02*
Y264638D01*
X218990Y257776D02*
X219790D01*
X219390Y257376D02*
Y258176D01*
X232411Y248130D02*
X233211D01*
X232811Y247730D02*
Y248530D01*
X278461Y167894D02*
X279261D01*
X278861Y167494D02*
Y168294D01*
X280407Y154781D02*
X281207D01*
X280807Y154381D02*
Y155181D01*
X280407Y140551D02*
X281207D01*
X280807Y140151D02*
Y140951D01*
X278461Y121929D02*
X279261D01*
X278861Y121529D02*
Y122329D01*
X259600Y71536D02*
X260400D01*
X260000Y71136D02*
Y71936D01*
X252750Y61910D02*
X253550D01*
X253150Y61510D02*
Y62309D01*
X245527Y53706D02*
X246327D01*
X245927Y53306D02*
Y54106D01*
X38281Y63390D02*
X39081D01*
X38681Y62990D02*
Y63790D01*
X31577Y72200D02*
X32377D01*
X31977Y71800D02*
Y72600D01*
X18693Y98380D02*
X19493D01*
X19093Y97980D02*
Y98780D01*
X15643Y110980D02*
X16443D01*
X16043Y110580D02*
Y111380D01*
X12487Y126610D02*
X13287D01*
X12888Y126210D02*
Y127010D01*
X10639Y142300D02*
X11439D01*
X11039Y141900D02*
Y142700D01*
X19777Y192913D02*
X20577D01*
X20177Y192513D02*
Y193313D01*
X11392Y153541D02*
X12192D01*
X11792Y153140D02*
Y153940D01*
X12487Y165882D02*
X13287D01*
X12888Y165482D02*
Y166282D01*
X15643Y179921D02*
X16443D01*
X16043Y179521D02*
Y180321D01*
X45565Y256890D02*
X46365D01*
X45965Y256490D02*
Y257290D01*
X57572Y266535D02*
X58372D01*
X57972Y266135D02*
Y266935D01*
X69623Y274178D02*
X70423D01*
X70023Y273778D02*
Y274578D01*
X116591Y292000D02*
X117391D01*
X116991Y291600D02*
Y292400D01*
X133065Y293996D02*
X133865D01*
X133465Y293596D02*
Y294396D01*
X160132Y293701D02*
X160932D01*
X160531Y293301D02*
Y294101D01*
X177651Y291437D02*
X178451D01*
X178051Y291037D02*
Y291837D01*
X193104Y286910D02*
X193904D01*
X193504Y286509D02*
Y287310D01*
X207179Y281496D02*
X207979D01*
X207579Y281096D02*
Y281896D01*
X223321Y273031D02*
X224120D01*
X223721Y272632D02*
Y273431D01*
X236411Y264238D02*
X237211D01*
X236811Y263838D02*
Y264638D01*
X247632Y254232D02*
X248431D01*
X248031Y253832D02*
Y254632D01*
X294774Y161216D02*
X295574D01*
X295174Y160816D02*
Y161616D01*
X295860Y147047D02*
X296660D01*
X296260Y146647D02*
Y147447D01*
X295466Y133661D02*
X296266D01*
X295866Y133261D02*
Y134061D01*
X275092Y68701D02*
X275892D01*
X275492Y68301D02*
Y69101D01*
X268364Y58418D02*
X269164D01*
X268764Y58018D02*
Y58818D01*
X259600Y47138D02*
X260400D01*
X260000Y46738D02*
Y47538D01*
X248924Y35900D02*
X249724D01*
X249324Y35500D02*
Y36300D01*
X238145Y26600D02*
X238946D01*
X238545Y26200D02*
Y27000D01*
X228414Y19587D02*
X229214D01*
X228814Y19187D02*
Y19987D01*
X217809Y13189D02*
X218609D01*
X218209Y12789D02*
Y13589D01*
X205300Y7055D02*
X206100D01*
X205700Y6655D02*
Y7455D01*
X191529Y1772D02*
X192329D01*
X191929Y1372D02*
Y2172D01*
X175897Y-2241D02*
X176697D01*
X176297Y-2640D02*
Y-1840D01*
X160600Y-4579D02*
X161400D01*
X161000Y-4979D02*
Y-4179D01*
X144278Y-5325D02*
X145078D01*
X144677Y-5725D02*
Y-4924D01*
X126500Y-4110D02*
X127300D01*
X126900Y-4510D02*
Y-3710D01*
X110624Y-1181D02*
X111424D01*
X111024Y-1581D02*
Y-781D01*
X94939Y3479D02*
X95739D01*
X95339Y3079D02*
Y3879D01*
X80136Y9700D02*
X80936D01*
X80536Y9300D02*
Y10100D01*
X68104Y16226D02*
X68904D01*
X68504Y15826D02*
Y16626D01*
X57604Y23173D02*
X58404D01*
X58004Y22773D02*
Y23573D01*
X48164Y30600D02*
X48963D01*
X48564Y30200D02*
Y31000D01*
X39088Y39018D02*
X39888D01*
X39488Y38618D02*
Y39418D01*
X31183Y47627D02*
X31983D01*
X31583Y47227D02*
Y48027D01*
X24531Y56058D02*
X25331D01*
X24931Y55658D02*
Y56458D01*
X14220Y72200D02*
X15020D01*
X14620Y71800D02*
Y72600D01*
X3045Y97823D02*
X3845D01*
X3445Y97423D02*
Y98223D01*
X-892Y113681D02*
X-92D01*
X-492Y113281D02*
Y114081D01*
X-3353Y130709D02*
X-2553D01*
X-2953Y130309D02*
Y131109D01*
X-4435Y148130D02*
X-3635D01*
X-4035Y147730D02*
Y148530D01*
X-3353Y162200D02*
X-2553D01*
X-2953Y161800D02*
Y162600D01*
X-991Y176673D02*
X-191D01*
X-591Y176273D02*
Y177073D01*
X3045Y191437D02*
X3845D01*
X3445Y191037D02*
Y191837D01*
X8557Y205906D02*
X9357D01*
X8957Y205505D02*
Y206306D01*
X124202Y144770D02*
X125402D01*
X124802Y144170D02*
Y145370D01*
X212294Y194882D02*
X213494D01*
X212894Y194282D02*
Y195482D01*
X244781Y222547D02*
X245982D01*
X245381Y221947D02*
Y223147D01*
X38281Y137894D02*
X39081D01*
X38681Y137494D02*
Y138294D01*
X168298Y91732D02*
X169498D01*
X168898Y91132D02*
Y92332D01*
X170761Y104331D02*
X171561D01*
X171161Y103931D02*
Y104731D01*
X238179Y199311D02*
X239380D01*
X238779Y198711D02*
Y199911D01*
X235227Y236614D02*
X236427D01*
X235827Y236014D02*
Y237214D01*
X137887Y221752D02*
X138687D01*
X138287Y221352D02*
Y222152D01*
X142481Y221752D02*
X143281D01*
X142881Y221352D02*
Y222152D01*
X147074Y221752D02*
X147874D01*
X147474Y221352D02*
Y222152D01*
X147074Y218898D02*
X147874D01*
X147474Y218498D02*
Y219298D01*
X142481Y218898D02*
X143281D01*
X142881Y218498D02*
Y219298D01*
X137887Y218898D02*
X138687D01*
X138287Y218498D02*
Y219298D01*
X138380Y102362D02*
X139180D01*
X138779Y101962D02*
Y102762D01*
X142973Y102362D02*
X143773D01*
X143373Y101962D02*
Y102762D01*
X147566Y102362D02*
X148366D01*
X147966Y101962D02*
Y102762D01*
X152159Y102362D02*
X152959D01*
X152559Y101962D02*
Y102762D01*
X152159Y105217D02*
X152959D01*
X152559Y104816D02*
Y105616D01*
X147566Y105217D02*
X148366D01*
X147966Y104816D02*
Y105616D01*
X142973Y105217D02*
X143773D01*
X143373Y104816D02*
Y105616D01*
X138380Y105217D02*
X139180D01*
X138779Y104816D02*
Y105616D01*
X281290Y204134D02*
X282490D01*
X281890Y203534D02*
Y204734D01*
X279026Y210335D02*
X280226D01*
X279626Y209735D02*
Y210935D01*
X254616Y248130D02*
X255817D01*
X255217Y247530D02*
Y248730D01*
X73419Y115847D02*
X74219D01*
X73819Y115446D02*
Y116246D01*
X68104Y115650D02*
X68904D01*
X68504Y115250D02*
Y116050D01*
X63084Y116240D02*
X63884D01*
X63484Y115840D02*
Y116640D01*
X73124Y120768D02*
X73924D01*
X73524Y120368D02*
Y121168D01*
X62789Y120768D02*
X63589D01*
X63189Y120368D02*
Y121168D01*
X72139Y45276D02*
X72939D01*
X72539Y44876D02*
Y45676D01*
X90939Y27657D02*
X91739D01*
X91339Y27257D02*
Y28058D01*
X111805Y25197D02*
X112605D01*
X112205Y24797D02*
Y25597D01*
X132277Y16142D02*
X133077D01*
X132677Y15742D02*
Y16542D01*
X154915Y21457D02*
X155715D01*
X155315Y21057D02*
Y21857D01*
X177356Y19587D02*
X178156D01*
X177756Y19187D02*
Y19987D01*
X190151Y95086D02*
X190951D01*
X190551Y94686D02*
Y95486D01*
X216060Y43627D02*
X216860D01*
X216460Y43227D02*
Y44027D01*
X188758Y29724D02*
X189558D01*
X189158Y29324D02*
Y30124D01*
X199900Y39200D02*
X200700D01*
X200300Y38800D02*
Y39600D01*
X214473Y37305D02*
X215273D01*
X214873Y36905D02*
Y37705D01*
X168600Y11300D02*
X169400D01*
X169000Y10900D02*
Y11700D01*
X228600Y37700D02*
X229400D01*
X229000Y37300D02*
Y38100D01*
X232474Y56394D02*
X233274D01*
X232874Y55994D02*
Y56794D01*
X221300Y51600D02*
X222100D01*
X221700Y51200D02*
Y52000D01*
X210100Y25600D02*
X210900D01*
X210500Y25200D02*
Y26000D01*
X204869Y41000D02*
X205669D01*
X205269Y40600D02*
Y41400D01*
X188900Y38200D02*
X189700D01*
X189300Y37800D02*
Y38600D01*
X190600Y16900D02*
X191400D01*
X191000Y16500D02*
Y17300D01*
X180100Y34736D02*
X180900D01*
X180500Y34336D02*
Y35136D01*
X171600Y32400D02*
X172400D01*
X172000Y32000D02*
Y32800D01*
X146400Y9700D02*
X147200D01*
X146800Y9300D02*
Y10100D01*
X160600Y31300D02*
X161400D01*
X161000Y30900D02*
Y31700D01*
X152700Y30100D02*
X153500D01*
X153100Y29700D02*
Y30500D01*
X137700Y31000D02*
X138500D01*
X138100Y30600D02*
Y31400D01*
X131300Y30600D02*
X132100D01*
X131700Y30200D02*
Y31000D01*
X121700Y11500D02*
X122500D01*
X122100Y11100D02*
Y11900D01*
X100000Y17700D02*
X100800D01*
X100400Y17300D02*
Y18100D01*
X119600Y33800D02*
X120400D01*
X120000Y33400D02*
Y34200D01*
X113300Y34800D02*
X114100D01*
X113700Y34400D02*
Y35200D01*
X69400Y59300D02*
X70200D01*
X69800Y58900D02*
Y59700D01*
X84900Y48300D02*
X85700D01*
X85300Y47900D02*
Y48700D01*
X101000Y38800D02*
X101800D01*
X101400Y38400D02*
Y39200D01*
X94800Y41400D02*
X95600D01*
X95200Y41000D02*
Y41800D01*
X78900Y27500D02*
X79700D01*
X79300Y27100D02*
Y27900D01*
X78800Y51700D02*
X79600D01*
X79200Y51300D02*
Y52100D01*
X60400Y39500D02*
X61200D01*
X60800Y39100D02*
Y39900D01*
X44700Y55200D02*
X45500D01*
X45100Y54800D02*
Y55600D01*
X64200Y63313D02*
X65000D01*
X64600Y62913D02*
Y63713D01*
X60200Y185300D02*
X61000D01*
X60600Y184900D02*
Y185700D01*
X56900Y185300D02*
X57700D01*
X57300Y184900D02*
Y185700D01*
X53300Y185300D02*
X54100D01*
X53700Y184900D02*
Y185700D01*
X50114Y185300D02*
X50914D01*
X50514Y184900D02*
Y185700D01*
X46700Y185300D02*
X47500D01*
X47100Y184900D02*
Y185700D01*
X75000Y168800D02*
X75800D01*
X75400Y168400D02*
Y169200D01*
X74800Y162200D02*
X75600D01*
X75200Y161800D02*
Y162600D01*
X74500Y145500D02*
X75300D01*
X74900Y145100D02*
Y145900D01*
X70192Y151200D02*
X70992D01*
X70592Y150800D02*
Y151600D01*
X74800Y154100D02*
X75600D01*
X75200Y153700D02*
Y154500D01*
X197300Y45100D02*
X198100D01*
X197700Y44700D02*
Y45500D01*
X196900Y59600D02*
X197700D01*
X197300Y59200D02*
Y60000D01*
X201600Y46800D02*
X202400D01*
X202000Y46400D02*
Y47200D01*
X201600Y49481D02*
X202400D01*
X202000Y49081D02*
Y49881D01*
X201600Y52200D02*
X202400D01*
X202000Y51800D02*
Y52600D01*
X201500Y54900D02*
X202300D01*
X201900Y54500D02*
Y55300D01*
X201500Y57500D02*
X202300D01*
X201900Y57100D02*
Y57900D01*
X68500Y145800D02*
X69300D01*
X68900Y145400D02*
Y146200D01*
X95600Y72200D02*
X96400D01*
X96000Y71800D02*
Y72600D01*
X155000Y56300D02*
X155800D01*
X155400Y55900D02*
Y56700D01*
X150500Y56400D02*
X151300D01*
X150900Y56000D02*
Y56800D01*
X145700Y56300D02*
X146500D01*
X146100Y55900D02*
Y56700D01*
X140800Y56300D02*
X141600D01*
X141200Y55900D02*
Y56700D01*
X136300Y56300D02*
X137100D01*
X136700Y55900D02*
Y56700D01*
X131800Y56400D02*
X132600D01*
X132200Y56000D02*
Y56800D01*
X126500Y56300D02*
X127300D01*
X126900Y55900D02*
Y56700D01*
X121978Y56300D02*
X122778D01*
X122378Y55900D02*
Y56700D01*
X117500Y56300D02*
X118300D01*
X117900Y55900D02*
Y56700D01*
M02*
