G04*
G04 #@! TF.GenerationSoftware,Altium Limited,Altium Designer,18.1.9 (240)*
G04*
G04 Layer_Color=32768*
%FSLAX25Y25*%
%MOIN*%
G70*
G01*
G75*
%ADD16C,0.00100*%
%ADD17C,0.00394*%
%ADD41C,0.00197*%
D16*
X383000Y357500D02*
X382025Y357404D01*
X381087Y357119D01*
X380222Y356657D01*
X379465Y356035D01*
X378843Y355278D01*
X378381Y354413D01*
X378096Y353475D01*
X378000Y352500D01*
X478000D02*
X477904Y353475D01*
X477619Y354413D01*
X477157Y355278D01*
X476536Y356035D01*
X475778Y356657D01*
X474913Y357119D01*
X473976Y357404D01*
X473000Y357500D01*
Y227500D02*
X473976Y227596D01*
X474913Y227881D01*
X475778Y228343D01*
X476536Y228964D01*
X477157Y229722D01*
X477619Y230587D01*
X477904Y231524D01*
X478000Y232500D01*
X385500D02*
X385596Y231524D01*
X385881Y230587D01*
X386343Y229722D01*
X386965Y228964D01*
X387722Y228343D01*
X388587Y227881D01*
X389525Y227596D01*
X390500Y227500D01*
X478000Y232500D02*
Y352500D01*
X378000Y257500D02*
Y352500D01*
X382874Y357500D02*
X472874D01*
X378000Y257500D02*
X385500Y252500D01*
Y232500D02*
Y252500D01*
D17*
X452500Y274031D02*
Y277969D01*
X450531Y276000D02*
X454468D01*
X426029Y293630D02*
X432722D01*
X426029Y297370D02*
X432722D01*
Y293630D02*
Y297370D01*
X426029Y293630D02*
Y297370D01*
X449646Y280331D02*
X455354D01*
X449646Y271669D02*
X455354D01*
Y280331D01*
X449646Y271669D02*
Y280331D01*
X445870Y333154D02*
Y339846D01*
X442130Y333154D02*
Y339846D01*
X445870D01*
X442130Y333154D02*
X445870D01*
X434370Y333197D02*
Y339890D01*
X430630Y333197D02*
Y339890D01*
X434370D01*
X430630Y333197D02*
X434370D01*
D41*
X429375Y293630D02*
Y297370D01*
X427505Y295500D02*
X431245D01*
X421698Y291366D02*
X437052D01*
X421698Y299634D02*
X437052D01*
Y291366D02*
Y299634D01*
X421698Y291366D02*
Y299634D01*
X449350Y281512D02*
X455650D01*
X449350Y270488D02*
X455650D01*
Y281512D01*
X449350Y270488D02*
Y281512D01*
X442130Y336500D02*
X445870D01*
X444000Y334630D02*
Y338370D01*
X448134Y328823D02*
Y344177D01*
X439866Y328823D02*
Y344177D01*
X448134D01*
X439866Y328823D02*
X448134D01*
X430630Y336543D02*
X434370D01*
X432500Y334673D02*
Y338413D01*
X436634Y328866D02*
Y344220D01*
X428366Y328866D02*
Y344220D01*
X436634D01*
X428366Y328866D02*
X436634D01*
M02*
