G04*
G04 #@! TF.GenerationSoftware,Altium Limited,Altium Designer,18.1.9 (240)*
G04*
G04 Layer_Physical_Order=1*
G04 Layer_Color=255*
%FSLAX25Y25*%
%MOIN*%
G70*
G01*
G75*
%ADD11C,0.01000*%
%ADD16C,0.00100*%
%ADD17C,0.00394*%
%ADD18R,0.06299X0.05118*%
%ADD19R,0.04331X0.04331*%
%ADD20R,0.05315X0.03740*%
%ADD21R,0.04331X0.04331*%
%ADD30C,0.02400*%
%ADD33C,0.02000*%
%ADD34C,0.04000*%
%ADD35C,0.06000*%
%ADD36R,0.05810X0.05810*%
%ADD37R,0.06299X0.06299*%
%ADD38C,0.06299*%
%ADD39C,0.01600*%
%ADD40C,0.03150*%
G36*
X472874Y356429D02*
X473000Y356429D01*
D01*
X473491Y356369D01*
X474018Y356300D01*
X474967Y355907D01*
X475781Y355281D01*
X476407Y354467D01*
X476800Y353518D01*
X476932Y352513D01*
X476929Y352500D01*
Y336905D01*
X469595D01*
Y329095D01*
X476929D01*
Y325879D01*
X476456Y325718D01*
X476353Y325853D01*
X475517Y326494D01*
X474544Y326897D01*
X473500Y327034D01*
X472456Y326897D01*
X471483Y326494D01*
X470647Y325853D01*
X470006Y325017D01*
X469603Y324044D01*
X469465Y323000D01*
X469603Y321956D01*
X470006Y320983D01*
X470647Y320147D01*
X471483Y319506D01*
X472456Y319103D01*
X473500Y318966D01*
X474544Y319103D01*
X475517Y319506D01*
X476353Y320147D01*
X476456Y320282D01*
X476929Y320121D01*
Y315879D01*
X476456Y315718D01*
X476353Y315853D01*
X475517Y316494D01*
X474544Y316897D01*
X473500Y317035D01*
X472456Y316897D01*
X471483Y316494D01*
X470647Y315853D01*
X470006Y315017D01*
X469603Y314044D01*
X469465Y313000D01*
X469603Y311956D01*
X470006Y310983D01*
X470647Y310147D01*
X471483Y309506D01*
X472456Y309103D01*
X473500Y308965D01*
X474544Y309103D01*
X475517Y309506D01*
X476353Y310147D01*
X476456Y310282D01*
X476929Y310121D01*
Y305879D01*
X476456Y305718D01*
X476353Y305853D01*
X475517Y306494D01*
X474544Y306897D01*
X473500Y307034D01*
X472483Y306901D01*
X456039Y323345D01*
Y337500D01*
X455884Y338280D01*
X455442Y338942D01*
X452899Y341485D01*
X452237Y341927D01*
X451457Y342083D01*
X447165D01*
Y343209D01*
X446039D01*
Y347644D01*
X446625Y348407D01*
X447043Y349417D01*
X447185Y350500D01*
X447043Y351583D01*
X446625Y352593D01*
X445960Y353460D01*
X445093Y354125D01*
X444083Y354543D01*
X443000Y354685D01*
X441917Y354543D01*
X440907Y354125D01*
X440040Y353460D01*
X439375Y352593D01*
X438957Y351583D01*
X438815Y350500D01*
X438957Y349417D01*
X439375Y348407D01*
X440040Y347540D01*
X440907Y346875D01*
X441917Y346457D01*
X441961Y346451D01*
Y343209D01*
X440835D01*
Y336878D01*
X447165D01*
Y338004D01*
X450612D01*
X451961Y336655D01*
Y322500D01*
X452116Y321720D01*
X452558Y321058D01*
X469599Y304017D01*
X469465Y303000D01*
X469603Y301956D01*
X470006Y300983D01*
X470647Y300147D01*
X471483Y299506D01*
X472456Y299103D01*
X473500Y298966D01*
X474544Y299103D01*
X475517Y299506D01*
X476353Y300147D01*
X476456Y300282D01*
X476929Y300121D01*
Y295879D01*
X476456Y295718D01*
X476353Y295853D01*
X475517Y296494D01*
X474544Y296897D01*
X473500Y297035D01*
X472456Y296897D01*
X471483Y296494D01*
X470873Y296026D01*
X453000D01*
X452217Y295923D01*
X451487Y295620D01*
X450860Y295140D01*
X443500Y287779D01*
X437026Y294253D01*
Y295000D01*
X436923Y295783D01*
X436621Y296513D01*
X436140Y297140D01*
X436084Y297195D01*
Y298665D01*
X429753D01*
Y292335D01*
X431062D01*
X431077Y292217D01*
X431380Y291487D01*
X431860Y290860D01*
X435733Y286988D01*
X435542Y286526D01*
X416276D01*
Y287417D01*
X407976D01*
Y280299D01*
X416276D01*
Y280474D01*
X439472D01*
Y280299D01*
X442421D01*
X445711Y277010D01*
X445711Y277010D01*
X446337Y276529D01*
X447067Y276227D01*
X447850Y276124D01*
X452500D01*
X453283Y276227D01*
X453410Y276279D01*
X456157D01*
Y282020D01*
X453410D01*
X453283Y282072D01*
X452500Y282175D01*
X449104D01*
X447779Y283500D01*
X454253Y289974D01*
X470873D01*
X471483Y289506D01*
X472456Y289103D01*
X473500Y288966D01*
X474544Y289103D01*
X475517Y289506D01*
X476353Y290147D01*
X476456Y290282D01*
X476929Y290121D01*
Y285879D01*
X476456Y285718D01*
X476353Y285853D01*
X475517Y286494D01*
X474544Y286897D01*
X473500Y287035D01*
X472456Y286897D01*
X471483Y286494D01*
X470647Y285853D01*
X470006Y285017D01*
X469603Y284044D01*
X469465Y283000D01*
X469603Y281956D01*
X470006Y280983D01*
X470647Y280147D01*
X471483Y279506D01*
X472456Y279103D01*
X473500Y278965D01*
X474544Y279103D01*
X475517Y279506D01*
X476353Y280147D01*
X476456Y280282D01*
X476929Y280121D01*
Y265879D01*
X476456Y265718D01*
X476353Y265853D01*
X475517Y266494D01*
X474544Y266897D01*
X473500Y267035D01*
X472456Y266897D01*
X471483Y266494D01*
X470647Y265853D01*
X470006Y265017D01*
X469603Y264044D01*
X469465Y263000D01*
X469603Y261956D01*
X470006Y260983D01*
X470647Y260147D01*
X471483Y259506D01*
X472456Y259103D01*
X473500Y258965D01*
X474544Y259103D01*
X475517Y259506D01*
X476353Y260147D01*
X476456Y260282D01*
X476929Y260121D01*
Y232500D01*
X476932Y232487D01*
X476800Y231482D01*
X476407Y230533D01*
X475781Y229718D01*
X474967Y229093D01*
X474018Y228700D01*
X473476Y228629D01*
X473000Y228571D01*
X472590Y228489D01*
X472546Y228460D01*
X472243Y228257D01*
X472071Y228000D01*
X391429D01*
X391257Y228257D01*
X390955Y228459D01*
X390910Y228489D01*
X390500Y228571D01*
X390024Y228629D01*
X389482Y228700D01*
X389171Y228829D01*
X386829Y231171D01*
X386700Y231482D01*
X386568Y232487D01*
X386571Y232500D01*
Y252500D01*
X386550Y252604D01*
X386550Y252710D01*
X386509Y252807D01*
X386489Y252910D01*
X386430Y252998D01*
X386389Y253096D01*
X386315Y253170D01*
X386257Y253257D01*
X386169Y253316D01*
X386094Y253391D01*
X381640Y256360D01*
X379071Y258929D01*
Y262169D01*
X379571Y262202D01*
X379603Y261956D01*
X380006Y260983D01*
X380647Y260147D01*
X381483Y259506D01*
X382456Y259103D01*
X383500Y258965D01*
X384544Y259103D01*
X385517Y259506D01*
X386353Y260147D01*
X386994Y260983D01*
X387397Y261956D01*
X387534Y263000D01*
X387397Y264044D01*
X386994Y265017D01*
X386353Y265853D01*
X385517Y266494D01*
X384544Y266897D01*
X383500Y267035D01*
X382456Y266897D01*
X381483Y266494D01*
X380647Y265853D01*
X380006Y265017D01*
X379603Y264044D01*
X379571Y263798D01*
X379071Y263831D01*
Y272169D01*
X379571Y272202D01*
X379603Y271956D01*
X380006Y270983D01*
X380647Y270147D01*
X381483Y269506D01*
X382456Y269103D01*
X383500Y268966D01*
X384544Y269103D01*
X385517Y269506D01*
X386353Y270147D01*
X386994Y270983D01*
X387397Y271956D01*
X387534Y273000D01*
X387397Y274044D01*
X386994Y275017D01*
X386353Y275853D01*
X385517Y276494D01*
X384544Y276897D01*
X383500Y277034D01*
X382456Y276897D01*
X381483Y276494D01*
X380647Y275853D01*
X380006Y275017D01*
X379603Y274044D01*
X379571Y273798D01*
X379071Y273831D01*
Y282169D01*
X379571Y282202D01*
X379603Y281956D01*
X380006Y280983D01*
X380647Y280147D01*
X381483Y279506D01*
X382456Y279103D01*
X383500Y278965D01*
X384544Y279103D01*
X385517Y279506D01*
X386353Y280147D01*
X386994Y280983D01*
X387397Y281956D01*
X387534Y283000D01*
X387397Y284044D01*
X386994Y285017D01*
X386353Y285853D01*
X385517Y286494D01*
X384544Y286897D01*
X383500Y287035D01*
X382456Y286897D01*
X381483Y286494D01*
X380647Y285853D01*
X380006Y285017D01*
X379603Y284044D01*
X379571Y283798D01*
X379071Y283831D01*
Y292169D01*
X379571Y292202D01*
X379603Y291956D01*
X380006Y290983D01*
X380647Y290147D01*
X381483Y289506D01*
X382456Y289103D01*
X383500Y288966D01*
X384544Y289103D01*
X385517Y289506D01*
X386353Y290147D01*
X386994Y290983D01*
X387397Y291956D01*
X387534Y293000D01*
X387397Y294044D01*
X386994Y295017D01*
X386353Y295853D01*
X385517Y296494D01*
X384544Y296897D01*
X383500Y297035D01*
X382456Y296897D01*
X381483Y296494D01*
X380647Y295853D01*
X380006Y295017D01*
X379603Y294044D01*
X379571Y293798D01*
X379071Y293831D01*
Y302169D01*
X379571Y302202D01*
X379603Y301956D01*
X380006Y300983D01*
X380647Y300147D01*
X381483Y299506D01*
X382456Y299103D01*
X383500Y298966D01*
X384544Y299103D01*
X385517Y299506D01*
X386353Y300147D01*
X386994Y300983D01*
X387397Y301956D01*
X387534Y303000D01*
X387397Y304044D01*
X386994Y305017D01*
X386353Y305853D01*
X385517Y306494D01*
X384544Y306897D01*
X383500Y307034D01*
X382456Y306897D01*
X381483Y306494D01*
X380647Y305853D01*
X380006Y305017D01*
X379603Y304044D01*
X379571Y303798D01*
X379071Y303831D01*
Y312169D01*
X379571Y312202D01*
X379603Y311956D01*
X380006Y310983D01*
X380647Y310147D01*
X381483Y309506D01*
X382456Y309103D01*
X383500Y308965D01*
X384544Y309103D01*
X385517Y309506D01*
X386353Y310147D01*
X386994Y310983D01*
X387397Y311956D01*
X387534Y313000D01*
X387397Y314044D01*
X386994Y315017D01*
X386353Y315853D01*
X385517Y316494D01*
X384544Y316897D01*
X383500Y317035D01*
X382456Y316897D01*
X381483Y316494D01*
X380647Y315853D01*
X380006Y315017D01*
X379603Y314044D01*
X379571Y313798D01*
X379071Y313831D01*
Y322169D01*
X379571Y322202D01*
X379603Y321956D01*
X380006Y320983D01*
X380647Y320147D01*
X381483Y319506D01*
X382456Y319103D01*
X383500Y318966D01*
X384544Y319103D01*
X385517Y319506D01*
X386353Y320147D01*
X386994Y320983D01*
X387397Y321956D01*
X387534Y323000D01*
X387397Y324044D01*
X386994Y325017D01*
X386353Y325853D01*
X385517Y326494D01*
X384544Y326897D01*
X383500Y327034D01*
X382456Y326897D01*
X381483Y326494D01*
X380647Y325853D01*
X380006Y325017D01*
X379603Y324044D01*
X379571Y323798D01*
X379071Y323831D01*
Y352500D01*
X379068Y352513D01*
X379200Y353518D01*
X379593Y354467D01*
X380219Y355281D01*
X381033Y355907D01*
X381982Y356300D01*
X382968Y356429D01*
X472874D01*
D02*
G37*
%LPC*%
G36*
X423000Y354685D02*
X421917Y354543D01*
X420907Y354125D01*
X420041Y353460D01*
X419375Y352593D01*
X418957Y351583D01*
X418815Y350500D01*
X418957Y349417D01*
X419375Y348407D01*
X420041Y347540D01*
X420907Y346875D01*
X421917Y346457D01*
X423000Y346315D01*
X424083Y346457D01*
X425093Y346875D01*
X425959Y347540D01*
X426625Y348407D01*
X427043Y349417D01*
X427185Y350500D01*
X427043Y351583D01*
X426625Y352593D01*
X425959Y353460D01*
X425093Y354125D01*
X424083Y354543D01*
X423000Y354685D01*
D02*
G37*
G36*
X433000D02*
X431917Y354543D01*
X430907Y354125D01*
X430041Y353460D01*
X429375Y352593D01*
X428957Y351583D01*
X428815Y350500D01*
X428957Y349417D01*
X429375Y348407D01*
X430041Y347540D01*
X430461Y347218D01*
Y343252D01*
X429335D01*
Y336921D01*
X435665D01*
Y338163D01*
X435867Y338203D01*
X436528Y338645D01*
X437830Y339947D01*
X438172Y339991D01*
X438799Y340251D01*
X439336Y340664D01*
X439749Y341201D01*
X440008Y341828D01*
X440097Y342500D01*
X440008Y343172D01*
X439749Y343798D01*
X439336Y344336D01*
X438799Y344749D01*
X438172Y345008D01*
X437500Y345097D01*
X436828Y345008D01*
X436201Y344749D01*
X435664Y344336D01*
X435251Y343798D01*
X435024Y343252D01*
X434539D01*
Y346646D01*
X435093Y346875D01*
X435959Y347540D01*
X436625Y348407D01*
X437043Y349417D01*
X437185Y350500D01*
X437043Y351583D01*
X436625Y352593D01*
X435959Y353460D01*
X435093Y354125D01*
X434083Y354543D01*
X433000Y354685D01*
D02*
G37*
G36*
X435665Y336165D02*
X429335D01*
Y336026D01*
X423000D01*
X422217Y335923D01*
X421487Y335620D01*
X420860Y335140D01*
X420379Y334513D01*
X420077Y333783D01*
X419974Y333000D01*
X420077Y332217D01*
X420379Y331487D01*
X420860Y330860D01*
X421487Y330380D01*
X422217Y330077D01*
X423000Y329974D01*
X429335D01*
Y329835D01*
X435665D01*
Y329931D01*
X440835D01*
Y329791D01*
X447165D01*
Y336122D01*
X440835D01*
Y335983D01*
X435665D01*
Y336165D01*
D02*
G37*
G36*
X387405Y336905D02*
X379595D01*
Y329095D01*
X387405D01*
Y336905D01*
D02*
G37*
G36*
X428997Y298665D02*
X422667D01*
Y298526D01*
X422500D01*
X422500Y298526D01*
X420077D01*
X419294Y298423D01*
X418564Y298120D01*
X417938Y297640D01*
X417457Y297013D01*
X417154Y296283D01*
X417051Y295500D01*
X417154Y294717D01*
X417457Y293987D01*
X417938Y293360D01*
X418564Y292880D01*
X419294Y292577D01*
X420077Y292474D01*
X422500D01*
X422667Y292335D01*
Y292335D01*
X428997D01*
Y298665D01*
D02*
G37*
%LPD*%
D11*
X471000Y313000D02*
X473500D01*
D16*
X383000Y357500D02*
X382025Y357404D01*
X381087Y357119D01*
X380222Y356657D01*
X379465Y356035D01*
X378843Y355278D01*
X378381Y354413D01*
X378096Y353475D01*
X378000Y352500D01*
X478000D02*
X477904Y353475D01*
X477619Y354413D01*
X477157Y355278D01*
X476536Y356035D01*
X475778Y356657D01*
X474913Y357119D01*
X473976Y357404D01*
X473000Y357500D01*
Y227500D02*
X473976Y227596D01*
X474913Y227881D01*
X475778Y228343D01*
X476536Y228964D01*
X477157Y229722D01*
X477619Y230587D01*
X477904Y231524D01*
X478000Y232500D01*
X385500D02*
X385596Y231524D01*
X385881Y230587D01*
X386343Y229722D01*
X386965Y228964D01*
X387722Y228343D01*
X388587Y227881D01*
X389525Y227596D01*
X390500Y227500D01*
X478000Y232500D02*
Y352500D01*
X378000Y257500D02*
Y352500D01*
X382874Y357500D02*
X472874D01*
X378000Y257500D02*
X385500Y252500D01*
Y232500D02*
Y252500D01*
D17*
X426029Y293630D02*
X432722D01*
X426029Y297370D02*
X432722D01*
Y293630D02*
Y297370D01*
X426029Y293630D02*
Y297370D01*
X449646Y280331D02*
X455354D01*
X449646Y271669D02*
X455354D01*
Y280331D01*
X449646Y271669D02*
Y280331D01*
X445870Y333154D02*
Y339846D01*
X442130Y333154D02*
Y339846D01*
X445870D01*
X442130Y333154D02*
X445870D01*
X434370Y333197D02*
Y339890D01*
X430630Y333197D02*
Y339890D01*
X434370D01*
X430630Y333197D02*
X434370D01*
D18*
X412126Y266142D02*
D03*
Y283858D02*
D03*
X443622Y266142D02*
D03*
Y283858D02*
D03*
D19*
X432919Y295500D02*
D03*
X425832D02*
D03*
D20*
X452500Y279150D02*
D03*
Y272850D02*
D03*
D21*
X444000Y340043D02*
D03*
Y332957D02*
D03*
X432500Y340087D02*
D03*
Y333000D02*
D03*
D30*
X420500Y295500D02*
D03*
X423000Y333000D02*
D03*
D33*
X432500Y340087D02*
X435087D01*
X454000Y322500D02*
X473500Y303000D01*
X444000Y340043D02*
X451457D01*
X454000Y337500D01*
Y322500D02*
Y337500D01*
X435087Y340087D02*
X437500Y342500D01*
X443000Y350500D02*
X444000Y349500D01*
Y340043D02*
Y349500D01*
X432500Y350000D02*
X433000Y350500D01*
X432500Y340087D02*
Y350000D01*
D34*
X420500Y295500D02*
X422500D01*
X420077D02*
X420500D01*
X422500D02*
X422500Y295500D01*
X425832D01*
X443500Y283500D02*
X453000Y293000D01*
X434000D02*
X443500Y283500D01*
X411858D02*
X443500D01*
X433500Y295500D02*
X434000Y295000D01*
Y293000D02*
Y295000D01*
X423000Y333000D02*
X432500D01*
X443500Y283500D02*
X447850Y279150D01*
X452500D01*
X453000Y293000D02*
X473500D01*
X432500Y333000D02*
X432543Y332957D01*
X444000D01*
D35*
X383500Y263000D02*
D03*
Y273000D02*
D03*
Y283000D02*
D03*
Y293000D02*
D03*
Y303000D02*
D03*
Y313000D02*
D03*
Y323000D02*
D03*
X473500Y263000D02*
D03*
Y273000D02*
D03*
Y283000D02*
D03*
Y293000D02*
D03*
Y303000D02*
D03*
Y313000D02*
D03*
Y323000D02*
D03*
D36*
X383500Y333000D02*
D03*
X473500D02*
D03*
D37*
X413000Y350500D02*
D03*
D38*
X423000D02*
D03*
X433000D02*
D03*
X443000D02*
D03*
D39*
X475000Y255000D02*
D03*
Y235000D02*
D03*
X465000Y355000D02*
D03*
X470000Y345000D02*
D03*
X465000Y335000D02*
D03*
Y275000D02*
D03*
Y255000D02*
D03*
X470000Y245000D02*
D03*
X465000Y235000D02*
D03*
X455000Y355000D02*
D03*
X460000Y345000D02*
D03*
X455000Y315000D02*
D03*
X460000Y305000D02*
D03*
Y285000D02*
D03*
Y265000D02*
D03*
X455000Y255000D02*
D03*
Y235000D02*
D03*
X450000Y345000D02*
D03*
Y325000D02*
D03*
X445000Y315000D02*
D03*
X450000Y305000D02*
D03*
X445000Y295000D02*
D03*
Y275000D02*
D03*
X450000Y265000D02*
D03*
X445000Y255000D02*
D03*
Y235000D02*
D03*
X440000Y325000D02*
D03*
X435000Y315000D02*
D03*
X440000Y305000D02*
D03*
X435000Y275000D02*
D03*
Y255000D02*
D03*
Y235000D02*
D03*
X430000Y325000D02*
D03*
X425000Y315000D02*
D03*
X430000Y305000D02*
D03*
X425000Y275000D02*
D03*
X430000Y265000D02*
D03*
X425000Y255000D02*
D03*
X415000Y335000D02*
D03*
Y315000D02*
D03*
Y295000D02*
D03*
X420000Y265000D02*
D03*
X415000Y255000D02*
D03*
Y235000D02*
D03*
X405000Y355000D02*
D03*
X410000Y345000D02*
D03*
X405000Y335000D02*
D03*
X410000Y325000D02*
D03*
X405000Y315000D02*
D03*
X410000Y305000D02*
D03*
X405000Y295000D02*
D03*
Y275000D02*
D03*
Y255000D02*
D03*
Y235000D02*
D03*
X395000Y355000D02*
D03*
X400000Y345000D02*
D03*
X395000Y335000D02*
D03*
X400000Y325000D02*
D03*
X395000Y315000D02*
D03*
X400000Y305000D02*
D03*
X395000Y295000D02*
D03*
X400000Y285000D02*
D03*
X395000Y275000D02*
D03*
Y255000D02*
D03*
Y235000D02*
D03*
X385000Y355000D02*
D03*
X390000Y345000D02*
D03*
Y325000D02*
D03*
Y305000D02*
D03*
Y285000D02*
D03*
Y245000D02*
D03*
D40*
X437500Y342500D02*
D03*
M02*
