G04*
G04 #@! TF.GenerationSoftware,Altium Limited,Altium Designer,18.1.9 (240)*
G04*
G04 Layer_Color=255*
%FSLAX25Y25*%
%MOIN*%
G70*
G01*
G75*
%ADD16C,0.00100*%
%ADD17C,0.00394*%
%ADD18R,0.06299X0.05118*%
%ADD19R,0.04331X0.04331*%
%ADD20R,0.05315X0.03740*%
%ADD21R,0.04331X0.04331*%
%ADD35C,0.06000*%
%ADD36R,0.05810X0.05810*%
%ADD37R,0.06299X0.06299*%
%ADD38C,0.06299*%
D16*
X383000Y357500D02*
X382025Y357404D01*
X381087Y357119D01*
X380222Y356657D01*
X379465Y356035D01*
X378843Y355278D01*
X378381Y354413D01*
X378096Y353475D01*
X378000Y352500D01*
X478000D02*
X477904Y353475D01*
X477619Y354413D01*
X477157Y355278D01*
X476536Y356035D01*
X475778Y356657D01*
X474913Y357119D01*
X473976Y357404D01*
X473000Y357500D01*
Y227500D02*
X473976Y227596D01*
X474913Y227881D01*
X475778Y228343D01*
X476536Y228964D01*
X477157Y229722D01*
X477619Y230587D01*
X477904Y231524D01*
X478000Y232500D01*
X385500D02*
X385596Y231524D01*
X385881Y230587D01*
X386343Y229722D01*
X386965Y228964D01*
X387722Y228343D01*
X388587Y227881D01*
X389525Y227596D01*
X390500Y227500D01*
X478000Y232500D02*
Y352500D01*
X378000Y257500D02*
Y352500D01*
X382874Y357500D02*
X472874D01*
X378000Y257500D02*
X385500Y252500D01*
Y232500D02*
Y252500D01*
D17*
X426029Y293630D02*
X432722D01*
X426029Y297370D02*
X432722D01*
Y293630D02*
Y297370D01*
X426029Y293630D02*
Y297370D01*
X449646Y280331D02*
X455354D01*
X449646Y271669D02*
X455354D01*
Y280331D01*
X449646Y271669D02*
Y280331D01*
X445870Y333154D02*
Y339846D01*
X442130Y333154D02*
Y339846D01*
X445870D01*
X442130Y333154D02*
X445870D01*
X434370Y333197D02*
Y339890D01*
X430630Y333197D02*
Y339890D01*
X434370D01*
X430630Y333197D02*
X434370D01*
D18*
X412126Y266142D02*
D03*
Y283858D02*
D03*
X443622Y266142D02*
D03*
Y283858D02*
D03*
D19*
X432919Y295500D02*
D03*
X425832D02*
D03*
D20*
X452500Y279150D02*
D03*
Y272850D02*
D03*
D21*
X444000Y340043D02*
D03*
Y332957D02*
D03*
X432500Y340087D02*
D03*
Y333000D02*
D03*
D35*
X383500Y263000D02*
D03*
Y273000D02*
D03*
Y283000D02*
D03*
Y293000D02*
D03*
Y303000D02*
D03*
Y313000D02*
D03*
Y323000D02*
D03*
X473500Y263000D02*
D03*
Y273000D02*
D03*
Y283000D02*
D03*
Y293000D02*
D03*
Y303000D02*
D03*
Y313000D02*
D03*
Y323000D02*
D03*
D36*
X383500Y333000D02*
D03*
X473500D02*
D03*
D37*
X413000Y350500D02*
D03*
D38*
X423000D02*
D03*
X433000D02*
D03*
X443000D02*
D03*
M02*
