G04*
G04 #@! TF.GenerationSoftware,Altium Limited,Altium Designer,18.1.9 (240)*
G04*
G04 Layer_Color=65535*
%FSLAX25Y25*%
%MOIN*%
G70*
G01*
G75*
%ADD10C,0.00394*%
%ADD11C,0.01000*%
%ADD12C,0.00787*%
%ADD13C,0.00500*%
%ADD14C,0.00446*%
%ADD15C,0.00408*%
%ADD16C,0.00100*%
%ADD17C,0.00394*%
D10*
X429572Y295500D02*
D03*
X452697Y276000D02*
D03*
X444197Y336500D02*
D03*
X432697Y336543D02*
D03*
D11*
X416063Y287992D02*
X439685D01*
Y262008D02*
Y287992D01*
X416063Y262008D02*
X439685D01*
X416063D02*
Y287992D01*
X418032Y265945D02*
X437716D01*
X418032Y282874D02*
X437716D01*
X427874Y278937D02*
Y282874D01*
Y265945D02*
Y270945D01*
Y278346D02*
Y278858D01*
X423307Y273780D02*
X427874Y278346D01*
X477567Y250106D02*
X481504D01*
Y254043D01*
X374417Y250106D02*
X378354D01*
X374417D02*
Y254043D01*
Y352862D02*
Y356799D01*
X378354D01*
X477567D02*
X481504D01*
Y352862D02*
Y356799D01*
D12*
X448957Y276000D02*
X448957Y280134D01*
X456043Y276000D02*
X456043Y280134D01*
X423807Y236526D02*
Y233575D01*
X424398Y232984D01*
X425578D01*
X426168Y233575D01*
Y236526D01*
X429711Y235936D02*
X429120Y236526D01*
X427940D01*
X427349Y235936D01*
Y235346D01*
X427940Y234755D01*
X429120D01*
X429711Y234165D01*
Y233575D01*
X429120Y232984D01*
X427940D01*
X427349Y233575D01*
X430891Y236526D02*
Y232984D01*
X432662D01*
X433253Y233575D01*
Y234165D01*
X432662Y234755D01*
X430891D01*
X432662D01*
X433253Y235346D01*
Y235936D01*
X432662Y236526D01*
X430891D01*
X452000Y344500D02*
Y346861D01*
X453181Y348042D01*
X454361Y346861D01*
Y344500D01*
Y346271D01*
X452000D01*
X455542Y344500D02*
Y346861D01*
X457313D01*
X457904Y346271D01*
Y344500D01*
X459675Y347452D02*
Y346861D01*
X459084D01*
X460265D01*
X459675D01*
Y345090D01*
X460265Y344500D01*
X463807D02*
X462627D01*
X462036Y345090D01*
Y346271D01*
X462627Y346861D01*
X463807D01*
X464398Y346271D01*
Y345681D01*
X462036D01*
X465578Y344500D02*
Y346861D01*
X467349D01*
X467940Y346271D01*
Y344500D01*
X469120D02*
Y346861D01*
X470892D01*
X471482Y346271D01*
Y344500D01*
X473253Y346861D02*
X474434D01*
X475024Y346271D01*
Y344500D01*
X473253D01*
X472663Y345090D01*
X473253Y345681D01*
X475024D01*
D13*
X384666Y347083D02*
X384250Y347499D01*
X383417D01*
X383000Y347083D01*
Y345416D01*
X383417Y345000D01*
X384250D01*
X384666Y345416D01*
X385499Y345000D02*
Y347499D01*
X387165Y345000D01*
Y347499D01*
X387998Y345000D02*
X388831D01*
X388415D01*
Y347499D01*
X387998Y347083D01*
X410766Y293083D02*
X410350Y293499D01*
X409516D01*
X409100Y293083D01*
Y292666D01*
X409516Y292250D01*
X410350D01*
X410766Y291833D01*
Y291417D01*
X410350Y291000D01*
X409516D01*
X409100Y291417D01*
X411599Y293499D02*
Y291000D01*
X412432Y291833D01*
X413265Y291000D01*
Y293499D01*
X414098Y291000D02*
X414931D01*
X414515D01*
Y293499D01*
X414098Y293083D01*
X427500Y300000D02*
Y302499D01*
X428750D01*
X429166Y302083D01*
Y301250D01*
X428750Y300833D01*
X427500D01*
X428333D02*
X429166Y300000D01*
X429999D02*
X430832D01*
X430416D01*
Y302499D01*
X429999Y302083D01*
X384166Y352499D02*
X383333D01*
X383750D01*
Y350416D01*
X383333Y350000D01*
X382916D01*
X382500Y350416D01*
X384999Y350000D02*
X385832D01*
X385416D01*
Y352499D01*
X384999Y352083D01*
X454166Y268083D02*
X453750Y268499D01*
X452916D01*
X452500Y268083D01*
Y266417D01*
X452916Y266000D01*
X453750D01*
X454166Y266417D01*
X454999Y266000D02*
X455832D01*
X455416D01*
Y268499D01*
X454999Y268083D01*
X442500Y325500D02*
Y327999D01*
X443750D01*
X444166Y327583D01*
Y326750D01*
X443750Y326333D01*
X442500D01*
X443333D02*
X444166Y325500D01*
X446665D02*
X444999D01*
X446665Y327166D01*
Y327583D01*
X446249Y327999D01*
X445416D01*
X444999Y327583D01*
X430500Y325500D02*
Y327999D01*
X431750D01*
X432166Y327583D01*
Y326750D01*
X431750Y326333D01*
X430500D01*
X431333D02*
X432166Y325500D01*
X432999Y327583D02*
X433416Y327999D01*
X434249D01*
X434665Y327583D01*
Y327166D01*
X434249Y326750D01*
X433832D01*
X434249D01*
X434665Y326333D01*
Y325917D01*
X434249Y325500D01*
X433416D01*
X432999Y325917D01*
D14*
X389000Y283974D02*
Y281000D01*
X390487D01*
X390983Y281496D01*
Y283478D01*
X390487Y283974D01*
X389000D01*
X391974D02*
X393957D01*
Y283478D01*
X391974Y281496D01*
Y281000D01*
X389000Y293974D02*
Y291000D01*
X390487D01*
X390983Y291496D01*
Y293478D01*
X390487Y293974D01*
X389000D01*
X393957D02*
X392965Y293478D01*
X391974Y292487D01*
Y291496D01*
X392470Y291000D01*
X393461D01*
X393957Y291496D01*
Y291991D01*
X393461Y292487D01*
X391974D01*
X389000Y321000D02*
Y322983D01*
X389991Y323974D01*
X390983Y322983D01*
Y321000D01*
Y322487D01*
X389000D01*
X391974Y323478D02*
X392470Y323974D01*
X393461D01*
X393957Y323478D01*
Y321496D01*
X393461Y321000D01*
X392470D01*
X391974Y321496D01*
Y323478D01*
X389000Y273974D02*
Y271000D01*
X390487D01*
X390983Y271496D01*
Y273478D01*
X390487Y273974D01*
X389000D01*
X391974Y273478D02*
X392470Y273974D01*
X393461D01*
X393957Y273478D01*
Y272983D01*
X393461Y272487D01*
X393957Y271991D01*
Y271496D01*
X393461Y271000D01*
X392470D01*
X391974Y271496D01*
Y271991D01*
X392470Y272487D01*
X391974Y272983D01*
Y273478D01*
X392470Y272487D02*
X393461D01*
X389000Y313974D02*
Y311000D01*
X390487D01*
X390983Y311496D01*
Y313478D01*
X390487Y313974D01*
X389000D01*
X391974Y313478D02*
X392470Y313974D01*
X393461D01*
X393957Y313478D01*
Y311496D01*
X393461Y311000D01*
X392470D01*
X391974Y311496D01*
Y313478D01*
X389000Y303974D02*
Y301000D01*
X390487D01*
X390983Y301496D01*
Y303478D01*
X390487Y303974D01*
X389000D01*
X393957D02*
X391974D01*
Y302487D01*
X392965Y302983D01*
X393461D01*
X393957Y302487D01*
Y301496D01*
X393461Y301000D01*
X392470D01*
X391974Y301496D01*
X461000Y283974D02*
Y281000D01*
X462487D01*
X462983Y281496D01*
Y283478D01*
X462487Y283974D01*
X461000D01*
X465461Y281000D02*
Y283974D01*
X463974Y282487D01*
X465957D01*
X461000Y293974D02*
Y291000D01*
X462487D01*
X462983Y291496D01*
Y293478D01*
X462487Y293974D01*
X461000D01*
X463974Y293478D02*
X464470Y293974D01*
X465461D01*
X465957Y293478D01*
Y292983D01*
X465461Y292487D01*
X464965D01*
X465461D01*
X465957Y291991D01*
Y291496D01*
X465461Y291000D01*
X464470D01*
X463974Y291496D01*
X461000Y321000D02*
Y323974D01*
X462487D01*
X462983Y323478D01*
Y322487D01*
X462487Y321991D01*
X461000D01*
X461991D02*
X462983Y321000D01*
X463974Y323974D02*
X465957Y321000D01*
Y323974D02*
X463974Y321000D01*
X461000Y333974D02*
X462983D01*
X461991D01*
Y331000D01*
X463974Y333974D02*
X465957Y331000D01*
Y333974D02*
X463974Y331000D01*
X461000Y313974D02*
Y311000D01*
X462487D01*
X462983Y311496D01*
Y313478D01*
X462487Y313974D01*
X461000D01*
X463974Y311000D02*
X464965D01*
X464470D01*
Y313974D01*
X463974Y313478D01*
X461000Y303974D02*
Y301000D01*
X462487D01*
X462983Y301496D01*
Y303478D01*
X462487Y303974D01*
X461000D01*
X465957Y301000D02*
X463974D01*
X465957Y302983D01*
Y303478D01*
X465461Y303974D01*
X464470D01*
X463974Y303478D01*
D15*
X389000Y331000D02*
Y333719D01*
X390360D01*
X390813Y333266D01*
Y332360D01*
X390360Y331906D01*
X389000D01*
X389906D02*
X390813Y331000D01*
X393532Y333266D02*
X393079Y333719D01*
X392172D01*
X391719Y333266D01*
Y332813D01*
X392172Y332360D01*
X393079D01*
X393532Y331906D01*
Y331453D01*
X393079Y331000D01*
X392172D01*
X391719Y331453D01*
X394438Y333719D02*
X396251D01*
X395345D01*
Y331000D01*
X389000Y263266D02*
X389453Y263719D01*
X390360D01*
X390813Y263266D01*
Y262813D01*
X390360Y262360D01*
X389906D01*
X390360D01*
X390813Y261906D01*
Y261453D01*
X390360Y261000D01*
X389453D01*
X389000Y261453D01*
X391719Y263719D02*
Y261906D01*
X392625Y261000D01*
X393532Y261906D01*
Y263719D01*
X394438Y263266D02*
X394891Y263719D01*
X395798D01*
X396251Y263266D01*
Y262813D01*
X395798Y262360D01*
X395345D01*
X395798D01*
X396251Y261906D01*
Y261453D01*
X395798Y261000D01*
X394891D01*
X394438Y261453D01*
X465813Y273266D02*
X465360Y273719D01*
X464453D01*
X464000Y273266D01*
Y271453D01*
X464453Y271000D01*
X465360D01*
X465813Y271453D01*
Y272360D01*
X464906D01*
X462813Y263719D02*
X461000D01*
Y262360D01*
X461906Y262813D01*
X462360D01*
X462813Y262360D01*
Y261453D01*
X462360Y261000D01*
X461453D01*
X461000Y261453D01*
X463719Y263719D02*
Y261906D01*
X464626Y261000D01*
X465532Y261906D01*
Y263719D01*
D16*
X383000Y357500D02*
X382025Y357404D01*
X381087Y357119D01*
X380222Y356657D01*
X379465Y356035D01*
X378843Y355278D01*
X378381Y354413D01*
X378096Y353475D01*
X378000Y352500D01*
X478000D02*
X477904Y353475D01*
X477619Y354413D01*
X477157Y355278D01*
X476536Y356035D01*
X475778Y356657D01*
X474913Y357119D01*
X473976Y357404D01*
X473000Y357500D01*
Y227500D02*
X473976Y227596D01*
X474913Y227881D01*
X475778Y228343D01*
X476536Y228964D01*
X477157Y229722D01*
X477619Y230587D01*
X477904Y231524D01*
X478000Y232500D01*
X385500D02*
X385596Y231524D01*
X385881Y230587D01*
X386343Y229722D01*
X386965Y228964D01*
X387722Y228343D01*
X388587Y227881D01*
X389525Y227596D01*
X390500Y227500D01*
X478000Y232500D02*
Y352500D01*
X378000Y257500D02*
Y352500D01*
X382874Y357500D02*
X472874D01*
X378000Y257500D02*
X385500Y252500D01*
Y232500D02*
Y252500D01*
D17*
X426029Y293630D02*
X432722D01*
X426029Y297370D02*
X432722D01*
Y293630D02*
Y297370D01*
X426029Y293630D02*
Y297370D01*
X449646Y280331D02*
X455354D01*
X449646Y271669D02*
X455354D01*
Y280331D01*
X449646Y271669D02*
Y280331D01*
X445870Y333154D02*
Y339846D01*
X442130Y333154D02*
Y339846D01*
X445870D01*
X442130Y333154D02*
X445870D01*
X434370Y333197D02*
Y339890D01*
X430630Y333197D02*
Y339890D01*
X434370D01*
X430630Y333197D02*
X434370D01*
M02*
