G04*
G04 #@! TF.GenerationSoftware,Altium Limited,Altium Designer,18.1.9 (240)*
G04*
G04 Layer_Physical_Order=2*
G04 Layer_Color=16711680*
%FSLAX25Y25*%
%MOIN*%
G70*
G01*
G75*
%ADD16C,0.00100*%
%ADD17C,0.00394*%
%ADD30C,0.02400*%
%ADD33C,0.02000*%
%ADD34C,0.04000*%
%ADD35C,0.06000*%
%ADD36R,0.05810X0.05810*%
%ADD37R,0.06299X0.06299*%
%ADD38C,0.06299*%
%ADD39C,0.01600*%
%ADD40C,0.03150*%
G36*
X472874Y356429D02*
X473000Y356429D01*
D01*
X473491Y356369D01*
X474018Y356300D01*
X474967Y355907D01*
X475781Y355281D01*
X476407Y354467D01*
X476800Y353518D01*
X476932Y352513D01*
X476929Y352500D01*
Y336905D01*
X469595D01*
Y329095D01*
X476929D01*
Y325879D01*
X476456Y325718D01*
X476353Y325853D01*
X475517Y326494D01*
X474544Y326897D01*
X473500Y327034D01*
X472456Y326897D01*
X471483Y326494D01*
X470647Y325853D01*
X470006Y325017D01*
X469603Y324044D01*
X469465Y323000D01*
X469603Y321956D01*
X470006Y320983D01*
X470647Y320147D01*
X471483Y319506D01*
X472456Y319103D01*
X473500Y318966D01*
X474544Y319103D01*
X475517Y319506D01*
X476353Y320147D01*
X476456Y320282D01*
X476929Y320121D01*
Y315879D01*
X476456Y315718D01*
X476353Y315853D01*
X475517Y316494D01*
X474544Y316897D01*
X473500Y317035D01*
X472483Y316901D01*
X445442Y343942D01*
X444780Y344384D01*
X444000Y344539D01*
X439072D01*
X438799Y344749D01*
X438172Y345008D01*
X437500Y345097D01*
X436828Y345008D01*
X436201Y344749D01*
X435664Y344336D01*
X435251Y343798D01*
X434992Y343172D01*
X434903Y342500D01*
X434992Y341828D01*
X435251Y341201D01*
X435664Y340664D01*
X436201Y340251D01*
X436828Y339991D01*
X437500Y339903D01*
X438172Y339991D01*
X438799Y340251D01*
X439072Y340461D01*
X443155D01*
X469599Y314017D01*
X469465Y313000D01*
X469603Y311956D01*
X470006Y310983D01*
X470647Y310147D01*
X471483Y309506D01*
X472456Y309103D01*
X473500Y308965D01*
X474544Y309103D01*
X475517Y309506D01*
X476353Y310147D01*
X476456Y310282D01*
X476929Y310121D01*
Y305879D01*
X476456Y305718D01*
X476353Y305853D01*
X475517Y306494D01*
X474544Y306897D01*
X473500Y307034D01*
X472456Y306897D01*
X471483Y306494D01*
X470647Y305853D01*
X470006Y305017D01*
X469603Y304044D01*
X469465Y303000D01*
X469603Y301956D01*
X470006Y300983D01*
X470647Y300147D01*
X471483Y299506D01*
X472456Y299103D01*
X473500Y298966D01*
X474544Y299103D01*
X475517Y299506D01*
X476353Y300147D01*
X476456Y300282D01*
X476929Y300121D01*
Y295879D01*
X476456Y295718D01*
X476353Y295853D01*
X475517Y296494D01*
X474544Y296897D01*
X473500Y297035D01*
X472456Y296897D01*
X471483Y296494D01*
X470647Y295853D01*
X470006Y295017D01*
X469603Y294044D01*
X469465Y293000D01*
X469603Y291956D01*
X470006Y290983D01*
X470647Y290147D01*
X471483Y289506D01*
X472456Y289103D01*
X473500Y288966D01*
X474544Y289103D01*
X475517Y289506D01*
X476353Y290147D01*
X476456Y290282D01*
X476929Y290121D01*
Y285879D01*
X476456Y285718D01*
X476353Y285853D01*
X475517Y286494D01*
X474544Y286897D01*
X473500Y287035D01*
X472456Y286897D01*
X471483Y286494D01*
X470647Y285853D01*
X470006Y285017D01*
X469603Y284044D01*
X469465Y283000D01*
X469603Y281956D01*
X470006Y280983D01*
X470647Y280147D01*
X471483Y279506D01*
X472456Y279103D01*
X473500Y278965D01*
X474544Y279103D01*
X475517Y279506D01*
X476353Y280147D01*
X476456Y280282D01*
X476929Y280121D01*
Y265879D01*
X476456Y265718D01*
X476353Y265853D01*
X475517Y266494D01*
X474544Y266897D01*
X473500Y267035D01*
X472456Y266897D01*
X471483Y266494D01*
X470647Y265853D01*
X470006Y265017D01*
X469603Y264044D01*
X469465Y263000D01*
X469603Y261956D01*
X470006Y260983D01*
X470647Y260147D01*
X471483Y259506D01*
X472456Y259103D01*
X473500Y258965D01*
X474544Y259103D01*
X475517Y259506D01*
X476353Y260147D01*
X476456Y260282D01*
X476929Y260121D01*
Y232500D01*
X476932Y232487D01*
X476800Y231482D01*
X476407Y230533D01*
X475781Y229718D01*
X474967Y229093D01*
X474018Y228700D01*
X473476Y228629D01*
X473000Y228571D01*
X472590Y228489D01*
X472546Y228460D01*
X472243Y228257D01*
X472071Y228000D01*
X391429D01*
X391257Y228257D01*
X390955Y228459D01*
X390910Y228489D01*
X390500Y228571D01*
X390024Y228629D01*
X389482Y228700D01*
X388533Y229093D01*
X387719Y229718D01*
X387093Y230533D01*
X386700Y231482D01*
X386568Y232487D01*
X386571Y232500D01*
Y252500D01*
X386550Y252604D01*
X386550Y252710D01*
X386509Y252807D01*
X386489Y252910D01*
X386430Y252998D01*
X386389Y253096D01*
X386315Y253170D01*
X386257Y253257D01*
X386169Y253316D01*
X386094Y253391D01*
X379071Y258073D01*
Y262169D01*
X379571Y262202D01*
X379603Y261956D01*
X380006Y260983D01*
X380647Y260147D01*
X381483Y259506D01*
X382456Y259103D01*
X383500Y258965D01*
X384544Y259103D01*
X385517Y259506D01*
X386127Y259974D01*
X399500D01*
X400283Y260077D01*
X401013Y260380D01*
X401640Y260860D01*
X422640Y281860D01*
X422640Y281860D01*
X423120Y282487D01*
X423423Y283217D01*
X423526Y284000D01*
Y295500D01*
Y329247D01*
X425140Y330860D01*
X425140Y330860D01*
X425621Y331487D01*
X425923Y332217D01*
X426026Y333000D01*
Y347627D01*
X426625Y348407D01*
X427043Y349417D01*
X427185Y350500D01*
X427043Y351583D01*
X426625Y352593D01*
X425959Y353460D01*
X425093Y354125D01*
X424083Y354543D01*
X423000Y354685D01*
X421917Y354543D01*
X420907Y354125D01*
X420041Y353460D01*
X419375Y352593D01*
X418957Y351583D01*
X418815Y350500D01*
X418957Y349417D01*
X419375Y348407D01*
X419974Y347627D01*
Y334253D01*
X418360Y332640D01*
X417879Y332013D01*
X417577Y331283D01*
X417474Y330500D01*
Y295500D01*
Y285253D01*
X398247Y266026D01*
X386127D01*
X385517Y266494D01*
X384544Y266897D01*
X383500Y267035D01*
X382456Y266897D01*
X381483Y266494D01*
X380647Y265853D01*
X380006Y265017D01*
X379603Y264044D01*
X379571Y263798D01*
X379071Y263831D01*
Y272169D01*
X379571Y272202D01*
X379603Y271956D01*
X380006Y270983D01*
X380647Y270147D01*
X381483Y269506D01*
X382456Y269103D01*
X383500Y268966D01*
X384544Y269103D01*
X385517Y269506D01*
X386353Y270147D01*
X386994Y270983D01*
X387397Y271956D01*
X387534Y273000D01*
X387397Y274044D01*
X386994Y275017D01*
X386353Y275853D01*
X385517Y276494D01*
X384544Y276897D01*
X383500Y277034D01*
X382456Y276897D01*
X381483Y276494D01*
X380647Y275853D01*
X380006Y275017D01*
X379603Y274044D01*
X379571Y273798D01*
X379071Y273831D01*
Y282169D01*
X379571Y282202D01*
X379603Y281956D01*
X380006Y280983D01*
X380647Y280147D01*
X381483Y279506D01*
X382456Y279103D01*
X383500Y278965D01*
X384544Y279103D01*
X385517Y279506D01*
X386353Y280147D01*
X386994Y280983D01*
X387397Y281956D01*
X387534Y283000D01*
X387397Y284044D01*
X386994Y285017D01*
X386353Y285853D01*
X385517Y286494D01*
X384544Y286897D01*
X383500Y287035D01*
X382456Y286897D01*
X381483Y286494D01*
X380647Y285853D01*
X380006Y285017D01*
X379603Y284044D01*
X379571Y283798D01*
X379071Y283831D01*
Y292169D01*
X379571Y292202D01*
X379603Y291956D01*
X380006Y290983D01*
X380647Y290147D01*
X381483Y289506D01*
X382456Y289103D01*
X383500Y288966D01*
X384544Y289103D01*
X385517Y289506D01*
X386353Y290147D01*
X386994Y290983D01*
X387397Y291956D01*
X387534Y293000D01*
X387397Y294044D01*
X386994Y295017D01*
X386353Y295853D01*
X385517Y296494D01*
X384544Y296897D01*
X383500Y297035D01*
X382456Y296897D01*
X381483Y296494D01*
X380647Y295853D01*
X380006Y295017D01*
X379603Y294044D01*
X379571Y293798D01*
X379071Y293831D01*
Y302169D01*
X379571Y302202D01*
X379603Y301956D01*
X380006Y300983D01*
X380647Y300147D01*
X381483Y299506D01*
X382456Y299103D01*
X383500Y298966D01*
X384544Y299103D01*
X385517Y299506D01*
X386353Y300147D01*
X386994Y300983D01*
X387397Y301956D01*
X387534Y303000D01*
X387397Y304044D01*
X386994Y305017D01*
X386353Y305853D01*
X385517Y306494D01*
X384544Y306897D01*
X383500Y307034D01*
X382456Y306897D01*
X381483Y306494D01*
X380647Y305853D01*
X380006Y305017D01*
X379603Y304044D01*
X379571Y303798D01*
X379071Y303831D01*
Y312169D01*
X379571Y312202D01*
X379603Y311956D01*
X380006Y310983D01*
X380647Y310147D01*
X381483Y309506D01*
X382456Y309103D01*
X383500Y308965D01*
X384544Y309103D01*
X385517Y309506D01*
X386353Y310147D01*
X386994Y310983D01*
X387397Y311956D01*
X387534Y313000D01*
X387397Y314044D01*
X386994Y315017D01*
X386353Y315853D01*
X385517Y316494D01*
X384544Y316897D01*
X383500Y317035D01*
X382456Y316897D01*
X381483Y316494D01*
X380647Y315853D01*
X380006Y315017D01*
X379603Y314044D01*
X379571Y313798D01*
X379071Y313831D01*
Y322169D01*
X379571Y322202D01*
X379603Y321956D01*
X380006Y320983D01*
X380647Y320147D01*
X381483Y319506D01*
X382456Y319103D01*
X383500Y318966D01*
X384544Y319103D01*
X385517Y319506D01*
X386353Y320147D01*
X386994Y320983D01*
X387397Y321956D01*
X387534Y323000D01*
X387397Y324044D01*
X386994Y325017D01*
X386353Y325853D01*
X385517Y326494D01*
X384544Y326897D01*
X383500Y327034D01*
X382456Y326897D01*
X381483Y326494D01*
X380647Y325853D01*
X380006Y325017D01*
X379603Y324044D01*
X379571Y323798D01*
X379071Y323831D01*
Y352500D01*
X379068Y352513D01*
X379200Y353518D01*
X379593Y354467D01*
X380219Y355281D01*
X381033Y355907D01*
X381982Y356300D01*
X382968Y356429D01*
X472874D01*
D02*
G37*
%LPC*%
G36*
X443000Y354685D02*
X441917Y354543D01*
X440907Y354125D01*
X440040Y353460D01*
X439375Y352593D01*
X438957Y351583D01*
X438815Y350500D01*
X438957Y349417D01*
X439375Y348407D01*
X440040Y347540D01*
X440907Y346875D01*
X441917Y346457D01*
X443000Y346315D01*
X444083Y346457D01*
X445093Y346875D01*
X445960Y347540D01*
X446625Y348407D01*
X447043Y349417D01*
X447185Y350500D01*
X447043Y351583D01*
X446625Y352593D01*
X445960Y353460D01*
X445093Y354125D01*
X444083Y354543D01*
X443000Y354685D01*
D02*
G37*
G36*
X433000D02*
X431917Y354543D01*
X430907Y354125D01*
X430041Y353460D01*
X429375Y352593D01*
X428957Y351583D01*
X428815Y350500D01*
X428957Y349417D01*
X429375Y348407D01*
X430041Y347540D01*
X430907Y346875D01*
X431917Y346457D01*
X433000Y346315D01*
X434083Y346457D01*
X435093Y346875D01*
X435959Y347540D01*
X436625Y348407D01*
X437043Y349417D01*
X437185Y350500D01*
X437043Y351583D01*
X436625Y352593D01*
X435959Y353460D01*
X435093Y354125D01*
X434083Y354543D01*
X433000Y354685D01*
D02*
G37*
G36*
X387405Y336905D02*
X379595D01*
Y329095D01*
X387405D01*
Y336905D01*
D02*
G37*
%LPD*%
D16*
X383000Y357500D02*
X382025Y357404D01*
X381087Y357119D01*
X380222Y356657D01*
X379465Y356035D01*
X378843Y355278D01*
X378381Y354413D01*
X378096Y353475D01*
X378000Y352500D01*
X478000D02*
X477904Y353475D01*
X477619Y354413D01*
X477157Y355278D01*
X476536Y356035D01*
X475778Y356657D01*
X474913Y357119D01*
X473976Y357404D01*
X473000Y357500D01*
Y227500D02*
X473976Y227596D01*
X474913Y227881D01*
X475778Y228343D01*
X476536Y228964D01*
X477157Y229722D01*
X477619Y230587D01*
X477904Y231524D01*
X478000Y232500D01*
X385500D02*
X385596Y231524D01*
X385881Y230587D01*
X386343Y229722D01*
X386965Y228964D01*
X387722Y228343D01*
X388587Y227881D01*
X389525Y227596D01*
X390500Y227500D01*
X478000Y232500D02*
Y352500D01*
X378000Y257500D02*
Y352500D01*
X382874Y357500D02*
X472874D01*
X378000Y257500D02*
X385500Y252500D01*
Y232500D02*
Y252500D01*
D17*
X426029Y293630D02*
X432722D01*
X426029Y297370D02*
X432722D01*
Y293630D02*
Y297370D01*
X426029Y293630D02*
Y297370D01*
X449646Y280331D02*
X455354D01*
X449646Y271669D02*
X455354D01*
Y280331D01*
X449646Y271669D02*
Y280331D01*
X445870Y333154D02*
Y339846D01*
X442130Y333154D02*
Y339846D01*
X445870D01*
X442130Y333154D02*
X445870D01*
X434370Y333197D02*
Y339890D01*
X430630Y333197D02*
Y339890D01*
X434370D01*
X430630Y333197D02*
X434370D01*
D30*
X420500Y295500D02*
D03*
X423000Y333000D02*
D03*
D33*
X437500Y342500D02*
X444000D01*
X473500Y313000D01*
D34*
X420500Y284000D02*
Y295500D01*
X399500Y263000D02*
X420500Y284000D01*
Y330500D02*
X423000Y333000D01*
X420500Y295500D02*
Y330500D01*
X423000Y333000D02*
Y350500D01*
X383500Y263000D02*
X399500D01*
D35*
X383500D02*
D03*
Y273000D02*
D03*
Y283000D02*
D03*
Y293000D02*
D03*
Y303000D02*
D03*
Y313000D02*
D03*
Y323000D02*
D03*
X473500Y263000D02*
D03*
Y273000D02*
D03*
Y283000D02*
D03*
Y293000D02*
D03*
Y303000D02*
D03*
Y313000D02*
D03*
Y323000D02*
D03*
D36*
X383500Y333000D02*
D03*
X473500D02*
D03*
D37*
X413000Y350500D02*
D03*
D38*
X423000D02*
D03*
X433000D02*
D03*
X443000D02*
D03*
D39*
X475000Y255000D02*
D03*
Y235000D02*
D03*
X465000Y355000D02*
D03*
X470000Y345000D02*
D03*
X465000Y335000D02*
D03*
Y275000D02*
D03*
Y255000D02*
D03*
X470000Y245000D02*
D03*
X465000Y235000D02*
D03*
X455000Y355000D02*
D03*
X460000Y345000D02*
D03*
X455000Y315000D02*
D03*
X460000Y305000D02*
D03*
Y285000D02*
D03*
Y265000D02*
D03*
X455000Y255000D02*
D03*
Y235000D02*
D03*
X450000Y345000D02*
D03*
Y325000D02*
D03*
X445000Y315000D02*
D03*
X450000Y305000D02*
D03*
X445000Y295000D02*
D03*
Y275000D02*
D03*
X450000Y265000D02*
D03*
X445000Y255000D02*
D03*
Y235000D02*
D03*
X440000Y325000D02*
D03*
X435000Y315000D02*
D03*
X440000Y305000D02*
D03*
X435000Y275000D02*
D03*
Y255000D02*
D03*
Y235000D02*
D03*
X430000Y325000D02*
D03*
X425000Y315000D02*
D03*
X430000Y305000D02*
D03*
X425000Y275000D02*
D03*
X430000Y265000D02*
D03*
X425000Y255000D02*
D03*
X415000Y335000D02*
D03*
Y315000D02*
D03*
Y295000D02*
D03*
X420000Y265000D02*
D03*
X415000Y255000D02*
D03*
Y235000D02*
D03*
X405000Y355000D02*
D03*
X410000Y345000D02*
D03*
X405000Y335000D02*
D03*
X410000Y325000D02*
D03*
X405000Y315000D02*
D03*
X410000Y305000D02*
D03*
X405000Y295000D02*
D03*
Y275000D02*
D03*
Y255000D02*
D03*
Y235000D02*
D03*
X395000Y355000D02*
D03*
X400000Y345000D02*
D03*
X395000Y335000D02*
D03*
X400000Y325000D02*
D03*
X395000Y315000D02*
D03*
X400000Y305000D02*
D03*
X395000Y295000D02*
D03*
X400000Y285000D02*
D03*
X395000Y275000D02*
D03*
Y255000D02*
D03*
Y235000D02*
D03*
X385000Y355000D02*
D03*
X390000Y345000D02*
D03*
Y325000D02*
D03*
Y305000D02*
D03*
Y285000D02*
D03*
Y245000D02*
D03*
D40*
X437500Y342500D02*
D03*
M02*
