G04*
G04 #@! TF.GenerationSoftware,Altium Limited,Altium Designer,18.1.9 (240)*
G04*
G04 Layer_Color=128*
%FSLAX25Y25*%
%MOIN*%
G70*
G01*
G75*
%ADD16C,0.00100*%
%ADD17C,0.00394*%
%ADD42C,0.00200*%
D16*
X383000Y357500D02*
X382025Y357404D01*
X381087Y357119D01*
X380222Y356657D01*
X379465Y356035D01*
X378843Y355278D01*
X378381Y354413D01*
X378096Y353475D01*
X378000Y352500D01*
X478000D02*
X477904Y353475D01*
X477619Y354413D01*
X477157Y355278D01*
X476536Y356035D01*
X475778Y356657D01*
X474913Y357119D01*
X473976Y357404D01*
X473000Y357500D01*
Y227500D02*
X473976Y227596D01*
X474913Y227881D01*
X475778Y228343D01*
X476536Y228964D01*
X477157Y229722D01*
X477619Y230587D01*
X477904Y231524D01*
X478000Y232500D01*
X385500D02*
X385596Y231524D01*
X385881Y230587D01*
X386343Y229722D01*
X386965Y228964D01*
X387722Y228343D01*
X388587Y227881D01*
X389525Y227596D01*
X390500Y227500D01*
X478000Y232500D02*
Y352500D01*
X378000Y257500D02*
Y352500D01*
X382874Y357500D02*
X472874D01*
X378000Y257500D02*
X385500Y252500D01*
Y232500D02*
Y252500D01*
D17*
X426029Y293630D02*
X432722D01*
X426029Y297370D02*
X432722D01*
Y293630D02*
Y297370D01*
X426029Y293630D02*
Y297370D01*
X449646Y280331D02*
X455354D01*
X449646Y271669D02*
X455354D01*
Y280331D01*
X449646Y271669D02*
Y280331D01*
X445870Y333154D02*
Y339846D01*
X442130Y333154D02*
Y339846D01*
X445870D01*
X442130Y333154D02*
X445870D01*
X434370Y333197D02*
Y339890D01*
X430630Y333197D02*
Y339890D01*
X434370D01*
X430630Y333197D02*
X434370D01*
D42*
X381500Y263000D02*
X385500D01*
X383500Y261000D02*
Y265000D01*
X381500Y273000D02*
X385500D01*
X383500Y271000D02*
Y275000D01*
X381500Y283000D02*
X385500D01*
X383500Y281000D02*
Y285000D01*
X381500Y293000D02*
X385500D01*
X383500Y291000D02*
Y295000D01*
X381500Y303000D02*
X385500D01*
X383500Y301000D02*
Y305000D01*
X381500Y313000D02*
X385500D01*
X383500Y311000D02*
Y315000D01*
X381500Y323000D02*
X385500D01*
X383500Y321000D02*
Y325000D01*
X381500Y333000D02*
X385500D01*
X383500Y331000D02*
Y335000D01*
X471500Y263000D02*
X475500D01*
X473500Y261000D02*
Y265000D01*
X471500Y273000D02*
X475500D01*
X473500Y271000D02*
Y275000D01*
X471500Y283000D02*
X475500D01*
X473500Y281000D02*
Y285000D01*
X471500Y293000D02*
X475500D01*
X473500Y291000D02*
Y295000D01*
X471500Y303000D02*
X475500D01*
X473500Y301000D02*
Y305000D01*
X471500Y313000D02*
X475500D01*
X473500Y311000D02*
Y315000D01*
X471500Y323000D02*
X475500D01*
X473500Y321000D02*
Y325000D01*
X471500Y333000D02*
X475500D01*
X473500Y331000D02*
Y335000D01*
X410972Y350500D02*
X415028D01*
X413000Y348472D02*
Y352528D01*
X420992Y350500D02*
X425008D01*
X423000Y348492D02*
Y352508D01*
X430992Y350500D02*
X435008D01*
X433000Y348492D02*
Y352508D01*
X440992Y350500D02*
X445008D01*
X443000Y348492D02*
Y352508D01*
X474600Y255000D02*
X475400D01*
X475000Y254600D02*
Y255400D01*
X474600Y235000D02*
X475400D01*
X475000Y234600D02*
Y235400D01*
X464600Y355000D02*
X465400D01*
X465000Y354600D02*
Y355400D01*
X469600Y345000D02*
X470400D01*
X470000Y344600D02*
Y345400D01*
X464600Y335000D02*
X465400D01*
X465000Y334600D02*
Y335400D01*
X464600Y275000D02*
X465400D01*
X465000Y274600D02*
Y275400D01*
X464600Y255000D02*
X465400D01*
X465000Y254600D02*
Y255400D01*
X469600Y245000D02*
X470400D01*
X470000Y244600D02*
Y245400D01*
X464600Y235000D02*
X465400D01*
X465000Y234600D02*
Y235400D01*
X454600Y355000D02*
X455400D01*
X455000Y354600D02*
Y355400D01*
X459600Y345000D02*
X460400D01*
X460000Y344600D02*
Y345400D01*
X454600Y315000D02*
X455400D01*
X455000Y314600D02*
Y315400D01*
X459600Y305000D02*
X460400D01*
X460000Y304600D02*
Y305400D01*
X459600Y285000D02*
X460400D01*
X460000Y284600D02*
Y285400D01*
X459600Y265000D02*
X460400D01*
X460000Y264600D02*
Y265400D01*
X454600Y255000D02*
X455400D01*
X455000Y254600D02*
Y255400D01*
X454600Y235000D02*
X455400D01*
X455000Y234600D02*
Y235400D01*
X449600Y345000D02*
X450400D01*
X450000Y344600D02*
Y345400D01*
X449600Y325000D02*
X450400D01*
X450000Y324600D02*
Y325400D01*
X444600Y315000D02*
X445400D01*
X445000Y314600D02*
Y315400D01*
X449600Y305000D02*
X450400D01*
X450000Y304600D02*
Y305400D01*
X444600Y295000D02*
X445400D01*
X445000Y294600D02*
Y295400D01*
X444600Y275000D02*
X445400D01*
X445000Y274600D02*
Y275400D01*
X449600Y265000D02*
X450400D01*
X450000Y264600D02*
Y265400D01*
X444600Y255000D02*
X445400D01*
X445000Y254600D02*
Y255400D01*
X444600Y235000D02*
X445400D01*
X445000Y234600D02*
Y235400D01*
X439600Y325000D02*
X440400D01*
X440000Y324600D02*
Y325400D01*
X434600Y315000D02*
X435400D01*
X435000Y314600D02*
Y315400D01*
X439600Y305000D02*
X440400D01*
X440000Y304600D02*
Y305400D01*
X434600Y275000D02*
X435400D01*
X435000Y274600D02*
Y275400D01*
X434600Y255000D02*
X435400D01*
X435000Y254600D02*
Y255400D01*
X434600Y235000D02*
X435400D01*
X435000Y234600D02*
Y235400D01*
X429600Y325000D02*
X430400D01*
X430000Y324600D02*
Y325400D01*
X424600Y315000D02*
X425400D01*
X425000Y314600D02*
Y315400D01*
X429600Y305000D02*
X430400D01*
X430000Y304600D02*
Y305400D01*
X424600Y275000D02*
X425400D01*
X425000Y274600D02*
Y275400D01*
X429600Y265000D02*
X430400D01*
X430000Y264600D02*
Y265400D01*
X424600Y255000D02*
X425400D01*
X425000Y254600D02*
Y255400D01*
X414600Y335000D02*
X415400D01*
X415000Y334600D02*
Y335400D01*
X414600Y315000D02*
X415400D01*
X415000Y314600D02*
Y315400D01*
X414600Y295000D02*
X415400D01*
X415000Y294600D02*
Y295400D01*
X419600Y265000D02*
X420400D01*
X420000Y264600D02*
Y265400D01*
X414600Y255000D02*
X415400D01*
X415000Y254600D02*
Y255400D01*
X414600Y235000D02*
X415400D01*
X415000Y234600D02*
Y235400D01*
X404600Y355000D02*
X405400D01*
X405000Y354600D02*
Y355400D01*
X409600Y345000D02*
X410400D01*
X410000Y344600D02*
Y345400D01*
X404600Y335000D02*
X405400D01*
X405000Y334600D02*
Y335400D01*
X409600Y325000D02*
X410400D01*
X410000Y324600D02*
Y325400D01*
X404600Y315000D02*
X405400D01*
X405000Y314600D02*
Y315400D01*
X409600Y305000D02*
X410400D01*
X410000Y304600D02*
Y305400D01*
X404600Y295000D02*
X405400D01*
X405000Y294600D02*
Y295400D01*
X404600Y275000D02*
X405400D01*
X405000Y274600D02*
Y275400D01*
X404600Y255000D02*
X405400D01*
X405000Y254600D02*
Y255400D01*
X404600Y235000D02*
X405400D01*
X405000Y234600D02*
Y235400D01*
X394600Y355000D02*
X395400D01*
X395000Y354600D02*
Y355400D01*
X399600Y345000D02*
X400400D01*
X400000Y344600D02*
Y345400D01*
X394600Y335000D02*
X395400D01*
X395000Y334600D02*
Y335400D01*
X399600Y325000D02*
X400400D01*
X400000Y324600D02*
Y325400D01*
X394600Y315000D02*
X395400D01*
X395000Y314600D02*
Y315400D01*
X399600Y305000D02*
X400400D01*
X400000Y304600D02*
Y305400D01*
X394600Y295000D02*
X395400D01*
X395000Y294600D02*
Y295400D01*
X399600Y285000D02*
X400400D01*
X400000Y284600D02*
Y285400D01*
X394600Y275000D02*
X395400D01*
X395000Y274600D02*
Y275400D01*
X394600Y255000D02*
X395400D01*
X395000Y254600D02*
Y255400D01*
X394600Y235000D02*
X395400D01*
X395000Y234600D02*
Y235400D01*
X384600Y355000D02*
X385400D01*
X385000Y354600D02*
Y355400D01*
X389600Y345000D02*
X390400D01*
X390000Y344600D02*
Y345400D01*
X389600Y325000D02*
X390400D01*
X390000Y324600D02*
Y325400D01*
X389600Y305000D02*
X390400D01*
X390000Y304600D02*
Y305400D01*
X389600Y285000D02*
X390400D01*
X390000Y284600D02*
Y285400D01*
X389600Y245000D02*
X390400D01*
X390000Y244600D02*
Y245400D01*
X419900Y295500D02*
X421100D01*
X420500Y294900D02*
Y296100D01*
X422400Y333000D02*
X423600D01*
X423000Y332400D02*
Y333600D01*
X436713Y342500D02*
X438287D01*
X437500Y341713D02*
Y343287D01*
M02*
