M48
;Layer_Color=9474304
;FILE_FORMAT=2:5
INCH,TZ
;TYPE=PLATED
T1F00S00C0.00800
T2F00S00C0.01200
T3F00S00C0.01575
T4F00S00C0.04000
T5F00S00C0.04016
T6F00S00C0.04055
%
T01
X475000Y235000
X470000Y245000
X475000Y255000
X465000
X455000
X445000
X435000
X425000
X415000
X405000
X395000
X390000Y245000
X395000Y235000
X405000
X415000
X435000
X445000
X455000
X465000
X460000Y265000
X450000
X445000Y275000
X435000
X425000
X430000Y265000
X420000
X405000Y275000
X395000
X400000Y285000
X390000
X395000Y295000
X405000
X415000
X410000Y305000
X400000
X390000
X430000
X440000
X450000
X460000
Y285000
X465000Y275000
X445000Y295000
Y315000
X455000
X450000Y325000
X440000
X430000
X435000Y315000
X425000
X415000
X405000
X395000
X400000Y325000
X410000
X415000Y335000
X405000
X395000
X400000Y345000
X410000
X405000Y355000
X395000
X385000
X390000Y345000
Y325000
X450000Y345000
X460000
X465000Y355000
X455000
X465000Y335000
X470000Y345000
T02
X420500Y295500
X423000Y333000
T03
X437500Y342500
T04
X473500Y263000
Y273000
Y283000
Y293000
Y303000
X383500
Y293000
Y283000
Y273000
Y263000
Y313000
Y323000
Y333000
X473500
Y323000
Y313000
T05
X423000Y350500
X433000
X443000
T06
X413000Y350500
M30
