G04*
G04 #@! TF.GenerationSoftware,Altium Limited,Altium Designer,18.1.9 (240)*
G04*
G04 Layer_Color=16711935*
%FSLAX25Y25*%
%MOIN*%
G70*
G01*
G75*
%ADD116C,0.06800*%
%ADD117R,0.06610X0.06610*%
%ADD118C,0.07800*%
%ADD119C,0.00800*%
%ADD120C,0.10800*%
%ADD121C,0.24422*%
%ADD122C,0.02800*%
%ADD123C,0.02400*%
G04:AMPARAMS|DCode=139|XSize=58mil|YSize=68mil|CornerRadius=0mil|HoleSize=0mil|Usage=FLASHONLY|Rotation=180.000|XOffset=0mil|YOffset=0mil|HoleType=Round|Shape=Octagon|*
%AMOCTAGOND139*
4,1,8,0.01450,-0.03400,-0.01450,-0.03400,-0.02900,-0.01950,-0.02900,0.01950,-0.01450,0.03400,0.01450,0.03400,0.02900,0.01950,0.02900,-0.01950,0.01450,-0.03400,0.0*
%
%ADD139OCTAGOND139*%

D116*
X100787Y111929D02*
D03*
Y121929D02*
D03*
Y131929D02*
D03*
Y141929D02*
D03*
Y151929D02*
D03*
Y161929D02*
D03*
Y171929D02*
D03*
X190787Y111929D02*
D03*
Y121929D02*
D03*
Y131929D02*
D03*
Y141929D02*
D03*
Y151929D02*
D03*
Y161929D02*
D03*
Y171929D02*
D03*
D117*
X100787Y181929D02*
D03*
X190787D02*
D03*
D118*
X27933Y94731D02*
D03*
X31583Y83498D02*
D03*
X42816Y87147D02*
D03*
X39166Y98380D02*
D03*
X268565Y101978D02*
D03*
X272605Y113077D02*
D03*
X264526Y90880D02*
D03*
X48807Y230075D02*
D03*
X34264Y211460D02*
D03*
X41535Y220768D02*
D03*
X90575Y282951D02*
D03*
X95000Y272000D02*
D03*
X285972Y182957D02*
D03*
X274341Y180906D02*
D03*
D119*
X13583Y83858D02*
D03*
X291482Y115214D02*
D03*
X277613Y77109D02*
D03*
X284547Y96161D02*
D03*
X28133Y231239D02*
D03*
X40616Y247216D02*
D03*
X15650Y215261D02*
D03*
X78238Y281957D02*
D03*
X100140Y290806D02*
D03*
X287565Y195231D02*
D03*
X291667Y171968D02*
D03*
D120*
X127496Y280189D02*
D03*
X146000Y292000D02*
D03*
Y268378D02*
D03*
D121*
X77205Y76205D02*
D03*
X215000D02*
D03*
X214500Y214000D02*
D03*
X77205D02*
D03*
D122*
X222539Y155315D02*
D03*
X124802Y144770D02*
D03*
X212894Y194882D02*
D03*
X245381Y222547D02*
D03*
X168898Y91732D02*
D03*
X238779Y199311D02*
D03*
X235827Y236614D02*
D03*
X281890Y204134D02*
D03*
X279626Y210335D02*
D03*
X255217Y248130D02*
D03*
D123*
X254232Y123031D02*
D03*
X288500Y154500D02*
D03*
X268500Y234500D02*
D03*
Y194500D02*
D03*
X278500Y174500D02*
D03*
X268500Y154500D02*
D03*
X278500Y134500D02*
D03*
X268500Y74500D02*
D03*
X258500Y214500D02*
D03*
X248500Y194500D02*
D03*
X258500Y174500D02*
D03*
X248500Y154500D02*
D03*
X258500Y134500D02*
D03*
Y94500D02*
D03*
X248500Y74500D02*
D03*
X258500Y54500D02*
D03*
X238500Y254500D02*
D03*
X228500Y234500D02*
D03*
X238500Y214500D02*
D03*
Y174500D02*
D03*
X228500Y154500D02*
D03*
X238500Y134500D02*
D03*
Y94500D02*
D03*
X208500Y274500D02*
D03*
X218500Y254500D02*
D03*
X208500Y234500D02*
D03*
Y194500D02*
D03*
X218500Y134500D02*
D03*
X208500Y114500D02*
D03*
X218500Y94500D02*
D03*
Y54500D02*
D03*
X188500Y274500D02*
D03*
X198500Y254500D02*
D03*
Y214500D02*
D03*
Y174500D02*
D03*
Y134500D02*
D03*
Y94500D02*
D03*
X188500Y74500D02*
D03*
X198500Y54500D02*
D03*
X168500Y274500D02*
D03*
X178500Y254500D02*
D03*
Y174500D02*
D03*
X168500Y154500D02*
D03*
X178500Y134500D02*
D03*
X168500Y114500D02*
D03*
X178500Y94500D02*
D03*
X168500Y74500D02*
D03*
Y34500D02*
D03*
Y-5500D02*
D03*
X158500Y254500D02*
D03*
Y214500D02*
D03*
X148500Y194500D02*
D03*
X158500Y174500D02*
D03*
X148500Y154500D02*
D03*
X158500Y134500D02*
D03*
X148500Y114500D02*
D03*
Y34500D02*
D03*
Y-5500D02*
D03*
X138500Y214500D02*
D03*
Y174500D02*
D03*
X128500Y154500D02*
D03*
X138500Y134500D02*
D03*
X128500Y114500D02*
D03*
Y34500D02*
D03*
Y-5500D02*
D03*
X118500Y254500D02*
D03*
Y214500D02*
D03*
Y174500D02*
D03*
X108500Y154500D02*
D03*
Y114500D02*
D03*
Y74500D02*
D03*
Y34500D02*
D03*
X88500Y234500D02*
D03*
X98500Y214500D02*
D03*
X88500Y114500D02*
D03*
X98500Y94500D02*
D03*
X88500Y34500D02*
D03*
X98500Y14500D02*
D03*
X78500Y254500D02*
D03*
X68500Y234500D02*
D03*
X78500Y174500D02*
D03*
Y134500D02*
D03*
Y94500D02*
D03*
Y54500D02*
D03*
X68500Y34500D02*
D03*
X78500Y14500D02*
D03*
X58500Y254500D02*
D03*
Y214500D02*
D03*
X48500Y114500D02*
D03*
X58500Y94500D02*
D03*
X48500Y74500D02*
D03*
Y34500D02*
D03*
X28500Y194500D02*
D03*
Y114500D02*
D03*
Y74500D02*
D03*
X38500Y54500D02*
D03*
X8500Y194500D02*
D03*
X18500Y174500D02*
D03*
X8500Y154500D02*
D03*
X18500Y134500D02*
D03*
X8500Y114500D02*
D03*
X18500Y94500D02*
D03*
X191446Y87655D02*
D03*
X191000Y103531D02*
D03*
X213596Y57500D02*
D03*
X234055Y78347D02*
D03*
X243714Y93554D02*
D03*
X249324Y106189D02*
D03*
X255159Y129461D02*
D03*
X256135Y141216D02*
D03*
X255734Y154331D02*
D03*
X253647Y167894D02*
D03*
X234246Y210335D02*
D03*
X204133Y237917D02*
D03*
X190787Y244971D02*
D03*
X177387Y249902D02*
D03*
X161319Y253642D02*
D03*
X127496Y252822D02*
D03*
X114173Y249902D02*
D03*
X100140Y244322D02*
D03*
X89665Y238878D02*
D03*
X79626Y232579D02*
D03*
X52264Y200886D02*
D03*
X47447Y192913D02*
D03*
X60600Y249308D02*
D03*
X73425Y258169D02*
D03*
X165453Y278051D02*
D03*
X181102Y275000D02*
D03*
X195374Y269980D02*
D03*
X208666Y264238D02*
D03*
X219390Y257776D02*
D03*
X232811Y248130D02*
D03*
X278861Y167894D02*
D03*
X280807Y154781D02*
D03*
Y140551D02*
D03*
X278861Y121929D02*
D03*
X260000Y71536D02*
D03*
X253150Y61910D02*
D03*
X245927Y53706D02*
D03*
X38681Y63390D02*
D03*
X31977Y72200D02*
D03*
X19093Y98380D02*
D03*
X16043Y110980D02*
D03*
X12888Y126610D02*
D03*
X11039Y142300D02*
D03*
X20177Y192913D02*
D03*
X11792Y153541D02*
D03*
X12888Y165882D02*
D03*
X16043Y179921D02*
D03*
X45965Y256890D02*
D03*
X57972Y266535D02*
D03*
X70023Y274178D02*
D03*
X116991Y292000D02*
D03*
X133465Y293996D02*
D03*
X160531Y293701D02*
D03*
X178051Y291437D02*
D03*
X193504Y286910D02*
D03*
X207579Y281496D02*
D03*
X223721Y273031D02*
D03*
X236811Y264238D02*
D03*
X248031Y254232D02*
D03*
X295174Y161216D02*
D03*
X296260Y147047D02*
D03*
X295866Y133661D02*
D03*
X275492Y68701D02*
D03*
X268764Y58418D02*
D03*
X260000Y47138D02*
D03*
X249324Y35900D02*
D03*
X238545Y26600D02*
D03*
X228814Y19587D02*
D03*
X218209Y13189D02*
D03*
X205700Y7055D02*
D03*
X191929Y1772D02*
D03*
X176297Y-2241D02*
D03*
X161000Y-4579D02*
D03*
X144677Y-5325D02*
D03*
X126900Y-4110D02*
D03*
X111024Y-1181D02*
D03*
X95339Y3479D02*
D03*
X80536Y9700D02*
D03*
X68504Y16226D02*
D03*
X58004Y23173D02*
D03*
X48564Y30600D02*
D03*
X39488Y39018D02*
D03*
X31583Y47627D02*
D03*
X24931Y56058D02*
D03*
X14620Y72200D02*
D03*
X3445Y97823D02*
D03*
X-492Y113681D02*
D03*
X-2953Y130709D02*
D03*
X-4035Y148130D02*
D03*
X-2953Y162200D02*
D03*
X-591Y176673D02*
D03*
X3445Y191437D02*
D03*
X8957Y205906D02*
D03*
X38681Y137894D02*
D03*
X171161Y104331D02*
D03*
X138287Y221752D02*
D03*
X142881D02*
D03*
X147474D02*
D03*
Y218898D02*
D03*
X142881D02*
D03*
X138287D02*
D03*
X138779Y102362D02*
D03*
X143373D02*
D03*
X147966D02*
D03*
X152559D02*
D03*
Y105217D02*
D03*
X147966D02*
D03*
X143373D02*
D03*
X138779D02*
D03*
X73819Y115847D02*
D03*
X68504Y115650D02*
D03*
X63484Y116240D02*
D03*
X73524Y120768D02*
D03*
X63189D02*
D03*
X72539Y45276D02*
D03*
X91339Y27657D02*
D03*
X112205Y25197D02*
D03*
X132677Y16142D02*
D03*
X155315Y21457D02*
D03*
X177756Y19587D02*
D03*
X190551Y95086D02*
D03*
X216460Y43627D02*
D03*
X189158Y29724D02*
D03*
X200300Y39200D02*
D03*
X214873Y37305D02*
D03*
X169000Y11300D02*
D03*
X229000Y37700D02*
D03*
X232874Y56394D02*
D03*
X221700Y51600D02*
D03*
X210500Y25600D02*
D03*
X205269Y41000D02*
D03*
X189300Y38200D02*
D03*
X191000Y16900D02*
D03*
X180500Y34736D02*
D03*
X172000Y32400D02*
D03*
X146800Y9700D02*
D03*
X161000Y31300D02*
D03*
X153100Y30100D02*
D03*
X138100Y31000D02*
D03*
X131700Y30600D02*
D03*
X122100Y11500D02*
D03*
X100400Y17700D02*
D03*
X120000Y33800D02*
D03*
X113700Y34800D02*
D03*
X69800Y59300D02*
D03*
X85300Y48300D02*
D03*
X101400Y38800D02*
D03*
X95200Y41400D02*
D03*
X79300Y27500D02*
D03*
X79200Y51700D02*
D03*
X60800Y39500D02*
D03*
X45100Y55200D02*
D03*
X64600Y63313D02*
D03*
X60600Y185300D02*
D03*
X57300D02*
D03*
X53700D02*
D03*
X50514D02*
D03*
X47100D02*
D03*
X75400Y168800D02*
D03*
X75200Y162200D02*
D03*
X74900Y145500D02*
D03*
X70592Y151200D02*
D03*
X75200Y154100D02*
D03*
X197700Y45100D02*
D03*
X197300Y59600D02*
D03*
X202000Y46800D02*
D03*
Y49481D02*
D03*
Y52200D02*
D03*
X201900Y54900D02*
D03*
Y57500D02*
D03*
X68900Y145800D02*
D03*
X96000Y72200D02*
D03*
X155400Y56300D02*
D03*
X150900Y56400D02*
D03*
X146100Y56300D02*
D03*
X141200D02*
D03*
X136700D02*
D03*
X132200Y56400D02*
D03*
X126900Y56300D02*
D03*
X122378D02*
D03*
X117900D02*
D03*
D139*
X172000Y131929D02*
D03*
X218307Y167717D02*
D03*
X218602Y142520D02*
D03*
X146800Y25600D02*
D03*
X124802Y131929D02*
D03*
X158760Y6102D02*
D03*
M02*
