G04*
G04 #@! TF.GenerationSoftware,Altium Limited,Altium Designer,18.1.9 (240)*
G04*
G04 Layer_Physical_Order=3*
G04 Layer_Color=16440176*
%FSLAX25Y25*%
%MOIN*%
G70*
G01*
G75*
%ADD131C,0.06000*%
%ADD133C,0.07000*%
%ADD136C,0.02000*%
%ADD137C,0.01600*%
G36*
X157255Y297073D02*
X164727Y296337D01*
X172155Y295235D01*
X179520Y293770D01*
X186804Y291946D01*
X193989Y289766D01*
X201060Y287236D01*
X207997Y284363D01*
X214785Y281152D01*
X221407Y277612D01*
X227848Y273752D01*
X234092Y269580D01*
X240123Y265107D01*
X245927Y260344D01*
X251491Y255301D01*
X256539Y250253D01*
X256220Y249865D01*
X255997Y250014D01*
X255217Y250169D01*
X254436Y250014D01*
X253775Y249572D01*
X253333Y248910D01*
X253177Y248130D01*
X253333Y247350D01*
X253775Y246688D01*
X254436Y246246D01*
X255217Y246091D01*
X255997Y246246D01*
X256658Y246688D01*
X257101Y247350D01*
X257256Y248130D01*
X257101Y248910D01*
X257086Y248932D01*
X257481Y249240D01*
X261843Y244427D01*
X266607Y238623D01*
X268051Y236677D01*
X267893Y236267D01*
X267789Y236190D01*
X267202Y235798D01*
X266804Y235202D01*
X266665Y234500D01*
X266804Y233798D01*
X267202Y233202D01*
X267798Y232804D01*
X268500Y232665D01*
X269202Y232804D01*
X269798Y233202D01*
X269950Y233430D01*
X270450Y233442D01*
X271080Y232592D01*
X275252Y226348D01*
X279113Y219907D01*
X282652Y213285D01*
X285863Y206497D01*
X288736Y199559D01*
X289123Y198478D01*
X288718Y198125D01*
X288635Y198169D01*
X287838Y198346D01*
X287022Y198310D01*
X286244Y198065D01*
X285555Y197626D01*
X285004Y197024D01*
X284627Y196300D01*
X284450Y195503D01*
X284486Y194688D01*
X284732Y193909D01*
X285170Y193221D01*
X285772Y192669D01*
X286496Y192293D01*
X287293Y192116D01*
X288108Y192151D01*
X288887Y192397D01*
X289575Y192835D01*
X290127Y193437D01*
X290286Y193744D01*
X290830Y193707D01*
X291266Y192489D01*
X293446Y185304D01*
X295270Y178020D01*
X296735Y170655D01*
X297837Y163227D01*
X298573Y155754D01*
X298941Y148255D01*
Y144500D01*
Y140745D01*
X298573Y133246D01*
X297837Y125773D01*
X296760Y118514D01*
X296249Y118387D01*
X295905Y118926D01*
X294794Y119944D01*
X293457Y120640D01*
X291985Y120967D01*
X290479Y120901D01*
X289041Y120448D01*
X287770Y119638D01*
X286752Y118526D01*
X286056Y117189D01*
X285730Y115717D01*
X285795Y114211D01*
X286248Y112774D01*
X287058Y111503D01*
X288170Y110484D01*
X289507Y109788D01*
X290979Y109462D01*
X292485Y109528D01*
X293922Y109981D01*
X294615Y110422D01*
X295052Y110108D01*
X293446Y103696D01*
X291266Y96511D01*
X290569Y94562D01*
X290087Y94701D01*
X290300Y95658D01*
X290234Y97164D01*
X289781Y98602D01*
X288971Y99873D01*
X287859Y100891D01*
X286522Y101588D01*
X285051Y101914D01*
X283544Y101848D01*
X282107Y101395D01*
X280836Y100585D01*
X279817Y99474D01*
X279121Y98136D01*
X278795Y96665D01*
X278861Y95159D01*
X279314Y93721D01*
X280124Y92450D01*
X281235Y91431D01*
X282572Y90735D01*
X284044Y90409D01*
X285550Y90475D01*
X286988Y90928D01*
X288259Y91738D01*
X289277Y92849D01*
X289750Y93757D01*
X290209Y93556D01*
X288736Y89441D01*
X285863Y82503D01*
X283758Y78053D01*
X283273Y78196D01*
X282846Y79549D01*
X282036Y80820D01*
X280925Y81839D01*
X279588Y82535D01*
X278116Y82861D01*
X276610Y82795D01*
X275172Y82342D01*
X273901Y81532D01*
X272883Y80421D01*
X272186Y79084D01*
X271860Y77612D01*
X271926Y76106D01*
X272379Y74668D01*
X273189Y73397D01*
X274301Y72378D01*
X275638Y71682D01*
X277109Y71356D01*
X278615Y71422D01*
X280029Y71868D01*
X280118Y71815D01*
X280419Y71536D01*
X279113Y69093D01*
X275252Y62652D01*
X273323Y59765D01*
X272826Y59716D01*
X261757Y70785D01*
X261698Y70825D01*
X261696Y70834D01*
X261835Y71536D01*
X261696Y72239D01*
X261298Y72834D01*
X260702Y73232D01*
X260000Y73372D01*
X259298Y73232D01*
X259288Y73234D01*
X259248Y73293D01*
X239757Y92785D01*
X239798Y93202D01*
X240196Y93798D01*
X240335Y94500D01*
X240196Y95202D01*
X239798Y95798D01*
X239202Y96196D01*
X238500Y96335D01*
X237798Y96196D01*
X237202Y95798D01*
X236785Y95757D01*
X230821Y101721D01*
X230490Y101942D01*
X230100Y102020D01*
X192756D01*
X192489Y102520D01*
X192696Y102829D01*
X192835Y103531D01*
X192696Y104233D01*
X192298Y104829D01*
X191702Y105226D01*
X191000Y105366D01*
X190298Y105226D01*
X189702Y104829D01*
X189304Y104233D01*
X189165Y103531D01*
X189304Y102829D01*
X189511Y102520D01*
X189244Y102020D01*
X156236D01*
Y134092D01*
X156736Y134141D01*
X156804Y133798D01*
X157202Y133202D01*
X157798Y132804D01*
X158500Y132665D01*
X159202Y132804D01*
X159798Y133202D01*
X160196Y133798D01*
X160335Y134500D01*
X160196Y135202D01*
X159798Y135798D01*
X159202Y136196D01*
X158500Y136335D01*
X157798Y136196D01*
X157202Y135798D01*
X156804Y135202D01*
X156736Y134859D01*
X156236Y134908D01*
X156236Y174092D01*
X156736Y174141D01*
X156804Y173798D01*
X157202Y173202D01*
X157798Y172804D01*
X158500Y172665D01*
X159202Y172804D01*
X159798Y173202D01*
X160196Y173798D01*
X160335Y174500D01*
X160196Y175202D01*
X159798Y175798D01*
X159202Y176196D01*
X158500Y176335D01*
X157798Y176196D01*
X157202Y175798D01*
X156804Y175202D01*
X156736Y174859D01*
X156236Y174908D01*
Y214092D01*
X156736Y214141D01*
X156804Y213798D01*
X157202Y213202D01*
X157798Y212804D01*
X158500Y212665D01*
X159202Y212804D01*
X159798Y213202D01*
X160196Y213798D01*
X160335Y214500D01*
X160196Y215202D01*
X159798Y215798D01*
X159202Y216196D01*
X158500Y216335D01*
X157798Y216196D01*
X157202Y215798D01*
X156804Y215202D01*
X156736Y214859D01*
X156236Y214908D01*
Y224114D01*
X156158Y224504D01*
X155938Y224835D01*
X155607Y225056D01*
X155217Y225134D01*
X135494Y225134D01*
X135490Y225133D01*
X135487Y225134D01*
X135295Y225094D01*
X135103Y225056D01*
X135101Y225054D01*
X135097Y225054D01*
X134935Y224944D01*
X134773Y224835D01*
X134771Y224832D01*
X134768Y224830D01*
X134417Y224474D01*
X134415Y224472D01*
X134412Y224470D01*
X134306Y224306D01*
X134198Y224142D01*
X134197Y224139D01*
X134195Y224136D01*
X134160Y223944D01*
X134123Y223751D01*
X134124Y223748D01*
X134123Y223745D01*
X135296Y135313D01*
X135311Y135243D01*
X135308Y135172D01*
X135352Y135050D01*
X135379Y134924D01*
X135419Y134865D01*
X135444Y134798D01*
X135531Y134703D01*
X135586Y134623D01*
X135609Y134221D01*
X135609Y134204D01*
X135549Y134029D01*
X135547Y134025D01*
X135468Y133939D01*
X135440Y133860D01*
X135394Y133790D01*
X135373Y133675D01*
X135333Y133565D01*
X135337Y133481D01*
X135321Y133398D01*
X135733Y102375D01*
X135382Y102020D01*
X77201Y102020D01*
Y124508D01*
X77123Y124898D01*
X76902Y125229D01*
X76068Y126063D01*
X75738Y126284D01*
X75347Y126361D01*
X62098D01*
X61708Y126284D01*
X61377Y126063D01*
X61156Y125732D01*
X61078Y125342D01*
Y101420D01*
X57086Y97428D01*
X57058Y97386D01*
X57019Y97354D01*
X56949Y97222D01*
X56865Y97097D01*
X56855Y97048D01*
X56832Y97003D01*
X56817Y96854D01*
X56788Y96707D01*
X56798Y96658D01*
X56793Y96607D01*
X56658Y96375D01*
X56625Y96342D01*
X56393Y96207D01*
X56342Y96202D01*
X56293Y96212D01*
X56146Y96183D01*
X55997Y96168D01*
X55952Y96145D01*
X55902Y96135D01*
X55778Y96052D01*
X55646Y95981D01*
X55614Y95942D01*
X55572Y95914D01*
X47681Y88022D01*
X47203Y88171D01*
X47133Y88550D01*
X46623Y89619D01*
X45853Y90520D01*
X44877Y91191D01*
X43760Y91587D01*
X42578Y91680D01*
X41413Y91464D01*
X40344Y90954D01*
X39443Y90184D01*
X38772Y89208D01*
X38376Y88091D01*
X38283Y86910D01*
X38499Y85745D01*
X39009Y84675D01*
X39779Y83774D01*
X40755Y83103D01*
X41715Y82763D01*
X41905Y82247D01*
X33204Y73545D01*
X32680Y73896D01*
X31977Y74035D01*
X31275Y73896D01*
X30680Y73498D01*
X30282Y72902D01*
X30142Y72200D01*
X30282Y71498D01*
X30632Y70974D01*
X19254Y59596D01*
X18757Y59645D01*
X16748Y62652D01*
X12888Y69093D01*
X9348Y75715D01*
X6137Y82503D01*
X3264Y89441D01*
X734Y96511D01*
X-1446Y103696D01*
X-3270Y110980D01*
X-4735Y118345D01*
X-5837Y125773D01*
X-6573Y133246D01*
X-6942Y140745D01*
Y144500D01*
Y148255D01*
X-6573Y155754D01*
X-5837Y163227D01*
X-4735Y170655D01*
X-3270Y178020D01*
X-1446Y185304D01*
X734Y192489D01*
X3264Y199559D01*
X6137Y206497D01*
X9348Y213285D01*
X9630Y213813D01*
X10127Y213754D01*
X10296Y213098D01*
X11039Y211786D01*
X12095Y210711D01*
X13394Y209946D01*
X14846Y209543D01*
X16354Y209530D01*
X17813Y209908D01*
X19125Y210650D01*
X20200Y211706D01*
X20966Y213005D01*
X21368Y214458D01*
X21382Y215965D01*
X21004Y217425D01*
X20262Y218737D01*
X19205Y219812D01*
X17906Y220577D01*
X16454Y220980D01*
X14946Y220993D01*
X13970Y220740D01*
X13646Y221173D01*
X16748Y226348D01*
X20920Y232592D01*
X25393Y238623D01*
X30156Y244427D01*
X34805Y249556D01*
X35255Y249308D01*
X34898Y248020D01*
X34885Y246513D01*
X35262Y245053D01*
X36004Y243741D01*
X37061Y242666D01*
X38360Y241901D01*
X39812Y241498D01*
X41320Y241485D01*
X42779Y241862D01*
X44091Y242605D01*
X45166Y243661D01*
X45931Y244960D01*
X46334Y246413D01*
X46347Y247920D01*
X45970Y249379D01*
X45228Y250691D01*
X44171Y251766D01*
X42872Y252532D01*
X41420Y252934D01*
X39912Y252948D01*
X38497Y252581D01*
X38456Y252607D01*
X38322Y253114D01*
X40509Y255301D01*
X46073Y260344D01*
X51877Y265107D01*
X57908Y269580D01*
X64152Y273752D01*
X70593Y277612D01*
X75616Y280297D01*
X75741Y280075D01*
X76314Y279493D01*
X77017Y279079D01*
X77803Y278861D01*
X78620Y278854D01*
X79410Y279058D01*
X80120Y279460D01*
X80702Y280032D01*
X81117Y280735D01*
X81335Y281522D01*
X81342Y282338D01*
X81165Y283021D01*
X84003Y284363D01*
X86161Y285256D01*
X86489Y284879D01*
X86397Y284724D01*
X86081Y283583D01*
X86071Y282398D01*
X86367Y281251D01*
X86951Y280219D01*
X87781Y279374D01*
X88802Y278773D01*
X89944Y278456D01*
X91129Y278446D01*
X92276Y278743D01*
X93307Y279326D01*
X94152Y280157D01*
X94753Y281177D01*
X95070Y282319D01*
X95081Y283504D01*
X94784Y284651D01*
X94200Y285683D01*
X93370Y286528D01*
X92349Y287129D01*
X92184Y287175D01*
X92165Y287674D01*
X97309Y289515D01*
X97643Y288924D01*
X98215Y288342D01*
X98919Y287928D01*
X99705Y287710D01*
X100522Y287703D01*
X101312Y287907D01*
X102022Y288309D01*
X102604Y288881D01*
X103019Y289584D01*
X103237Y290371D01*
X103244Y291187D01*
X103204Y291341D01*
X105196Y291946D01*
X112480Y293770D01*
X119845Y295235D01*
X127273Y296337D01*
X134746Y297073D01*
X142245Y297442D01*
X142472D01*
X142563Y296941D01*
X141737Y296263D01*
X140987Y295350D01*
X140430Y294307D01*
X140087Y293176D01*
X139971Y292000D01*
X140087Y290824D01*
X140430Y289693D01*
X140987Y288650D01*
X141737Y287737D01*
X142650Y286987D01*
X143693Y286430D01*
X144824Y286087D01*
X146000Y285971D01*
X147176Y286087D01*
X148307Y286430D01*
X149349Y286987D01*
X150263Y287737D01*
X151013Y288650D01*
X151570Y289693D01*
X151913Y290824D01*
X152029Y292000D01*
X151913Y293176D01*
X151570Y294307D01*
X151013Y295350D01*
X150263Y296263D01*
X149437Y296941D01*
X149528Y297442D01*
X149755D01*
X157255Y297073D01*
D02*
G37*
G36*
X155217Y224114D02*
X155217Y98524D01*
X136804Y98524D01*
X136341Y133412D01*
X136421Y133471D01*
X137101Y133353D01*
X137202Y133202D01*
X137798Y132804D01*
X138500Y132665D01*
X139202Y132804D01*
X139798Y133202D01*
X140196Y133798D01*
X140335Y134500D01*
X140196Y135202D01*
X139798Y135798D01*
X139202Y136196D01*
X138500Y136335D01*
X137798Y136196D01*
X137202Y135798D01*
X136817Y135221D01*
X136778Y135213D01*
X136316Y135327D01*
X135143Y223758D01*
X135494Y224114D01*
X155217Y224114D01*
D02*
G37*
G36*
X76181Y124508D02*
Y101000D01*
X135751Y101000D01*
X135784Y98510D01*
X135824Y98322D01*
X135862Y98133D01*
X135865Y98128D01*
X135867Y98121D01*
X135976Y97963D01*
X136083Y97803D01*
X136088Y97799D01*
X136092Y97793D01*
X136253Y97689D01*
X136414Y97582D01*
X136420Y97580D01*
X136426Y97576D01*
X136615Y97541D01*
X136804Y97504D01*
X155217Y97504D01*
X155607Y97582D01*
X155938Y97803D01*
X156158Y98133D01*
X156236Y98524D01*
Y101000D01*
X172700D01*
X230100D01*
X236681Y94419D01*
X236804Y93798D01*
X237202Y93202D01*
X237798Y92804D01*
X238419Y92681D01*
X258527Y72572D01*
X258305Y72239D01*
X258165Y71536D01*
X258305Y70834D01*
X258702Y70239D01*
X259298Y69841D01*
X260000Y69701D01*
X260702Y69841D01*
X261036Y70064D01*
X272527Y58573D01*
X271080Y56408D01*
X266607Y50377D01*
X261843Y44573D01*
X256801Y39009D01*
X251491Y33699D01*
X245927Y28657D01*
X240123Y23893D01*
X234092Y19420D01*
X227848Y15248D01*
X221407Y11387D01*
X214785Y7848D01*
X207997Y4637D01*
X201060Y1764D01*
X193989Y-766D01*
X186804Y-2946D01*
X179520Y-4770D01*
X172155Y-6235D01*
X170572Y-6470D01*
X170233Y-6015D01*
X170335Y-5500D01*
X170196Y-4798D01*
X169798Y-4202D01*
X169202Y-3804D01*
X168500Y-3665D01*
X167798Y-3804D01*
X167202Y-4202D01*
X166804Y-4798D01*
X166665Y-5500D01*
X166804Y-6202D01*
X167000Y-6494D01*
X166760Y-7036D01*
X164727Y-7337D01*
X157255Y-8073D01*
X149755Y-8442D01*
X142245D01*
X134746Y-8073D01*
X129554Y-7562D01*
X129425Y-7047D01*
X129798Y-6798D01*
X130196Y-6202D01*
X130335Y-5500D01*
X130196Y-4798D01*
X129798Y-4202D01*
X129202Y-3804D01*
X128653Y-3695D01*
X128596Y-3408D01*
X128198Y-2812D01*
X127602Y-2414D01*
X126900Y-2275D01*
X126198Y-2414D01*
X125602Y-2812D01*
X125204Y-3408D01*
X125065Y-4110D01*
X125204Y-4812D01*
X125602Y-5408D01*
X126198Y-5805D01*
X126747Y-5915D01*
X126804Y-6202D01*
X127202Y-6798D01*
X127247Y-6828D01*
X127063Y-7306D01*
X119845Y-6235D01*
X112480Y-4770D01*
X105196Y-2946D01*
X98011Y-766D01*
X90940Y1764D01*
X84003Y4637D01*
X77215Y7848D01*
X70593Y11387D01*
X64152Y15248D01*
X57908Y19420D01*
X51877Y23893D01*
X46073Y28657D01*
X40509Y33699D01*
X35199Y39009D01*
X30156Y44573D01*
X25393Y50377D01*
X20920Y56408D01*
X19553Y58453D01*
X31550Y70450D01*
X31977Y70365D01*
X32680Y70504D01*
X33275Y70902D01*
X33673Y71498D01*
X33813Y72200D01*
X33728Y72628D01*
X43865Y82765D01*
X44219Y82831D01*
X45288Y83341D01*
X46189Y84110D01*
X46860Y85087D01*
X47229Y86129D01*
X56293Y95193D01*
X56753Y94946D01*
X56665Y94500D01*
X56804Y93798D01*
X57202Y93202D01*
X57798Y92804D01*
X58500Y92665D01*
X59202Y92804D01*
X59798Y93202D01*
X60196Y93798D01*
X60335Y94500D01*
X60196Y95202D01*
X59798Y95798D01*
X59202Y96196D01*
X58500Y96335D01*
X58054Y96246D01*
X57807Y96707D01*
X62100Y101000D01*
X62098Y101002D01*
Y125342D01*
X75347D01*
X76181Y124508D01*
D02*
G37*
%LPC*%
G36*
X133465Y295831D02*
X132762Y295692D01*
X132167Y295294D01*
X131769Y294698D01*
X131629Y293996D01*
X131769Y293294D01*
X132167Y292698D01*
X132762Y292301D01*
X133465Y292161D01*
X134167Y292301D01*
X134762Y292698D01*
X135160Y293294D01*
X135300Y293996D01*
X135160Y294698D01*
X134762Y295294D01*
X134167Y295692D01*
X133465Y295831D01*
D02*
G37*
G36*
X160531Y295536D02*
X159829Y295396D01*
X159234Y294999D01*
X158836Y294403D01*
X158696Y293701D01*
X158836Y292999D01*
X159234Y292403D01*
X159829Y292005D01*
X160531Y291865D01*
X161234Y292005D01*
X161829Y292403D01*
X162227Y292999D01*
X162367Y293701D01*
X162227Y294403D01*
X161829Y294999D01*
X161234Y295396D01*
X160531Y295536D01*
D02*
G37*
G36*
X116991Y293835D02*
X116288Y293696D01*
X115693Y293298D01*
X115295Y292702D01*
X115155Y292000D01*
X115295Y291298D01*
X115693Y290702D01*
X116288Y290304D01*
X116991Y290165D01*
X117693Y290304D01*
X118289Y290702D01*
X118686Y291298D01*
X118826Y292000D01*
X118686Y292702D01*
X118289Y293298D01*
X117693Y293696D01*
X116991Y293835D01*
D02*
G37*
G36*
X178051Y293272D02*
X177349Y293133D01*
X176753Y292735D01*
X176356Y292139D01*
X176216Y291437D01*
X176356Y290735D01*
X176753Y290139D01*
X177349Y289741D01*
X178051Y289602D01*
X178753Y289741D01*
X179349Y290139D01*
X179747Y290735D01*
X179886Y291437D01*
X179747Y292139D01*
X179349Y292735D01*
X178753Y293133D01*
X178051Y293272D01*
D02*
G37*
G36*
X193504Y288745D02*
X192802Y288605D01*
X192206Y288207D01*
X191808Y287612D01*
X191669Y286910D01*
X191808Y286207D01*
X192206Y285612D01*
X192802Y285214D01*
X193504Y285074D01*
X194206Y285214D01*
X194802Y285612D01*
X195200Y286207D01*
X195339Y286910D01*
X195200Y287612D01*
X194802Y288207D01*
X194206Y288605D01*
X193504Y288745D01*
D02*
G37*
G36*
X207579Y283331D02*
X206876Y283192D01*
X206281Y282794D01*
X205883Y282198D01*
X205744Y281496D01*
X205883Y280794D01*
X206281Y280198D01*
X206876Y279801D01*
X207579Y279661D01*
X208281Y279801D01*
X208876Y280198D01*
X209274Y280794D01*
X209414Y281496D01*
X209274Y282198D01*
X208876Y282794D01*
X208281Y283192D01*
X207579Y283331D01*
D02*
G37*
G36*
X165453Y279886D02*
X164750Y279747D01*
X164155Y279349D01*
X163757Y278753D01*
X163618Y278051D01*
X163757Y277349D01*
X164155Y276753D01*
X164750Y276356D01*
X165453Y276216D01*
X166155Y276356D01*
X166751Y276753D01*
X167148Y277349D01*
X167288Y278051D01*
X167148Y278753D01*
X166751Y279349D01*
X166155Y279747D01*
X165453Y279886D01*
D02*
G37*
G36*
X127496Y286218D02*
X126320Y286102D01*
X125189Y285759D01*
X124146Y285202D01*
X123233Y284452D01*
X122483Y283539D01*
X121926Y282496D01*
X121583Y281365D01*
X121467Y280189D01*
X121583Y279013D01*
X121926Y277882D01*
X122483Y276839D01*
X123233Y275926D01*
X124146Y275176D01*
X125189Y274619D01*
X126320Y274276D01*
X127496Y274160D01*
X128672Y274276D01*
X129803Y274619D01*
X130846Y275176D01*
X131759Y275926D01*
X132509Y276839D01*
X133066Y277882D01*
X133409Y279013D01*
X133525Y280189D01*
X133409Y281365D01*
X133066Y282496D01*
X132509Y283539D01*
X131759Y284452D01*
X130846Y285202D01*
X129803Y285759D01*
X128672Y286102D01*
X127496Y286218D01*
D02*
G37*
G36*
X181102Y276835D02*
X180400Y276696D01*
X179805Y276298D01*
X179407Y275702D01*
X179267Y275000D01*
X179407Y274298D01*
X179805Y273702D01*
X180400Y273304D01*
X181102Y273165D01*
X181805Y273304D01*
X182400Y273702D01*
X182798Y274298D01*
X182938Y275000D01*
X182798Y275702D01*
X182400Y276298D01*
X181805Y276696D01*
X181102Y276835D01*
D02*
G37*
G36*
X208500Y276335D02*
X207798Y276196D01*
X207202Y275798D01*
X206804Y275202D01*
X206665Y274500D01*
X206804Y273798D01*
X207202Y273202D01*
X207798Y272804D01*
X208500Y272665D01*
X209202Y272804D01*
X209798Y273202D01*
X210196Y273798D01*
X210335Y274500D01*
X210196Y275202D01*
X209798Y275798D01*
X209202Y276196D01*
X208500Y276335D01*
D02*
G37*
G36*
X188500D02*
X187798Y276196D01*
X187202Y275798D01*
X186804Y275202D01*
X186665Y274500D01*
X186804Y273798D01*
X187202Y273202D01*
X187798Y272804D01*
X188500Y272665D01*
X189202Y272804D01*
X189798Y273202D01*
X190196Y273798D01*
X190335Y274500D01*
X190196Y275202D01*
X189798Y275798D01*
X189202Y276196D01*
X188500Y276335D01*
D02*
G37*
G36*
X168500D02*
X167798Y276196D01*
X167202Y275798D01*
X166804Y275202D01*
X166665Y274500D01*
X166804Y273798D01*
X167202Y273202D01*
X167798Y272804D01*
X168500Y272665D01*
X169202Y272804D01*
X169798Y273202D01*
X170196Y273798D01*
X170335Y274500D01*
X170196Y275202D01*
X169798Y275798D01*
X169202Y276196D01*
X168500Y276335D01*
D02*
G37*
G36*
X70023Y276013D02*
X69321Y275873D01*
X68725Y275476D01*
X68327Y274880D01*
X68188Y274178D01*
X68327Y273476D01*
X68725Y272880D01*
X69321Y272482D01*
X70023Y272343D01*
X70725Y272482D01*
X71321Y272880D01*
X71719Y273476D01*
X71858Y274178D01*
X71719Y274880D01*
X71321Y275476D01*
X70725Y275873D01*
X70023Y276013D01*
D02*
G37*
G36*
X223721Y274867D02*
X223018Y274727D01*
X222423Y274329D01*
X222025Y273734D01*
X221885Y273031D01*
X222025Y272329D01*
X222423Y271734D01*
X223018Y271336D01*
X223721Y271196D01*
X224423Y271336D01*
X225018Y271734D01*
X225416Y272329D01*
X225556Y273031D01*
X225416Y273734D01*
X225018Y274329D01*
X224423Y274727D01*
X223721Y274867D01*
D02*
G37*
G36*
X195374Y271816D02*
X194672Y271676D01*
X194076Y271278D01*
X193678Y270683D01*
X193539Y269980D01*
X193678Y269278D01*
X194076Y268683D01*
X194672Y268285D01*
X195374Y268145D01*
X196076Y268285D01*
X196672Y268683D01*
X197070Y269278D01*
X197209Y269980D01*
X197070Y270683D01*
X196672Y271278D01*
X196076Y271676D01*
X195374Y271816D01*
D02*
G37*
G36*
X94447Y276505D02*
X93300Y276208D01*
X92269Y275625D01*
X91423Y274794D01*
X90822Y273774D01*
X90505Y272632D01*
X90495Y271447D01*
X90792Y270300D01*
X91375Y269268D01*
X92206Y268423D01*
X93226Y267822D01*
X94368Y267505D01*
X95553Y267495D01*
X96700Y267792D01*
X97732Y268375D01*
X98577Y269206D01*
X99178Y270227D01*
X99495Y271368D01*
X99505Y272553D01*
X99208Y273700D01*
X98625Y274731D01*
X97794Y275577D01*
X96773Y276178D01*
X95632Y276495D01*
X94447Y276505D01*
D02*
G37*
G36*
X57972Y268371D02*
X57270Y268231D01*
X56675Y267833D01*
X56277Y267238D01*
X56137Y266535D01*
X56277Y265833D01*
X56675Y265238D01*
X57270Y264840D01*
X57972Y264700D01*
X58675Y264840D01*
X59270Y265238D01*
X59668Y265833D01*
X59808Y266535D01*
X59668Y267238D01*
X59270Y267833D01*
X58675Y268231D01*
X57972Y268371D01*
D02*
G37*
G36*
X236811Y266074D02*
X236109Y265934D01*
X235513Y265536D01*
X235116Y264941D01*
X234976Y264238D01*
X235116Y263536D01*
X235513Y262941D01*
X236109Y262543D01*
X236811Y262403D01*
X237513Y262543D01*
X238109Y262941D01*
X238507Y263536D01*
X238646Y264238D01*
X238507Y264941D01*
X238109Y265536D01*
X237513Y265934D01*
X236811Y266074D01*
D02*
G37*
G36*
X208666D02*
X207964Y265934D01*
X207368Y265536D01*
X206970Y264941D01*
X206831Y264238D01*
X206970Y263536D01*
X207368Y262941D01*
X207964Y262543D01*
X208666Y262403D01*
X209368Y262543D01*
X209964Y262941D01*
X210362Y263536D01*
X210501Y264238D01*
X210362Y264941D01*
X209964Y265536D01*
X209368Y265934D01*
X208666Y266074D01*
D02*
G37*
G36*
X146000Y274407D02*
X144824Y274291D01*
X143693Y273948D01*
X142650Y273391D01*
X141737Y272641D01*
X140987Y271727D01*
X140430Y270685D01*
X140087Y269554D01*
X139971Y268378D01*
X140087Y267202D01*
X140430Y266071D01*
X140987Y265028D01*
X141737Y264115D01*
X142650Y263365D01*
X143693Y262808D01*
X144824Y262465D01*
X146000Y262349D01*
X147176Y262465D01*
X148307Y262808D01*
X149349Y263365D01*
X150263Y264115D01*
X151013Y265028D01*
X151570Y266071D01*
X151913Y267202D01*
X152029Y268378D01*
X151913Y269554D01*
X151570Y270685D01*
X151013Y271727D01*
X150263Y272641D01*
X149349Y273391D01*
X148307Y273948D01*
X147176Y274291D01*
X146000Y274407D01*
D02*
G37*
G36*
X73425Y260005D02*
X72723Y259865D01*
X72127Y259467D01*
X71730Y258872D01*
X71590Y258169D01*
X71730Y257467D01*
X72127Y256872D01*
X72723Y256474D01*
X73425Y256334D01*
X74128Y256474D01*
X74723Y256872D01*
X75121Y257467D01*
X75261Y258169D01*
X75121Y258872D01*
X74723Y259467D01*
X74128Y259865D01*
X73425Y260005D01*
D02*
G37*
G36*
X45965Y258725D02*
X45262Y258585D01*
X44667Y258188D01*
X44269Y257592D01*
X44129Y256890D01*
X44269Y256187D01*
X44667Y255592D01*
X45262Y255194D01*
X45965Y255054D01*
X46667Y255194D01*
X47262Y255592D01*
X47660Y256187D01*
X47800Y256890D01*
X47660Y257592D01*
X47262Y258188D01*
X46667Y258585D01*
X45965Y258725D01*
D02*
G37*
G36*
X238500Y256335D02*
X237798Y256196D01*
X237202Y255798D01*
X236804Y255202D01*
X236665Y254500D01*
X236804Y253798D01*
X237202Y253202D01*
X237798Y252804D01*
X238500Y252665D01*
X239202Y252804D01*
X239798Y253202D01*
X240196Y253798D01*
X240335Y254500D01*
X240196Y255202D01*
X239798Y255798D01*
X239202Y256196D01*
X238500Y256335D01*
D02*
G37*
G36*
X219390Y259611D02*
X218687Y259471D01*
X218092Y259073D01*
X217694Y258478D01*
X217554Y257776D01*
X217694Y257073D01*
X217923Y256730D01*
X217801Y256211D01*
X217747Y256162D01*
X217202Y255798D01*
X216804Y255202D01*
X216665Y254500D01*
X216804Y253798D01*
X217202Y253202D01*
X217798Y252804D01*
X218500Y252665D01*
X219202Y252804D01*
X219798Y253202D01*
X220196Y253798D01*
X220335Y254500D01*
X220196Y255202D01*
X219966Y255545D01*
X220088Y256064D01*
X220142Y256114D01*
X220688Y256478D01*
X221085Y257073D01*
X221225Y257776D01*
X221085Y258478D01*
X220688Y259073D01*
X220092Y259471D01*
X219390Y259611D01*
D02*
G37*
G36*
X198500Y256335D02*
X197798Y256196D01*
X197202Y255798D01*
X196804Y255202D01*
X196665Y254500D01*
X196804Y253798D01*
X197202Y253202D01*
X197798Y252804D01*
X198500Y252665D01*
X199202Y252804D01*
X199798Y253202D01*
X200196Y253798D01*
X200335Y254500D01*
X200196Y255202D01*
X199798Y255798D01*
X199202Y256196D01*
X198500Y256335D01*
D02*
G37*
G36*
X178500D02*
X177798Y256196D01*
X177202Y255798D01*
X176804Y255202D01*
X176665Y254500D01*
X176804Y253798D01*
X177202Y253202D01*
X177798Y252804D01*
X178500Y252665D01*
X179202Y252804D01*
X179798Y253202D01*
X180196Y253798D01*
X180335Y254500D01*
X180196Y255202D01*
X179798Y255798D01*
X179202Y256196D01*
X178500Y256335D01*
D02*
G37*
G36*
X118500D02*
X117798Y256196D01*
X117202Y255798D01*
X116804Y255202D01*
X116665Y254500D01*
X116804Y253798D01*
X117202Y253202D01*
X117798Y252804D01*
X118500Y252665D01*
X119202Y252804D01*
X119798Y253202D01*
X120196Y253798D01*
X120335Y254500D01*
X120196Y255202D01*
X119798Y255798D01*
X119202Y256196D01*
X118500Y256335D01*
D02*
G37*
G36*
X78500D02*
X77798Y256196D01*
X77202Y255798D01*
X76804Y255202D01*
X76665Y254500D01*
X76804Y253798D01*
X77202Y253202D01*
X77798Y252804D01*
X78500Y252665D01*
X79202Y252804D01*
X79798Y253202D01*
X80196Y253798D01*
X80335Y254500D01*
X80196Y255202D01*
X79798Y255798D01*
X79202Y256196D01*
X78500Y256335D01*
D02*
G37*
G36*
X58500D02*
X57798Y256196D01*
X57202Y255798D01*
X56804Y255202D01*
X56665Y254500D01*
X56804Y253798D01*
X57202Y253202D01*
X57798Y252804D01*
X58500Y252665D01*
X59202Y252804D01*
X59798Y253202D01*
X60196Y253798D01*
X60335Y254500D01*
X60196Y255202D01*
X59798Y255798D01*
X59202Y256196D01*
X58500Y256335D01*
D02*
G37*
G36*
X248031Y256067D02*
X247329Y255928D01*
X246734Y255530D01*
X246336Y254935D01*
X246196Y254232D01*
X246336Y253530D01*
X246734Y252935D01*
X247329Y252537D01*
X248031Y252397D01*
X248734Y252537D01*
X249329Y252935D01*
X249727Y253530D01*
X249867Y254232D01*
X249727Y254935D01*
X249329Y255530D01*
X248734Y255928D01*
X248031Y256067D01*
D02*
G37*
G36*
X158500Y256335D02*
X157798Y256196D01*
X157202Y255798D01*
X156804Y255202D01*
X156665Y254500D01*
X156804Y253798D01*
X157202Y253202D01*
X157798Y252804D01*
X158500Y252665D01*
X159202Y252804D01*
X159834Y252625D01*
X160021Y252344D01*
X160617Y251946D01*
X161319Y251806D01*
X162021Y251946D01*
X162617Y252344D01*
X163014Y252939D01*
X163154Y253642D01*
X163014Y254344D01*
X162617Y254939D01*
X162021Y255337D01*
X161319Y255477D01*
X160617Y255337D01*
X159985Y255517D01*
X159798Y255798D01*
X159202Y256196D01*
X158500Y256335D01*
D02*
G37*
G36*
X127496Y254657D02*
X126794Y254518D01*
X126198Y254120D01*
X125801Y253524D01*
X125661Y252822D01*
X125801Y252120D01*
X126198Y251524D01*
X126794Y251127D01*
X127496Y250987D01*
X128198Y251127D01*
X128794Y251524D01*
X129192Y252120D01*
X129331Y252822D01*
X129192Y253524D01*
X128794Y254120D01*
X128198Y254518D01*
X127496Y254657D01*
D02*
G37*
G36*
X177387Y251737D02*
X176684Y251597D01*
X176089Y251199D01*
X175691Y250604D01*
X175551Y249902D01*
X175691Y249199D01*
X176089Y248604D01*
X176684Y248206D01*
X177387Y248066D01*
X178089Y248206D01*
X178684Y248604D01*
X179082Y249199D01*
X179222Y249902D01*
X179082Y250604D01*
X178684Y251199D01*
X178089Y251597D01*
X177387Y251737D01*
D02*
G37*
G36*
X114173D02*
X113471Y251597D01*
X112875Y251199D01*
X112478Y250604D01*
X112338Y249902D01*
X112478Y249199D01*
X112875Y248604D01*
X113471Y248206D01*
X114173Y248066D01*
X114875Y248206D01*
X115471Y248604D01*
X115869Y249199D01*
X116008Y249902D01*
X115869Y250604D01*
X115471Y251199D01*
X114875Y251597D01*
X114173Y251737D01*
D02*
G37*
G36*
X60600Y251144D02*
X59898Y251004D01*
X59302Y250606D01*
X58904Y250011D01*
X58765Y249308D01*
X58904Y248606D01*
X59302Y248011D01*
X59898Y247613D01*
X60600Y247473D01*
X61302Y247613D01*
X61898Y248011D01*
X62296Y248606D01*
X62435Y249308D01*
X62296Y250011D01*
X61898Y250606D01*
X61302Y251004D01*
X60600Y251144D01*
D02*
G37*
G36*
X232811Y249965D02*
X232109Y249826D01*
X231514Y249428D01*
X231116Y248832D01*
X230976Y248130D01*
X231116Y247428D01*
X231514Y246832D01*
X232109Y246434D01*
X232811Y246295D01*
X233514Y246434D01*
X234109Y246832D01*
X234507Y247428D01*
X234647Y248130D01*
X234507Y248832D01*
X234109Y249428D01*
X233514Y249826D01*
X232811Y249965D01*
D02*
G37*
G36*
X190787Y246806D02*
X190085Y246666D01*
X189490Y246268D01*
X189092Y245673D01*
X188952Y244971D01*
X189092Y244268D01*
X189490Y243673D01*
X190085Y243275D01*
X190787Y243135D01*
X191490Y243275D01*
X192085Y243673D01*
X192483Y244268D01*
X192623Y244971D01*
X192483Y245673D01*
X192085Y246268D01*
X191490Y246666D01*
X190787Y246806D01*
D02*
G37*
G36*
X100140Y246157D02*
X99438Y246017D01*
X98843Y245620D01*
X98445Y245024D01*
X98305Y244322D01*
X98445Y243619D01*
X98843Y243024D01*
X99438Y242626D01*
X100140Y242487D01*
X100843Y242626D01*
X101438Y243024D01*
X101836Y243619D01*
X101976Y244322D01*
X101836Y245024D01*
X101438Y245620D01*
X100843Y246017D01*
X100140Y246157D01*
D02*
G37*
G36*
X89665Y240713D02*
X88963Y240574D01*
X88368Y240176D01*
X87970Y239580D01*
X87830Y238878D01*
X87970Y238176D01*
X88368Y237580D01*
X88963Y237182D01*
X89665Y237043D01*
X90368Y237182D01*
X90963Y237580D01*
X91361Y238176D01*
X91501Y238878D01*
X91361Y239580D01*
X90963Y240176D01*
X90368Y240574D01*
X89665Y240713D01*
D02*
G37*
G36*
X204133Y239752D02*
X203431Y239613D01*
X202835Y239215D01*
X202437Y238619D01*
X202298Y237917D01*
X202437Y237215D01*
X202835Y236619D01*
X203431Y236222D01*
X204133Y236082D01*
X204835Y236222D01*
X205431Y236619D01*
X205828Y237215D01*
X205968Y237917D01*
X205828Y238619D01*
X205431Y239215D01*
X204835Y239613D01*
X204133Y239752D01*
D02*
G37*
G36*
X228500Y236335D02*
X227798Y236196D01*
X227202Y235798D01*
X226804Y235202D01*
X226665Y234500D01*
X226804Y233798D01*
X227202Y233202D01*
X227798Y232804D01*
X228500Y232665D01*
X229202Y232804D01*
X229798Y233202D01*
X230196Y233798D01*
X230335Y234500D01*
X230196Y235202D01*
X229798Y235798D01*
X229202Y236196D01*
X228500Y236335D01*
D02*
G37*
G36*
X208500D02*
X207798Y236196D01*
X207202Y235798D01*
X206804Y235202D01*
X206665Y234500D01*
X206804Y233798D01*
X207202Y233202D01*
X207798Y232804D01*
X208500Y232665D01*
X209202Y232804D01*
X209798Y233202D01*
X210196Y233798D01*
X210335Y234500D01*
X210196Y235202D01*
X209798Y235798D01*
X209202Y236196D01*
X208500Y236335D01*
D02*
G37*
G36*
X88500D02*
X87798Y236196D01*
X87202Y235798D01*
X86804Y235202D01*
X86665Y234500D01*
X86804Y233798D01*
X87202Y233202D01*
X87798Y232804D01*
X88500Y232665D01*
X89202Y232804D01*
X89798Y233202D01*
X90196Y233798D01*
X90335Y234500D01*
X90196Y235202D01*
X89798Y235798D01*
X89202Y236196D01*
X88500Y236335D01*
D02*
G37*
G36*
X68500D02*
X67798Y236196D01*
X67202Y235798D01*
X66804Y235202D01*
X66665Y234500D01*
X66804Y233798D01*
X67202Y233202D01*
X67798Y232804D01*
X68500Y232665D01*
X69202Y232804D01*
X69798Y233202D01*
X70196Y233798D01*
X70335Y234500D01*
X70196Y235202D01*
X69798Y235798D01*
X69202Y236196D01*
X68500Y236335D01*
D02*
G37*
G36*
X79626Y234414D02*
X78924Y234274D01*
X78328Y233876D01*
X77930Y233281D01*
X77791Y232579D01*
X77930Y231876D01*
X78328Y231281D01*
X78924Y230883D01*
X79626Y230744D01*
X80328Y230883D01*
X80924Y231281D01*
X81322Y231876D01*
X81461Y232579D01*
X81322Y233281D01*
X80924Y233876D01*
X80328Y234274D01*
X79626Y234414D01*
D02*
G37*
G36*
X48254Y234580D02*
X47107Y234283D01*
X46075Y233700D01*
X45230Y232869D01*
X44629Y231848D01*
X44312Y230707D01*
X44302Y229522D01*
X44599Y228375D01*
X45182Y227343D01*
X46013Y226498D01*
X47034Y225897D01*
X48175Y225580D01*
X49360Y225570D01*
X50507Y225867D01*
X51539Y226450D01*
X52384Y227280D01*
X52985Y228302D01*
X53302Y229443D01*
X53312Y230628D01*
X53015Y231775D01*
X52432Y232806D01*
X51601Y233652D01*
X50581Y234253D01*
X49439Y234570D01*
X48254Y234580D01*
D02*
G37*
G36*
X27429Y236970D02*
X25970Y236593D01*
X24658Y235851D01*
X23583Y234794D01*
X22818Y233495D01*
X22415Y232043D01*
X22402Y230535D01*
X22779Y229076D01*
X23521Y227764D01*
X24578Y226689D01*
X25877Y225923D01*
X27329Y225521D01*
X28837Y225507D01*
X30296Y225885D01*
X31608Y226627D01*
X32683Y227684D01*
X33448Y228983D01*
X33851Y230435D01*
X33864Y231943D01*
X33487Y233402D01*
X32745Y234714D01*
X31688Y235789D01*
X30389Y236554D01*
X28937Y236957D01*
X27429Y236970D01*
D02*
G37*
G36*
X245381Y224586D02*
X244601Y224430D01*
X243939Y223988D01*
X243497Y223327D01*
X243342Y222547D01*
X243497Y221766D01*
X243939Y221105D01*
X244601Y220662D01*
X245381Y220507D01*
X246162Y220662D01*
X246823Y221105D01*
X247265Y221766D01*
X247421Y222547D01*
X247265Y223327D01*
X246823Y223988D01*
X246162Y224430D01*
X245381Y224586D01*
D02*
G37*
G36*
X258500Y216335D02*
X257798Y216196D01*
X257202Y215798D01*
X256804Y215202D01*
X256665Y214500D01*
X256804Y213798D01*
X257202Y213202D01*
X257798Y212804D01*
X258500Y212665D01*
X259202Y212804D01*
X259798Y213202D01*
X260196Y213798D01*
X260335Y214500D01*
X260196Y215202D01*
X259798Y215798D01*
X259202Y216196D01*
X258500Y216335D01*
D02*
G37*
G36*
X238500D02*
X237798Y216196D01*
X237202Y215798D01*
X236804Y215202D01*
X236665Y214500D01*
X236804Y213798D01*
X237202Y213202D01*
X237798Y212804D01*
X238500Y212665D01*
X239202Y212804D01*
X239798Y213202D01*
X240196Y213798D01*
X240335Y214500D01*
X240196Y215202D01*
X239798Y215798D01*
X239202Y216196D01*
X238500Y216335D01*
D02*
G37*
G36*
X198500D02*
X197798Y216196D01*
X197202Y215798D01*
X196804Y215202D01*
X196665Y214500D01*
X196804Y213798D01*
X197202Y213202D01*
X197798Y212804D01*
X198500Y212665D01*
X199202Y212804D01*
X199798Y213202D01*
X200196Y213798D01*
X200335Y214500D01*
X200196Y215202D01*
X199798Y215798D01*
X199202Y216196D01*
X198500Y216335D01*
D02*
G37*
G36*
X118500D02*
X117798Y216196D01*
X117202Y215798D01*
X116804Y215202D01*
X116665Y214500D01*
X116804Y213798D01*
X117202Y213202D01*
X117798Y212804D01*
X118500Y212665D01*
X119202Y212804D01*
X119798Y213202D01*
X120196Y213798D01*
X120335Y214500D01*
X120196Y215202D01*
X119798Y215798D01*
X119202Y216196D01*
X118500Y216335D01*
D02*
G37*
G36*
X98500D02*
X97798Y216196D01*
X97202Y215798D01*
X96804Y215202D01*
X96665Y214500D01*
X96804Y213798D01*
X97202Y213202D01*
X97798Y212804D01*
X98500Y212665D01*
X99202Y212804D01*
X99798Y213202D01*
X100196Y213798D01*
X100335Y214500D01*
X100196Y215202D01*
X99798Y215798D01*
X99202Y216196D01*
X98500Y216335D01*
D02*
G37*
G36*
X58500D02*
X57798Y216196D01*
X57202Y215798D01*
X56804Y215202D01*
X56665Y214500D01*
X56804Y213798D01*
X57202Y213202D01*
X57798Y212804D01*
X58500Y212665D01*
X59202Y212804D01*
X59798Y213202D01*
X60196Y213798D01*
X60335Y214500D01*
X60196Y215202D01*
X59798Y215798D01*
X59202Y216196D01*
X58500Y216335D01*
D02*
G37*
G36*
X234246Y212170D02*
X233543Y212030D01*
X232948Y211632D01*
X232550Y211037D01*
X232410Y210335D01*
X232550Y209632D01*
X232948Y209037D01*
X233543Y208639D01*
X234246Y208499D01*
X234948Y208639D01*
X235543Y209037D01*
X235941Y209632D01*
X236081Y210335D01*
X235941Y211037D01*
X235543Y211632D01*
X234948Y212030D01*
X234246Y212170D01*
D02*
G37*
G36*
X279626Y212374D02*
X278846Y212219D01*
X278184Y211777D01*
X277742Y211115D01*
X277587Y210335D01*
X277742Y209554D01*
X278184Y208893D01*
X278846Y208451D01*
X279626Y208295D01*
X280406Y208451D01*
X281068Y208893D01*
X281510Y209554D01*
X281665Y210335D01*
X281510Y211115D01*
X281068Y211777D01*
X280406Y212219D01*
X279626Y212374D01*
D02*
G37*
G36*
X33711Y215966D02*
X32563Y215669D01*
X31532Y215085D01*
X30687Y214255D01*
X30086Y213234D01*
X29769Y212092D01*
X29759Y210907D01*
X30055Y209760D01*
X30639Y208729D01*
X31469Y207884D01*
X32490Y207282D01*
X33632Y206966D01*
X34817Y206956D01*
X35964Y207252D01*
X36995Y207836D01*
X37841Y208666D01*
X38442Y209687D01*
X38759Y210829D01*
X38769Y212014D01*
X38472Y213161D01*
X37889Y214192D01*
X37058Y215037D01*
X36037Y215638D01*
X34896Y215955D01*
X33711Y215966D01*
D02*
G37*
G36*
X8957Y207741D02*
X8254Y207601D01*
X7659Y207203D01*
X7261Y206608D01*
X7121Y205906D01*
X7261Y205203D01*
X7659Y204608D01*
X8254Y204210D01*
X8957Y204070D01*
X9659Y204210D01*
X10254Y204608D01*
X10652Y205203D01*
X10792Y205906D01*
X10652Y206608D01*
X10254Y207203D01*
X9659Y207601D01*
X8957Y207741D01*
D02*
G37*
G36*
X281890Y206173D02*
X281109Y206018D01*
X280448Y205576D01*
X280006Y204914D01*
X279851Y204134D01*
X280006Y203354D01*
X280448Y202692D01*
X281109Y202250D01*
X281890Y202095D01*
X282670Y202250D01*
X283332Y202692D01*
X283774Y203354D01*
X283929Y204134D01*
X283774Y204914D01*
X283332Y205576D01*
X282670Y206018D01*
X281890Y206173D01*
D02*
G37*
G36*
X214500Y226851D02*
X212490Y226692D01*
X210529Y226222D01*
X208666Y225450D01*
X206947Y224396D01*
X205413Y223087D01*
X204104Y221553D01*
X203050Y219834D01*
X202278Y217971D01*
X201808Y216010D01*
X201649Y214000D01*
X201808Y211990D01*
X202278Y210029D01*
X203050Y208166D01*
X204104Y206447D01*
X205413Y204913D01*
X206947Y203604D01*
X208666Y202550D01*
X210529Y201778D01*
X212490Y201308D01*
X214500Y201149D01*
X216510Y201308D01*
X218471Y201778D01*
X220334Y202550D01*
X222053Y203604D01*
X223587Y204913D01*
X224896Y206447D01*
X225950Y208166D01*
X226722Y210029D01*
X227192Y211990D01*
X227351Y214000D01*
X227192Y216010D01*
X226722Y217971D01*
X225950Y219834D01*
X224896Y221553D01*
X223587Y223087D01*
X222053Y224396D01*
X220334Y225450D01*
X218471Y226222D01*
X216510Y226692D01*
X214500Y226851D01*
D02*
G37*
G36*
X77205D02*
X75194Y226692D01*
X73234Y226222D01*
X71371Y225450D01*
X69651Y224396D01*
X68118Y223087D01*
X66808Y221553D01*
X65755Y219834D01*
X64983Y217971D01*
X64512Y216010D01*
X64354Y214000D01*
X64512Y211990D01*
X64983Y210029D01*
X65755Y208166D01*
X66808Y206447D01*
X68118Y204913D01*
X69651Y203604D01*
X71371Y202550D01*
X73234Y201778D01*
X75194Y201308D01*
X77205Y201149D01*
X79215Y201308D01*
X81176Y201778D01*
X83039Y202550D01*
X84758Y203604D01*
X86291Y204913D01*
X87601Y206447D01*
X88655Y208166D01*
X89426Y210029D01*
X89897Y211990D01*
X90055Y214000D01*
X89897Y216010D01*
X89426Y217971D01*
X88655Y219834D01*
X87601Y221553D01*
X86291Y223087D01*
X84758Y224396D01*
X83039Y225450D01*
X81176Y226222D01*
X79215Y226692D01*
X77205Y226851D01*
D02*
G37*
G36*
X52264Y202721D02*
X51561Y202581D01*
X50966Y202184D01*
X50568Y201588D01*
X50428Y200886D01*
X50568Y200184D01*
X50966Y199588D01*
X51561Y199190D01*
X52264Y199051D01*
X52966Y199190D01*
X53562Y199588D01*
X53959Y200184D01*
X54099Y200886D01*
X53959Y201588D01*
X53562Y202184D01*
X52966Y202581D01*
X52264Y202721D01*
D02*
G37*
G36*
X212894Y196921D02*
X212113Y196766D01*
X211452Y196324D01*
X211010Y195662D01*
X210855Y194882D01*
X211010Y194102D01*
X211452Y193440D01*
X212113Y192998D01*
X212894Y192843D01*
X213674Y192998D01*
X214336Y193440D01*
X214778Y194102D01*
X214933Y194882D01*
X214778Y195662D01*
X214336Y196324D01*
X213674Y196766D01*
X212894Y196921D01*
D02*
G37*
G36*
X268500Y196335D02*
X267798Y196196D01*
X267202Y195798D01*
X266804Y195202D01*
X266665Y194500D01*
X266804Y193798D01*
X267202Y193202D01*
X267798Y192804D01*
X268500Y192665D01*
X269202Y192804D01*
X269798Y193202D01*
X270196Y193798D01*
X270335Y194500D01*
X270196Y195202D01*
X269798Y195798D01*
X269202Y196196D01*
X268500Y196335D01*
D02*
G37*
G36*
X248500D02*
X247798Y196196D01*
X247202Y195798D01*
X246804Y195202D01*
X246665Y194500D01*
X246804Y193798D01*
X247202Y193202D01*
X247798Y192804D01*
X248500Y192665D01*
X249202Y192804D01*
X249798Y193202D01*
X250196Y193798D01*
X250335Y194500D01*
X250196Y195202D01*
X249798Y195798D01*
X249202Y196196D01*
X248500Y196335D01*
D02*
G37*
G36*
X208500D02*
X207798Y196196D01*
X207202Y195798D01*
X206804Y195202D01*
X206665Y194500D01*
X206804Y193798D01*
X207202Y193202D01*
X207798Y192804D01*
X208500Y192665D01*
X209202Y192804D01*
X209798Y193202D01*
X210196Y193798D01*
X210335Y194500D01*
X210196Y195202D01*
X209798Y195798D01*
X209202Y196196D01*
X208500Y196335D01*
D02*
G37*
G36*
X28500D02*
X27798Y196196D01*
X27202Y195798D01*
X26804Y195202D01*
X26665Y194500D01*
X26804Y193798D01*
X27202Y193202D01*
X27798Y192804D01*
X28500Y192665D01*
X29202Y192804D01*
X29798Y193202D01*
X30196Y193798D01*
X30335Y194500D01*
X30196Y195202D01*
X29798Y195798D01*
X29202Y196196D01*
X28500Y196335D01*
D02*
G37*
G36*
X8500D02*
X7798Y196196D01*
X7202Y195798D01*
X6804Y195202D01*
X6665Y194500D01*
X6804Y193798D01*
X7202Y193202D01*
X7798Y192804D01*
X8500Y192665D01*
X9202Y192804D01*
X9798Y193202D01*
X10196Y193798D01*
X10335Y194500D01*
X10196Y195202D01*
X9798Y195798D01*
X9202Y196196D01*
X8500Y196335D01*
D02*
G37*
G36*
X47447Y194749D02*
X46745Y194609D01*
X46149Y194211D01*
X45751Y193616D01*
X45612Y192913D01*
X45751Y192211D01*
X46149Y191616D01*
X46745Y191218D01*
X47447Y191078D01*
X48149Y191218D01*
X48745Y191616D01*
X49143Y192211D01*
X49282Y192913D01*
X49143Y193616D01*
X48745Y194211D01*
X48149Y194609D01*
X47447Y194749D01*
D02*
G37*
G36*
X20177D02*
X19475Y194609D01*
X18879Y194211D01*
X18482Y193616D01*
X18342Y192913D01*
X18482Y192211D01*
X18879Y191616D01*
X19475Y191218D01*
X20177Y191078D01*
X20879Y191218D01*
X21475Y191616D01*
X21873Y192211D01*
X22012Y192913D01*
X21873Y193616D01*
X21475Y194211D01*
X20879Y194609D01*
X20177Y194749D01*
D02*
G37*
G36*
X3445Y193272D02*
X2743Y193133D01*
X2147Y192735D01*
X1749Y192139D01*
X1610Y191437D01*
X1749Y190735D01*
X2147Y190139D01*
X2743Y189742D01*
X3445Y189602D01*
X4147Y189742D01*
X4743Y190139D01*
X5140Y190735D01*
X5280Y191437D01*
X5140Y192139D01*
X4743Y192735D01*
X4147Y193133D01*
X3445Y193272D01*
D02*
G37*
G36*
X286368Y187478D02*
X285184Y187427D01*
X284054Y187070D01*
X283055Y186434D01*
X282254Y185560D01*
X281707Y184509D01*
X281451Y183352D01*
X281503Y182168D01*
X281859Y181038D01*
X282495Y180039D01*
X283369Y179239D01*
X284420Y178692D01*
X285577Y178435D01*
X286761Y178487D01*
X287891Y178843D01*
X288890Y179480D01*
X289690Y180353D01*
X290237Y181404D01*
X290494Y182561D01*
X290442Y183745D01*
X290086Y184875D01*
X289449Y185874D01*
X288576Y186675D01*
X287525Y187222D01*
X286368Y187478D01*
D02*
G37*
G36*
X16043Y181756D02*
X15341Y181617D01*
X14746Y181219D01*
X14348Y180624D01*
X14208Y179921D01*
X14348Y179219D01*
X14746Y178623D01*
X15341Y178226D01*
X16043Y178086D01*
X16746Y178226D01*
X17341Y178623D01*
X17739Y179219D01*
X17879Y179921D01*
X17739Y180624D01*
X17341Y181219D01*
X16746Y181617D01*
X16043Y181756D01*
D02*
G37*
G36*
X194787Y185929D02*
X186787D01*
Y177929D01*
X194787D01*
Y185929D01*
D02*
G37*
G36*
X104787D02*
X96787D01*
Y177929D01*
X104787D01*
Y185929D01*
D02*
G37*
G36*
X274736Y185427D02*
X273553Y185376D01*
X272423Y185019D01*
X271423Y184383D01*
X270623Y183509D01*
X270076Y182458D01*
X269819Y181301D01*
X269871Y180118D01*
X270227Y178988D01*
X270864Y177988D01*
X271738Y177188D01*
X272789Y176641D01*
X273945Y176384D01*
X275129Y176436D01*
X276259Y176792D01*
X277258Y177429D01*
X278059Y178302D01*
X278606Y179353D01*
X278862Y180510D01*
X278811Y181694D01*
X278454Y182824D01*
X277818Y183823D01*
X276944Y184624D01*
X275893Y185171D01*
X274736Y185427D01*
D02*
G37*
G36*
X-591Y178508D02*
X-1293Y178369D01*
X-1888Y177971D01*
X-2286Y177375D01*
X-2426Y176673D01*
X-2286Y175971D01*
X-1888Y175375D01*
X-1293Y174978D01*
X-591Y174838D01*
X112Y174978D01*
X707Y175375D01*
X1105Y175971D01*
X1245Y176673D01*
X1105Y177375D01*
X707Y177971D01*
X112Y178369D01*
X-591Y178508D01*
D02*
G37*
G36*
X278500Y176335D02*
X277798Y176196D01*
X277202Y175798D01*
X276804Y175202D01*
X276665Y174500D01*
X276804Y173798D01*
X277202Y173202D01*
X277798Y172804D01*
X278500Y172665D01*
X279202Y172804D01*
X279798Y173202D01*
X280196Y173798D01*
X280335Y174500D01*
X280196Y175202D01*
X279798Y175798D01*
X279202Y176196D01*
X278500Y176335D01*
D02*
G37*
G36*
X258500D02*
X257798Y176196D01*
X257202Y175798D01*
X256804Y175202D01*
X256665Y174500D01*
X256804Y173798D01*
X257202Y173202D01*
X257798Y172804D01*
X258500Y172665D01*
X259202Y172804D01*
X259798Y173202D01*
X260196Y173798D01*
X260335Y174500D01*
X260196Y175202D01*
X259798Y175798D01*
X259202Y176196D01*
X258500Y176335D01*
D02*
G37*
G36*
X238500D02*
X237798Y176196D01*
X237202Y175798D01*
X236804Y175202D01*
X236665Y174500D01*
X236804Y173798D01*
X237202Y173202D01*
X237798Y172804D01*
X238500Y172665D01*
X239202Y172804D01*
X239798Y173202D01*
X240196Y173798D01*
X240335Y174500D01*
X240196Y175202D01*
X239798Y175798D01*
X239202Y176196D01*
X238500Y176335D01*
D02*
G37*
G36*
X198500D02*
X197798Y176196D01*
X197202Y175798D01*
X196804Y175202D01*
X196665Y174500D01*
X196804Y173798D01*
X197202Y173202D01*
X197798Y172804D01*
X198500Y172665D01*
X199202Y172804D01*
X199798Y173202D01*
X200196Y173798D01*
X200335Y174500D01*
X200196Y175202D01*
X199798Y175798D01*
X199202Y176196D01*
X198500Y176335D01*
D02*
G37*
G36*
X178500D02*
X177798Y176196D01*
X177202Y175798D01*
X176804Y175202D01*
X176665Y174500D01*
X176804Y173798D01*
X177202Y173202D01*
X177798Y172804D01*
X178500Y172665D01*
X179202Y172804D01*
X179798Y173202D01*
X180196Y173798D01*
X180335Y174500D01*
X180196Y175202D01*
X179798Y175798D01*
X179202Y176196D01*
X178500Y176335D01*
D02*
G37*
G36*
X118500D02*
X117798Y176196D01*
X117202Y175798D01*
X116804Y175202D01*
X116665Y174500D01*
X116804Y173798D01*
X117202Y173202D01*
X117798Y172804D01*
X118500Y172665D01*
X119202Y172804D01*
X119798Y173202D01*
X120196Y173798D01*
X120335Y174500D01*
X120196Y175202D01*
X119798Y175798D01*
X119202Y176196D01*
X118500Y176335D01*
D02*
G37*
G36*
X78500D02*
X77798Y176196D01*
X77202Y175798D01*
X76804Y175202D01*
X76665Y174500D01*
X76804Y173798D01*
X77202Y173202D01*
X77798Y172804D01*
X78500Y172665D01*
X79202Y172804D01*
X79798Y173202D01*
X80196Y173798D01*
X80335Y174500D01*
X80196Y175202D01*
X79798Y175798D01*
X79202Y176196D01*
X78500Y176335D01*
D02*
G37*
G36*
X18500D02*
X17798Y176196D01*
X17202Y175798D01*
X16804Y175202D01*
X16665Y174500D01*
X16804Y173798D01*
X17202Y173202D01*
X17798Y172804D01*
X18500Y172665D01*
X19202Y172804D01*
X19798Y173202D01*
X20196Y173798D01*
X20335Y174500D01*
X20196Y175202D01*
X19798Y175798D01*
X19202Y176196D01*
X18500Y176335D01*
D02*
G37*
G36*
X291940Y175083D02*
X291124Y175047D01*
X290346Y174801D01*
X289657Y174363D01*
X289106Y173761D01*
X288729Y173037D01*
X288552Y172240D01*
X288588Y171425D01*
X288833Y170646D01*
X289272Y169958D01*
X289874Y169406D01*
X290598Y169029D01*
X291395Y168853D01*
X292210Y168888D01*
X292989Y169134D01*
X293677Y169572D01*
X294229Y170174D01*
X294605Y170898D01*
X294782Y171695D01*
X294746Y172511D01*
X294501Y173289D01*
X294062Y173977D01*
X293461Y174529D01*
X292737Y174906D01*
X291940Y175083D01*
D02*
G37*
G36*
X190787Y175963D02*
X189743Y175826D01*
X188770Y175423D01*
X187935Y174781D01*
X187293Y173946D01*
X186890Y172973D01*
X186753Y171929D01*
X186890Y170884D01*
X187293Y169911D01*
X187935Y169076D01*
X188770Y168435D01*
X189743Y168032D01*
X190787Y167894D01*
X191832Y168032D01*
X192805Y168435D01*
X193640Y169076D01*
X194281Y169911D01*
X194684Y170884D01*
X194822Y171929D01*
X194684Y172973D01*
X194281Y173946D01*
X193640Y174781D01*
X192805Y175423D01*
X191832Y175826D01*
X190787Y175963D01*
D02*
G37*
G36*
X100787D02*
X99743Y175826D01*
X98770Y175423D01*
X97935Y174781D01*
X97293Y173946D01*
X96890Y172973D01*
X96753Y171929D01*
X96890Y170884D01*
X97293Y169911D01*
X97935Y169076D01*
X98770Y168435D01*
X99743Y168032D01*
X100787Y167894D01*
X101831Y168032D01*
X102805Y168435D01*
X103640Y169076D01*
X104281Y169911D01*
X104684Y170884D01*
X104822Y171929D01*
X104684Y172973D01*
X104281Y173946D01*
X103640Y174781D01*
X102805Y175423D01*
X101831Y175826D01*
X100787Y175963D01*
D02*
G37*
G36*
X75400Y170635D02*
X74698Y170496D01*
X74102Y170098D01*
X73704Y169502D01*
X73565Y168800D01*
X73704Y168098D01*
X74102Y167502D01*
X74698Y167104D01*
X75400Y166965D01*
X76102Y167104D01*
X76698Y167502D01*
X77096Y168098D01*
X77235Y168800D01*
X77096Y169502D01*
X76698Y170098D01*
X76102Y170496D01*
X75400Y170635D01*
D02*
G37*
G36*
X278861Y169729D02*
X278158Y169590D01*
X277563Y169192D01*
X277165Y168596D01*
X277025Y167894D01*
X277165Y167192D01*
X277563Y166596D01*
X278158Y166199D01*
X278861Y166059D01*
X279563Y166199D01*
X280158Y166596D01*
X280556Y167192D01*
X280696Y167894D01*
X280556Y168596D01*
X280158Y169192D01*
X279563Y169590D01*
X278861Y169729D01*
D02*
G37*
G36*
X253647D02*
X252945Y169590D01*
X252350Y169192D01*
X251952Y168596D01*
X251812Y167894D01*
X251952Y167192D01*
X252350Y166596D01*
X252945Y166199D01*
X253647Y166059D01*
X254350Y166199D01*
X254945Y166596D01*
X255343Y167192D01*
X255483Y167894D01*
X255343Y168596D01*
X254945Y169192D01*
X254350Y169590D01*
X253647Y169729D01*
D02*
G37*
G36*
X12888Y167718D02*
X12185Y167578D01*
X11590Y167180D01*
X11192Y166585D01*
X11052Y165882D01*
X11192Y165180D01*
X11590Y164585D01*
X12185Y164187D01*
X12888Y164047D01*
X13590Y164187D01*
X14185Y164585D01*
X14583Y165180D01*
X14723Y165882D01*
X14583Y166585D01*
X14185Y167180D01*
X13590Y167578D01*
X12888Y167718D01*
D02*
G37*
G36*
X75200Y164035D02*
X74498Y163896D01*
X73902Y163498D01*
X73504Y162902D01*
X73365Y162200D01*
X73504Y161498D01*
X73902Y160902D01*
X74498Y160504D01*
X75200Y160365D01*
X75902Y160504D01*
X76498Y160902D01*
X76896Y161498D01*
X77035Y162200D01*
X76896Y162902D01*
X76498Y163498D01*
X75902Y163896D01*
X75200Y164035D01*
D02*
G37*
G36*
X-2953D02*
X-3655Y163896D01*
X-4250Y163498D01*
X-4648Y162902D01*
X-4788Y162200D01*
X-4648Y161498D01*
X-4250Y160902D01*
X-3655Y160504D01*
X-2953Y160365D01*
X-2250Y160504D01*
X-1655Y160902D01*
X-1257Y161498D01*
X-1118Y162200D01*
X-1257Y162902D01*
X-1655Y163498D01*
X-2250Y163896D01*
X-2953Y164035D01*
D02*
G37*
G36*
X295174Y163051D02*
X294472Y162912D01*
X293877Y162514D01*
X293479Y161918D01*
X293339Y161216D01*
X293479Y160514D01*
X293877Y159918D01*
X294472Y159520D01*
X295174Y159381D01*
X295877Y159520D01*
X296472Y159918D01*
X296870Y160514D01*
X297009Y161216D01*
X296870Y161918D01*
X296472Y162514D01*
X295877Y162912D01*
X295174Y163051D01*
D02*
G37*
G36*
X190787Y165963D02*
X189743Y165826D01*
X188770Y165423D01*
X187935Y164781D01*
X187293Y163946D01*
X186890Y162973D01*
X186753Y161929D01*
X186890Y160884D01*
X187293Y159911D01*
X187935Y159076D01*
X188770Y158435D01*
X189743Y158031D01*
X190787Y157894D01*
X191832Y158031D01*
X192805Y158435D01*
X193640Y159076D01*
X194281Y159911D01*
X194684Y160884D01*
X194822Y161929D01*
X194684Y162973D01*
X194281Y163946D01*
X193640Y164781D01*
X192805Y165423D01*
X191832Y165826D01*
X190787Y165963D01*
D02*
G37*
G36*
X100787D02*
X99743Y165826D01*
X98770Y165423D01*
X97935Y164781D01*
X97293Y163946D01*
X96890Y162973D01*
X96753Y161929D01*
X96890Y160884D01*
X97293Y159911D01*
X97935Y159076D01*
X98770Y158435D01*
X99743Y158031D01*
X100787Y157894D01*
X101831Y158031D01*
X102805Y158435D01*
X103640Y159076D01*
X104281Y159911D01*
X104684Y160884D01*
X104822Y161929D01*
X104684Y162973D01*
X104281Y163946D01*
X103640Y164781D01*
X102805Y165423D01*
X101831Y165826D01*
X100787Y165963D01*
D02*
G37*
G36*
X222539Y157354D02*
X221759Y157199D01*
X221097Y156757D01*
X220655Y156095D01*
X220500Y155315D01*
X220655Y154535D01*
X221097Y153873D01*
X221759Y153431D01*
X222539Y153276D01*
X223320Y153431D01*
X223981Y153873D01*
X224423Y154535D01*
X224578Y155315D01*
X224423Y156095D01*
X223981Y156757D01*
X223320Y157199D01*
X222539Y157354D01*
D02*
G37*
G36*
X280807Y156617D02*
X280105Y156477D01*
X279509Y156079D01*
X279112Y155484D01*
X278972Y154781D01*
X279112Y154079D01*
X279509Y153484D01*
X280105Y153086D01*
X280807Y152946D01*
X281509Y153086D01*
X282105Y153484D01*
X282503Y154079D01*
X282642Y154781D01*
X282503Y155484D01*
X282105Y156079D01*
X281509Y156477D01*
X280807Y156617D01*
D02*
G37*
G36*
X288500Y156335D02*
X287798Y156196D01*
X287202Y155798D01*
X286804Y155202D01*
X286665Y154500D01*
X286804Y153798D01*
X287202Y153202D01*
X287798Y152804D01*
X288500Y152665D01*
X289202Y152804D01*
X289798Y153202D01*
X290196Y153798D01*
X290335Y154500D01*
X290196Y155202D01*
X289798Y155798D01*
X289202Y156196D01*
X288500Y156335D01*
D02*
G37*
G36*
X268500D02*
X267798Y156196D01*
X267202Y155798D01*
X266804Y155202D01*
X266665Y154500D01*
X266804Y153798D01*
X267202Y153202D01*
X267798Y152804D01*
X268500Y152665D01*
X269202Y152804D01*
X269798Y153202D01*
X270196Y153798D01*
X270335Y154500D01*
X270196Y155202D01*
X269798Y155798D01*
X269202Y156196D01*
X268500Y156335D01*
D02*
G37*
G36*
X248500D02*
X247798Y156196D01*
X247202Y155798D01*
X246804Y155202D01*
X246665Y154500D01*
X246804Y153798D01*
X247202Y153202D01*
X247798Y152804D01*
X248500Y152665D01*
X249202Y152804D01*
X249798Y153202D01*
X250196Y153798D01*
X250335Y154500D01*
X250196Y155202D01*
X249798Y155798D01*
X249202Y156196D01*
X248500Y156335D01*
D02*
G37*
G36*
X228500D02*
X227798Y156196D01*
X227202Y155798D01*
X226804Y155202D01*
X226665Y154500D01*
X226804Y153798D01*
X227202Y153202D01*
X227798Y152804D01*
X228500Y152665D01*
X229202Y152804D01*
X229798Y153202D01*
X230196Y153798D01*
X230335Y154500D01*
X230196Y155202D01*
X229798Y155798D01*
X229202Y156196D01*
X228500Y156335D01*
D02*
G37*
G36*
X168500D02*
X167798Y156196D01*
X167202Y155798D01*
X166804Y155202D01*
X166665Y154500D01*
X166804Y153798D01*
X167202Y153202D01*
X167798Y152804D01*
X168500Y152665D01*
X169202Y152804D01*
X169798Y153202D01*
X170196Y153798D01*
X170335Y154500D01*
X170196Y155202D01*
X169798Y155798D01*
X169202Y156196D01*
X168500Y156335D01*
D02*
G37*
G36*
X128500D02*
X127798Y156196D01*
X127202Y155798D01*
X126804Y155202D01*
X126665Y154500D01*
X126804Y153798D01*
X127202Y153202D01*
X127798Y152804D01*
X128500Y152665D01*
X129202Y152804D01*
X129798Y153202D01*
X130196Y153798D01*
X130335Y154500D01*
X130196Y155202D01*
X129798Y155798D01*
X129202Y156196D01*
X128500Y156335D01*
D02*
G37*
G36*
X108500D02*
X107798Y156196D01*
X107202Y155798D01*
X106804Y155202D01*
X106665Y154500D01*
X106804Y153798D01*
X107202Y153202D01*
X107798Y152804D01*
X108500Y152665D01*
X109202Y152804D01*
X109798Y153202D01*
X110196Y153798D01*
X110335Y154500D01*
X110196Y155202D01*
X109798Y155798D01*
X109202Y156196D01*
X108500Y156335D01*
D02*
G37*
G36*
X255734Y156166D02*
X255032Y156026D01*
X254436Y155628D01*
X254038Y155033D01*
X253899Y154331D01*
X254038Y153628D01*
X254436Y153033D01*
X255032Y152635D01*
X255734Y152496D01*
X256436Y152635D01*
X257032Y153033D01*
X257430Y153628D01*
X257569Y154331D01*
X257430Y155033D01*
X257032Y155628D01*
X256436Y156026D01*
X255734Y156166D01*
D02*
G37*
G36*
X75200Y155935D02*
X74498Y155796D01*
X73902Y155398D01*
X73504Y154802D01*
X73365Y154100D01*
X73504Y153398D01*
X73902Y152802D01*
X74498Y152404D01*
X75200Y152265D01*
X75902Y152404D01*
X76498Y152802D01*
X76896Y153398D01*
X77035Y154100D01*
X76896Y154802D01*
X76498Y155398D01*
X75902Y155796D01*
X75200Y155935D01*
D02*
G37*
G36*
X8500Y156335D02*
X7798Y156196D01*
X7202Y155798D01*
X6804Y155202D01*
X6665Y154500D01*
X6804Y153798D01*
X7202Y153202D01*
X7798Y152804D01*
X8500Y152665D01*
X9202Y152804D01*
X9548Y153035D01*
X10097Y152838D01*
X10495Y152243D01*
X11090Y151845D01*
X11792Y151705D01*
X12495Y151845D01*
X13090Y152243D01*
X13488Y152838D01*
X13628Y153541D01*
X13488Y154243D01*
X13090Y154838D01*
X12495Y155236D01*
X11792Y155376D01*
X11090Y155236D01*
X10745Y155005D01*
X10196Y155202D01*
X9798Y155798D01*
X9202Y156196D01*
X8500Y156335D01*
D02*
G37*
G36*
X70592Y153035D02*
X69890Y152896D01*
X69294Y152498D01*
X68897Y151902D01*
X68757Y151200D01*
X68897Y150498D01*
X69294Y149902D01*
X69890Y149504D01*
X70592Y149365D01*
X71294Y149504D01*
X71890Y149902D01*
X72288Y150498D01*
X72427Y151200D01*
X72288Y151902D01*
X71890Y152498D01*
X71294Y152896D01*
X70592Y153035D01*
D02*
G37*
G36*
X190787Y155963D02*
X189743Y155826D01*
X188770Y155423D01*
X187935Y154781D01*
X187293Y153946D01*
X186890Y152973D01*
X186753Y151929D01*
X186890Y150884D01*
X187293Y149911D01*
X187935Y149076D01*
X188770Y148435D01*
X189743Y148031D01*
X190787Y147894D01*
X191832Y148031D01*
X192805Y148435D01*
X193640Y149076D01*
X194281Y149911D01*
X194684Y150884D01*
X194822Y151929D01*
X194684Y152973D01*
X194281Y153946D01*
X193640Y154781D01*
X192805Y155423D01*
X191832Y155826D01*
X190787Y155963D01*
D02*
G37*
G36*
X100787D02*
X99743Y155826D01*
X98770Y155423D01*
X97935Y154781D01*
X97293Y153946D01*
X96890Y152973D01*
X96753Y151929D01*
X96890Y150884D01*
X97293Y149911D01*
X97935Y149076D01*
X98770Y148435D01*
X99743Y148031D01*
X100787Y147894D01*
X101831Y148031D01*
X102805Y148435D01*
X103640Y149076D01*
X104281Y149911D01*
X104684Y150884D01*
X104822Y151929D01*
X104684Y152973D01*
X104281Y153946D01*
X103640Y154781D01*
X102805Y155423D01*
X101831Y155826D01*
X100787Y155963D01*
D02*
G37*
G36*
X-4035Y149965D02*
X-4738Y149826D01*
X-5333Y149428D01*
X-5731Y148832D01*
X-5871Y148130D01*
X-5731Y147428D01*
X-5333Y146832D01*
X-4738Y146434D01*
X-4035Y146295D01*
X-3333Y146434D01*
X-2738Y146832D01*
X-2340Y147428D01*
X-2200Y148130D01*
X-2340Y148832D01*
X-2738Y149428D01*
X-3333Y149826D01*
X-4035Y149965D01*
D02*
G37*
G36*
X296260Y148882D02*
X295557Y148743D01*
X294962Y148345D01*
X294564Y147750D01*
X294425Y147047D01*
X294564Y146345D01*
X294962Y145749D01*
X295557Y145352D01*
X296260Y145212D01*
X296962Y145352D01*
X297558Y145749D01*
X297955Y146345D01*
X298095Y147047D01*
X297955Y147750D01*
X297558Y148345D01*
X296962Y148743D01*
X296260Y148882D01*
D02*
G37*
G36*
X68900Y147635D02*
X68198Y147496D01*
X67602Y147098D01*
X67204Y146502D01*
X67065Y145800D01*
X67204Y145098D01*
X67602Y144502D01*
X68198Y144104D01*
X68900Y143965D01*
X69602Y144104D01*
X70198Y144502D01*
X70596Y145098D01*
X70735Y145800D01*
X70596Y146502D01*
X70198Y147098D01*
X69602Y147496D01*
X68900Y147635D01*
D02*
G37*
G36*
X74900Y147335D02*
X74198Y147196D01*
X73602Y146798D01*
X73204Y146202D01*
X73065Y145500D01*
X73204Y144798D01*
X73602Y144202D01*
X74198Y143804D01*
X74900Y143665D01*
X75602Y143804D01*
X76198Y144202D01*
X76596Y144798D01*
X76735Y145500D01*
X76596Y146202D01*
X76198Y146798D01*
X75602Y147196D01*
X74900Y147335D01*
D02*
G37*
G36*
X11039Y144135D02*
X10336Y143996D01*
X9741Y143598D01*
X9343Y143002D01*
X9203Y142300D01*
X9343Y141598D01*
X9741Y141002D01*
X10336Y140604D01*
X11039Y140465D01*
X11741Y140604D01*
X12336Y141002D01*
X12734Y141598D01*
X12874Y142300D01*
X12734Y143002D01*
X12336Y143598D01*
X11741Y143996D01*
X11039Y144135D01*
D02*
G37*
G36*
X256135Y143051D02*
X255432Y142912D01*
X254837Y142514D01*
X254439Y141918D01*
X254299Y141216D01*
X254439Y140514D01*
X254837Y139918D01*
X255432Y139521D01*
X256135Y139381D01*
X256837Y139521D01*
X257432Y139918D01*
X257830Y140514D01*
X257970Y141216D01*
X257830Y141918D01*
X257432Y142514D01*
X256837Y142912D01*
X256135Y143051D01*
D02*
G37*
G36*
X280807Y142386D02*
X280105Y142247D01*
X279509Y141849D01*
X279112Y141253D01*
X278972Y140551D01*
X279112Y139849D01*
X279509Y139253D01*
X280105Y138856D01*
X280807Y138716D01*
X281509Y138856D01*
X282105Y139253D01*
X282503Y139849D01*
X282642Y140551D01*
X282503Y141253D01*
X282105Y141849D01*
X281509Y142247D01*
X280807Y142386D01*
D02*
G37*
G36*
X190787Y145963D02*
X189743Y145826D01*
X188770Y145423D01*
X187935Y144781D01*
X187293Y143946D01*
X186890Y142973D01*
X186753Y141929D01*
X186890Y140884D01*
X187293Y139911D01*
X187935Y139076D01*
X188770Y138435D01*
X189743Y138031D01*
X190787Y137894D01*
X191832Y138031D01*
X192805Y138435D01*
X193640Y139076D01*
X194281Y139911D01*
X194684Y140884D01*
X194822Y141929D01*
X194684Y142973D01*
X194281Y143946D01*
X193640Y144781D01*
X192805Y145423D01*
X191832Y145826D01*
X190787Y145963D01*
D02*
G37*
G36*
X100787D02*
X99743Y145826D01*
X98770Y145423D01*
X97935Y144781D01*
X97293Y143946D01*
X96890Y142973D01*
X96753Y141929D01*
X96890Y140884D01*
X97293Y139911D01*
X97935Y139076D01*
X98770Y138435D01*
X99743Y138031D01*
X100787Y137894D01*
X101831Y138031D01*
X102805Y138435D01*
X103640Y139076D01*
X104281Y139911D01*
X104684Y140884D01*
X104822Y141929D01*
X104684Y142973D01*
X104281Y143946D01*
X103640Y144781D01*
X102805Y145423D01*
X101831Y145826D01*
X100787Y145963D01*
D02*
G37*
G36*
X38681Y139729D02*
X37979Y139589D01*
X37383Y139191D01*
X36985Y138596D01*
X36846Y137894D01*
X36985Y137191D01*
X37383Y136596D01*
X37979Y136198D01*
X38681Y136058D01*
X39383Y136198D01*
X39979Y136596D01*
X40377Y137191D01*
X40516Y137894D01*
X40377Y138596D01*
X39979Y139191D01*
X39383Y139589D01*
X38681Y139729D01*
D02*
G37*
G36*
X278500Y136335D02*
X277798Y136196D01*
X277202Y135798D01*
X276804Y135202D01*
X276665Y134500D01*
X276804Y133798D01*
X277202Y133202D01*
X277798Y132804D01*
X278500Y132665D01*
X279202Y132804D01*
X279798Y133202D01*
X280196Y133798D01*
X280335Y134500D01*
X280196Y135202D01*
X279798Y135798D01*
X279202Y136196D01*
X278500Y136335D01*
D02*
G37*
G36*
X258500D02*
X257798Y136196D01*
X257202Y135798D01*
X256804Y135202D01*
X256665Y134500D01*
X256804Y133798D01*
X257202Y133202D01*
X257798Y132804D01*
X258500Y132665D01*
X259202Y132804D01*
X259798Y133202D01*
X260196Y133798D01*
X260335Y134500D01*
X260196Y135202D01*
X259798Y135798D01*
X259202Y136196D01*
X258500Y136335D01*
D02*
G37*
G36*
X238500D02*
X237798Y136196D01*
X237202Y135798D01*
X236804Y135202D01*
X236665Y134500D01*
X236804Y133798D01*
X237202Y133202D01*
X237798Y132804D01*
X238500Y132665D01*
X239202Y132804D01*
X239798Y133202D01*
X240196Y133798D01*
X240335Y134500D01*
X240196Y135202D01*
X239798Y135798D01*
X239202Y136196D01*
X238500Y136335D01*
D02*
G37*
G36*
X218500D02*
X217798Y136196D01*
X217202Y135798D01*
X216804Y135202D01*
X216665Y134500D01*
X216804Y133798D01*
X217202Y133202D01*
X217798Y132804D01*
X218500Y132665D01*
X219202Y132804D01*
X219798Y133202D01*
X220196Y133798D01*
X220335Y134500D01*
X220196Y135202D01*
X219798Y135798D01*
X219202Y136196D01*
X218500Y136335D01*
D02*
G37*
G36*
X198500D02*
X197798Y136196D01*
X197202Y135798D01*
X196804Y135202D01*
X196665Y134500D01*
X196804Y133798D01*
X197202Y133202D01*
X197798Y132804D01*
X198500Y132665D01*
X199202Y132804D01*
X199798Y133202D01*
X200196Y133798D01*
X200335Y134500D01*
X200196Y135202D01*
X199798Y135798D01*
X199202Y136196D01*
X198500Y136335D01*
D02*
G37*
G36*
X178500D02*
X177798Y136196D01*
X177202Y135798D01*
X176804Y135202D01*
X176665Y134500D01*
X176804Y133798D01*
X177202Y133202D01*
X177798Y132804D01*
X178500Y132665D01*
X179202Y132804D01*
X179798Y133202D01*
X180196Y133798D01*
X180335Y134500D01*
X180196Y135202D01*
X179798Y135798D01*
X179202Y136196D01*
X178500Y136335D01*
D02*
G37*
G36*
X78500D02*
X77798Y136196D01*
X77202Y135798D01*
X76804Y135202D01*
X76665Y134500D01*
X76804Y133798D01*
X77202Y133202D01*
X77798Y132804D01*
X78500Y132665D01*
X79202Y132804D01*
X79798Y133202D01*
X80196Y133798D01*
X80335Y134500D01*
X80196Y135202D01*
X79798Y135798D01*
X79202Y136196D01*
X78500Y136335D01*
D02*
G37*
G36*
X18500D02*
X17798Y136196D01*
X17202Y135798D01*
X16804Y135202D01*
X16665Y134500D01*
X16804Y133798D01*
X17202Y133202D01*
X17798Y132804D01*
X18500Y132665D01*
X19202Y132804D01*
X19798Y133202D01*
X20196Y133798D01*
X20335Y134500D01*
X20196Y135202D01*
X19798Y135798D01*
X19202Y136196D01*
X18500Y136335D01*
D02*
G37*
G36*
X295866Y135497D02*
X295164Y135357D01*
X294568Y134959D01*
X294171Y134364D01*
X294031Y133661D01*
X294171Y132959D01*
X294568Y132364D01*
X295164Y131966D01*
X295866Y131826D01*
X296568Y131966D01*
X297164Y132364D01*
X297562Y132959D01*
X297701Y133661D01*
X297562Y134364D01*
X297164Y134959D01*
X296568Y135357D01*
X295866Y135497D01*
D02*
G37*
G36*
X-2953Y132544D02*
X-3655Y132404D01*
X-4250Y132006D01*
X-4648Y131411D01*
X-4788Y130709D01*
X-4648Y130006D01*
X-4250Y129411D01*
X-3655Y129013D01*
X-2953Y128873D01*
X-2250Y129013D01*
X-1655Y129411D01*
X-1257Y130006D01*
X-1118Y130709D01*
X-1257Y131411D01*
X-1655Y132006D01*
X-2250Y132404D01*
X-2953Y132544D01*
D02*
G37*
G36*
X190787Y135963D02*
X189743Y135826D01*
X188770Y135423D01*
X187935Y134781D01*
X187293Y133946D01*
X186890Y132973D01*
X186753Y131929D01*
X186890Y130884D01*
X187293Y129911D01*
X187935Y129076D01*
X188770Y128435D01*
X189743Y128032D01*
X190787Y127894D01*
X191832Y128032D01*
X192805Y128435D01*
X193640Y129076D01*
X194281Y129911D01*
X194684Y130884D01*
X194822Y131929D01*
X194684Y132973D01*
X194281Y133946D01*
X193640Y134781D01*
X192805Y135423D01*
X191832Y135826D01*
X190787Y135963D01*
D02*
G37*
G36*
X100787D02*
X99743Y135826D01*
X98770Y135423D01*
X97935Y134781D01*
X97293Y133946D01*
X96890Y132973D01*
X96753Y131929D01*
X96890Y130884D01*
X97293Y129911D01*
X97935Y129076D01*
X98770Y128435D01*
X99743Y128032D01*
X100787Y127894D01*
X101831Y128032D01*
X102805Y128435D01*
X103640Y129076D01*
X104281Y129911D01*
X104684Y130884D01*
X104822Y131929D01*
X104684Y132973D01*
X104281Y133946D01*
X103640Y134781D01*
X102805Y135423D01*
X101831Y135826D01*
X100787Y135963D01*
D02*
G37*
G36*
X255159Y131297D02*
X254457Y131157D01*
X253862Y130759D01*
X253464Y130164D01*
X253324Y129461D01*
X253464Y128759D01*
X253862Y128164D01*
X254457Y127766D01*
X255159Y127626D01*
X255862Y127766D01*
X256457Y128164D01*
X256855Y128759D01*
X256995Y129461D01*
X256855Y130164D01*
X256457Y130759D01*
X255862Y131157D01*
X255159Y131297D01*
D02*
G37*
G36*
X12888Y128445D02*
X12185Y128305D01*
X11590Y127908D01*
X11192Y127312D01*
X11052Y126610D01*
X11192Y125908D01*
X11590Y125312D01*
X12185Y124914D01*
X12888Y124775D01*
X13590Y124914D01*
X14185Y125312D01*
X14583Y125908D01*
X14723Y126610D01*
X14583Y127312D01*
X14185Y127908D01*
X13590Y128305D01*
X12888Y128445D01*
D02*
G37*
G36*
X278861Y123764D02*
X278158Y123624D01*
X277563Y123226D01*
X277165Y122631D01*
X277025Y121929D01*
X277165Y121226D01*
X277563Y120631D01*
X278158Y120233D01*
X278861Y120093D01*
X279563Y120233D01*
X280158Y120631D01*
X280556Y121226D01*
X280696Y121929D01*
X280556Y122631D01*
X280158Y123226D01*
X279563Y123624D01*
X278861Y123764D01*
D02*
G37*
G36*
X190787Y125963D02*
X189743Y125826D01*
X188770Y125423D01*
X187935Y124781D01*
X187293Y123946D01*
X186890Y122973D01*
X186753Y121929D01*
X186890Y120884D01*
X187293Y119911D01*
X187935Y119076D01*
X188770Y118435D01*
X189743Y118032D01*
X190787Y117894D01*
X191832Y118032D01*
X192805Y118435D01*
X193640Y119076D01*
X194281Y119911D01*
X194684Y120884D01*
X194822Y121929D01*
X194684Y122973D01*
X194281Y123946D01*
X193640Y124781D01*
X192805Y125423D01*
X191832Y125826D01*
X190787Y125963D01*
D02*
G37*
G36*
X100787D02*
X99743Y125826D01*
X98770Y125423D01*
X97935Y124781D01*
X97293Y123946D01*
X96890Y122973D01*
X96753Y121929D01*
X96890Y120884D01*
X97293Y119911D01*
X97935Y119076D01*
X98770Y118435D01*
X99743Y118032D01*
X100787Y117894D01*
X101831Y118032D01*
X102805Y118435D01*
X103640Y119076D01*
X104281Y119911D01*
X104684Y120884D01*
X104822Y121929D01*
X104684Y122973D01*
X104281Y123946D01*
X103640Y124781D01*
X102805Y125423D01*
X101831Y125826D01*
X100787Y125963D01*
D02*
G37*
G36*
X208500Y116335D02*
X207798Y116196D01*
X207202Y115798D01*
X206804Y115202D01*
X206665Y114500D01*
X206804Y113798D01*
X207202Y113202D01*
X207798Y112804D01*
X208500Y112665D01*
X209202Y112804D01*
X209798Y113202D01*
X210196Y113798D01*
X210335Y114500D01*
X210196Y115202D01*
X209798Y115798D01*
X209202Y116196D01*
X208500Y116335D01*
D02*
G37*
G36*
X168500D02*
X167798Y116196D01*
X167202Y115798D01*
X166804Y115202D01*
X166665Y114500D01*
X166804Y113798D01*
X167202Y113202D01*
X167798Y112804D01*
X168500Y112665D01*
X169202Y112804D01*
X169798Y113202D01*
X170196Y113798D01*
X170335Y114500D01*
X170196Y115202D01*
X169798Y115798D01*
X169202Y116196D01*
X168500Y116335D01*
D02*
G37*
G36*
X128500D02*
X127798Y116196D01*
X127202Y115798D01*
X126804Y115202D01*
X126665Y114500D01*
X126804Y113798D01*
X127202Y113202D01*
X127798Y112804D01*
X128500Y112665D01*
X129202Y112804D01*
X129798Y113202D01*
X130196Y113798D01*
X130335Y114500D01*
X130196Y115202D01*
X129798Y115798D01*
X129202Y116196D01*
X128500Y116335D01*
D02*
G37*
G36*
X108500D02*
X107798Y116196D01*
X107202Y115798D01*
X106804Y115202D01*
X106665Y114500D01*
X106804Y113798D01*
X107202Y113202D01*
X107798Y112804D01*
X108500Y112665D01*
X109202Y112804D01*
X109798Y113202D01*
X110196Y113798D01*
X110335Y114500D01*
X110196Y115202D01*
X109798Y115798D01*
X109202Y116196D01*
X108500Y116335D01*
D02*
G37*
G36*
X88500D02*
X87798Y116196D01*
X87202Y115798D01*
X86804Y115202D01*
X86665Y114500D01*
X86804Y113798D01*
X87202Y113202D01*
X87798Y112804D01*
X88500Y112665D01*
X89202Y112804D01*
X89798Y113202D01*
X90196Y113798D01*
X90335Y114500D01*
X90196Y115202D01*
X89798Y115798D01*
X89202Y116196D01*
X88500Y116335D01*
D02*
G37*
G36*
X48500D02*
X47798Y116196D01*
X47202Y115798D01*
X46804Y115202D01*
X46665Y114500D01*
X46804Y113798D01*
X47202Y113202D01*
X47798Y112804D01*
X48500Y112665D01*
X49202Y112804D01*
X49798Y113202D01*
X50196Y113798D01*
X50335Y114500D01*
X50196Y115202D01*
X49798Y115798D01*
X49202Y116196D01*
X48500Y116335D01*
D02*
G37*
G36*
X28500D02*
X27798Y116196D01*
X27202Y115798D01*
X26804Y115202D01*
X26665Y114500D01*
X26804Y113798D01*
X27202Y113202D01*
X27798Y112804D01*
X28500Y112665D01*
X29202Y112804D01*
X29798Y113202D01*
X30196Y113798D01*
X30335Y114500D01*
X30196Y115202D01*
X29798Y115798D01*
X29202Y116196D01*
X28500Y116335D01*
D02*
G37*
G36*
X8500D02*
X7798Y116196D01*
X7202Y115798D01*
X6804Y115202D01*
X6665Y114500D01*
X6804Y113798D01*
X7202Y113202D01*
X7798Y112804D01*
X8500Y112665D01*
X9202Y112804D01*
X9798Y113202D01*
X10196Y113798D01*
X10335Y114500D01*
X10196Y115202D01*
X9798Y115798D01*
X9202Y116196D01*
X8500Y116335D01*
D02*
G37*
G36*
X-492Y115516D02*
X-1194Y115377D01*
X-1790Y114979D01*
X-2188Y114383D01*
X-2327Y113681D01*
X-2188Y112979D01*
X-1790Y112383D01*
X-1194Y111986D01*
X-492Y111846D01*
X210Y111986D01*
X806Y112383D01*
X1203Y112979D01*
X1343Y113681D01*
X1203Y114383D01*
X806Y114979D01*
X210Y115377D01*
X-492Y115516D01*
D02*
G37*
G36*
X16043Y112815D02*
X15341Y112676D01*
X14746Y112278D01*
X14348Y111682D01*
X14208Y110980D01*
X14348Y110278D01*
X14746Y109683D01*
X15341Y109285D01*
X16043Y109145D01*
X16746Y109285D01*
X17341Y109683D01*
X17739Y110278D01*
X17879Y110980D01*
X17739Y111682D01*
X17341Y112278D01*
X16746Y112676D01*
X16043Y112815D01*
D02*
G37*
G36*
X273000Y117599D02*
X271816Y117547D01*
X270687Y117191D01*
X269687Y116554D01*
X268887Y115681D01*
X268340Y114629D01*
X268083Y113473D01*
X268135Y112289D01*
X268491Y111159D01*
X269128Y110160D01*
X270001Y109359D01*
X271052Y108812D01*
X272209Y108556D01*
X273393Y108607D01*
X274523Y108964D01*
X275522Y109600D01*
X276323Y110474D01*
X276870Y111525D01*
X277126Y112682D01*
X277075Y113865D01*
X276718Y114995D01*
X276082Y115995D01*
X275208Y116795D01*
X274157Y117342D01*
X273000Y117599D01*
D02*
G37*
G36*
X190787Y115963D02*
X189743Y115826D01*
X188770Y115423D01*
X187935Y114781D01*
X187293Y113946D01*
X186890Y112973D01*
X186753Y111929D01*
X186890Y110884D01*
X187293Y109911D01*
X187935Y109076D01*
X188770Y108435D01*
X189743Y108031D01*
X190787Y107894D01*
X191832Y108031D01*
X192805Y108435D01*
X193640Y109076D01*
X194281Y109911D01*
X194684Y110884D01*
X194822Y111929D01*
X194684Y112973D01*
X194281Y113946D01*
X193640Y114781D01*
X192805Y115423D01*
X191832Y115826D01*
X190787Y115963D01*
D02*
G37*
G36*
X249324Y108024D02*
X248621Y107885D01*
X248026Y107487D01*
X247628Y106892D01*
X247488Y106189D01*
X247628Y105487D01*
X248026Y104892D01*
X248621Y104494D01*
X249324Y104354D01*
X250026Y104494D01*
X250621Y104892D01*
X251019Y105487D01*
X251159Y106189D01*
X251019Y106892D01*
X250621Y107487D01*
X250026Y107885D01*
X249324Y108024D01*
D02*
G37*
G36*
X3445Y99658D02*
X2743Y99519D01*
X2147Y99121D01*
X1749Y98525D01*
X1610Y97823D01*
X1749Y97121D01*
X2147Y96525D01*
X2743Y96127D01*
X3445Y95988D01*
X4147Y96127D01*
X4743Y96525D01*
X5140Y97121D01*
X5280Y97823D01*
X5140Y98525D01*
X4743Y99121D01*
X4147Y99519D01*
X3445Y99658D01*
D02*
G37*
G36*
X38929Y102913D02*
X37764Y102697D01*
X36694Y102187D01*
X35793Y101417D01*
X35122Y100441D01*
X34727Y99324D01*
X34634Y98143D01*
X34850Y96978D01*
X35360Y95908D01*
X36129Y95007D01*
X37106Y94336D01*
X38223Y93941D01*
X39404Y93848D01*
X40569Y94064D01*
X41638Y94574D01*
X42539Y95343D01*
X43210Y96320D01*
X43606Y97437D01*
X43699Y98618D01*
X43483Y99783D01*
X42973Y100852D01*
X42203Y101753D01*
X41227Y102424D01*
X40110Y102820D01*
X38929Y102913D01*
D02*
G37*
G36*
X258500Y96335D02*
X257798Y96196D01*
X257202Y95798D01*
X256804Y95202D01*
X256665Y94500D01*
X256804Y93798D01*
X257202Y93202D01*
X257798Y92804D01*
X258500Y92665D01*
X259202Y92804D01*
X259798Y93202D01*
X260196Y93798D01*
X260335Y94500D01*
X260196Y95202D01*
X259798Y95798D01*
X259202Y96196D01*
X258500Y96335D01*
D02*
G37*
G36*
X19093Y100215D02*
X18391Y100076D01*
X17795Y99678D01*
X17397Y99083D01*
X17257Y98380D01*
X17397Y97678D01*
X17795Y97083D01*
X18231Y96791D01*
X18140Y96264D01*
X17798Y96196D01*
X17202Y95798D01*
X16804Y95202D01*
X16665Y94500D01*
X16804Y93798D01*
X17202Y93202D01*
X17798Y92804D01*
X18500Y92665D01*
X19202Y92804D01*
X19798Y93202D01*
X20196Y93798D01*
X20335Y94500D01*
X20196Y95202D01*
X19798Y95798D01*
X19362Y96089D01*
X19453Y96617D01*
X19795Y96685D01*
X20391Y97083D01*
X20788Y97678D01*
X20928Y98380D01*
X20788Y99083D01*
X20391Y99678D01*
X19795Y100076D01*
X19093Y100215D01*
D02*
G37*
G36*
X243714Y95390D02*
X243012Y95250D01*
X242416Y94852D01*
X242018Y94257D01*
X241879Y93554D01*
X242018Y92852D01*
X242416Y92257D01*
X243012Y91859D01*
X243714Y91719D01*
X244416Y91859D01*
X245012Y92257D01*
X245409Y92852D01*
X245549Y93554D01*
X245409Y94257D01*
X245012Y94852D01*
X244416Y95250D01*
X243714Y95390D01*
D02*
G37*
G36*
X27696Y99263D02*
X26531Y99047D01*
X25461Y98537D01*
X24560Y97768D01*
X23889Y96791D01*
X23494Y95674D01*
X23401Y94493D01*
X23617Y93328D01*
X24127Y92258D01*
X24896Y91357D01*
X25873Y90686D01*
X26989Y90291D01*
X28171Y90198D01*
X29336Y90414D01*
X30405Y90924D01*
X31306Y91693D01*
X31977Y92670D01*
X32373Y93787D01*
X32466Y94968D01*
X32250Y96133D01*
X31740Y97202D01*
X30970Y98103D01*
X29994Y98775D01*
X28877Y99170D01*
X27696Y99263D01*
D02*
G37*
G36*
X264921Y95401D02*
X263737Y95350D01*
X262607Y94993D01*
X261608Y94357D01*
X260807Y93483D01*
X260260Y92432D01*
X260004Y91275D01*
X260056Y90092D01*
X260412Y88961D01*
X261049Y87962D01*
X261922Y87162D01*
X262973Y86615D01*
X264130Y86358D01*
X265314Y86410D01*
X266444Y86766D01*
X267443Y87403D01*
X268243Y88276D01*
X268791Y89327D01*
X269047Y90484D01*
X268995Y91668D01*
X268639Y92798D01*
X268002Y93797D01*
X267129Y94598D01*
X266078Y95145D01*
X264921Y95401D01*
D02*
G37*
G36*
X13280Y89644D02*
X11792Y89368D01*
X10427Y88717D01*
X9277Y87735D01*
X8421Y86488D01*
X7916Y85063D01*
X7797Y83555D01*
X8073Y82068D01*
X8724Y80703D01*
X9706Y79553D01*
X10952Y78696D01*
X12378Y78191D01*
X13886Y78073D01*
X15373Y78348D01*
X16738Y78999D01*
X17888Y79982D01*
X18745Y81228D01*
X19250Y82654D01*
X19368Y84162D01*
X19093Y85649D01*
X18442Y87014D01*
X17459Y88164D01*
X16213Y89021D01*
X14787Y89525D01*
X13280Y89644D01*
D02*
G37*
G36*
X268500Y76335D02*
X267798Y76196D01*
X267202Y75798D01*
X266804Y75202D01*
X266665Y74500D01*
X266804Y73798D01*
X267202Y73202D01*
X267798Y72804D01*
X268500Y72665D01*
X269202Y72804D01*
X269798Y73202D01*
X270196Y73798D01*
X270335Y74500D01*
X270196Y75202D01*
X269798Y75798D01*
X269202Y76196D01*
X268500Y76335D01*
D02*
G37*
G36*
X28500D02*
X27798Y76196D01*
X27202Y75798D01*
X26804Y75202D01*
X26665Y74500D01*
X26804Y73798D01*
X27202Y73202D01*
X27798Y72804D01*
X28500Y72665D01*
X29202Y72804D01*
X29798Y73202D01*
X30196Y73798D01*
X30335Y74500D01*
X30196Y75202D01*
X29798Y75798D01*
X29202Y76196D01*
X28500Y76335D01*
D02*
G37*
G36*
X14620Y74035D02*
X13918Y73896D01*
X13323Y73498D01*
X12925Y72902D01*
X12785Y72200D01*
X12925Y71498D01*
X13323Y70902D01*
X13918Y70504D01*
X14620Y70365D01*
X15323Y70504D01*
X15918Y70902D01*
X16316Y71498D01*
X16456Y72200D01*
X16316Y72902D01*
X15918Y73498D01*
X15323Y73896D01*
X14620Y74035D01*
D02*
G37*
G36*
X275492Y70536D02*
X274790Y70396D01*
X274194Y69999D01*
X273797Y69403D01*
X273657Y68701D01*
X273797Y67998D01*
X274194Y67403D01*
X274790Y67005D01*
X275492Y66865D01*
X276195Y67005D01*
X276790Y67403D01*
X277188Y67998D01*
X277327Y68701D01*
X277188Y69403D01*
X276790Y69999D01*
X276195Y70396D01*
X275492Y70536D01*
D02*
G37*
G36*
X138500Y216335D02*
X137798Y216196D01*
X137202Y215798D01*
X136804Y215202D01*
X136665Y214500D01*
X136804Y213798D01*
X137202Y213202D01*
X137798Y212804D01*
X138500Y212665D01*
X139202Y212804D01*
X139798Y213202D01*
X140196Y213798D01*
X140335Y214500D01*
X140196Y215202D01*
X139798Y215798D01*
X139202Y216196D01*
X138500Y216335D01*
D02*
G37*
G36*
X148500Y196335D02*
X147798Y196196D01*
X147202Y195798D01*
X146804Y195202D01*
X146665Y194500D01*
X146804Y193798D01*
X147202Y193202D01*
X147798Y192804D01*
X148500Y192665D01*
X149202Y192804D01*
X149798Y193202D01*
X150196Y193798D01*
X150335Y194500D01*
X150196Y195202D01*
X149798Y195798D01*
X149202Y196196D01*
X148500Y196335D01*
D02*
G37*
G36*
X138500Y176335D02*
X137798Y176196D01*
X137202Y175798D01*
X136804Y175202D01*
X136665Y174500D01*
X136804Y173798D01*
X137202Y173202D01*
X137798Y172804D01*
X138500Y172665D01*
X139202Y172804D01*
X139798Y173202D01*
X140196Y173798D01*
X140335Y174500D01*
X140196Y175202D01*
X139798Y175798D01*
X139202Y176196D01*
X138500Y176335D01*
D02*
G37*
G36*
X148500Y156335D02*
X147798Y156196D01*
X147202Y155798D01*
X146804Y155202D01*
X146665Y154500D01*
X146804Y153798D01*
X147202Y153202D01*
X147798Y152804D01*
X148500Y152665D01*
X149202Y152804D01*
X149798Y153202D01*
X150196Y153798D01*
X150335Y154500D01*
X150196Y155202D01*
X149798Y155798D01*
X149202Y156196D01*
X148500Y156335D01*
D02*
G37*
G36*
Y116335D02*
X147798Y116196D01*
X147202Y115798D01*
X146804Y115202D01*
X146665Y114500D01*
X146804Y113798D01*
X147202Y113202D01*
X147798Y112804D01*
X148500Y112665D01*
X149202Y112804D01*
X149798Y113202D01*
X150196Y113798D01*
X150335Y114500D01*
X150196Y115202D01*
X149798Y115798D01*
X149202Y116196D01*
X148500Y116335D01*
D02*
G37*
G36*
X190551Y96921D02*
X189849Y96781D01*
X189253Y96384D01*
X188856Y95788D01*
X188716Y95086D01*
X188856Y94384D01*
X189253Y93788D01*
X189849Y93390D01*
X190551Y93251D01*
X191253Y93390D01*
X191849Y93788D01*
X192247Y94384D01*
X192386Y95086D01*
X192247Y95788D01*
X191849Y96384D01*
X191253Y96781D01*
X190551Y96921D01*
D02*
G37*
G36*
X218500Y96335D02*
X217798Y96196D01*
X217202Y95798D01*
X216804Y95202D01*
X216665Y94500D01*
X216804Y93798D01*
X217202Y93202D01*
X217798Y92804D01*
X218500Y92665D01*
X219202Y92804D01*
X219798Y93202D01*
X220196Y93798D01*
X220335Y94500D01*
X220196Y95202D01*
X219798Y95798D01*
X219202Y96196D01*
X218500Y96335D01*
D02*
G37*
G36*
X198500D02*
X197798Y96196D01*
X197202Y95798D01*
X196804Y95202D01*
X196665Y94500D01*
X196804Y93798D01*
X197202Y93202D01*
X197798Y92804D01*
X198500Y92665D01*
X199202Y92804D01*
X199798Y93202D01*
X200196Y93798D01*
X200335Y94500D01*
X200196Y95202D01*
X199798Y95798D01*
X199202Y96196D01*
X198500Y96335D01*
D02*
G37*
G36*
X178500D02*
X177798Y96196D01*
X177202Y95798D01*
X176804Y95202D01*
X176665Y94500D01*
X176804Y93798D01*
X177202Y93202D01*
X177798Y92804D01*
X178500Y92665D01*
X179202Y92804D01*
X179798Y93202D01*
X180196Y93798D01*
X180335Y94500D01*
X180196Y95202D01*
X179798Y95798D01*
X179202Y96196D01*
X178500Y96335D01*
D02*
G37*
G36*
X98500D02*
X97798Y96196D01*
X97202Y95798D01*
X96804Y95202D01*
X96665Y94500D01*
X96804Y93798D01*
X97202Y93202D01*
X97798Y92804D01*
X98500Y92665D01*
X99202Y92804D01*
X99798Y93202D01*
X100196Y93798D01*
X100335Y94500D01*
X100196Y95202D01*
X99798Y95798D01*
X99202Y96196D01*
X98500Y96335D01*
D02*
G37*
G36*
X78500D02*
X77798Y96196D01*
X77202Y95798D01*
X76804Y95202D01*
X76665Y94500D01*
X76804Y93798D01*
X77202Y93202D01*
X77798Y92804D01*
X78500Y92665D01*
X79202Y92804D01*
X79798Y93202D01*
X80196Y93798D01*
X80335Y94500D01*
X80196Y95202D01*
X79798Y95798D01*
X79202Y96196D01*
X78500Y96335D01*
D02*
G37*
G36*
X191446Y89490D02*
X190743Y89350D01*
X190148Y88952D01*
X189750Y88357D01*
X189610Y87655D01*
X189750Y86952D01*
X190148Y86357D01*
X190743Y85959D01*
X191446Y85820D01*
X192148Y85959D01*
X192743Y86357D01*
X193141Y86952D01*
X193281Y87655D01*
X193141Y88357D01*
X192743Y88952D01*
X192148Y89350D01*
X191446Y89490D01*
D02*
G37*
G36*
X234055Y80182D02*
X233353Y80042D01*
X232757Y79644D01*
X232360Y79049D01*
X232220Y78347D01*
X232360Y77644D01*
X232757Y77049D01*
X233353Y76651D01*
X234055Y76511D01*
X234757Y76651D01*
X235353Y77049D01*
X235751Y77644D01*
X235890Y78347D01*
X235751Y79049D01*
X235353Y79644D01*
X234757Y80042D01*
X234055Y80182D01*
D02*
G37*
G36*
X248500Y76335D02*
X247798Y76196D01*
X247202Y75798D01*
X246804Y75202D01*
X246665Y74500D01*
X246804Y73798D01*
X247202Y73202D01*
X247798Y72804D01*
X248500Y72665D01*
X249202Y72804D01*
X249798Y73202D01*
X250196Y73798D01*
X250335Y74500D01*
X250196Y75202D01*
X249798Y75798D01*
X249202Y76196D01*
X248500Y76335D01*
D02*
G37*
G36*
X188500D02*
X187798Y76196D01*
X187202Y75798D01*
X186804Y75202D01*
X186665Y74500D01*
X186804Y73798D01*
X187202Y73202D01*
X187798Y72804D01*
X188500Y72665D01*
X189202Y72804D01*
X189798Y73202D01*
X190196Y73798D01*
X190335Y74500D01*
X190196Y75202D01*
X189798Y75798D01*
X189202Y76196D01*
X188500Y76335D01*
D02*
G37*
G36*
X168500D02*
X167798Y76196D01*
X167202Y75798D01*
X166804Y75202D01*
X166665Y74500D01*
X166804Y73798D01*
X167202Y73202D01*
X167798Y72804D01*
X168500Y72665D01*
X169202Y72804D01*
X169798Y73202D01*
X170196Y73798D01*
X170335Y74500D01*
X170196Y75202D01*
X169798Y75798D01*
X169202Y76196D01*
X168500Y76335D01*
D02*
G37*
G36*
X108500D02*
X107798Y76196D01*
X107202Y75798D01*
X106804Y75202D01*
X106665Y74500D01*
X106804Y73798D01*
X107202Y73202D01*
X107798Y72804D01*
X108500Y72665D01*
X109202Y72804D01*
X109798Y73202D01*
X110196Y73798D01*
X110335Y74500D01*
X110196Y75202D01*
X109798Y75798D01*
X109202Y76196D01*
X108500Y76335D01*
D02*
G37*
G36*
X48500D02*
X47798Y76196D01*
X47202Y75798D01*
X46804Y75202D01*
X46665Y74500D01*
X46804Y73798D01*
X47202Y73202D01*
X47798Y72804D01*
X48500Y72665D01*
X49202Y72804D01*
X49798Y73202D01*
X50196Y73798D01*
X50335Y74500D01*
X50196Y75202D01*
X49798Y75798D01*
X49202Y76196D01*
X48500Y76335D01*
D02*
G37*
G36*
X96000Y74035D02*
X95298Y73896D01*
X94702Y73498D01*
X94304Y72902D01*
X94165Y72200D01*
X94304Y71498D01*
X94702Y70902D01*
X95298Y70504D01*
X96000Y70365D01*
X96702Y70504D01*
X97298Y70902D01*
X97696Y71498D01*
X97835Y72200D01*
X97696Y72902D01*
X97298Y73498D01*
X96702Y73896D01*
X96000Y74035D01*
D02*
G37*
G36*
X215000Y89055D02*
X212990Y88897D01*
X211029Y88426D01*
X209166Y87655D01*
X207447Y86601D01*
X205913Y85291D01*
X204604Y83758D01*
X203550Y82039D01*
X202778Y80176D01*
X202308Y78215D01*
X202149Y76205D01*
X202308Y74194D01*
X202778Y72234D01*
X203550Y70371D01*
X204604Y68651D01*
X205913Y67118D01*
X207447Y65808D01*
X209166Y64755D01*
X211029Y63983D01*
X212990Y63512D01*
X215000Y63354D01*
X217010Y63512D01*
X218971Y63983D01*
X220834Y64755D01*
X222553Y65808D01*
X224087Y67118D01*
X225396Y68651D01*
X226450Y70371D01*
X227222Y72234D01*
X227692Y74194D01*
X227851Y76205D01*
X227692Y78215D01*
X227222Y80176D01*
X226450Y82039D01*
X225396Y83758D01*
X224087Y85291D01*
X222553Y86601D01*
X220834Y87655D01*
X218971Y88426D01*
X217010Y88897D01*
X215000Y89055D01*
D02*
G37*
G36*
X77205D02*
X75194Y88897D01*
X73234Y88426D01*
X71371Y87655D01*
X69651Y86601D01*
X68118Y85291D01*
X66808Y83758D01*
X65755Y82039D01*
X64983Y80176D01*
X64512Y78215D01*
X64354Y76205D01*
X64512Y74194D01*
X64983Y72234D01*
X65755Y70371D01*
X66808Y68651D01*
X68118Y67118D01*
X69651Y65808D01*
X71371Y64755D01*
X73234Y63983D01*
X75194Y63512D01*
X77205Y63354D01*
X79215Y63512D01*
X81176Y63983D01*
X83039Y64755D01*
X84758Y65808D01*
X86291Y67118D01*
X87601Y68651D01*
X88655Y70371D01*
X89426Y72234D01*
X89897Y74194D01*
X90055Y76205D01*
X89897Y78215D01*
X89426Y80176D01*
X88655Y82039D01*
X87601Y83758D01*
X86291Y85291D01*
X84758Y86601D01*
X83039Y87655D01*
X81176Y88426D01*
X79215Y88897D01*
X77205Y89055D01*
D02*
G37*
G36*
X38681Y65225D02*
X37979Y65086D01*
X37383Y64688D01*
X36985Y64092D01*
X36846Y63390D01*
X36985Y62688D01*
X37383Y62092D01*
X37979Y61695D01*
X38681Y61555D01*
X39383Y61695D01*
X39979Y62092D01*
X40377Y62688D01*
X40516Y63390D01*
X40377Y64092D01*
X39979Y64688D01*
X39383Y65086D01*
X38681Y65225D01*
D02*
G37*
G36*
X64600Y65148D02*
X63898Y65008D01*
X63302Y64610D01*
X62904Y64015D01*
X62765Y63313D01*
X62904Y62610D01*
X63302Y62015D01*
X63898Y61617D01*
X64600Y61477D01*
X65302Y61617D01*
X65898Y62015D01*
X66296Y62610D01*
X66435Y63313D01*
X66296Y64015D01*
X65898Y64610D01*
X65302Y65008D01*
X64600Y65148D01*
D02*
G37*
G36*
X253150Y63745D02*
X252447Y63605D01*
X251852Y63207D01*
X251454Y62612D01*
X251314Y61910D01*
X251454Y61207D01*
X251852Y60612D01*
X252447Y60214D01*
X253150Y60074D01*
X253852Y60214D01*
X254447Y60612D01*
X254845Y61207D01*
X254985Y61910D01*
X254845Y62612D01*
X254447Y63207D01*
X253852Y63605D01*
X253150Y63745D01*
D02*
G37*
G36*
X268764Y60254D02*
X268061Y60114D01*
X267466Y59716D01*
X267068Y59121D01*
X266929Y58418D01*
X267068Y57716D01*
X267466Y57121D01*
X268061Y56723D01*
X268764Y56583D01*
X269466Y56723D01*
X270061Y57121D01*
X270459Y57716D01*
X270599Y58418D01*
X270459Y59121D01*
X270061Y59716D01*
X269466Y60114D01*
X268764Y60254D01*
D02*
G37*
G36*
X213596Y59335D02*
X212894Y59196D01*
X212299Y58798D01*
X211901Y58202D01*
X211761Y57500D01*
X211901Y56798D01*
X212299Y56202D01*
X212894Y55804D01*
X213596Y55665D01*
X214299Y55804D01*
X214894Y56202D01*
X215292Y56798D01*
X215432Y57500D01*
X215292Y58202D01*
X214894Y58798D01*
X214299Y59196D01*
X213596Y59335D01*
D02*
G37*
G36*
X150900Y58235D02*
X150198Y58096D01*
X149602Y57698D01*
X149204Y57102D01*
X149065Y56400D01*
X149204Y55698D01*
X149602Y55102D01*
X150198Y54704D01*
X150900Y54565D01*
X151602Y54704D01*
X152198Y55102D01*
X152596Y55698D01*
X152735Y56400D01*
X152596Y57102D01*
X152198Y57698D01*
X151602Y58096D01*
X150900Y58235D01*
D02*
G37*
G36*
X132200D02*
X131498Y58096D01*
X130902Y57698D01*
X130504Y57102D01*
X130365Y56400D01*
X130504Y55698D01*
X130902Y55102D01*
X131498Y54704D01*
X132200Y54565D01*
X132902Y54704D01*
X133498Y55102D01*
X133896Y55698D01*
X134035Y56400D01*
X133896Y57102D01*
X133498Y57698D01*
X132902Y58096D01*
X132200Y58235D01*
D02*
G37*
G36*
X155400Y58135D02*
X154698Y57996D01*
X154102Y57598D01*
X153704Y57002D01*
X153565Y56300D01*
X153704Y55598D01*
X154102Y55002D01*
X154698Y54604D01*
X155400Y54465D01*
X156102Y54604D01*
X156698Y55002D01*
X157096Y55598D01*
X157235Y56300D01*
X157096Y57002D01*
X156698Y57598D01*
X156102Y57996D01*
X155400Y58135D01*
D02*
G37*
G36*
X146100D02*
X145398Y57996D01*
X144802Y57598D01*
X144404Y57002D01*
X144265Y56300D01*
X144404Y55598D01*
X144802Y55002D01*
X145398Y54604D01*
X146100Y54465D01*
X146802Y54604D01*
X147398Y55002D01*
X147796Y55598D01*
X147935Y56300D01*
X147796Y57002D01*
X147398Y57598D01*
X146802Y57996D01*
X146100Y58135D01*
D02*
G37*
G36*
X141200D02*
X140498Y57996D01*
X139902Y57598D01*
X139504Y57002D01*
X139365Y56300D01*
X139504Y55598D01*
X139902Y55002D01*
X140498Y54604D01*
X141200Y54465D01*
X141902Y54604D01*
X142498Y55002D01*
X142896Y55598D01*
X143035Y56300D01*
X142896Y57002D01*
X142498Y57598D01*
X141902Y57996D01*
X141200Y58135D01*
D02*
G37*
G36*
X136700D02*
X135998Y57996D01*
X135402Y57598D01*
X135004Y57002D01*
X134865Y56300D01*
X135004Y55598D01*
X135402Y55002D01*
X135998Y54604D01*
X136700Y54465D01*
X137402Y54604D01*
X137998Y55002D01*
X138396Y55598D01*
X138535Y56300D01*
X138396Y57002D01*
X137998Y57598D01*
X137402Y57996D01*
X136700Y58135D01*
D02*
G37*
G36*
X126900D02*
X126198Y57996D01*
X125602Y57598D01*
X125204Y57002D01*
X125065Y56300D01*
X125204Y55598D01*
X125602Y55002D01*
X126198Y54604D01*
X126900Y54465D01*
X127602Y54604D01*
X128198Y55002D01*
X128596Y55598D01*
X128735Y56300D01*
X128596Y57002D01*
X128198Y57598D01*
X127602Y57996D01*
X126900Y58135D01*
D02*
G37*
G36*
X122378D02*
X121676Y57996D01*
X121081Y57598D01*
X120683Y57002D01*
X120543Y56300D01*
X120683Y55598D01*
X121081Y55002D01*
X121676Y54604D01*
X122378Y54465D01*
X123081Y54604D01*
X123676Y55002D01*
X124074Y55598D01*
X124214Y56300D01*
X124074Y57002D01*
X123676Y57598D01*
X123081Y57996D01*
X122378Y58135D01*
D02*
G37*
G36*
X117900D02*
X117198Y57996D01*
X116602Y57598D01*
X116204Y57002D01*
X116065Y56300D01*
X116204Y55598D01*
X116602Y55002D01*
X117198Y54604D01*
X117900Y54465D01*
X118602Y54604D01*
X119198Y55002D01*
X119596Y55598D01*
X119735Y56300D01*
X119596Y57002D01*
X119198Y57598D01*
X118602Y57996D01*
X117900Y58135D01*
D02*
G37*
G36*
X24931Y57893D02*
X24229Y57753D01*
X23633Y57355D01*
X23235Y56760D01*
X23096Y56058D01*
X23235Y55355D01*
X23633Y54760D01*
X24229Y54362D01*
X24931Y54222D01*
X25633Y54362D01*
X26229Y54760D01*
X26626Y55355D01*
X26766Y56058D01*
X26626Y56760D01*
X26229Y57355D01*
X25633Y57753D01*
X24931Y57893D01*
D02*
G37*
G36*
X45100Y57035D02*
X44398Y56896D01*
X43802Y56498D01*
X43404Y55902D01*
X43265Y55200D01*
X43404Y54498D01*
X43802Y53902D01*
X44398Y53504D01*
X45100Y53365D01*
X45802Y53504D01*
X46398Y53902D01*
X46796Y54498D01*
X46935Y55200D01*
X46796Y55902D01*
X46398Y56498D01*
X45802Y56896D01*
X45100Y57035D01*
D02*
G37*
G36*
X258500Y56335D02*
X257798Y56196D01*
X257202Y55798D01*
X256804Y55202D01*
X256665Y54500D01*
X256804Y53798D01*
X257202Y53202D01*
X257798Y52804D01*
X258500Y52665D01*
X259202Y52804D01*
X259798Y53202D01*
X260196Y53798D01*
X260335Y54500D01*
X260196Y55202D01*
X259798Y55798D01*
X259202Y56196D01*
X258500Y56335D01*
D02*
G37*
G36*
X218500D02*
X217798Y56196D01*
X217202Y55798D01*
X216804Y55202D01*
X216665Y54500D01*
X216804Y53798D01*
X217202Y53202D01*
X217798Y52804D01*
X218500Y52665D01*
X219202Y52804D01*
X219798Y53202D01*
X220196Y53798D01*
X220335Y54500D01*
X220196Y55202D01*
X219798Y55798D01*
X219202Y56196D01*
X218500Y56335D01*
D02*
G37*
G36*
X198500D02*
X197798Y56196D01*
X197202Y55798D01*
X196804Y55202D01*
X196665Y54500D01*
X196804Y53798D01*
X197202Y53202D01*
X197798Y52804D01*
X198500Y52665D01*
X199202Y52804D01*
X199798Y53202D01*
X200196Y53798D01*
X200335Y54500D01*
X200196Y55202D01*
X199798Y55798D01*
X199202Y56196D01*
X198500Y56335D01*
D02*
G37*
G36*
X38500D02*
X37798Y56196D01*
X37202Y55798D01*
X36804Y55202D01*
X36665Y54500D01*
X36804Y53798D01*
X37202Y53202D01*
X37798Y52804D01*
X38500Y52665D01*
X39202Y52804D01*
X39798Y53202D01*
X40196Y53798D01*
X40335Y54500D01*
X40196Y55202D01*
X39798Y55798D01*
X39202Y56196D01*
X38500Y56335D01*
D02*
G37*
G36*
X245927Y55541D02*
X245225Y55401D01*
X244630Y55004D01*
X244232Y54408D01*
X244092Y53706D01*
X244232Y53004D01*
X244630Y52408D01*
X245225Y52010D01*
X245927Y51871D01*
X246630Y52010D01*
X247225Y52408D01*
X247623Y53004D01*
X247763Y53706D01*
X247623Y54408D01*
X247225Y55004D01*
X246630Y55401D01*
X245927Y55541D01*
D02*
G37*
G36*
X78500Y56335D02*
X77798Y56196D01*
X77202Y55798D01*
X76804Y55202D01*
X76665Y54500D01*
X76804Y53798D01*
X77202Y53202D01*
X77781Y52816D01*
X77504Y52402D01*
X77365Y51700D01*
X77504Y50998D01*
X77902Y50402D01*
X78498Y50004D01*
X79200Y49865D01*
X79902Y50004D01*
X80498Y50402D01*
X80896Y50998D01*
X81035Y51700D01*
X80896Y52402D01*
X80498Y52998D01*
X79919Y53384D01*
X80196Y53798D01*
X80335Y54500D01*
X80196Y55202D01*
X79798Y55798D01*
X79202Y56196D01*
X78500Y56335D01*
D02*
G37*
G36*
X221700Y53435D02*
X220998Y53296D01*
X220402Y52898D01*
X220004Y52302D01*
X219865Y51600D01*
X220004Y50898D01*
X220402Y50302D01*
X220998Y49904D01*
X221700Y49765D01*
X222402Y49904D01*
X222998Y50302D01*
X223396Y50898D01*
X223535Y51600D01*
X223396Y52302D01*
X222998Y52898D01*
X222402Y53296D01*
X221700Y53435D01*
D02*
G37*
G36*
X31583Y49462D02*
X30881Y49323D01*
X30285Y48925D01*
X29888Y48329D01*
X29748Y47627D01*
X29888Y46925D01*
X30285Y46329D01*
X30881Y45932D01*
X31583Y45792D01*
X32285Y45932D01*
X32881Y46329D01*
X33279Y46925D01*
X33418Y47627D01*
X33279Y48329D01*
X32881Y48925D01*
X32285Y49323D01*
X31583Y49462D01*
D02*
G37*
G36*
X260000Y48973D02*
X259298Y48834D01*
X258702Y48436D01*
X258305Y47840D01*
X258165Y47138D01*
X258305Y46436D01*
X258702Y45840D01*
X259298Y45443D01*
X260000Y45303D01*
X260702Y45443D01*
X261298Y45840D01*
X261696Y46436D01*
X261835Y47138D01*
X261696Y47840D01*
X261298Y48436D01*
X260702Y48834D01*
X260000Y48973D01*
D02*
G37*
G36*
X72539Y47111D02*
X71837Y46971D01*
X71242Y46573D01*
X70844Y45978D01*
X70704Y45276D01*
X70844Y44573D01*
X71242Y43978D01*
X71837Y43580D01*
X72539Y43440D01*
X73242Y43580D01*
X73837Y43978D01*
X74235Y44573D01*
X74375Y45276D01*
X74235Y45978D01*
X73837Y46573D01*
X73242Y46971D01*
X72539Y47111D01*
D02*
G37*
G36*
X95200Y43235D02*
X94498Y43096D01*
X93902Y42698D01*
X93504Y42102D01*
X93365Y41400D01*
X93504Y40698D01*
X93902Y40102D01*
X94498Y39704D01*
X95200Y39565D01*
X95902Y39704D01*
X96498Y40102D01*
X96896Y40698D01*
X97035Y41400D01*
X96896Y42102D01*
X96498Y42698D01*
X95902Y43096D01*
X95200Y43235D01*
D02*
G37*
G36*
X205269Y42835D02*
X204567Y42696D01*
X203972Y42298D01*
X203574Y41702D01*
X203434Y41000D01*
X203574Y40298D01*
X203972Y39702D01*
X204567Y39304D01*
X205269Y39165D01*
X205972Y39304D01*
X206567Y39702D01*
X206965Y40298D01*
X207104Y41000D01*
X206965Y41702D01*
X206567Y42298D01*
X205972Y42696D01*
X205269Y42835D01*
D02*
G37*
G36*
X60800Y41335D02*
X60098Y41196D01*
X59502Y40798D01*
X59104Y40202D01*
X58965Y39500D01*
X59104Y38798D01*
X59502Y38202D01*
X60098Y37804D01*
X60800Y37665D01*
X61502Y37804D01*
X62098Y38202D01*
X62496Y38798D01*
X62635Y39500D01*
X62496Y40202D01*
X62098Y40798D01*
X61502Y41196D01*
X60800Y41335D01*
D02*
G37*
G36*
X39488Y40853D02*
X38786Y40714D01*
X38190Y40316D01*
X37792Y39720D01*
X37653Y39018D01*
X37792Y38316D01*
X38190Y37720D01*
X38786Y37322D01*
X39488Y37183D01*
X40190Y37322D01*
X40786Y37720D01*
X41183Y38316D01*
X41323Y39018D01*
X41183Y39720D01*
X40786Y40316D01*
X40190Y40714D01*
X39488Y40853D01*
D02*
G37*
G36*
X189300Y40035D02*
X188598Y39896D01*
X188002Y39498D01*
X187604Y38902D01*
X187465Y38200D01*
X187604Y37498D01*
X188002Y36902D01*
X188598Y36504D01*
X189300Y36365D01*
X190002Y36504D01*
X190598Y36902D01*
X190996Y37498D01*
X191135Y38200D01*
X190996Y38902D01*
X190598Y39498D01*
X190002Y39896D01*
X189300Y40035D01*
D02*
G37*
G36*
X229000Y39535D02*
X228298Y39396D01*
X227702Y38998D01*
X227304Y38402D01*
X227165Y37700D01*
X227304Y36998D01*
X227702Y36402D01*
X228298Y36004D01*
X229000Y35865D01*
X229702Y36004D01*
X230298Y36402D01*
X230696Y36998D01*
X230835Y37700D01*
X230696Y38402D01*
X230298Y38998D01*
X229702Y39396D01*
X229000Y39535D01*
D02*
G37*
G36*
X214873Y39140D02*
X214170Y39000D01*
X213575Y38603D01*
X213177Y38007D01*
X213037Y37305D01*
X213177Y36603D01*
X213575Y36007D01*
X214170Y35609D01*
X214873Y35470D01*
X215575Y35609D01*
X216170Y36007D01*
X216568Y36603D01*
X216708Y37305D01*
X216568Y38007D01*
X216170Y38603D01*
X215575Y39000D01*
X214873Y39140D01*
D02*
G37*
G36*
X249324Y37735D02*
X248621Y37596D01*
X248026Y37198D01*
X247628Y36602D01*
X247488Y35900D01*
X247628Y35198D01*
X248026Y34602D01*
X248621Y34204D01*
X249324Y34065D01*
X250026Y34204D01*
X250621Y34602D01*
X251019Y35198D01*
X251159Y35900D01*
X251019Y36602D01*
X250621Y37198D01*
X250026Y37596D01*
X249324Y37735D01*
D02*
G37*
G36*
X113700Y36635D02*
X112998Y36496D01*
X112402Y36098D01*
X112004Y35502D01*
X111865Y34800D01*
X112004Y34098D01*
X112402Y33502D01*
X112998Y33104D01*
X113700Y32965D01*
X114402Y33104D01*
X114998Y33502D01*
X115396Y34098D01*
X115535Y34800D01*
X115396Y35502D01*
X114998Y36098D01*
X114402Y36496D01*
X113700Y36635D01*
D02*
G37*
G36*
X148500Y36335D02*
X147798Y36196D01*
X147202Y35798D01*
X146804Y35202D01*
X146665Y34500D01*
X146804Y33798D01*
X147202Y33202D01*
X147798Y32804D01*
X148500Y32665D01*
X149202Y32804D01*
X149798Y33202D01*
X150196Y33798D01*
X150335Y34500D01*
X150196Y35202D01*
X149798Y35798D01*
X149202Y36196D01*
X148500Y36335D01*
D02*
G37*
G36*
X128500D02*
X127798Y36196D01*
X127202Y35798D01*
X126804Y35202D01*
X126665Y34500D01*
X126804Y33798D01*
X127202Y33202D01*
X127798Y32804D01*
X128500Y32665D01*
X129202Y32804D01*
X129798Y33202D01*
X130196Y33798D01*
X130335Y34500D01*
X130196Y35202D01*
X129798Y35798D01*
X129202Y36196D01*
X128500Y36335D01*
D02*
G37*
G36*
X108500D02*
X107798Y36196D01*
X107202Y35798D01*
X106804Y35202D01*
X106665Y34500D01*
X106804Y33798D01*
X107202Y33202D01*
X107798Y32804D01*
X108500Y32665D01*
X109202Y32804D01*
X109798Y33202D01*
X110196Y33798D01*
X110335Y34500D01*
X110196Y35202D01*
X109798Y35798D01*
X109202Y36196D01*
X108500Y36335D01*
D02*
G37*
G36*
X88500D02*
X87798Y36196D01*
X87202Y35798D01*
X86804Y35202D01*
X86665Y34500D01*
X86804Y33798D01*
X87202Y33202D01*
X87798Y32804D01*
X88500Y32665D01*
X89202Y32804D01*
X89798Y33202D01*
X90196Y33798D01*
X90335Y34500D01*
X90196Y35202D01*
X89798Y35798D01*
X89202Y36196D01*
X88500Y36335D01*
D02*
G37*
G36*
X68500D02*
X67798Y36196D01*
X67202Y35798D01*
X66804Y35202D01*
X66665Y34500D01*
X66804Y33798D01*
X67202Y33202D01*
X67798Y32804D01*
X68500Y32665D01*
X69202Y32804D01*
X69798Y33202D01*
X70196Y33798D01*
X70335Y34500D01*
X70196Y35202D01*
X69798Y35798D01*
X69202Y36196D01*
X68500Y36335D01*
D02*
G37*
G36*
X168500D02*
X167798Y36196D01*
X167202Y35798D01*
X166804Y35202D01*
X166665Y34500D01*
X166804Y33798D01*
X167202Y33202D01*
X167798Y32804D01*
X168500Y32665D01*
X169202Y32804D01*
X169798Y33202D01*
X169877Y33321D01*
X170304Y33102D01*
X170165Y32400D01*
X170304Y31698D01*
X170702Y31102D01*
X171298Y30704D01*
X172000Y30565D01*
X172702Y30704D01*
X173298Y31102D01*
X173696Y31698D01*
X173835Y32400D01*
X173696Y33102D01*
X173298Y33698D01*
X172702Y34096D01*
X172000Y34235D01*
X171298Y34096D01*
X170702Y33698D01*
X170623Y33579D01*
X170196Y33798D01*
X170335Y34500D01*
X170196Y35202D01*
X169798Y35798D01*
X169202Y36196D01*
X168500Y36335D01*
D02*
G37*
G36*
X131700Y32435D02*
X130998Y32296D01*
X130402Y31898D01*
X130004Y31302D01*
X129865Y30600D01*
X130004Y29898D01*
X130402Y29302D01*
X130998Y28904D01*
X131700Y28765D01*
X132402Y28904D01*
X132998Y29302D01*
X133396Y29898D01*
X133535Y30600D01*
X133396Y31302D01*
X132998Y31898D01*
X132402Y32296D01*
X131700Y32435D01*
D02*
G37*
G36*
X48500Y36335D02*
X47798Y36196D01*
X47202Y35798D01*
X46804Y35202D01*
X46665Y34500D01*
X46804Y33798D01*
X47202Y33202D01*
X47798Y32804D01*
X47827Y32799D01*
X47857Y32357D01*
X47846Y32285D01*
X47266Y31898D01*
X46868Y31302D01*
X46728Y30600D01*
X46868Y29898D01*
X47266Y29302D01*
X47861Y28904D01*
X48564Y28765D01*
X49266Y28904D01*
X49861Y29302D01*
X50259Y29898D01*
X50399Y30600D01*
X50259Y31302D01*
X49861Y31898D01*
X49266Y32296D01*
X49236Y32301D01*
X49207Y32743D01*
X49218Y32815D01*
X49798Y33202D01*
X50196Y33798D01*
X50335Y34500D01*
X50196Y35202D01*
X49798Y35798D01*
X49202Y36196D01*
X48500Y36335D01*
D02*
G37*
G36*
X153100Y31935D02*
X152398Y31796D01*
X151802Y31398D01*
X151404Y30802D01*
X151265Y30100D01*
X151404Y29398D01*
X151802Y28802D01*
X152398Y28404D01*
X153100Y28265D01*
X153802Y28404D01*
X154398Y28802D01*
X154796Y29398D01*
X154935Y30100D01*
X154796Y30802D01*
X154398Y31398D01*
X153802Y31796D01*
X153100Y31935D01*
D02*
G37*
G36*
X189158Y31560D02*
X188456Y31420D01*
X187860Y31022D01*
X187462Y30427D01*
X187323Y29724D01*
X187462Y29022D01*
X187860Y28427D01*
X188456Y28029D01*
X189158Y27889D01*
X189860Y28029D01*
X190456Y28427D01*
X190854Y29022D01*
X190993Y29724D01*
X190854Y30427D01*
X190456Y31022D01*
X189860Y31420D01*
X189158Y31560D01*
D02*
G37*
G36*
X91339Y29493D02*
X90636Y29353D01*
X90041Y28955D01*
X89643Y28360D01*
X89503Y27657D01*
X89643Y26955D01*
X90041Y26360D01*
X90636Y25962D01*
X91339Y25822D01*
X92041Y25962D01*
X92636Y26360D01*
X93034Y26955D01*
X93174Y27657D01*
X93034Y28360D01*
X92636Y28955D01*
X92041Y29353D01*
X91339Y29493D01*
D02*
G37*
G36*
X79300Y29335D02*
X78598Y29196D01*
X78002Y28798D01*
X77604Y28202D01*
X77465Y27500D01*
X77604Y26798D01*
X78002Y26202D01*
X78598Y25804D01*
X79300Y25665D01*
X80002Y25804D01*
X80598Y26202D01*
X80996Y26798D01*
X81135Y27500D01*
X80996Y28202D01*
X80598Y28798D01*
X80002Y29196D01*
X79300Y29335D01*
D02*
G37*
G36*
X238545Y28435D02*
X237843Y28296D01*
X237248Y27898D01*
X236850Y27302D01*
X236710Y26600D01*
X236850Y25898D01*
X237248Y25302D01*
X237843Y24904D01*
X238545Y24765D01*
X239248Y24904D01*
X239843Y25302D01*
X240241Y25898D01*
X240381Y26600D01*
X240241Y27302D01*
X239843Y27898D01*
X239248Y28296D01*
X238545Y28435D01*
D02*
G37*
G36*
X210500Y27435D02*
X209798Y27296D01*
X209202Y26898D01*
X208804Y26302D01*
X208665Y25600D01*
X208804Y24898D01*
X209202Y24302D01*
X209798Y23904D01*
X210500Y23765D01*
X211202Y23904D01*
X211798Y24302D01*
X212196Y24898D01*
X212335Y25600D01*
X212196Y26302D01*
X211798Y26898D01*
X211202Y27296D01*
X210500Y27435D01*
D02*
G37*
G36*
X112205Y27032D02*
X111502Y26892D01*
X110907Y26495D01*
X110509Y25899D01*
X110370Y25197D01*
X110509Y24495D01*
X110907Y23899D01*
X111502Y23501D01*
X112205Y23362D01*
X112907Y23501D01*
X113502Y23899D01*
X113900Y24495D01*
X114040Y25197D01*
X113900Y25899D01*
X113502Y26495D01*
X112907Y26892D01*
X112205Y27032D01*
D02*
G37*
G36*
X58004Y25009D02*
X57302Y24869D01*
X56707Y24471D01*
X56309Y23876D01*
X56169Y23173D01*
X56309Y22471D01*
X56707Y21876D01*
X57302Y21478D01*
X58004Y21338D01*
X58707Y21478D01*
X59302Y21876D01*
X59700Y22471D01*
X59840Y23173D01*
X59700Y23876D01*
X59302Y24471D01*
X58707Y24869D01*
X58004Y25009D01*
D02*
G37*
G36*
X155315Y23292D02*
X154613Y23152D01*
X154017Y22754D01*
X153619Y22159D01*
X153480Y21457D01*
X153619Y20754D01*
X154017Y20159D01*
X154613Y19761D01*
X155315Y19621D01*
X156017Y19761D01*
X156613Y20159D01*
X157010Y20754D01*
X157150Y21457D01*
X157010Y22159D01*
X156613Y22754D01*
X156017Y23152D01*
X155315Y23292D01*
D02*
G37*
G36*
X228814Y21422D02*
X228112Y21282D01*
X227517Y20884D01*
X227119Y20289D01*
X226979Y19587D01*
X227119Y18884D01*
X227517Y18289D01*
X228112Y17891D01*
X228814Y17751D01*
X229517Y17891D01*
X230112Y18289D01*
X230510Y18884D01*
X230650Y19587D01*
X230510Y20289D01*
X230112Y20884D01*
X229517Y21282D01*
X228814Y21422D01*
D02*
G37*
G36*
X177756D02*
X177054Y21282D01*
X176458Y20884D01*
X176060Y20289D01*
X175921Y19587D01*
X176060Y18884D01*
X176458Y18289D01*
X177054Y17891D01*
X177756Y17751D01*
X178458Y17891D01*
X179054Y18289D01*
X179452Y18884D01*
X179591Y19587D01*
X179452Y20289D01*
X179054Y20884D01*
X178458Y21282D01*
X177756Y21422D01*
D02*
G37*
G36*
X100400Y19535D02*
X99698Y19396D01*
X99102Y18998D01*
X98704Y18402D01*
X98565Y17700D01*
X98704Y16998D01*
X98853Y16775D01*
X98553Y16325D01*
X98500Y16335D01*
X97798Y16196D01*
X97202Y15798D01*
X96804Y15202D01*
X96665Y14500D01*
X96804Y13798D01*
X97202Y13202D01*
X97798Y12804D01*
X98500Y12665D01*
X99202Y12804D01*
X99798Y13202D01*
X100196Y13798D01*
X100335Y14500D01*
X100196Y15202D01*
X100047Y15425D01*
X100347Y15875D01*
X100400Y15865D01*
X101102Y16004D01*
X101698Y16402D01*
X102096Y16998D01*
X102235Y17700D01*
X102096Y18402D01*
X101698Y18998D01*
X101102Y19396D01*
X100400Y19535D01*
D02*
G37*
G36*
X191000Y18735D02*
X190298Y18596D01*
X189702Y18198D01*
X189304Y17602D01*
X189165Y16900D01*
X189304Y16198D01*
X189702Y15602D01*
X190298Y15204D01*
X191000Y15065D01*
X191702Y15204D01*
X192298Y15602D01*
X192696Y16198D01*
X192835Y16900D01*
X192696Y17602D01*
X192298Y18198D01*
X191702Y18596D01*
X191000Y18735D01*
D02*
G37*
G36*
X68504Y18061D02*
X67802Y17921D01*
X67206Y17524D01*
X66808Y16928D01*
X66669Y16226D01*
X66808Y15524D01*
X67206Y14928D01*
X67802Y14530D01*
X68504Y14391D01*
X69206Y14530D01*
X69802Y14928D01*
X70200Y15524D01*
X70339Y16226D01*
X70200Y16928D01*
X69802Y17524D01*
X69206Y17921D01*
X68504Y18061D01*
D02*
G37*
G36*
X132677Y17977D02*
X131975Y17837D01*
X131379Y17439D01*
X130982Y16844D01*
X130842Y16142D01*
X130982Y15439D01*
X131379Y14844D01*
X131975Y14446D01*
X132677Y14307D01*
X133379Y14446D01*
X133975Y14844D01*
X134373Y15439D01*
X134512Y16142D01*
X134373Y16844D01*
X133975Y17439D01*
X133379Y17837D01*
X132677Y17977D01*
D02*
G37*
G36*
X78500Y16335D02*
X77798Y16196D01*
X77202Y15798D01*
X76804Y15202D01*
X76665Y14500D01*
X76804Y13798D01*
X77202Y13202D01*
X77798Y12804D01*
X78500Y12665D01*
X79202Y12804D01*
X79798Y13202D01*
X80196Y13798D01*
X80335Y14500D01*
X80196Y15202D01*
X79798Y15798D01*
X79202Y16196D01*
X78500Y16335D01*
D02*
G37*
G36*
X218209Y15024D02*
X217506Y14885D01*
X216911Y14487D01*
X216513Y13891D01*
X216373Y13189D01*
X216513Y12487D01*
X216911Y11891D01*
X217506Y11493D01*
X218209Y11354D01*
X218911Y11493D01*
X219506Y11891D01*
X219904Y12487D01*
X220044Y13189D01*
X219904Y13891D01*
X219506Y14487D01*
X218911Y14885D01*
X218209Y15024D01*
D02*
G37*
G36*
X122100Y13335D02*
X121398Y13196D01*
X120802Y12798D01*
X120404Y12202D01*
X120265Y11500D01*
X120404Y10798D01*
X120802Y10202D01*
X121398Y9804D01*
X122100Y9665D01*
X122802Y9804D01*
X123398Y10202D01*
X123796Y10798D01*
X123935Y11500D01*
X123796Y12202D01*
X123398Y12798D01*
X122802Y13196D01*
X122100Y13335D01*
D02*
G37*
G36*
X169000Y13135D02*
X168298Y12996D01*
X167702Y12598D01*
X167304Y12002D01*
X167165Y11300D01*
X167304Y10598D01*
X167702Y10002D01*
X168298Y9604D01*
X169000Y9465D01*
X169702Y9604D01*
X170298Y10002D01*
X170696Y10598D01*
X170835Y11300D01*
X170696Y12002D01*
X170298Y12598D01*
X169702Y12996D01*
X169000Y13135D01*
D02*
G37*
G36*
X146800Y11535D02*
X146098Y11396D01*
X145502Y10998D01*
X145104Y10402D01*
X144965Y9700D01*
X145104Y8998D01*
X145502Y8402D01*
X146098Y8004D01*
X146800Y7865D01*
X147502Y8004D01*
X148098Y8402D01*
X148496Y8998D01*
X148635Y9700D01*
X148496Y10402D01*
X148098Y10998D01*
X147502Y11396D01*
X146800Y11535D01*
D02*
G37*
G36*
X80536D02*
X79833Y11396D01*
X79238Y10998D01*
X78840Y10402D01*
X78700Y9700D01*
X78840Y8998D01*
X79238Y8402D01*
X79833Y8004D01*
X80536Y7865D01*
X81238Y8004D01*
X81833Y8402D01*
X82231Y8998D01*
X82371Y9700D01*
X82231Y10402D01*
X81833Y10998D01*
X81238Y11396D01*
X80536Y11535D01*
D02*
G37*
G36*
X205700Y8890D02*
X204998Y8750D01*
X204402Y8352D01*
X204004Y7757D01*
X203865Y7055D01*
X204004Y6352D01*
X204402Y5757D01*
X204998Y5359D01*
X205700Y5219D01*
X206402Y5359D01*
X206998Y5757D01*
X207396Y6352D01*
X207535Y7055D01*
X207396Y7757D01*
X206998Y8352D01*
X206402Y8750D01*
X205700Y8890D01*
D02*
G37*
G36*
X95339Y5314D02*
X94637Y5174D01*
X94042Y4776D01*
X93644Y4181D01*
X93504Y3479D01*
X93644Y2776D01*
X94042Y2181D01*
X94637Y1783D01*
X95339Y1643D01*
X96042Y1783D01*
X96637Y2181D01*
X97035Y2776D01*
X97175Y3479D01*
X97035Y4181D01*
X96637Y4776D01*
X96042Y5174D01*
X95339Y5314D01*
D02*
G37*
G36*
X191929Y3607D02*
X191227Y3467D01*
X190631Y3069D01*
X190234Y2474D01*
X190094Y1772D01*
X190234Y1069D01*
X190631Y474D01*
X191227Y76D01*
X191929Y-64D01*
X192631Y76D01*
X193227Y474D01*
X193625Y1069D01*
X193764Y1772D01*
X193625Y2474D01*
X193227Y3069D01*
X192631Y3467D01*
X191929Y3607D01*
D02*
G37*
G36*
X111024Y654D02*
X110321Y514D01*
X109726Y117D01*
X109328Y-479D01*
X109188Y-1181D01*
X109328Y-1883D01*
X109726Y-2479D01*
X110321Y-2877D01*
X111024Y-3016D01*
X111726Y-2877D01*
X112321Y-2479D01*
X112719Y-1883D01*
X112859Y-1181D01*
X112719Y-479D01*
X112321Y117D01*
X111726Y514D01*
X111024Y654D01*
D02*
G37*
G36*
X176297Y-405D02*
X175594Y-545D01*
X174999Y-943D01*
X174601Y-1538D01*
X174462Y-2241D01*
X174601Y-2943D01*
X174999Y-3538D01*
X175594Y-3936D01*
X176297Y-4076D01*
X176999Y-3936D01*
X177595Y-3538D01*
X177992Y-2943D01*
X178132Y-2241D01*
X177992Y-1538D01*
X177595Y-943D01*
X176999Y-545D01*
X176297Y-405D01*
D02*
G37*
G36*
X161000Y-2744D02*
X160298Y-2883D01*
X159702Y-3281D01*
X159304Y-3876D01*
X159165Y-4579D01*
X159304Y-5281D01*
X159702Y-5877D01*
X160298Y-6274D01*
X161000Y-6414D01*
X161702Y-6274D01*
X162298Y-5877D01*
X162696Y-5281D01*
X162835Y-4579D01*
X162696Y-3876D01*
X162298Y-3281D01*
X161702Y-2883D01*
X161000Y-2744D01*
D02*
G37*
G36*
X144677Y-3489D02*
X143975Y-3629D01*
X143380Y-4027D01*
X142982Y-4622D01*
X142842Y-5325D01*
X142982Y-6027D01*
X143380Y-6622D01*
X143975Y-7020D01*
X144677Y-7160D01*
X145380Y-7020D01*
X145975Y-6622D01*
X146286Y-6157D01*
X146760Y-6199D01*
X146808Y-6208D01*
X147202Y-6798D01*
X147798Y-7196D01*
X148500Y-7335D01*
X149202Y-7196D01*
X149798Y-6798D01*
X150196Y-6202D01*
X150335Y-5500D01*
X150196Y-4798D01*
X149798Y-4202D01*
X149202Y-3804D01*
X148500Y-3665D01*
X147798Y-3804D01*
X147202Y-4202D01*
X146892Y-4667D01*
X146417Y-4626D01*
X146369Y-4617D01*
X145975Y-4027D01*
X145380Y-3629D01*
X144677Y-3489D01*
D02*
G37*
%LPD*%
D131*
X100787Y111929D02*
D03*
D133*
X31583Y83498D02*
D03*
X268565Y101978D02*
D03*
X41535Y220768D02*
D03*
D136*
X124802Y144770D02*
D03*
X168898Y91732D02*
D03*
X238779Y199311D02*
D03*
X235827Y236614D02*
D03*
D137*
X254232Y123031D02*
D03*
X171161Y104331D02*
D03*
X138287Y221752D02*
D03*
X142881D02*
D03*
X147474D02*
D03*
Y218898D02*
D03*
X142881D02*
D03*
X138287D02*
D03*
X138779Y102362D02*
D03*
X143373D02*
D03*
X147966D02*
D03*
X152559D02*
D03*
Y105217D02*
D03*
X147966D02*
D03*
X143373D02*
D03*
X138779D02*
D03*
X73819Y115847D02*
D03*
X68504Y115650D02*
D03*
X63484Y116240D02*
D03*
X73524Y120768D02*
D03*
X63189D02*
D03*
X216460Y43627D02*
D03*
X200300Y39200D02*
D03*
X232874Y56394D02*
D03*
X180500Y34736D02*
D03*
X161000Y31300D02*
D03*
X138100Y31000D02*
D03*
X120000Y33800D02*
D03*
X69800Y59300D02*
D03*
X85300Y48300D02*
D03*
X101400Y38800D02*
D03*
X60600Y185300D02*
D03*
X57300D02*
D03*
X53700D02*
D03*
X50514D02*
D03*
X47100D02*
D03*
X197700Y45100D02*
D03*
X197300Y59600D02*
D03*
X202000Y46800D02*
D03*
Y49481D02*
D03*
Y52200D02*
D03*
X201900Y54900D02*
D03*
Y57500D02*
D03*
M02*
