G04*
G04 #@! TF.GenerationSoftware,Altium Limited,Altium Designer,18.1.9 (240)*
G04*
G04 Layer_Physical_Order=2*
G04 Layer_Color=36540*
%FSLAX25Y25*%
%MOIN*%
G70*
G01*
G75*
%ADD131C,0.06000*%
%ADD133C,0.07000*%
%ADD134C,0.10000*%
%ADD136C,0.02000*%
%ADD137C,0.01600*%
G36*
X157255Y297073D02*
X164727Y296337D01*
X172155Y295235D01*
X179520Y293770D01*
X186804Y291946D01*
X193989Y289766D01*
X201060Y287236D01*
X207997Y284363D01*
X214785Y281152D01*
X221407Y277612D01*
X227848Y273752D01*
X234092Y269580D01*
X240123Y265107D01*
X245927Y260344D01*
X251491Y255301D01*
X256801Y249991D01*
X261843Y244427D01*
X266607Y238623D01*
X271080Y232592D01*
X275252Y226348D01*
X279113Y219907D01*
X282652Y213285D01*
X285863Y206497D01*
X288736Y199559D01*
X289123Y198478D01*
X288718Y198125D01*
X288635Y198169D01*
X287838Y198346D01*
X287022Y198310D01*
X286244Y198065D01*
X285555Y197626D01*
X285004Y197024D01*
X284627Y196300D01*
X284450Y195503D01*
X284486Y194688D01*
X284732Y193909D01*
X285170Y193221D01*
X285772Y192669D01*
X286496Y192293D01*
X287293Y192116D01*
X288108Y192151D01*
X288887Y192397D01*
X289575Y192835D01*
X290127Y193437D01*
X290286Y193744D01*
X290830Y193707D01*
X291266Y192489D01*
X293446Y185304D01*
X295270Y178020D01*
X296735Y170655D01*
X297837Y163227D01*
X298573Y155754D01*
X298941Y148255D01*
Y144500D01*
Y140745D01*
X298573Y133246D01*
X297837Y125773D01*
X296760Y118514D01*
X296249Y118387D01*
X295905Y118926D01*
X294794Y119944D01*
X293457Y120640D01*
X291985Y120967D01*
X290479Y120901D01*
X289041Y120448D01*
X287770Y119638D01*
X286752Y118526D01*
X286056Y117189D01*
X285730Y115717D01*
X285795Y114211D01*
X286248Y112774D01*
X287058Y111503D01*
X288170Y110484D01*
X289507Y109788D01*
X290979Y109462D01*
X292485Y109528D01*
X293922Y109981D01*
X294615Y110422D01*
X295052Y110108D01*
X293446Y103696D01*
X291266Y96511D01*
X290569Y94562D01*
X290087Y94701D01*
X290300Y95658D01*
X290234Y97164D01*
X289781Y98602D01*
X288971Y99873D01*
X287859Y100891D01*
X286522Y101588D01*
X285051Y101914D01*
X283544Y101848D01*
X282107Y101395D01*
X280836Y100585D01*
X279817Y99474D01*
X279121Y98136D01*
X278795Y96665D01*
X278861Y95159D01*
X279314Y93721D01*
X280124Y92450D01*
X281235Y91431D01*
X282572Y90735D01*
X284044Y90409D01*
X285550Y90475D01*
X286988Y90928D01*
X288259Y91738D01*
X289277Y92849D01*
X289750Y93757D01*
X290209Y93556D01*
X288736Y89441D01*
X285863Y82503D01*
X283758Y78053D01*
X283273Y78196D01*
X282846Y79549D01*
X282036Y80820D01*
X280925Y81839D01*
X279588Y82535D01*
X278116Y82861D01*
X276610Y82795D01*
X275172Y82342D01*
X273901Y81532D01*
X272883Y80421D01*
X272186Y79084D01*
X271860Y77612D01*
X271926Y76106D01*
X272379Y74668D01*
X273189Y73397D01*
X274301Y72378D01*
X275638Y71682D01*
X277109Y71356D01*
X278615Y71422D01*
X280029Y71868D01*
X280118Y71815D01*
X280419Y71536D01*
X279113Y69093D01*
X275252Y62652D01*
X271080Y56408D01*
X266607Y50377D01*
X261843Y44573D01*
X256801Y39009D01*
X251491Y33699D01*
X245927Y28657D01*
X240123Y23893D01*
X234092Y19420D01*
X227848Y15248D01*
X221407Y11387D01*
X214785Y7848D01*
X207997Y4637D01*
X201060Y1764D01*
X193989Y-766D01*
X186804Y-2946D01*
X179520Y-4770D01*
X172155Y-6235D01*
X164727Y-7337D01*
X157255Y-8073D01*
X149755Y-8442D01*
X142245D01*
X134746Y-8073D01*
X127273Y-7337D01*
X119845Y-6235D01*
X112480Y-4770D01*
X105196Y-2946D01*
X98011Y-766D01*
X90940Y1764D01*
X84003Y4637D01*
X77215Y7848D01*
X70593Y11387D01*
X64152Y15248D01*
X57908Y19420D01*
X51877Y23893D01*
X46073Y28657D01*
X40509Y33699D01*
X35199Y39009D01*
X30156Y44573D01*
X25393Y50377D01*
X20920Y56408D01*
X16748Y62652D01*
X12888Y69093D01*
X9348Y75715D01*
X6137Y82503D01*
X3264Y89441D01*
X734Y96511D01*
X-1446Y103696D01*
X-3270Y110980D01*
X-4735Y118345D01*
X-5837Y125773D01*
X-6573Y133246D01*
X-6942Y140745D01*
Y144500D01*
Y148255D01*
X-6573Y155754D01*
X-5837Y163227D01*
X-4735Y170655D01*
X-3270Y178020D01*
X-1446Y185304D01*
X734Y192489D01*
X3264Y199559D01*
X6137Y206497D01*
X9348Y213285D01*
X9630Y213813D01*
X10127Y213754D01*
X10296Y213098D01*
X11039Y211786D01*
X12095Y210711D01*
X13394Y209946D01*
X14846Y209543D01*
X16354Y209530D01*
X17813Y209908D01*
X19125Y210650D01*
X20200Y211706D01*
X20966Y213005D01*
X21368Y214458D01*
X21382Y215965D01*
X21004Y217425D01*
X20262Y218737D01*
X19205Y219812D01*
X17906Y220577D01*
X16454Y220980D01*
X14946Y220993D01*
X13970Y220740D01*
X13646Y221173D01*
X16748Y226348D01*
X20920Y232592D01*
X25393Y238623D01*
X30156Y244427D01*
X34805Y249556D01*
X35255Y249308D01*
X34898Y248020D01*
X34885Y246513D01*
X35262Y245053D01*
X36004Y243741D01*
X37061Y242666D01*
X38360Y241901D01*
X39812Y241498D01*
X41320Y241485D01*
X42779Y241862D01*
X44091Y242605D01*
X45166Y243661D01*
X45931Y244960D01*
X46334Y246413D01*
X46347Y247920D01*
X45970Y249379D01*
X45228Y250691D01*
X44171Y251766D01*
X42872Y252532D01*
X41420Y252934D01*
X39912Y252948D01*
X38497Y252581D01*
X38456Y252607D01*
X38322Y253114D01*
X40509Y255301D01*
X46073Y260344D01*
X51877Y265107D01*
X57908Y269580D01*
X64152Y273752D01*
X70593Y277612D01*
X75616Y280297D01*
X75741Y280075D01*
X76314Y279493D01*
X77017Y279079D01*
X77803Y278861D01*
X78620Y278854D01*
X79410Y279058D01*
X80120Y279460D01*
X80702Y280032D01*
X81117Y280735D01*
X81335Y281522D01*
X81342Y282338D01*
X81165Y283021D01*
X84003Y284363D01*
X90940Y287236D01*
X97309Y289515D01*
X97643Y288924D01*
X98215Y288342D01*
X98919Y287928D01*
X99705Y287710D01*
X100522Y287703D01*
X101312Y287907D01*
X102022Y288309D01*
X102604Y288881D01*
X103019Y289584D01*
X103237Y290371D01*
X103244Y291187D01*
X103204Y291341D01*
X105196Y291946D01*
X112480Y293770D01*
X119845Y295235D01*
X127273Y296337D01*
X134746Y297073D01*
X142245Y297442D01*
X149755D01*
X157255Y297073D01*
D02*
G37*
%LPC*%
G36*
X94447Y276505D02*
X93300Y276208D01*
X92269Y275625D01*
X91423Y274794D01*
X90822Y273774D01*
X90505Y272632D01*
X90495Y271447D01*
X90792Y270300D01*
X91375Y269268D01*
X92206Y268423D01*
X93226Y267822D01*
X94368Y267505D01*
X95553Y267495D01*
X96700Y267792D01*
X97732Y268375D01*
X98577Y269206D01*
X99178Y270227D01*
X99495Y271368D01*
X99505Y272553D01*
X99208Y273700D01*
X98625Y274731D01*
X97794Y275577D01*
X96773Y276178D01*
X95632Y276495D01*
X94447Y276505D01*
D02*
G37*
G36*
X146000Y274407D02*
X144824Y274291D01*
X143693Y273948D01*
X142650Y273391D01*
X141737Y272641D01*
X140987Y271727D01*
X140430Y270685D01*
X140087Y269554D01*
X139971Y268378D01*
X140087Y267202D01*
X140430Y266071D01*
X140987Y265028D01*
X141737Y264115D01*
X142650Y263365D01*
X143693Y262808D01*
X144824Y262465D01*
X146000Y262349D01*
X147176Y262465D01*
X148307Y262808D01*
X149349Y263365D01*
X150263Y264115D01*
X151013Y265028D01*
X151570Y266071D01*
X151913Y267202D01*
X152029Y268378D01*
X151913Y269554D01*
X151570Y270685D01*
X151013Y271727D01*
X150263Y272641D01*
X149349Y273391D01*
X148307Y273948D01*
X147176Y274291D01*
X146000Y274407D01*
D02*
G37*
G36*
X235827Y238653D02*
X235046Y238498D01*
X234385Y238056D01*
X233943Y237394D01*
X233788Y236614D01*
X233943Y235834D01*
X234385Y235172D01*
X235046Y234730D01*
X235827Y234575D01*
X236607Y234730D01*
X237269Y235172D01*
X237711Y235834D01*
X237866Y236614D01*
X237711Y237394D01*
X237269Y238056D01*
X236607Y238498D01*
X235827Y238653D01*
D02*
G37*
G36*
X27429Y236970D02*
X25970Y236593D01*
X24658Y235851D01*
X23583Y234794D01*
X22818Y233495D01*
X22415Y232043D01*
X22402Y230535D01*
X22779Y229076D01*
X23521Y227764D01*
X24578Y226689D01*
X25877Y225923D01*
X27329Y225521D01*
X28837Y225507D01*
X30296Y225885D01*
X31608Y226627D01*
X32683Y227684D01*
X33448Y228983D01*
X33851Y230435D01*
X33864Y231943D01*
X33487Y233402D01*
X32745Y234714D01*
X31688Y235789D01*
X30389Y236554D01*
X28937Y236957D01*
X27429Y236970D01*
D02*
G37*
G36*
X245381Y224586D02*
X244601Y224430D01*
X243939Y223988D01*
X243497Y223327D01*
X243342Y222547D01*
X243497Y221766D01*
X243939Y221105D01*
X244601Y220662D01*
X245381Y220507D01*
X246162Y220662D01*
X246823Y221105D01*
X247265Y221766D01*
X247421Y222547D01*
X247265Y223327D01*
X246823Y223988D01*
X246162Y224430D01*
X245381Y224586D01*
D02*
G37*
G36*
X147474Y223587D02*
X146771Y223447D01*
X146176Y223050D01*
X145778Y222454D01*
X145639Y221752D01*
X145778Y221050D01*
X146176Y220454D01*
Y220195D01*
X145778Y219600D01*
X145639Y218898D01*
X145778Y218195D01*
X146176Y217600D01*
X146771Y217202D01*
X147474Y217062D01*
X148176Y217202D01*
X148772Y217600D01*
X149169Y218195D01*
X149309Y218898D01*
X149169Y219600D01*
X148772Y220195D01*
Y220454D01*
X149169Y221050D01*
X149309Y221752D01*
X149169Y222454D01*
X148772Y223050D01*
X148176Y223447D01*
X147474Y223587D01*
D02*
G37*
G36*
X142881D02*
X142178Y223447D01*
X141583Y223050D01*
X141185Y222454D01*
X141045Y221752D01*
X141185Y221050D01*
X141583Y220454D01*
Y220195D01*
X141185Y219600D01*
X141045Y218898D01*
X141185Y218195D01*
X141583Y217600D01*
X142178Y217202D01*
X142881Y217062D01*
X143583Y217202D01*
X144178Y217600D01*
X144576Y218195D01*
X144716Y218898D01*
X144576Y219600D01*
X144178Y220195D01*
Y220454D01*
X144576Y221050D01*
X144716Y221752D01*
X144576Y222454D01*
X144178Y223050D01*
X143583Y223447D01*
X142881Y223587D01*
D02*
G37*
G36*
X138287D02*
X137585Y223447D01*
X136990Y223050D01*
X136592Y222454D01*
X136452Y221752D01*
X136592Y221050D01*
X136990Y220454D01*
Y220195D01*
X136592Y219600D01*
X136452Y218898D01*
X136592Y218195D01*
X136990Y217600D01*
X137585Y217202D01*
X138287Y217062D01*
X138990Y217202D01*
X139585Y217600D01*
X139983Y218195D01*
X140123Y218898D01*
X139983Y219600D01*
X139585Y220195D01*
Y220454D01*
X139983Y221050D01*
X140123Y221752D01*
X139983Y222454D01*
X139585Y223050D01*
X138990Y223447D01*
X138287Y223587D01*
D02*
G37*
G36*
X40982Y225273D02*
X39835Y224976D01*
X38804Y224393D01*
X37959Y223562D01*
X37357Y222541D01*
X37041Y221399D01*
X37030Y220215D01*
X37327Y219067D01*
X37911Y218036D01*
X38741Y217191D01*
X39762Y216590D01*
X40904Y216273D01*
X42089Y216263D01*
X43236Y216559D01*
X44267Y217143D01*
X45112Y217973D01*
X45713Y218994D01*
X46030Y220136D01*
X46040Y221321D01*
X45744Y222468D01*
X45160Y223499D01*
X44330Y224344D01*
X43309Y224946D01*
X42167Y225262D01*
X40982Y225273D01*
D02*
G37*
G36*
X33711Y215966D02*
X32563Y215669D01*
X31532Y215085D01*
X30687Y214255D01*
X30086Y213234D01*
X29769Y212092D01*
X29759Y210907D01*
X30055Y209760D01*
X30639Y208729D01*
X31469Y207884D01*
X32490Y207282D01*
X33632Y206966D01*
X34817Y206956D01*
X35964Y207252D01*
X36995Y207836D01*
X37841Y208666D01*
X38442Y209687D01*
X38759Y210829D01*
X38769Y212014D01*
X38472Y213161D01*
X37889Y214192D01*
X37058Y215037D01*
X36037Y215638D01*
X34896Y215955D01*
X33711Y215966D01*
D02*
G37*
G36*
X214500Y226851D02*
X212490Y226692D01*
X210529Y226222D01*
X208666Y225450D01*
X206947Y224396D01*
X205413Y223087D01*
X204104Y221553D01*
X203050Y219834D01*
X202278Y217971D01*
X201808Y216010D01*
X201649Y214000D01*
X201808Y211990D01*
X202278Y210029D01*
X203050Y208166D01*
X204104Y206447D01*
X205413Y204913D01*
X206947Y203604D01*
X208666Y202550D01*
X210529Y201778D01*
X212490Y201308D01*
X214500Y201149D01*
X216510Y201308D01*
X218471Y201778D01*
X220334Y202550D01*
X222053Y203604D01*
X223587Y204913D01*
X224896Y206447D01*
X225950Y208166D01*
X226722Y210029D01*
X227192Y211990D01*
X227351Y214000D01*
X227192Y216010D01*
X226722Y217971D01*
X225950Y219834D01*
X224896Y221553D01*
X223587Y223087D01*
X222053Y224396D01*
X220334Y225450D01*
X218471Y226222D01*
X216510Y226692D01*
X214500Y226851D01*
D02*
G37*
G36*
X77205D02*
X75194Y226692D01*
X73234Y226222D01*
X71371Y225450D01*
X69651Y224396D01*
X68118Y223087D01*
X66808Y221553D01*
X65755Y219834D01*
X64983Y217971D01*
X64512Y216010D01*
X64354Y214000D01*
X64512Y211990D01*
X64983Y210029D01*
X65755Y208166D01*
X66808Y206447D01*
X68118Y204913D01*
X69651Y203604D01*
X71371Y202550D01*
X73234Y201778D01*
X75194Y201308D01*
X77205Y201149D01*
X79215Y201308D01*
X81176Y201778D01*
X83039Y202550D01*
X84758Y203604D01*
X86291Y204913D01*
X87601Y206447D01*
X88655Y208166D01*
X89426Y210029D01*
X89897Y211990D01*
X90055Y214000D01*
X89897Y216010D01*
X89426Y217971D01*
X88655Y219834D01*
X87601Y221553D01*
X86291Y223087D01*
X84758Y224396D01*
X83039Y225450D01*
X81176Y226222D01*
X79215Y226692D01*
X77205Y226851D01*
D02*
G37*
G36*
X238779Y201350D02*
X237999Y201195D01*
X237338Y200753D01*
X236896Y200091D01*
X236740Y199311D01*
X236896Y198531D01*
X237338Y197869D01*
X237999Y197427D01*
X238779Y197272D01*
X239560Y197427D01*
X240222Y197869D01*
X240664Y198531D01*
X240819Y199311D01*
X240664Y200091D01*
X240222Y200753D01*
X239560Y201195D01*
X238779Y201350D01*
D02*
G37*
G36*
X212894Y196921D02*
X212113Y196766D01*
X211452Y196324D01*
X211010Y195662D01*
X210855Y194882D01*
X211010Y194102D01*
X211452Y193440D01*
X212113Y192998D01*
X212894Y192843D01*
X213674Y192998D01*
X214336Y193440D01*
X214778Y194102D01*
X214933Y194882D01*
X214778Y195662D01*
X214336Y196324D01*
X213674Y196766D01*
X212894Y196921D01*
D02*
G37*
G36*
X60600Y187135D02*
X59898Y186996D01*
X59302Y186598D01*
X59200Y186445D01*
X58700D01*
X58598Y186598D01*
X58002Y186996D01*
X57300Y187135D01*
X56598Y186996D01*
X56002Y186598D01*
X55801Y186296D01*
X55199D01*
X54998Y186598D01*
X54402Y186996D01*
X53700Y187135D01*
X52998Y186996D01*
X52402Y186598D01*
X52357Y186530D01*
X51857D01*
X51812Y186598D01*
X51217Y186996D01*
X50514Y187135D01*
X49812Y186996D01*
X49216Y186598D01*
X49108Y186435D01*
X48506D01*
X48398Y186598D01*
X47802Y186996D01*
X47100Y187135D01*
X46398Y186996D01*
X45802Y186598D01*
X45404Y186002D01*
X45265Y185300D01*
X45404Y184598D01*
X45802Y184002D01*
X46398Y183604D01*
X47100Y183465D01*
X47802Y183604D01*
X48398Y184002D01*
X48506Y184165D01*
X49108D01*
X49216Y184002D01*
X49812Y183604D01*
X50514Y183465D01*
X51217Y183604D01*
X51812Y184002D01*
X51857Y184070D01*
X52357D01*
X52402Y184002D01*
X52998Y183604D01*
X53700Y183465D01*
X54402Y183604D01*
X54998Y184002D01*
X55199Y184304D01*
X55801D01*
X56002Y184002D01*
X56598Y183604D01*
X57300Y183465D01*
X58002Y183604D01*
X58598Y184002D01*
X58700Y184155D01*
X59200D01*
X59302Y184002D01*
X59898Y183604D01*
X60600Y183465D01*
X61302Y183604D01*
X61898Y184002D01*
X62296Y184598D01*
X62435Y185300D01*
X62296Y186002D01*
X61898Y186598D01*
X61302Y186996D01*
X60600Y187135D01*
D02*
G37*
G36*
X194787Y185929D02*
X186787D01*
Y177929D01*
X194787D01*
Y185929D01*
D02*
G37*
G36*
X104787D02*
X96787D01*
Y177929D01*
X104787D01*
Y185929D01*
D02*
G37*
G36*
X274736Y185427D02*
X273553Y185376D01*
X272423Y185019D01*
X271423Y184383D01*
X270623Y183509D01*
X270076Y182458D01*
X269819Y181301D01*
X269871Y180118D01*
X270227Y178988D01*
X270864Y177988D01*
X271738Y177188D01*
X272789Y176641D01*
X273945Y176384D01*
X275129Y176436D01*
X276259Y176792D01*
X277258Y177429D01*
X278059Y178302D01*
X278606Y179353D01*
X278862Y180510D01*
X278811Y181694D01*
X278454Y182824D01*
X277818Y183823D01*
X276944Y184624D01*
X275893Y185171D01*
X274736Y185427D01*
D02*
G37*
G36*
X291940Y175083D02*
X291124Y175047D01*
X290346Y174801D01*
X289657Y174363D01*
X289106Y173761D01*
X288729Y173037D01*
X288552Y172240D01*
X288588Y171425D01*
X288833Y170646D01*
X289272Y169958D01*
X289874Y169406D01*
X290598Y169029D01*
X291395Y168853D01*
X292210Y168888D01*
X292989Y169134D01*
X293677Y169572D01*
X294229Y170174D01*
X294605Y170898D01*
X294782Y171695D01*
X294746Y172511D01*
X294501Y173289D01*
X294062Y173977D01*
X293461Y174529D01*
X292737Y174906D01*
X291940Y175083D01*
D02*
G37*
G36*
X190787Y175963D02*
X189743Y175826D01*
X188770Y175423D01*
X187935Y174781D01*
X187293Y173946D01*
X186890Y172973D01*
X186753Y171929D01*
X186890Y170884D01*
X187293Y169911D01*
X187935Y169076D01*
X188770Y168435D01*
X189743Y168032D01*
X190787Y167894D01*
X191832Y168032D01*
X192805Y168435D01*
X193640Y169076D01*
X194281Y169911D01*
X194684Y170884D01*
X194822Y171929D01*
X194684Y172973D01*
X194281Y173946D01*
X193640Y174781D01*
X192805Y175423D01*
X191832Y175826D01*
X190787Y175963D01*
D02*
G37*
G36*
X100787D02*
X99743Y175826D01*
X98770Y175423D01*
X97935Y174781D01*
X97293Y173946D01*
X96890Y172973D01*
X96753Y171929D01*
X96890Y170884D01*
X97293Y169911D01*
X97935Y169076D01*
X98770Y168435D01*
X99743Y168032D01*
X100787Y167894D01*
X101831Y168032D01*
X102805Y168435D01*
X103640Y169076D01*
X104281Y169911D01*
X104684Y170884D01*
X104822Y171929D01*
X104684Y172973D01*
X104281Y173946D01*
X103640Y174781D01*
X102805Y175423D01*
X101831Y175826D01*
X100787Y175963D01*
D02*
G37*
G36*
X190787Y165963D02*
X189743Y165826D01*
X188770Y165423D01*
X187935Y164781D01*
X187293Y163946D01*
X186890Y162973D01*
X186753Y161929D01*
X186890Y160884D01*
X187293Y159911D01*
X187935Y159076D01*
X188770Y158435D01*
X189743Y158031D01*
X190787Y157894D01*
X191832Y158031D01*
X192805Y158435D01*
X193640Y159076D01*
X194281Y159911D01*
X194684Y160884D01*
X194822Y161929D01*
X194684Y162973D01*
X194281Y163946D01*
X193640Y164781D01*
X192805Y165423D01*
X191832Y165826D01*
X190787Y165963D01*
D02*
G37*
G36*
X100787D02*
X99743Y165826D01*
X98770Y165423D01*
X97935Y164781D01*
X97293Y163946D01*
X96890Y162973D01*
X96753Y161929D01*
X96890Y160884D01*
X97293Y159911D01*
X97935Y159076D01*
X98770Y158435D01*
X99743Y158031D01*
X100787Y157894D01*
X101831Y158031D01*
X102805Y158435D01*
X103640Y159076D01*
X104281Y159911D01*
X104684Y160884D01*
X104822Y161929D01*
X104684Y162973D01*
X104281Y163946D01*
X103640Y164781D01*
X102805Y165423D01*
X101831Y165826D01*
X100787Y165963D01*
D02*
G37*
G36*
X190787Y155963D02*
X189743Y155826D01*
X188770Y155423D01*
X187935Y154781D01*
X187293Y153946D01*
X186890Y152973D01*
X186753Y151929D01*
X186890Y150884D01*
X187293Y149911D01*
X187935Y149076D01*
X188770Y148435D01*
X189743Y148031D01*
X190787Y147894D01*
X191832Y148031D01*
X192805Y148435D01*
X193640Y149076D01*
X194281Y149911D01*
X194684Y150884D01*
X194822Y151929D01*
X194684Y152973D01*
X194281Y153946D01*
X193640Y154781D01*
X192805Y155423D01*
X191832Y155826D01*
X190787Y155963D01*
D02*
G37*
G36*
X100787D02*
X99743Y155826D01*
X98770Y155423D01*
X97935Y154781D01*
X97293Y153946D01*
X96890Y152973D01*
X96753Y151929D01*
X96890Y150884D01*
X97293Y149911D01*
X97935Y149076D01*
X98770Y148435D01*
X99743Y148031D01*
X100787Y147894D01*
X101831Y148031D01*
X102805Y148435D01*
X103640Y149076D01*
X104281Y149911D01*
X104684Y150884D01*
X104822Y151929D01*
X104684Y152973D01*
X104281Y153946D01*
X103640Y154781D01*
X102805Y155423D01*
X101831Y155826D01*
X100787Y155963D01*
D02*
G37*
G36*
X124802Y146809D02*
X124022Y146654D01*
X123360Y146212D01*
X122918Y145550D01*
X122763Y144770D01*
X122918Y143989D01*
X123360Y143328D01*
X124022Y142886D01*
X124802Y142730D01*
X125582Y142886D01*
X126244Y143328D01*
X126686Y143989D01*
X126841Y144770D01*
X126686Y145550D01*
X126244Y146212D01*
X125582Y146654D01*
X124802Y146809D01*
D02*
G37*
G36*
X190787Y145963D02*
X189743Y145826D01*
X188770Y145423D01*
X187935Y144781D01*
X187293Y143946D01*
X186890Y142973D01*
X186753Y141929D01*
X186890Y140884D01*
X187293Y139911D01*
X187935Y139076D01*
X188770Y138435D01*
X189743Y138031D01*
X190787Y137894D01*
X191832Y138031D01*
X192805Y138435D01*
X193640Y139076D01*
X194281Y139911D01*
X194684Y140884D01*
X194822Y141929D01*
X194684Y142973D01*
X194281Y143946D01*
X193640Y144781D01*
X192805Y145423D01*
X191832Y145826D01*
X190787Y145963D01*
D02*
G37*
G36*
X100787D02*
X99743Y145826D01*
X98770Y145423D01*
X97935Y144781D01*
X97293Y143946D01*
X96890Y142973D01*
X96753Y141929D01*
X96890Y140884D01*
X97293Y139911D01*
X97935Y139076D01*
X98770Y138435D01*
X99743Y138031D01*
X100787Y137894D01*
X101831Y138031D01*
X102805Y138435D01*
X103640Y139076D01*
X104281Y139911D01*
X104684Y140884D01*
X104822Y141929D01*
X104684Y142973D01*
X104281Y143946D01*
X103640Y144781D01*
X102805Y145423D01*
X101831Y145826D01*
X100787Y145963D01*
D02*
G37*
G36*
X190787Y135963D02*
X189743Y135826D01*
X188770Y135423D01*
X187935Y134781D01*
X187293Y133946D01*
X186890Y132973D01*
X186753Y131929D01*
X186890Y130884D01*
X187293Y129911D01*
X187935Y129076D01*
X188770Y128435D01*
X189743Y128032D01*
X190787Y127894D01*
X191832Y128032D01*
X192805Y128435D01*
X193640Y129076D01*
X194281Y129911D01*
X194684Y130884D01*
X194822Y131929D01*
X194684Y132973D01*
X194281Y133946D01*
X193640Y134781D01*
X192805Y135423D01*
X191832Y135826D01*
X190787Y135963D01*
D02*
G37*
G36*
X100787D02*
X99743Y135826D01*
X98770Y135423D01*
X97935Y134781D01*
X97293Y133946D01*
X96890Y132973D01*
X96753Y131929D01*
X96890Y130884D01*
X97293Y129911D01*
X97935Y129076D01*
X98770Y128435D01*
X99743Y128032D01*
X100787Y127894D01*
X101831Y128032D01*
X102805Y128435D01*
X103640Y129076D01*
X104281Y129911D01*
X104684Y130884D01*
X104822Y131929D01*
X104684Y132973D01*
X104281Y133946D01*
X103640Y134781D01*
X102805Y135423D01*
X101831Y135826D01*
X100787Y135963D01*
D02*
G37*
G36*
X254232Y124867D02*
X253530Y124727D01*
X252935Y124329D01*
X252537Y123734D01*
X252397Y123031D01*
X252537Y122329D01*
X252935Y121734D01*
X253530Y121336D01*
X254232Y121196D01*
X254935Y121336D01*
X255530Y121734D01*
X255928Y122329D01*
X256067Y123031D01*
X255928Y123734D01*
X255530Y124329D01*
X254935Y124727D01*
X254232Y124867D01*
D02*
G37*
G36*
X73524Y122603D02*
X72821Y122463D01*
X72226Y122065D01*
X71828Y121470D01*
X71688Y120768D01*
X71828Y120065D01*
X72226Y119470D01*
X72821Y119072D01*
X73524Y118932D01*
X74226Y119072D01*
X74821Y119470D01*
X75219Y120065D01*
X75359Y120768D01*
X75219Y121470D01*
X74821Y122065D01*
X74226Y122463D01*
X73524Y122603D01*
D02*
G37*
G36*
X63189D02*
X62487Y122463D01*
X61891Y122065D01*
X61493Y121470D01*
X61354Y120768D01*
X61493Y120065D01*
X61891Y119470D01*
X62487Y119072D01*
X63189Y118932D01*
X63891Y119072D01*
X64487Y119470D01*
X64885Y120065D01*
X65024Y120768D01*
X64885Y121470D01*
X64487Y122065D01*
X63891Y122463D01*
X63189Y122603D01*
D02*
G37*
G36*
X100787Y125963D02*
X99743Y125826D01*
X98770Y125423D01*
X97935Y124781D01*
X97293Y123946D01*
X96890Y122973D01*
X96753Y121929D01*
X96890Y120884D01*
X97293Y119911D01*
X97935Y119076D01*
X98770Y118435D01*
X99743Y118032D01*
X100787Y117894D01*
X101831Y118032D01*
X102805Y118435D01*
X103640Y119076D01*
X104281Y119911D01*
X104684Y120884D01*
X104822Y121929D01*
X104684Y122973D01*
X104281Y123946D01*
X103640Y124781D01*
X102805Y125423D01*
X101831Y125826D01*
X100787Y125963D01*
D02*
G37*
G36*
X63484Y118075D02*
X62782Y117936D01*
X62186Y117538D01*
X61789Y116943D01*
X61649Y116240D01*
X61789Y115538D01*
X62186Y114942D01*
X62782Y114545D01*
X63484Y114405D01*
X64187Y114545D01*
X64782Y114942D01*
X65180Y115538D01*
X65320Y116240D01*
X65180Y116943D01*
X64782Y117538D01*
X64187Y117936D01*
X63484Y118075D01*
D02*
G37*
G36*
X73819Y117682D02*
X73117Y117542D01*
X72521Y117144D01*
X72123Y116549D01*
X71984Y115847D01*
X72123Y115144D01*
X72521Y114549D01*
X73117Y114151D01*
X73819Y114011D01*
X74521Y114151D01*
X75117Y114549D01*
X75515Y115144D01*
X75654Y115847D01*
X75515Y116549D01*
X75117Y117144D01*
X74521Y117542D01*
X73819Y117682D01*
D02*
G37*
G36*
X68504Y117485D02*
X67802Y117345D01*
X67206Y116947D01*
X66808Y116352D01*
X66669Y115650D01*
X66808Y114947D01*
X67206Y114352D01*
X67802Y113954D01*
X68504Y113814D01*
X69206Y113954D01*
X69802Y114352D01*
X70200Y114947D01*
X70339Y115650D01*
X70200Y116352D01*
X69802Y116947D01*
X69206Y117345D01*
X68504Y117485D01*
D02*
G37*
G36*
X273000Y117599D02*
X271816Y117547D01*
X270687Y117191D01*
X269687Y116554D01*
X268887Y115681D01*
X268340Y114629D01*
X268083Y113473D01*
X268135Y112289D01*
X268491Y111159D01*
X269128Y110160D01*
X270001Y109359D01*
X271052Y108812D01*
X272209Y108556D01*
X273393Y108607D01*
X274523Y108964D01*
X275522Y109600D01*
X276323Y110474D01*
X276870Y111525D01*
X277126Y112682D01*
X277075Y113865D01*
X276718Y114995D01*
X276082Y115995D01*
X275208Y116795D01*
X274157Y117342D01*
X273000Y117599D01*
D02*
G37*
G36*
X190787Y115963D02*
X189743Y115826D01*
X188770Y115423D01*
X187935Y114781D01*
X187293Y113946D01*
X186890Y112973D01*
X186753Y111929D01*
X186890Y110884D01*
X187293Y109911D01*
X187935Y109076D01*
X188770Y108435D01*
X189743Y108031D01*
X190787Y107894D01*
X191832Y108031D01*
X192805Y108435D01*
X193640Y109076D01*
X194281Y109911D01*
X194684Y110884D01*
X194822Y111929D01*
X194684Y112973D01*
X194281Y113946D01*
X193640Y114781D01*
X192805Y115423D01*
X191832Y115826D01*
X190787Y115963D01*
D02*
G37*
G36*
X100787D02*
X99743Y115826D01*
X98770Y115423D01*
X97935Y114781D01*
X97293Y113946D01*
X96890Y112973D01*
X96753Y111929D01*
X96890Y110884D01*
X97293Y109911D01*
X97935Y109076D01*
X98770Y108435D01*
X99743Y108031D01*
X100787Y107894D01*
X101831Y108031D01*
X102805Y108435D01*
X103640Y109076D01*
X104281Y109911D01*
X104684Y110884D01*
X104822Y111929D01*
X104684Y112973D01*
X104281Y113946D01*
X103640Y114781D01*
X102805Y115423D01*
X101831Y115826D01*
X100787Y115963D01*
D02*
G37*
G36*
X171161Y106166D02*
X170459Y106026D01*
X169864Y105628D01*
X169466Y105033D01*
X169326Y104331D01*
X169466Y103628D01*
X169864Y103033D01*
X170459Y102635D01*
X171161Y102496D01*
X171864Y102635D01*
X172459Y103033D01*
X172857Y103628D01*
X172997Y104331D01*
X172857Y105033D01*
X172459Y105628D01*
X171864Y106026D01*
X171161Y106166D01*
D02*
G37*
G36*
X152559Y107052D02*
X151857Y106912D01*
X151261Y106514D01*
X150864Y105919D01*
X150724Y105217D01*
X150864Y104514D01*
X151261Y103919D01*
Y103660D01*
X150864Y103065D01*
X150724Y102362D01*
X150864Y101660D01*
X151261Y101065D01*
X151857Y100667D01*
X152559Y100527D01*
X153261Y100667D01*
X153857Y101065D01*
X154255Y101660D01*
X154394Y102362D01*
X154255Y103065D01*
X153857Y103660D01*
Y103919D01*
X154255Y104514D01*
X154394Y105217D01*
X154255Y105919D01*
X153857Y106514D01*
X153261Y106912D01*
X152559Y107052D01*
D02*
G37*
G36*
X147966D02*
X147264Y106912D01*
X146668Y106514D01*
X146270Y105919D01*
X146131Y105217D01*
X146270Y104514D01*
X146668Y103919D01*
Y103660D01*
X146270Y103065D01*
X146131Y102362D01*
X146270Y101660D01*
X146668Y101065D01*
X147264Y100667D01*
X147966Y100527D01*
X148668Y100667D01*
X149264Y101065D01*
X149661Y101660D01*
X149801Y102362D01*
X149661Y103065D01*
X149264Y103660D01*
Y103919D01*
X149661Y104514D01*
X149801Y105217D01*
X149661Y105919D01*
X149264Y106514D01*
X148668Y106912D01*
X147966Y107052D01*
D02*
G37*
G36*
X143373D02*
X142670Y106912D01*
X142075Y106514D01*
X141677Y105919D01*
X141537Y105217D01*
X141677Y104514D01*
X142075Y103919D01*
Y103660D01*
X141677Y103065D01*
X141537Y102362D01*
X141677Y101660D01*
X142075Y101065D01*
X142670Y100667D01*
X143373Y100527D01*
X144075Y100667D01*
X144670Y101065D01*
X145068Y101660D01*
X145208Y102362D01*
X145068Y103065D01*
X144670Y103660D01*
Y103919D01*
X145068Y104514D01*
X145208Y105217D01*
X145068Y105919D01*
X144670Y106514D01*
X144075Y106912D01*
X143373Y107052D01*
D02*
G37*
G36*
X138779D02*
X138077Y106912D01*
X137482Y106514D01*
X137084Y105919D01*
X136944Y105217D01*
X137084Y104514D01*
X137482Y103919D01*
Y103660D01*
X137084Y103065D01*
X136944Y102362D01*
X137084Y101660D01*
X137482Y101065D01*
X138077Y100667D01*
X138779Y100527D01*
X139482Y100667D01*
X140077Y101065D01*
X140475Y101660D01*
X140615Y102362D01*
X140475Y103065D01*
X140077Y103660D01*
Y103919D01*
X140475Y104514D01*
X140615Y105217D01*
X140475Y105919D01*
X140077Y106514D01*
X139482Y106912D01*
X138779Y107052D01*
D02*
G37*
G36*
X268961Y106500D02*
X267777Y106448D01*
X266647Y106092D01*
X265648Y105455D01*
X264847Y104582D01*
X264300Y103531D01*
X264043Y102374D01*
X264095Y101190D01*
X264452Y100060D01*
X265088Y99061D01*
X265962Y98260D01*
X267013Y97713D01*
X268169Y97457D01*
X269353Y97509D01*
X270483Y97865D01*
X271483Y98501D01*
X272283Y99375D01*
X272830Y100426D01*
X273087Y101583D01*
X273035Y102767D01*
X272679Y103897D01*
X272042Y104896D01*
X271168Y105696D01*
X270117Y106244D01*
X268961Y106500D01*
D02*
G37*
G36*
X27696Y99263D02*
X26531Y99047D01*
X25461Y98537D01*
X24560Y97768D01*
X23889Y96791D01*
X23494Y95674D01*
X23401Y94493D01*
X23617Y93328D01*
X24127Y92258D01*
X24896Y91357D01*
X25873Y90686D01*
X26989Y90291D01*
X28171Y90198D01*
X29336Y90414D01*
X30405Y90924D01*
X31306Y91693D01*
X31977Y92670D01*
X32373Y93787D01*
X32466Y94968D01*
X32250Y96133D01*
X31740Y97202D01*
X30970Y98103D01*
X29994Y98775D01*
X28877Y99170D01*
X27696Y99263D01*
D02*
G37*
G36*
X168898Y93771D02*
X168117Y93616D01*
X167456Y93174D01*
X167014Y92513D01*
X166858Y91732D01*
X167014Y90952D01*
X167456Y90290D01*
X168117Y89848D01*
X168898Y89693D01*
X169678Y89848D01*
X170340Y90290D01*
X170782Y90952D01*
X170937Y91732D01*
X170782Y92513D01*
X170340Y93174D01*
X169678Y93616D01*
X168898Y93771D01*
D02*
G37*
G36*
X42578Y91680D02*
X41413Y91464D01*
X40344Y90954D01*
X39443Y90184D01*
X38772Y89208D01*
X38376Y88091D01*
X38283Y86910D01*
X38499Y85745D01*
X39009Y84675D01*
X39779Y83774D01*
X40755Y83103D01*
X41872Y82708D01*
X43053Y82615D01*
X44219Y82831D01*
X45288Y83341D01*
X46189Y84110D01*
X46860Y85087D01*
X47256Y86204D01*
X47349Y87385D01*
X47133Y88550D01*
X46623Y89619D01*
X45853Y90520D01*
X44877Y91191D01*
X43760Y91587D01*
X42578Y91680D01*
D02*
G37*
G36*
X31345Y88030D02*
X30180Y87814D01*
X29111Y87304D01*
X28210Y86535D01*
X27539Y85558D01*
X27143Y84441D01*
X27050Y83260D01*
X27266Y82095D01*
X27776Y81025D01*
X28546Y80124D01*
X29522Y79453D01*
X30639Y79058D01*
X31821Y78965D01*
X32986Y79181D01*
X34055Y79691D01*
X34956Y80461D01*
X35627Y81437D01*
X36023Y82554D01*
X36116Y83735D01*
X35900Y84900D01*
X35390Y85970D01*
X34620Y86870D01*
X33644Y87542D01*
X32527Y87937D01*
X31345Y88030D01*
D02*
G37*
G36*
X13280Y89644D02*
X11792Y89368D01*
X10427Y88717D01*
X9277Y87735D01*
X8421Y86488D01*
X7916Y85063D01*
X7797Y83555D01*
X8073Y82068D01*
X8724Y80703D01*
X9706Y79553D01*
X10952Y78696D01*
X12378Y78191D01*
X13886Y78073D01*
X15373Y78348D01*
X16738Y78999D01*
X17888Y79982D01*
X18745Y81228D01*
X19250Y82654D01*
X19368Y84162D01*
X19093Y85649D01*
X18442Y87014D01*
X17459Y88164D01*
X16213Y89021D01*
X14787Y89525D01*
X13280Y89644D01*
D02*
G37*
G36*
X215000Y89055D02*
X212990Y88897D01*
X211029Y88426D01*
X209166Y87655D01*
X207447Y86601D01*
X205913Y85291D01*
X204604Y83758D01*
X203550Y82039D01*
X202778Y80176D01*
X202308Y78215D01*
X202149Y76205D01*
X202308Y74194D01*
X202778Y72234D01*
X203550Y70371D01*
X204604Y68651D01*
X205913Y67118D01*
X207447Y65808D01*
X209166Y64755D01*
X211029Y63983D01*
X212990Y63512D01*
X215000Y63354D01*
X217010Y63512D01*
X218971Y63983D01*
X220834Y64755D01*
X222553Y65808D01*
X224087Y67118D01*
X225396Y68651D01*
X226450Y70371D01*
X227222Y72234D01*
X227692Y74194D01*
X227851Y76205D01*
X227692Y78215D01*
X227222Y80176D01*
X226450Y82039D01*
X225396Y83758D01*
X224087Y85291D01*
X222553Y86601D01*
X220834Y87655D01*
X218971Y88426D01*
X217010Y88897D01*
X215000Y89055D01*
D02*
G37*
G36*
X77205D02*
X75194Y88897D01*
X73234Y88426D01*
X71371Y87655D01*
X69651Y86601D01*
X68118Y85291D01*
X66808Y83758D01*
X65755Y82039D01*
X64983Y80176D01*
X64512Y78215D01*
X64354Y76205D01*
X64512Y74194D01*
X64983Y72234D01*
X65755Y70371D01*
X66808Y68651D01*
X68118Y67118D01*
X69651Y65808D01*
X71371Y64755D01*
X73234Y63983D01*
X75194Y63512D01*
X77205Y63354D01*
X79215Y63512D01*
X81176Y63983D01*
X83039Y64755D01*
X84758Y65808D01*
X86291Y67118D01*
X87601Y68651D01*
X88655Y70371D01*
X89426Y72234D01*
X89897Y74194D01*
X90055Y76205D01*
X89897Y78215D01*
X89426Y80176D01*
X88655Y82039D01*
X87601Y83758D01*
X86291Y85291D01*
X84758Y86601D01*
X83039Y87655D01*
X81176Y88426D01*
X79215Y88897D01*
X77205Y89055D01*
D02*
G37*
G36*
X197300Y61435D02*
X196598Y61296D01*
X196002Y60898D01*
X195604Y60302D01*
X195465Y59600D01*
X195604Y58898D01*
X196002Y58302D01*
X196598Y57904D01*
X197300Y57765D01*
X198002Y57904D01*
X198598Y58302D01*
X198996Y58898D01*
X199135Y59600D01*
X198996Y60302D01*
X198598Y60898D01*
X198002Y61296D01*
X197300Y61435D01*
D02*
G37*
G36*
X69800Y61135D02*
X69098Y60996D01*
X68502Y60598D01*
X68104Y60002D01*
X67965Y59300D01*
X68104Y58598D01*
X68502Y58002D01*
X69098Y57604D01*
X69800Y57465D01*
X70502Y57604D01*
X71098Y58002D01*
X71496Y58598D01*
X71635Y59300D01*
X71496Y60002D01*
X71098Y60598D01*
X70502Y60996D01*
X69800Y61135D01*
D02*
G37*
G36*
X232874Y58229D02*
X232172Y58090D01*
X231576Y57692D01*
X231178Y57096D01*
X231039Y56394D01*
X231178Y55692D01*
X231576Y55096D01*
X232172Y54699D01*
X232874Y54559D01*
X233576Y54699D01*
X234172Y55096D01*
X234570Y55692D01*
X234709Y56394D01*
X234570Y57096D01*
X234172Y57692D01*
X233576Y58090D01*
X232874Y58229D01*
D02*
G37*
G36*
X85300Y50135D02*
X84598Y49996D01*
X84002Y49598D01*
X83604Y49002D01*
X83465Y48300D01*
X83604Y47598D01*
X84002Y47002D01*
X84598Y46604D01*
X85300Y46465D01*
X86002Y46604D01*
X86598Y47002D01*
X86996Y47598D01*
X87135Y48300D01*
X86996Y49002D01*
X86598Y49598D01*
X86002Y49996D01*
X85300Y50135D01*
D02*
G37*
G36*
X201900Y59335D02*
X201198Y59196D01*
X200602Y58798D01*
X200204Y58202D01*
X200065Y57500D01*
X200204Y56798D01*
X200602Y56202D01*
Y56198D01*
X200204Y55602D01*
X200065Y54900D01*
X200204Y54198D01*
X200602Y53602D01*
X200442Y53108D01*
X200304Y52902D01*
X200165Y52200D01*
X200304Y51498D01*
X200702Y50902D01*
Y50778D01*
X200304Y50183D01*
X200165Y49481D01*
X200304Y48778D01*
X200464Y48540D01*
X200679Y48140D01*
X200464Y47741D01*
X200304Y47502D01*
X200165Y46800D01*
X200304Y46098D01*
X200702Y45502D01*
X201298Y45104D01*
X202000Y44965D01*
X202702Y45104D01*
X203298Y45502D01*
X203696Y46098D01*
X203835Y46800D01*
X203696Y47502D01*
X203536Y47741D01*
X203321Y48140D01*
X203536Y48540D01*
X203696Y48778D01*
X203835Y49481D01*
X203696Y50183D01*
X203298Y50778D01*
Y50902D01*
X203696Y51498D01*
X203835Y52200D01*
X203696Y52902D01*
X203298Y53498D01*
X203458Y53992D01*
X203596Y54198D01*
X203735Y54900D01*
X203596Y55602D01*
X203198Y56198D01*
Y56202D01*
X203596Y56798D01*
X203735Y57500D01*
X203596Y58202D01*
X203198Y58798D01*
X202602Y59196D01*
X201900Y59335D01*
D02*
G37*
G36*
X72539Y47111D02*
X71837Y46971D01*
X71242Y46573D01*
X70844Y45978D01*
X70704Y45276D01*
X70844Y44573D01*
X71242Y43978D01*
X71837Y43580D01*
X72539Y43440D01*
X73242Y43580D01*
X73837Y43978D01*
X74235Y44573D01*
X74375Y45276D01*
X74235Y45978D01*
X73837Y46573D01*
X73242Y46971D01*
X72539Y47111D01*
D02*
G37*
G36*
X197700Y46935D02*
X196998Y46796D01*
X196402Y46398D01*
X196004Y45802D01*
X195865Y45100D01*
X196004Y44398D01*
X196402Y43802D01*
X196998Y43404D01*
X197700Y43265D01*
X198402Y43404D01*
X198998Y43802D01*
X199396Y44398D01*
X199535Y45100D01*
X199396Y45802D01*
X198998Y46398D01*
X198402Y46796D01*
X197700Y46935D01*
D02*
G37*
G36*
X216460Y45462D02*
X215757Y45322D01*
X215162Y44925D01*
X214764Y44329D01*
X214625Y43627D01*
X214764Y42924D01*
X215162Y42329D01*
X215757Y41931D01*
X216460Y41792D01*
X217162Y41931D01*
X217758Y42329D01*
X218155Y42924D01*
X218295Y43627D01*
X218155Y44329D01*
X217758Y44925D01*
X217162Y45322D01*
X216460Y45462D01*
D02*
G37*
G36*
X200300Y41035D02*
X199598Y40896D01*
X199002Y40498D01*
X198604Y39902D01*
X198465Y39200D01*
X198604Y38498D01*
X199002Y37902D01*
X199598Y37504D01*
X200300Y37365D01*
X201002Y37504D01*
X201598Y37902D01*
X201996Y38498D01*
X202135Y39200D01*
X201996Y39902D01*
X201598Y40498D01*
X201002Y40896D01*
X200300Y41035D01*
D02*
G37*
G36*
X101400Y40635D02*
X100698Y40496D01*
X100102Y40098D01*
X99704Y39502D01*
X99565Y38800D01*
X99704Y38098D01*
X100102Y37502D01*
X100698Y37104D01*
X101400Y36965D01*
X102102Y37104D01*
X102698Y37502D01*
X103096Y38098D01*
X103235Y38800D01*
X103096Y39502D01*
X102698Y40098D01*
X102102Y40496D01*
X101400Y40635D01*
D02*
G37*
G36*
X214873Y39140D02*
X214170Y39000D01*
X213575Y38603D01*
X213177Y38007D01*
X213037Y37305D01*
X213177Y36603D01*
X213575Y36007D01*
X214170Y35609D01*
X214873Y35470D01*
X215575Y35609D01*
X216170Y36007D01*
X216568Y36603D01*
X216708Y37305D01*
X216568Y38007D01*
X216170Y38603D01*
X215575Y39000D01*
X214873Y39140D01*
D02*
G37*
G36*
X180500Y36571D02*
X179798Y36431D01*
X179202Y36033D01*
X178804Y35438D01*
X178665Y34736D01*
X178804Y34034D01*
X179202Y33438D01*
X179798Y33040D01*
X180500Y32901D01*
X181202Y33040D01*
X181798Y33438D01*
X182196Y34034D01*
X182335Y34736D01*
X182196Y35438D01*
X181798Y36033D01*
X181202Y36431D01*
X180500Y36571D01*
D02*
G37*
G36*
X120000Y35635D02*
X119298Y35496D01*
X118702Y35098D01*
X118304Y34502D01*
X118165Y33800D01*
X118304Y33098D01*
X118702Y32502D01*
X119298Y32104D01*
X120000Y31965D01*
X120702Y32104D01*
X121298Y32502D01*
X121696Y33098D01*
X121835Y33800D01*
X121696Y34502D01*
X121298Y35098D01*
X120702Y35496D01*
X120000Y35635D01*
D02*
G37*
G36*
X161000Y33135D02*
X160298Y32996D01*
X159702Y32598D01*
X159304Y32002D01*
X159165Y31300D01*
X159304Y30598D01*
X159702Y30002D01*
X160298Y29604D01*
X161000Y29465D01*
X161702Y29604D01*
X162298Y30002D01*
X162696Y30598D01*
X162835Y31300D01*
X162696Y32002D01*
X162298Y32598D01*
X161702Y32996D01*
X161000Y33135D01*
D02*
G37*
G36*
X138100Y32835D02*
X137398Y32696D01*
X136802Y32298D01*
X136404Y31702D01*
X136265Y31000D01*
X136404Y30298D01*
X136802Y29702D01*
X137398Y29304D01*
X138100Y29165D01*
X138802Y29304D01*
X139398Y29702D01*
X139796Y30298D01*
X139935Y31000D01*
X139796Y31702D01*
X139398Y32298D01*
X138802Y32696D01*
X138100Y32835D01*
D02*
G37*
G36*
X189158Y31560D02*
X188456Y31420D01*
X187860Y31022D01*
X187462Y30427D01*
X187323Y29724D01*
X187462Y29022D01*
X187860Y28427D01*
X188456Y28029D01*
X189158Y27889D01*
X189860Y28029D01*
X190456Y28427D01*
X190854Y29022D01*
X190993Y29724D01*
X190854Y30427D01*
X190456Y31022D01*
X189860Y31420D01*
X189158Y31560D01*
D02*
G37*
G36*
X91339Y29493D02*
X90636Y29353D01*
X90041Y28955D01*
X89643Y28360D01*
X89503Y27657D01*
X89643Y26955D01*
X90041Y26360D01*
X90636Y25962D01*
X91339Y25822D01*
X92041Y25962D01*
X92636Y26360D01*
X93034Y26955D01*
X93174Y27657D01*
X93034Y28360D01*
X92636Y28955D01*
X92041Y29353D01*
X91339Y29493D01*
D02*
G37*
G36*
X112205Y27032D02*
X111502Y26892D01*
X110907Y26495D01*
X110509Y25899D01*
X110370Y25197D01*
X110509Y24495D01*
X110907Y23899D01*
X111502Y23501D01*
X112205Y23362D01*
X112907Y23501D01*
X113502Y23899D01*
X113900Y24495D01*
X114040Y25197D01*
X113900Y25899D01*
X113502Y26495D01*
X112907Y26892D01*
X112205Y27032D01*
D02*
G37*
G36*
X155315Y23292D02*
X154613Y23152D01*
X154017Y22754D01*
X153619Y22159D01*
X153480Y21457D01*
X153619Y20754D01*
X154017Y20159D01*
X154613Y19761D01*
X155315Y19621D01*
X156017Y19761D01*
X156613Y20159D01*
X157010Y20754D01*
X157150Y21457D01*
X157010Y22159D01*
X156613Y22754D01*
X156017Y23152D01*
X155315Y23292D01*
D02*
G37*
G36*
X177756Y21422D02*
X177054Y21282D01*
X176458Y20884D01*
X176060Y20289D01*
X175921Y19587D01*
X176060Y18884D01*
X176458Y18289D01*
X177054Y17891D01*
X177756Y17751D01*
X178458Y17891D01*
X179054Y18289D01*
X179452Y18884D01*
X179591Y19587D01*
X179452Y20289D01*
X179054Y20884D01*
X178458Y21282D01*
X177756Y21422D01*
D02*
G37*
G36*
X132677Y17977D02*
X131975Y17837D01*
X131379Y17439D01*
X130982Y16844D01*
X130842Y16142D01*
X130982Y15439D01*
X131379Y14844D01*
X131975Y14446D01*
X132677Y14307D01*
X133379Y14446D01*
X133975Y14844D01*
X134373Y15439D01*
X134512Y16142D01*
X134373Y16844D01*
X133975Y17439D01*
X133379Y17837D01*
X132677Y17977D01*
D02*
G37*
%LPD*%
D131*
X190787Y121929D02*
D03*
D133*
X39166Y98380D02*
D03*
X264526Y90880D02*
D03*
X48807Y230075D02*
D03*
X90575Y282951D02*
D03*
X285972Y182957D02*
D03*
D134*
X127496Y280189D02*
D03*
X146000Y292000D02*
D03*
D136*
X222539Y155315D02*
D03*
X281890Y204134D02*
D03*
X279626Y210335D02*
D03*
X255217Y248130D02*
D03*
D137*
X288500Y154500D02*
D03*
X268500Y234500D02*
D03*
Y194500D02*
D03*
X278500Y174500D02*
D03*
X268500Y154500D02*
D03*
X278500Y134500D02*
D03*
X268500Y74500D02*
D03*
X258500Y214500D02*
D03*
X248500Y194500D02*
D03*
X258500Y174500D02*
D03*
X248500Y154500D02*
D03*
X258500Y134500D02*
D03*
Y94500D02*
D03*
X248500Y74500D02*
D03*
X258500Y54500D02*
D03*
X238500Y254500D02*
D03*
X228500Y234500D02*
D03*
X238500Y214500D02*
D03*
Y174500D02*
D03*
X228500Y154500D02*
D03*
X238500Y134500D02*
D03*
Y94500D02*
D03*
X208500Y274500D02*
D03*
X218500Y254500D02*
D03*
X208500Y234500D02*
D03*
Y194500D02*
D03*
X218500Y134500D02*
D03*
X208500Y114500D02*
D03*
X218500Y94500D02*
D03*
Y54500D02*
D03*
X188500Y274500D02*
D03*
X198500Y254500D02*
D03*
Y214500D02*
D03*
Y174500D02*
D03*
Y134500D02*
D03*
Y94500D02*
D03*
X188500Y74500D02*
D03*
X198500Y54500D02*
D03*
X168500Y274500D02*
D03*
X178500Y254500D02*
D03*
Y174500D02*
D03*
X168500Y154500D02*
D03*
X178500Y134500D02*
D03*
X168500Y114500D02*
D03*
X178500Y94500D02*
D03*
X168500Y74500D02*
D03*
Y34500D02*
D03*
Y-5500D02*
D03*
X158500Y254500D02*
D03*
Y214500D02*
D03*
X148500Y194500D02*
D03*
X158500Y174500D02*
D03*
X148500Y154500D02*
D03*
X158500Y134500D02*
D03*
X148500Y114500D02*
D03*
Y34500D02*
D03*
Y-5500D02*
D03*
X138500Y214500D02*
D03*
Y174500D02*
D03*
X128500Y154500D02*
D03*
X138500Y134500D02*
D03*
X128500Y114500D02*
D03*
Y34500D02*
D03*
Y-5500D02*
D03*
X118500Y254500D02*
D03*
Y214500D02*
D03*
Y174500D02*
D03*
X108500Y154500D02*
D03*
Y114500D02*
D03*
Y74500D02*
D03*
Y34500D02*
D03*
X88500Y234500D02*
D03*
X98500Y214500D02*
D03*
X88500Y114500D02*
D03*
X98500Y94500D02*
D03*
X88500Y34500D02*
D03*
X98500Y14500D02*
D03*
X78500Y254500D02*
D03*
X68500Y234500D02*
D03*
X78500Y174500D02*
D03*
Y134500D02*
D03*
Y94500D02*
D03*
Y54500D02*
D03*
X68500Y34500D02*
D03*
X78500Y14500D02*
D03*
X58500Y254500D02*
D03*
Y214500D02*
D03*
X48500Y114500D02*
D03*
X58500Y94500D02*
D03*
X48500Y74500D02*
D03*
Y34500D02*
D03*
X28500Y194500D02*
D03*
Y114500D02*
D03*
Y74500D02*
D03*
X38500Y54500D02*
D03*
X8500Y194500D02*
D03*
X18500Y174500D02*
D03*
X8500Y154500D02*
D03*
X18500Y134500D02*
D03*
X8500Y114500D02*
D03*
X18500Y94500D02*
D03*
X191446Y87655D02*
D03*
X191000Y103531D02*
D03*
X213596Y57500D02*
D03*
X234055Y78347D02*
D03*
X243714Y93554D02*
D03*
X249324Y106189D02*
D03*
X255159Y129461D02*
D03*
X256135Y141216D02*
D03*
X255734Y154331D02*
D03*
X253647Y167894D02*
D03*
X234246Y210335D02*
D03*
X204133Y237917D02*
D03*
X190787Y244971D02*
D03*
X177387Y249902D02*
D03*
X161319Y253642D02*
D03*
X127496Y252822D02*
D03*
X114173Y249902D02*
D03*
X100140Y244322D02*
D03*
X89665Y238878D02*
D03*
X79626Y232579D02*
D03*
X52264Y200886D02*
D03*
X47447Y192913D02*
D03*
X60600Y249308D02*
D03*
X73425Y258169D02*
D03*
X165453Y278051D02*
D03*
X181102Y275000D02*
D03*
X195374Y269980D02*
D03*
X208666Y264238D02*
D03*
X219390Y257776D02*
D03*
X232811Y248130D02*
D03*
X278861Y167894D02*
D03*
X280807Y154781D02*
D03*
Y140551D02*
D03*
X278861Y121929D02*
D03*
X260000Y71536D02*
D03*
X253150Y61910D02*
D03*
X245927Y53706D02*
D03*
X38681Y63390D02*
D03*
X31977Y72200D02*
D03*
X19093Y98380D02*
D03*
X16043Y110980D02*
D03*
X12888Y126610D02*
D03*
X11039Y142300D02*
D03*
X20177Y192913D02*
D03*
X11792Y153541D02*
D03*
X12888Y165882D02*
D03*
X16043Y179921D02*
D03*
X45965Y256890D02*
D03*
X57972Y266535D02*
D03*
X70023Y274178D02*
D03*
X116991Y292000D02*
D03*
X133465Y293996D02*
D03*
X160531Y293701D02*
D03*
X178051Y291437D02*
D03*
X193504Y286910D02*
D03*
X207579Y281496D02*
D03*
X223721Y273031D02*
D03*
X236811Y264238D02*
D03*
X248031Y254232D02*
D03*
X295174Y161216D02*
D03*
X296260Y147047D02*
D03*
X295866Y133661D02*
D03*
X275492Y68701D02*
D03*
X268764Y58418D02*
D03*
X260000Y47138D02*
D03*
X249324Y35900D02*
D03*
X238545Y26600D02*
D03*
X228814Y19587D02*
D03*
X218209Y13189D02*
D03*
X205700Y7055D02*
D03*
X191929Y1772D02*
D03*
X176297Y-2241D02*
D03*
X161000Y-4579D02*
D03*
X144677Y-5325D02*
D03*
X126900Y-4110D02*
D03*
X111024Y-1181D02*
D03*
X95339Y3479D02*
D03*
X80536Y9700D02*
D03*
X68504Y16226D02*
D03*
X58004Y23173D02*
D03*
X48564Y30600D02*
D03*
X39488Y39018D02*
D03*
X31583Y47627D02*
D03*
X24931Y56058D02*
D03*
X14620Y72200D02*
D03*
X3445Y97823D02*
D03*
X-492Y113681D02*
D03*
X-2953Y130709D02*
D03*
X-4035Y148130D02*
D03*
X-2953Y162200D02*
D03*
X-591Y176673D02*
D03*
X3445Y191437D02*
D03*
X8957Y205906D02*
D03*
X38681Y137894D02*
D03*
X190551Y95086D02*
D03*
X169000Y11300D02*
D03*
X229000Y37700D02*
D03*
X221700Y51600D02*
D03*
X210500Y25600D02*
D03*
X205269Y41000D02*
D03*
X189300Y38200D02*
D03*
X191000Y16900D02*
D03*
X172000Y32400D02*
D03*
X146800Y9700D02*
D03*
X153100Y30100D02*
D03*
X131700Y30600D02*
D03*
X122100Y11500D02*
D03*
X100400Y17700D02*
D03*
X113700Y34800D02*
D03*
X95200Y41400D02*
D03*
X79300Y27500D02*
D03*
X79200Y51700D02*
D03*
X60800Y39500D02*
D03*
X45100Y55200D02*
D03*
X64600Y63313D02*
D03*
X75400Y168800D02*
D03*
X75200Y162200D02*
D03*
X74900Y145500D02*
D03*
X70592Y151200D02*
D03*
X75200Y154100D02*
D03*
X68900Y145800D02*
D03*
X96000Y72200D02*
D03*
X155400Y56300D02*
D03*
X150900Y56400D02*
D03*
X146100Y56300D02*
D03*
X141200D02*
D03*
X136700D02*
D03*
X132200Y56400D02*
D03*
X126900Y56300D02*
D03*
X122378D02*
D03*
X117900D02*
D03*
M02*
