G04*
G04 #@! TF.GenerationSoftware,Altium Limited,Altium Designer,18.1.9 (240)*
G04*
G04 Layer_Color=65535*
%FSLAX25Y25*%
%MOIN*%
G70*
G01*
G75*
%ADD10C,0.00984*%
%ADD11C,0.01000*%
%ADD12C,0.00394*%
%ADD13C,0.01000*%
%ADD14C,0.00787*%
%ADD15C,0.00600*%
%ADD16C,0.01300*%
%ADD17C,0.00500*%
%ADD18C,0.00446*%
%ADD19C,0.00408*%
%ADD20C,0.01200*%
%ADD21C,0.00800*%
D10*
X112906Y58713D02*
X112167Y59140D01*
Y58287D01*
X112906Y58713D01*
X216142Y189862D02*
X215404Y190288D01*
Y189436D01*
X216142Y189862D01*
X38737Y124980D02*
X37999Y125406D01*
Y124554D01*
X38737Y124980D01*
D11*
X223148Y46161D02*
D03*
X53752Y61611D02*
D03*
X68577Y47409D02*
D03*
X85394Y36013D02*
D03*
X104696Y27145D02*
D03*
X124790Y21897D02*
D03*
X147864Y20168D02*
D03*
X168041Y21876D02*
D03*
X188124Y27110D02*
D03*
X205907Y35140D02*
D03*
D12*
X68297Y124800D02*
D03*
X252362Y117815D02*
D03*
X173429Y99106D02*
D03*
X241169Y160457D02*
D03*
X151075Y66800D02*
D03*
X68397Y157782D02*
D03*
X53347Y220669D02*
D03*
X103497Y53400D02*
D03*
X136975Y66800D02*
D03*
X122575D02*
D03*
X122575Y45700D02*
D03*
X136975D02*
D03*
X151075D02*
D03*
X237008Y231299D02*
D03*
X233465Y199016D02*
D03*
X94697Y59700D02*
D03*
X174216Y91464D02*
D03*
X94697Y68100D02*
D03*
X65197Y140482D02*
D03*
X68597Y165882D02*
D03*
X274769Y202857D02*
D03*
X64570Y58127D02*
D03*
X80117Y46306D02*
D03*
X96742Y36431D02*
D03*
X116197Y30100D02*
D03*
X134797Y26300D02*
D03*
X157097Y26600D02*
D03*
X176297Y29500D02*
D03*
X194497Y35900D02*
D03*
X211097Y44800D02*
D03*
X226897Y56400D02*
D03*
X45220Y67902D02*
D03*
X257283Y101279D02*
D03*
D13*
X258029Y223193D02*
X264267Y221521D01*
X257586Y222937D02*
X258029Y223193D01*
X264439Y226893D02*
X268769Y229393D01*
X254108Y220929D02*
X257517Y222897D01*
X249187Y229453D02*
X259029Y212405D01*
X263848Y237917D02*
X273690Y220869D01*
X255581Y208141D02*
X278084Y221133D01*
X266273Y241590D02*
X278084Y221133D01*
X243770Y228598D02*
X266273Y241590D01*
X243770Y228598D02*
X255581Y208141D01*
X218524Y160457D02*
X220492Y162425D01*
X220492D01*
X218524Y160457D02*
X220492Y158488D01*
Y162425D01*
X193532Y101208D02*
X195106Y99633D01*
X193532Y97664D02*
X195303Y99436D01*
X193532Y97664D02*
X193532D01*
X193532D02*
Y101208D01*
X128284Y322315D02*
X163716D01*
X128284Y268378D02*
X163716D01*
X128284Y318878D02*
X163716D01*
X128284Y268378D02*
Y274178D01*
Y286278D02*
Y322315D01*
X163716Y268378D02*
Y322315D01*
X193819Y93554D02*
X195394Y91979D01*
X193819Y90011D02*
X195590Y91783D01*
X193819Y90011D02*
X193819D01*
X193819D02*
Y93554D01*
D14*
X105032Y59698D02*
X108968D01*
X105032Y71902D02*
X108968D01*
Y59698D02*
Y71902D01*
X105032Y59698D02*
Y71902D01*
X240650Y167618D02*
Y193996D01*
X227854Y167618D02*
Y193996D01*
X240650D01*
X227854Y167618D02*
X240650D01*
X-9585Y97560D02*
X2806Y59423D01*
X-9585Y97560D02*
X39109Y113382D01*
X51500Y75244D01*
X2806Y59423D02*
X51500Y75244D01*
X272993Y126987D02*
X309735Y113614D01*
X255927Y80096D02*
X272993Y126987D01*
X255927Y80096D02*
X292669Y66723D01*
X309735Y113614D01*
X-1216Y222424D02*
X29506Y261746D01*
X60317Y237673D01*
X29596Y198352D02*
X60317Y237673D01*
X-1216Y222424D02*
X29596Y198352D01*
X72055Y289905D02*
X85328Y257052D01*
X72055Y289905D02*
X99067Y300819D01*
X99067Y300819D02*
X112341Y267966D01*
X85328Y257052D02*
X112341Y267966D01*
X160286Y41952D02*
X183514D01*
X184105Y56322D02*
Y59078D01*
X159695Y56322D02*
Y59078D01*
X34111Y149980D02*
X60489D01*
X34111Y137185D02*
X60489D01*
X34111D02*
Y149980D01*
X60489Y137185D02*
Y149980D01*
X157079Y66800D02*
X157079Y73296D01*
X144677Y66800D02*
X144677Y73296D01*
X64066Y161326D02*
X68200Y161326D01*
X64066Y154239D02*
X68200Y154239D01*
X48901Y219867D02*
X50900Y222427D01*
X53399Y216353D02*
X55399Y218912D01*
X100052Y56058D02*
X103300Y56058D01*
X100052Y50743D02*
X103300D01*
X261731Y193474D02*
X296625Y199627D01*
X301684Y170935D01*
X266790Y164783D02*
X301684Y170935D01*
X261731Y193474D02*
X266790Y164783D01*
X142979Y66800D02*
X142979Y73296D01*
X130578Y66800D02*
X130578Y73296D01*
X128579Y66800D02*
X128579Y73296D01*
X116177Y66800D02*
X116177Y73296D01*
X116177Y39204D02*
X116177Y45700D01*
X128579Y39204D02*
X128579Y45700D01*
X130578Y39204D02*
X130578Y45700D01*
X142979Y39204D02*
X142979Y45700D01*
X144677Y39204D02*
X144677Y45700D01*
X157079Y39204D02*
X157079Y45700D01*
X62146Y137234D02*
X62146Y140482D01*
X67854D02*
X67854Y137234D01*
X65152Y163028D02*
X68400Y163028D01*
X65152Y168737D02*
X68400Y168737D01*
X273187Y198761D02*
X276000Y200385D01*
X270332Y203705D02*
X273145Y205329D01*
X66391Y60145D02*
X68688Y57849D01*
X62355Y56109D02*
X64651Y53812D01*
X81557Y48645D02*
X84218Y46782D01*
X78283Y43968D02*
X80943Y42105D01*
X95339Y33844D02*
X98283Y32471D01*
X97752Y39018D02*
X100696Y37645D01*
X115261Y27343D02*
X118399Y26502D01*
X116739Y32857D02*
X119876Y32016D01*
X134351Y23457D02*
X137587Y23173D01*
X134849Y29144D02*
X138084Y28860D01*
X157149Y23756D02*
X160384Y24040D01*
X156651Y29443D02*
X159887Y29727D01*
X176839Y26743D02*
X179976Y27584D01*
X175361Y32257D02*
X178499Y33098D01*
X195506Y33313D02*
X198450Y34686D01*
X193094Y38487D02*
X196037Y39860D01*
X212537Y42462D02*
X215198Y44325D01*
X209263Y47138D02*
X211924Y49001D01*
X228718Y54382D02*
X231015Y56678D01*
X224682Y58418D02*
X226978Y60715D01*
X41052Y69613D02*
X44141Y70617D01*
X42816Y64184D02*
X45905Y65188D01*
X259769Y100303D02*
X260880Y103355D01*
X254404Y102256D02*
X255515Y105308D01*
X141240Y113778D02*
Y110827D01*
X141831Y110236D01*
X143011D01*
X143602Y110827D01*
Y113778D01*
X147144Y113188D02*
X146553Y113778D01*
X145373D01*
X144782Y113188D01*
Y112598D01*
X145373Y112007D01*
X146553D01*
X147144Y111417D01*
Y110827D01*
X146553Y110236D01*
X145373D01*
X144782Y110827D01*
X148325Y113778D02*
Y110236D01*
X150096D01*
X150686Y110827D01*
Y111417D01*
X150096Y112007D01*
X148325D01*
X150096D01*
X150686Y112598D01*
Y113188D01*
X150096Y113778D01*
X148325D01*
X134795Y198842D02*
Y201203D01*
X135976Y202384D01*
X137157Y201203D01*
Y198842D01*
Y200613D01*
X134795D01*
X138337Y198842D02*
Y201203D01*
X140108D01*
X140699Y200613D01*
Y198842D01*
X142470Y201794D02*
Y201203D01*
X141879D01*
X143060D01*
X142470D01*
Y199432D01*
X143060Y198842D01*
X146602D02*
X145422D01*
X144831Y199432D01*
Y200613D01*
X145422Y201203D01*
X146602D01*
X147193Y200613D01*
Y200023D01*
X144831D01*
X148373Y198842D02*
Y201203D01*
X150145D01*
X150735Y200613D01*
Y198842D01*
X151916D02*
Y201203D01*
X153687D01*
X154277Y200613D01*
Y198842D01*
X156048Y201203D02*
X157229D01*
X157819Y200613D01*
Y198842D01*
X156048D01*
X155458Y199432D01*
X156048Y200023D01*
X157819D01*
X201659Y92990D02*
X198327D01*
Y90491D01*
X199993Y91324D01*
X200826D01*
X201659Y90491D01*
Y88825D01*
X200826Y87992D01*
X199160D01*
X198327Y88825D01*
X203325Y92990D02*
Y89658D01*
X204991Y87992D01*
X206657Y89658D01*
Y92990D01*
X197343Y101114D02*
X198176Y101947D01*
X199842D01*
X200675Y101114D01*
Y100281D01*
X199842Y99448D01*
X199009D01*
X199842D01*
X200675Y98615D01*
Y97782D01*
X199842Y96949D01*
X198176D01*
X197343Y97782D01*
X202341Y96949D02*
Y97782D01*
X203174D01*
Y96949D01*
X202341D01*
X206506Y101114D02*
X207339Y101947D01*
X209005D01*
X209839Y101114D01*
Y100281D01*
X209005Y99448D01*
X208172D01*
X209005D01*
X209839Y98615D01*
Y97782D01*
X209005Y96949D01*
X207339D01*
X206506Y97782D01*
X211505Y101947D02*
Y98615D01*
X213171Y96949D01*
X214837Y98615D01*
Y101947D01*
D15*
X64832Y174951D02*
X66800Y174951D01*
X64832Y171014D02*
X66800Y171014D01*
X73469Y138560D02*
X73469Y140528D01*
X69532Y138560D02*
X69532Y140528D01*
D16*
X108799Y245715D02*
X104800D01*
Y239717D01*
X108799D01*
X104800Y242716D02*
X106799D01*
X114797Y244715D02*
X113797Y245715D01*
X111798D01*
X110798Y244715D01*
Y243716D01*
X111798Y242716D01*
X113797D01*
X114797Y241716D01*
Y240717D01*
X113797Y239717D01*
X111798D01*
X110798Y240717D01*
X116796Y239717D02*
Y245715D01*
X119795D01*
X120795Y244715D01*
Y242716D01*
X119795Y241716D01*
X116796D01*
X122794Y242716D02*
X126793D01*
X132791Y244715D02*
X131791Y245715D01*
X129792D01*
X128792Y244715D01*
Y240717D01*
X129792Y239717D01*
X131791D01*
X132791Y240717D01*
Y242716D01*
X130792D01*
X134790Y243716D02*
Y239717D01*
Y241716D01*
X135790Y242716D01*
X136790Y243716D01*
X137789D01*
X141788Y239717D02*
X143787D01*
X144787Y240717D01*
Y242716D01*
X143787Y243716D01*
X141788D01*
X140788Y242716D01*
Y240717D01*
X141788Y239717D01*
X146786Y243716D02*
Y240717D01*
X147786Y239717D01*
X148786Y240717D01*
X149785Y239717D01*
X150785Y240717D01*
Y243716D01*
X158782Y239717D02*
Y245715D01*
X161782D01*
X162781Y244715D01*
Y242716D01*
X161782Y241716D01*
X158782D01*
X160782D02*
X162781Y239717D01*
X167780D02*
X165780D01*
X164781Y240717D01*
Y242716D01*
X165780Y243716D01*
X167780D01*
X168779Y242716D01*
Y241716D01*
X164781D01*
X170779Y243716D02*
X172778Y239717D01*
X174777Y243716D01*
X182775Y239717D02*
Y243716D01*
X184774Y245715D01*
X186774Y243716D01*
Y239717D01*
Y242716D01*
X182775D01*
X104800Y235397D02*
Y229399D01*
Y231399D01*
X108799Y235397D01*
X105800Y232398D01*
X108799Y229399D01*
X110798Y233398D02*
Y230399D01*
X111798Y229399D01*
X114797D01*
Y228400D01*
X113797Y227400D01*
X112797D01*
X114797Y229399D02*
Y233398D01*
X116796Y229399D02*
X118796D01*
X117796D01*
Y235397D01*
X116796D01*
X124794Y229399D02*
X122794D01*
X121794Y230399D01*
Y232398D01*
X122794Y233398D01*
X124794D01*
X125793Y232398D01*
Y231399D01*
X121794D01*
X133791Y229399D02*
Y235397D01*
X136790D01*
X137789Y234398D01*
Y232398D01*
X136790Y231399D01*
X133791D01*
X135790D02*
X137789Y229399D01*
X139789D02*
Y230399D01*
X140788D01*
Y229399D01*
X139789D01*
X150785Y235397D02*
Y229399D01*
X153784D01*
X154784Y230399D01*
Y234398D01*
X153784Y235397D01*
X150785D01*
X159782Y229399D02*
X157783D01*
X156783Y230399D01*
Y232398D01*
X157783Y233398D01*
X159782D01*
X160782Y232398D01*
Y231399D01*
X156783D01*
X162781Y229399D02*
X165780D01*
X166780Y230399D01*
X165780Y231399D01*
X163781D01*
X162781Y232398D01*
X163781Y233398D01*
X166780D01*
X168779Y229399D02*
X170779D01*
X169779D01*
Y233398D01*
X168779D01*
X175777Y227400D02*
X176777D01*
X177776Y228400D01*
Y233398D01*
X174777D01*
X173778Y232398D01*
Y230399D01*
X174777Y229399D01*
X177776D01*
X179776D02*
Y233398D01*
X182775D01*
X183774Y232398D01*
Y229399D01*
X185774D02*
X188773D01*
X189772Y230399D01*
X188773Y231399D01*
X186774D01*
X185774Y232398D01*
X186774Y233398D01*
X189772D01*
D17*
X119148Y192709D02*
X118815Y193043D01*
X118148D01*
X117815Y192709D01*
Y191376D01*
X118148Y191043D01*
X118815D01*
X119148Y191376D01*
X119814Y191043D02*
Y193043D01*
X121147Y191043D01*
Y193043D01*
X121814Y191043D02*
X122480D01*
X122147D01*
Y193043D01*
X121814Y192709D01*
X247494Y244066D02*
X247039Y244188D01*
X246461Y243855D01*
X246339Y243400D01*
X246506Y243111D01*
X246961Y242989D01*
X247538Y243322D01*
X247993Y243200D01*
X248160Y242912D01*
X248038Y242457D01*
X247461Y242123D01*
X247006Y242245D01*
X247904Y244688D02*
X248904Y242956D01*
X249148Y243867D01*
X250058Y243623D01*
X249059Y245354D01*
X250635Y243956D02*
X251213Y244289D01*
X250924Y244123D01*
X249924Y245854D01*
X249802Y245399D01*
X99610Y76159D02*
Y74493D01*
X99944Y74160D01*
X100610D01*
X100943Y74493D01*
Y76159D01*
X101610Y74160D02*
X102276D01*
X101943D01*
Y76159D01*
X101610Y75826D01*
X251998Y190558D02*
Y191891D01*
X251665Y192224D01*
X250999D01*
X250665Y191891D01*
Y190558D01*
X250999Y190224D01*
X251665D01*
X251332Y190891D02*
X251998Y190224D01*
X251665D02*
X251998Y190558D01*
X252665Y190224D02*
X253331D01*
X252998D01*
Y192224D01*
X252665Y191891D01*
X239286Y37614D02*
X240464Y36436D01*
X240936D01*
X241407Y36907D01*
X241407Y37378D01*
X240229Y38556D01*
X242114Y37614D02*
X242585Y38085D01*
X242349Y37849D01*
X240936Y39263D01*
X240936Y38792D01*
X244234Y39734D02*
X243292Y38792D01*
Y40677D01*
X243056Y40913D01*
X242585D01*
X242114Y40441D01*
X242114Y39970D01*
X76015Y131049D02*
Y132382D01*
X75015D01*
Y131715D01*
Y132382D01*
X74016D01*
X76015Y130383D02*
X74016D01*
Y129383D01*
X74349Y129050D01*
X74682D01*
X75015Y129383D01*
Y130383D01*
Y129383D01*
X75349Y129050D01*
X75682D01*
X76015Y129383D01*
Y130383D01*
X74016Y128383D02*
Y127717D01*
Y128050D01*
X76015D01*
X75682Y128383D01*
X247638Y118602D02*
X245638D01*
Y119602D01*
X245972Y119935D01*
X246638D01*
X246971Y119602D01*
Y118602D01*
Y119269D02*
X247638Y119935D01*
X245972Y120602D02*
X245638Y120935D01*
Y121601D01*
X245972Y121935D01*
X246305D01*
X246638Y121601D01*
X246971Y121935D01*
X247305D01*
X247638Y121601D01*
Y120935D01*
X247305Y120602D01*
X246971D01*
X246638Y120935D01*
X246305Y120602D01*
X245972D01*
X246638Y120935D02*
Y121601D01*
X162992Y97539D02*
Y99539D01*
X163992D01*
X164325Y99205D01*
Y98539D01*
X163992Y98206D01*
X162992D01*
X163659D02*
X164325Y97539D01*
X164991Y99539D02*
X166324D01*
Y99205D01*
X164991Y97873D01*
Y97539D01*
X246260Y159547D02*
Y161547D01*
X247259D01*
X247593Y161213D01*
Y160547D01*
X247259Y160214D01*
X246260D01*
X246926D02*
X247593Y159547D01*
X248259Y161213D02*
X248592Y161547D01*
X249259D01*
X249592Y161213D01*
Y160880D01*
X249259Y160547D01*
X248926D01*
X249259D01*
X249592Y160214D01*
Y159880D01*
X249259Y159547D01*
X248592D01*
X248259Y159880D01*
X36331Y117016D02*
X36751Y116803D01*
X37385Y117008D01*
X37598Y117428D01*
X37187Y118696D01*
X36767Y118910D01*
X36133Y118704D01*
X35919Y118284D01*
X35182Y118395D02*
X35800Y116494D01*
X33915Y117983D01*
X34532Y116082D01*
X32631Y115464D02*
X33898Y115876D01*
X33590Y116826D01*
X33059Y116304D01*
X32742Y116201D01*
X32322Y116415D01*
X32116Y117048D01*
X32330Y117468D01*
X32964Y117674D01*
X33384Y117460D01*
X280925Y128352D02*
X281124Y127925D01*
X281750Y127697D01*
X282177Y127896D01*
X282633Y129148D01*
X282434Y129575D01*
X281808Y129803D01*
X281381Y129604D01*
X280869Y130145D02*
X280185Y128267D01*
X279616Y130601D01*
X278932Y128722D01*
X277737Y131285D02*
X278990Y130829D01*
X277281Y130032D01*
X277167Y129719D01*
X277366Y129292D01*
X277993Y129064D01*
X278420Y129263D01*
X21980Y199403D02*
X21923Y199870D01*
X21398Y200281D01*
X20930Y200223D01*
X20109Y199173D01*
X20167Y198705D01*
X20692Y198295D01*
X21160Y198352D01*
X21480Y197679D02*
X22711Y199255D01*
X22530Y196859D01*
X23761Y198434D01*
X24081Y197761D02*
X24549Y197819D01*
X25074Y197408D01*
X25131Y196941D01*
X24926Y196678D01*
X24458Y196621D01*
X24196Y196826D01*
X24458Y196621D01*
X24516Y196153D01*
X24311Y195890D01*
X23843Y195833D01*
X23318Y196243D01*
X23260Y196711D01*
X79344Y262488D02*
X79528Y262922D01*
X79279Y263540D01*
X78845Y263724D01*
X77609Y263225D01*
X77425Y262791D01*
X77675Y262173D01*
X78108Y261989D01*
X78049Y261246D02*
X79903Y261995D01*
X78548Y260010D01*
X80402Y260759D01*
X81151Y258906D02*
X80592Y259399D01*
X79725Y259767D01*
X79107Y259517D01*
X78923Y259084D01*
X79172Y258466D01*
X79606Y258281D01*
X79915Y258406D01*
X80099Y258840D01*
X79725Y259767D01*
X179700Y76975D02*
Y74976D01*
X181033D01*
X181699D02*
X182366D01*
X182033D01*
Y76975D01*
X181699Y76642D01*
X34200Y164899D02*
Y163233D01*
X34533Y162900D01*
X35200D01*
X35533Y163233D01*
Y164899D01*
X37532Y162900D02*
X36199D01*
X37532Y164233D01*
Y164566D01*
X37199Y164899D01*
X36533D01*
X36199Y164566D01*
X221752Y167354D02*
Y165354D01*
X222752D01*
X223085Y165688D01*
Y167020D01*
X222752Y167354D01*
X221752D01*
X223751Y165354D02*
X224418D01*
X224084D01*
Y167354D01*
X223751Y167020D01*
X182776Y105838D02*
Y103839D01*
X183775D01*
X184108Y104172D01*
Y105505D01*
X183775Y105838D01*
X182776D01*
X184775Y105505D02*
X185108Y105838D01*
X185775D01*
X186108Y105505D01*
Y105172D01*
X185775Y104838D01*
X185441D01*
X185775D01*
X186108Y104505D01*
Y104172D01*
X185775Y103839D01*
X185108D01*
X184775Y104172D01*
X167301Y270033D02*
Y269366D01*
Y269700D01*
X168967D01*
X169300Y269366D01*
Y269033D01*
X168967Y268700D01*
X169300Y272032D02*
Y270699D01*
X167967Y272032D01*
X167634D01*
X167301Y271699D01*
Y271033D01*
X167634Y270699D01*
X149955Y84245D02*
X149622Y84578D01*
X148955D01*
X148622Y84245D01*
Y82912D01*
X148955Y82579D01*
X149622D01*
X149955Y82912D01*
X150621Y84245D02*
X150955Y84578D01*
X151621D01*
X151954Y84245D01*
Y83912D01*
X151621Y83578D01*
X151288D01*
X151621D01*
X151954Y83245D01*
Y82912D01*
X151621Y82579D01*
X150955D01*
X150621Y82912D01*
X76533Y157849D02*
X76200Y158182D01*
X75533D01*
X75200Y157849D01*
Y156516D01*
X75533Y156182D01*
X76200D01*
X76533Y156516D01*
X77199Y156182D02*
X77866D01*
X77533D01*
Y158182D01*
X77199Y157849D01*
X79865Y156182D02*
Y158182D01*
X78865Y157182D01*
X80198D01*
X59024Y229678D02*
X58967Y230146D01*
X58442Y230556D01*
X57974Y230499D01*
X57153Y229449D01*
X57211Y228981D01*
X57736Y228571D01*
X58204Y228628D01*
X59574Y227134D02*
X58524Y227955D01*
X60395Y228185D01*
X60600Y228447D01*
X60543Y228915D01*
X60017Y229326D01*
X59550Y229268D01*
X62381Y227479D02*
X61650Y227627D01*
X60715Y227512D01*
X60304Y226987D01*
X60362Y226519D01*
X60887Y226109D01*
X61355Y226166D01*
X61560Y226429D01*
X61503Y226897D01*
X60715Y227512D01*
X110688Y53666D02*
X110355Y53999D01*
X109688D01*
X109355Y53666D01*
Y52333D01*
X109688Y52000D01*
X110355D01*
X110688Y52333D01*
X111354D02*
X111688Y52000D01*
X112354D01*
X112687Y52333D01*
Y53666D01*
X112354Y53999D01*
X111688D01*
X111354Y53666D01*
Y53333D01*
X111688Y53000D01*
X112687D01*
X74533Y172248D02*
X74200Y172582D01*
X73533D01*
X73200Y172248D01*
Y170916D01*
X73533Y170582D01*
X74200D01*
X74533Y170916D01*
X75199Y170582D02*
X75866D01*
X75533D01*
Y172582D01*
X75199Y172248D01*
X78198Y170582D02*
X76866D01*
X78198Y171915D01*
Y172248D01*
X77865Y172582D01*
X77199D01*
X76866Y172248D01*
X269696Y161829D02*
X269310Y162099D01*
X268653Y161984D01*
X268383Y161598D01*
X268615Y160285D01*
X269001Y160015D01*
X269657Y160130D01*
X269927Y160516D01*
X270641Y160304D02*
X270294Y162273D01*
X271954Y160535D01*
X271607Y162504D01*
X273595Y160825D02*
X273248Y162794D01*
X272437Y161636D01*
X273749Y161867D01*
X135388Y84245D02*
X135055Y84578D01*
X134388D01*
X134055Y84245D01*
Y82912D01*
X134388Y82579D01*
X135055D01*
X135388Y82912D01*
X137054Y82579D02*
Y84578D01*
X136055Y83578D01*
X137387D01*
X121608Y84245D02*
X121275Y84578D01*
X120609D01*
X120276Y84245D01*
Y82912D01*
X120609Y82579D01*
X121275D01*
X121608Y82912D01*
X123608Y84578D02*
X122275D01*
Y83578D01*
X122941Y83912D01*
X123275D01*
X123608Y83578D01*
Y82912D01*
X123275Y82579D01*
X122608D01*
X122275Y82912D01*
X121608Y78733D02*
X121275Y79066D01*
X120609D01*
X120276Y78733D01*
Y77400D01*
X120609Y77067D01*
X121275D01*
X121608Y77400D01*
X123608Y79066D02*
X122941Y78733D01*
X122275Y78067D01*
Y77400D01*
X122608Y77067D01*
X123275D01*
X123608Y77400D01*
Y77733D01*
X123275Y78067D01*
X122275D01*
X135388Y78733D02*
X135055Y79066D01*
X134388D01*
X134055Y78733D01*
Y77400D01*
X134388Y77067D01*
X135055D01*
X135388Y77400D01*
X136055Y79066D02*
X137387D01*
Y78733D01*
X136055Y77400D01*
Y77067D01*
X149955Y78733D02*
X149622Y79066D01*
X148955D01*
X148622Y78733D01*
Y77400D01*
X148955Y77067D01*
X149622D01*
X149955Y77400D01*
X150621Y78733D02*
X150955Y79066D01*
X151621D01*
X151954Y78733D01*
Y78400D01*
X151621Y78067D01*
X151954Y77733D01*
Y77400D01*
X151621Y77067D01*
X150955D01*
X150621Y77400D01*
Y77733D01*
X150955Y78067D01*
X150621Y78400D01*
Y78733D01*
X150955Y78067D02*
X151621D01*
X182874Y86448D02*
Y84449D01*
X183874D01*
X184207Y84782D01*
Y86115D01*
X183874Y86448D01*
X182874D01*
X186206Y84449D02*
X184873D01*
X186206Y85782D01*
Y86115D01*
X185873Y86448D01*
X185207D01*
X184873Y86115D01*
X234911Y227599D02*
X233179Y226600D01*
X232680Y227465D01*
X232802Y227921D01*
X233379Y228254D01*
X233834Y228132D01*
X234334Y227266D01*
X234001Y227843D02*
X234245Y228753D01*
X233911Y229331D02*
X233578Y229908D01*
X233745Y229619D01*
X232013Y228620D01*
X232468Y228498D01*
X230168Y202416D02*
Y204415D01*
X231167D01*
X231501Y204082D01*
Y203415D01*
X231167Y203082D01*
X230168D01*
X230834D02*
X231501Y202416D01*
X233500D02*
X232167D01*
X233500Y203749D01*
Y204082D01*
X233167Y204415D01*
X232500D01*
X232167Y204082D01*
X87800Y62400D02*
X89799D01*
Y61400D01*
X89466Y61067D01*
X88800D01*
X88466Y61400D01*
Y62400D01*
Y61734D02*
X87800Y61067D01*
Y59401D02*
X89799D01*
X88800Y60401D01*
Y59068D01*
X170965Y85236D02*
Y87236D01*
X171964D01*
X172298Y86902D01*
Y86236D01*
X171964Y85903D01*
X170965D01*
X171631D02*
X172298Y85236D01*
X174297Y87236D02*
X172964D01*
Y86236D01*
X173630Y86569D01*
X173964D01*
X174297Y86236D01*
Y85569D01*
X173964Y85236D01*
X173297D01*
X172964Y85569D01*
X94291Y80020D02*
X96291D01*
Y79020D01*
X95957Y78687D01*
X95291D01*
X94958Y79020D01*
Y80020D01*
Y79353D02*
X94291Y78687D01*
X96291Y76687D02*
X95957Y77354D01*
X95291Y78020D01*
X94625D01*
X94291Y77687D01*
Y77021D01*
X94625Y76687D01*
X94958D01*
X95291Y77021D01*
Y78020D01*
X77534Y137833D02*
X77201Y137500D01*
Y136833D01*
X77534Y136500D01*
X78867D01*
X79200Y136833D01*
Y137500D01*
X78867Y137833D01*
X79200Y138499D02*
Y139166D01*
Y138833D01*
X77201D01*
X77534Y138499D01*
Y140165D02*
X77201Y140499D01*
Y141165D01*
X77534Y141498D01*
X78867D01*
X79200Y141165D01*
Y140499D01*
X78867Y140165D01*
X77534D01*
X64633Y149466D02*
X64300Y149799D01*
X63633D01*
X63300Y149466D01*
Y148133D01*
X63633Y147800D01*
X64300D01*
X64633Y148133D01*
X65299Y147800D02*
X65966D01*
X65633D01*
Y149799D01*
X65299Y149466D01*
X66966Y147800D02*
X67632D01*
X67299D01*
Y149799D01*
X66966Y149466D01*
X77033Y165348D02*
X76700Y165682D01*
X76033D01*
X75700Y165348D01*
Y164016D01*
X76033Y163682D01*
X76700D01*
X77033Y164016D01*
X77699Y163682D02*
X78366D01*
X78033D01*
Y165682D01*
X77699Y165348D01*
X79365D02*
X79699Y165682D01*
X80365D01*
X80698Y165348D01*
Y165015D01*
X80365Y164682D01*
X80032D01*
X80365D01*
X80698Y164349D01*
Y164016D01*
X80365Y163682D01*
X79699D01*
X79365Y164016D01*
X270400Y208605D02*
X269945Y208727D01*
X269368Y208394D01*
X269246Y207939D01*
X269912Y206785D01*
X270367Y206663D01*
X270944Y206996D01*
X271066Y207451D01*
X271810Y207496D02*
X272387Y207829D01*
X272099Y207662D01*
X271099Y209394D01*
X270977Y208939D01*
X273408Y210727D02*
X272253Y210060D01*
X272753Y209194D01*
X273164Y209816D01*
X273452Y209983D01*
X273908Y209861D01*
X274241Y209284D01*
X274119Y208829D01*
X273542Y208495D01*
X273087Y208617D01*
X54593Y68163D02*
Y68634D01*
X54122Y69105D01*
X53651Y69105D01*
X52709Y68163D01*
Y67691D01*
X53180Y67220D01*
X53651Y67220D01*
X53887Y66513D02*
X54358Y66042D01*
X54122Y66278D01*
X55536Y67691D01*
X55065Y67691D01*
X57421Y65807D02*
X56714Y66042D01*
X55772D01*
X55300Y65571D01*
Y65100D01*
X55772Y64628D01*
X56243Y64628D01*
X56479Y64864D01*
X56479Y65335D01*
X55772Y66042D01*
X72020Y50654D02*
X71556Y50572D01*
X71173Y50026D01*
X71255Y49562D01*
X72347Y48798D01*
X72811Y48880D01*
X73193Y49425D01*
X73111Y49889D01*
X73767Y50244D02*
X74149Y50790D01*
X73958Y50517D01*
X72320Y51664D01*
X72402Y51200D01*
X73085Y52756D02*
X73849Y53848D01*
X74122Y53657D01*
X74449Y51800D01*
X74722Y51609D01*
X88099Y39943D02*
X87656Y39782D01*
X87374Y39178D01*
X87536Y38735D01*
X88744Y38172D01*
X89186Y38333D01*
X89468Y38937D01*
X89307Y39380D01*
X89890Y39843D02*
X90172Y40447D01*
X90031Y40145D01*
X88219Y40990D01*
X88380Y40547D01*
X89085Y42057D02*
X88923Y42500D01*
X89205Y43104D01*
X89648Y43265D01*
X89950Y43124D01*
X90111Y42682D01*
X90554Y42843D01*
X90856Y42702D01*
X91017Y42259D01*
X90735Y41655D01*
X90293Y41494D01*
X89991Y41635D01*
X89829Y42078D01*
X89387Y41916D01*
X89085Y42057D01*
X89829Y42078D02*
X90111Y42682D01*
X107136Y31219D02*
X106728Y30983D01*
X106555Y30339D01*
X106791Y29931D01*
X108078Y29586D01*
X108486Y29822D01*
X108659Y30466D01*
X108423Y30874D01*
X108917Y31431D02*
X109090Y32075D01*
X109004Y31753D01*
X107072Y32271D01*
X107308Y31863D01*
X109027Y33127D02*
X109435Y33362D01*
X109607Y34006D01*
X109372Y34414D01*
X108084Y34759D01*
X107676Y34524D01*
X107504Y33880D01*
X107739Y33472D01*
X108061Y33386D01*
X108469Y33621D01*
X108728Y34587D01*
X125356Y26373D02*
X124995Y26070D01*
X124937Y25406D01*
X125240Y25045D01*
X126568Y24929D01*
X126929Y25232D01*
X126987Y25896D01*
X126684Y26257D01*
X127190Y28220D02*
X127074Y26892D01*
X125863Y28336D01*
X125531Y28365D01*
X125170Y28062D01*
X125112Y27398D01*
X125415Y27037D01*
X125589Y29029D02*
X125286Y29390D01*
X125344Y30054D01*
X125705Y30356D01*
X127033Y30240D01*
X127336Y29879D01*
X127278Y29215D01*
X126917Y28912D01*
X125589Y29029D01*
X148324Y24783D02*
X148021Y24422D01*
X148079Y23758D01*
X148440Y23455D01*
X149768Y23571D01*
X150071Y23932D01*
X150013Y24596D01*
X149652Y24899D01*
X149810Y26920D02*
X149926Y25592D01*
X148482Y26803D01*
X148150Y26774D01*
X147847Y26413D01*
X147905Y25749D01*
X148266Y25447D01*
X149751Y27584D02*
X149693Y28247D01*
X149723Y27915D01*
X147731Y27741D01*
X148092Y27438D01*
X167846Y26356D02*
X167610Y25948D01*
X167782Y25304D01*
X168191Y25069D01*
X169478Y25414D01*
X169714Y25822D01*
X169541Y26466D01*
X169133Y26701D01*
X168938Y28719D02*
X169282Y27431D01*
X167650Y28374D01*
X167328Y28288D01*
X167093Y27879D01*
X167265Y27236D01*
X167673Y27000D01*
X168420Y30650D02*
X168765Y29362D01*
X167133Y30305D01*
X166811Y30219D01*
X166575Y29811D01*
X166748Y29167D01*
X167156Y28931D01*
X190504Y41773D02*
X190061Y41934D01*
X189457Y41653D01*
X189296Y41210D01*
X189859Y40002D01*
X190302Y39841D01*
X190906Y40123D01*
X191067Y40565D01*
X193020Y41108D02*
X191812Y40545D01*
X192457Y42316D01*
X192316Y42618D01*
X191873Y42779D01*
X191269Y42498D01*
X191108Y42055D01*
X192920Y42900D02*
X193081Y43343D01*
X193685Y43624D01*
X194128Y43463D01*
X194269Y43161D01*
X194108Y42718D01*
X193806Y42578D01*
X194108Y42718D01*
X194550Y42557D01*
X194691Y42255D01*
X194530Y41812D01*
X193926Y41531D01*
X193483Y41692D01*
X205836Y49329D02*
X205372Y49411D01*
X204826Y49029D01*
X204744Y48565D01*
X205509Y47473D01*
X205973Y47391D01*
X206519Y47773D01*
X206601Y48237D01*
X208430Y49111D02*
X207338Y48347D01*
X207665Y50203D01*
X207474Y50476D01*
X207010Y50558D01*
X206464Y50176D01*
X206382Y49712D01*
X209794Y50067D02*
X208648Y51705D01*
X208402Y50313D01*
X209494Y51077D01*
X220964Y59621D02*
X220493D01*
X220022Y59149D01*
X220022Y58678D01*
X220964Y57736D01*
X221436D01*
X221907Y58207D01*
X221907Y58678D01*
X223556Y59856D02*
X222614Y58914D01*
Y60799D01*
X222378Y61034D01*
X221907D01*
X221436Y60563D01*
X221436Y60092D01*
X223556Y62684D02*
X222614Y61741D01*
X223321Y61034D01*
X223556Y61741D01*
X223792Y61977D01*
X224263D01*
X224734Y61506D01*
X224734Y61034D01*
X224263Y60563D01*
X223792D01*
X45514Y45214D02*
X44336Y44036D01*
Y43564D01*
X44807Y43093D01*
X45278Y43093D01*
X46456Y44271D01*
X46692Y43564D02*
X47163Y43564D01*
X47634Y43093D01*
Y42622D01*
X47399Y42386D01*
X46927D01*
X46692Y42622D01*
X46927Y42386D01*
Y41915D01*
X46692Y41679D01*
X46221D01*
X45749Y42151D01*
Y42622D01*
X62847Y30238D02*
X61891Y28873D01*
X61973Y28409D01*
X62519Y28027D01*
X62983Y28108D01*
X63939Y29473D01*
X64157Y26880D02*
X65303Y28518D01*
X63911Y28272D01*
X65003Y27508D01*
X82645Y18312D02*
X81941Y16802D01*
X82102Y16359D01*
X82706Y16078D01*
X83149Y16239D01*
X83853Y17749D01*
X85665Y16904D02*
X84457Y17467D01*
X84035Y16561D01*
X84779Y16581D01*
X85081Y16441D01*
X85242Y15998D01*
X84961Y15394D01*
X84518Y15233D01*
X83914Y15514D01*
X83753Y15957D01*
X105617Y9331D02*
X105186Y7722D01*
X105422Y7314D01*
X106066Y7141D01*
X106474Y7377D01*
X106905Y8986D01*
X108836Y8469D02*
X108106Y8319D01*
X107290Y7848D01*
X107117Y7204D01*
X107353Y6796D01*
X107997Y6624D01*
X108405Y6859D01*
X108491Y7181D01*
X108256Y7589D01*
X107290Y7848D01*
X129574Y4292D02*
X129429Y2632D01*
X129732Y2271D01*
X130396Y2213D01*
X130757Y2516D01*
X130902Y4176D01*
X131566Y4118D02*
X132894Y4001D01*
X132865Y3669D01*
X131421Y2458D01*
X131392Y2126D01*
X155678Y3292D02*
X155823Y1632D01*
X156184Y1329D01*
X156848Y1387D01*
X157151Y1748D01*
X157006Y3408D01*
X157699Y3134D02*
X158001Y3495D01*
X158665Y3553D01*
X159026Y3250D01*
X159055Y2918D01*
X158753Y2557D01*
X159113Y2254D01*
X159142Y1922D01*
X158840Y1561D01*
X158176Y1503D01*
X157815Y1806D01*
X157786Y2138D01*
X158089Y2499D01*
X157728Y2802D01*
X157699Y3134D01*
X158089Y2499D02*
X158753Y2557D01*
X178482Y6631D02*
X178914Y5022D01*
X179322Y4786D01*
X179966Y4959D01*
X180201Y5367D01*
X179770Y6976D01*
X180845Y5539D02*
X181253Y5304D01*
X181897Y5476D01*
X182132Y5884D01*
X181788Y7172D01*
X181379Y7407D01*
X180736Y7235D01*
X180500Y6827D01*
X180586Y6505D01*
X180994Y6269D01*
X181960Y6528D01*
X200555Y14212D02*
X201259Y12702D01*
X201702Y12541D01*
X202306Y12822D01*
X202467Y13265D01*
X201763Y14775D01*
X203212Y13245D02*
X203816Y13527D01*
X203514Y13386D01*
X202669Y15198D01*
X202508Y14755D01*
X204018Y15459D02*
X204179Y15902D01*
X204783Y16184D01*
X205226Y16022D01*
X205789Y14814D01*
X205628Y14372D01*
X205024Y14090D01*
X204581Y14251D01*
X204018Y15459D01*
X220653Y23938D02*
X221609Y22573D01*
X222073Y22491D01*
X222619Y22873D01*
X222701Y23337D01*
X221745Y24702D01*
X223438Y23447D02*
X223984Y23829D01*
X223711Y23638D01*
X222564Y25276D01*
X222482Y24812D01*
X224803Y24402D02*
X225348Y24785D01*
X225076Y24594D01*
X223929Y26231D01*
X223847Y25767D01*
X36865Y65863D02*
X36446Y66077D01*
X35812Y65871D01*
X35598Y65452D01*
X36010Y64184D01*
X36430Y63970D01*
X37063Y64176D01*
X37277Y64596D01*
X38014Y64485D02*
X38648Y64691D01*
X38331Y64588D01*
X37713Y66489D01*
X37499Y66069D01*
X253374Y107036D02*
X253801Y107235D01*
X254029Y107861D01*
X253829Y108288D01*
X252577Y108744D01*
X252150Y108545D01*
X251922Y107919D01*
X252121Y107492D01*
X251124Y105727D02*
X251580Y106980D01*
X252377Y105271D01*
X252690Y105157D01*
X253117Y105356D01*
X253345Y105982D01*
X253146Y106410D01*
X224682Y150098D02*
Y153097D01*
X226181D01*
X226681Y152598D01*
Y151598D01*
X226181Y151098D01*
X224682D01*
X227681Y153097D02*
Y150598D01*
X228181Y150098D01*
X229180D01*
X229680Y150598D01*
Y153097D01*
X230680Y150098D02*
Y153097D01*
X231679Y152098D01*
X232679Y153097D01*
Y150098D01*
X233679D02*
Y153097D01*
X235178D01*
X235678Y152598D01*
Y151598D01*
X235178Y151098D01*
X233679D01*
D18*
X86315Y153403D02*
Y150429D01*
X87802D01*
X88298Y150924D01*
Y152907D01*
X87802Y153403D01*
X86315D01*
X91272D02*
X89289D01*
Y151916D01*
X90280Y152411D01*
X90776D01*
X91272Y151916D01*
Y150924D01*
X90776Y150429D01*
X89785D01*
X89289Y150924D01*
X86315Y163403D02*
Y160429D01*
X87802D01*
X88298Y160924D01*
Y162907D01*
X87802Y163403D01*
X86315D01*
X89289Y162907D02*
X89785Y163403D01*
X90776D01*
X91272Y162907D01*
Y160924D01*
X90776Y160429D01*
X89785D01*
X89289Y160924D01*
Y162907D01*
X86315Y123403D02*
Y120429D01*
X87802D01*
X88298Y120924D01*
Y122907D01*
X87802Y123403D01*
X86315D01*
X89289Y122907D02*
X89785Y123403D01*
X90776D01*
X91272Y122907D01*
Y122411D01*
X90776Y121916D01*
X91272Y121420D01*
Y120924D01*
X90776Y120429D01*
X89785D01*
X89289Y120924D01*
Y121420D01*
X89785Y121916D01*
X89289Y122411D01*
Y122907D01*
X89785Y121916D02*
X90776D01*
X86315Y170429D02*
Y172411D01*
X87306Y173403D01*
X88298Y172411D01*
Y170429D01*
Y171916D01*
X86315D01*
X89289Y172907D02*
X89785Y173403D01*
X90776D01*
X91272Y172907D01*
Y170924D01*
X90776Y170429D01*
X89785D01*
X89289Y170924D01*
Y172907D01*
X86315Y143403D02*
Y140429D01*
X87802D01*
X88298Y140924D01*
Y142907D01*
X87802Y143403D01*
X86315D01*
X91272D02*
X90280Y142907D01*
X89289Y141916D01*
Y140924D01*
X89785Y140429D01*
X90776D01*
X91272Y140924D01*
Y141420D01*
X90776Y141916D01*
X89289D01*
X86315Y133403D02*
Y130429D01*
X87802D01*
X88298Y130924D01*
Y132907D01*
X87802Y133403D01*
X86315D01*
X89289D02*
X91272D01*
Y132907D01*
X89289Y130924D01*
Y130429D01*
X198472Y154190D02*
Y151216D01*
X199959D01*
X200455Y151712D01*
Y153694D01*
X199959Y154190D01*
X198472D01*
X203429Y151216D02*
X201446D01*
X203429Y153199D01*
Y153694D01*
X202933Y154190D01*
X201942D01*
X201446Y153694D01*
X198472Y164190D02*
Y161216D01*
X199959D01*
X200455Y161712D01*
Y163694D01*
X199959Y164190D01*
X198472D01*
X201446Y161216D02*
X202438D01*
X201942D01*
Y164190D01*
X201446Y163694D01*
X198472Y184190D02*
X200455D01*
X199464D01*
Y181216D01*
X201446Y184190D02*
X203429Y181216D01*
Y184190D02*
X201446Y181216D01*
X198472Y171216D02*
Y174190D01*
X199959D01*
X200455Y173694D01*
Y172703D01*
X199959Y172207D01*
X198472D01*
X199464D02*
X200455Y171216D01*
X201446Y174190D02*
X203429Y171216D01*
Y174190D02*
X201446Y171216D01*
X198472Y144190D02*
Y141216D01*
X199959D01*
X200455Y141712D01*
Y143694D01*
X199959Y144190D01*
X198472D01*
X201446Y143694D02*
X201942Y144190D01*
X202933D01*
X203429Y143694D01*
Y143199D01*
X202933Y142703D01*
X202438D01*
X202933D01*
X203429Y142207D01*
Y141712D01*
X202933Y141216D01*
X201942D01*
X201446Y141712D01*
X198472Y134190D02*
Y131216D01*
X199959D01*
X200455Y131712D01*
Y133694D01*
X199959Y134190D01*
X198472D01*
X202933Y131216D02*
Y134190D01*
X201446Y132703D01*
X203429D01*
D19*
X86315Y112695D02*
X86768Y113148D01*
X87674D01*
X88128Y112695D01*
Y112241D01*
X87674Y111788D01*
X87221D01*
X87674D01*
X88128Y111335D01*
Y110882D01*
X87674Y110429D01*
X86768D01*
X86315Y110882D01*
X89034Y113148D02*
Y111335D01*
X89940Y110429D01*
X90847Y111335D01*
Y113148D01*
X91753Y112695D02*
X92206Y113148D01*
X93113D01*
X93566Y112695D01*
Y112241D01*
X93113Y111788D01*
X92659D01*
X93113D01*
X93566Y111335D01*
Y110882D01*
X93113Y110429D01*
X92206D01*
X91753Y110882D01*
X86315Y180429D02*
Y183148D01*
X87674D01*
X88128Y182694D01*
Y181788D01*
X87674Y181335D01*
X86315D01*
X87221D02*
X88128Y180429D01*
X90847Y182694D02*
X90394Y183148D01*
X89487D01*
X89034Y182694D01*
Y182241D01*
X89487Y181788D01*
X90394D01*
X90847Y181335D01*
Y180882D01*
X90394Y180429D01*
X89487D01*
X89034Y180882D01*
X91753Y183148D02*
X93566D01*
X92659D01*
Y180429D01*
X200285Y113935D02*
X198472D01*
Y112576D01*
X199379Y113029D01*
X199832D01*
X200285Y112576D01*
Y111669D01*
X199832Y111216D01*
X198925D01*
X198472Y111669D01*
X201191Y113935D02*
Y112122D01*
X202098Y111216D01*
X203004Y112122D01*
Y113935D01*
X200285Y123549D02*
X199832Y124002D01*
X198925D01*
X198472Y123549D01*
Y121736D01*
X198925Y121283D01*
X199832D01*
X200285Y121736D01*
Y122643D01*
X199379D01*
X201191Y121283D02*
Y124002D01*
X203004Y121283D01*
Y124002D01*
X203911D02*
Y121283D01*
X205270D01*
X205723Y121736D01*
Y123549D01*
X205270Y124002D01*
X203911D01*
D20*
X52547Y87892D02*
X52012Y86842D01*
X52527Y85258D01*
X53577Y84723D01*
X54369Y84980D01*
X54904Y86030D01*
X54389Y87615D01*
X54924Y88664D01*
X55717Y88922D01*
X56766Y88387D01*
X57281Y86802D01*
X56746Y85752D01*
X55737Y91556D02*
X55222Y93141D01*
X54172Y93675D01*
X52587Y93160D01*
X52052Y92111D01*
X52567Y90526D01*
X53617Y89991D01*
X55202Y90506D01*
X55737Y91556D01*
X54449Y95517D02*
X51280Y94488D01*
X50508Y96864D01*
X51043Y97914D01*
X53420Y98687D01*
X49478Y100034D02*
X48963Y101618D01*
X49498Y102668D01*
X51875Y103440D01*
X52647Y101063D01*
X52113Y100014D01*
X51063Y100549D01*
X50291Y102926D01*
X48191Y103995D02*
X51360Y105025D01*
X49776Y104510D01*
X48726Y105045D01*
X47676Y105580D01*
X47419Y106372D01*
X270150Y129393D02*
X265453Y131102D01*
X264598Y128754D01*
X265096Y127686D01*
X268227Y126546D01*
X269295Y127044D01*
X270150Y129393D01*
X268440Y124696D02*
X263743Y126405D01*
X266092Y125551D01*
X264952Y122419D01*
X267301Y121565D01*
X262603Y123274D01*
X266731Y119999D02*
X265591Y116868D01*
X266161Y118433D01*
X261464Y120143D01*
X259184Y113880D02*
X260324Y117011D01*
X262316Y112741D01*
X263099Y112456D01*
X264166Y112953D01*
X264736Y114519D01*
X264238Y115587D01*
X257475Y109183D02*
X258615Y112315D01*
X260606Y108044D01*
X261389Y107759D01*
X262457Y108257D01*
X263027Y109822D01*
X262529Y110890D01*
X39673Y196037D02*
X38504Y195893D01*
X37478Y194580D01*
X37621Y193411D01*
X38278Y192898D01*
X39447Y193042D01*
X40473Y194354D01*
X41642Y194498D01*
X42299Y193985D01*
X42442Y192816D01*
X41417Y191503D01*
X40247Y191359D01*
X44494Y195442D02*
X45520Y196755D01*
X45376Y197924D01*
X44063Y198950D01*
X42894Y198806D01*
X41868Y197493D01*
X42012Y196324D01*
X43325Y195298D01*
X44494Y195442D01*
X47058Y198724D02*
X48084Y200037D01*
X47571Y199381D01*
X44945Y201432D01*
X44433Y200776D01*
X49623Y202006D02*
X50649Y203319D01*
X50136Y202663D01*
X46197Y205740D01*
X45684Y205084D01*
X54034Y214418D02*
X52864Y214274D01*
X51839Y212961D01*
X51982Y211792D01*
X52639Y211279D01*
X53808Y211422D01*
X54834Y212736D01*
X56003Y212879D01*
X56660Y212366D01*
X56803Y211197D01*
X55777Y209884D01*
X54608Y209740D01*
X59881Y215136D02*
X58855Y213823D01*
X57685Y213679D01*
X56372Y214705D01*
X56229Y215874D01*
X57255Y217187D01*
X58424Y217331D01*
X59080Y216818D01*
X57029Y214192D01*
X61419Y217105D02*
X58793Y219157D01*
X60332Y221126D01*
X61501Y221269D01*
X63471Y219731D01*
X64496Y221044D02*
X66035Y223013D01*
X65891Y224183D01*
X64722Y224039D01*
X63696Y222726D01*
X62527Y222582D01*
X62384Y223752D01*
X63922Y225721D01*
X87500Y248500D02*
X86252Y251590D01*
X87172Y253759D01*
X89341Y252838D01*
X90590Y249748D01*
X89653Y252065D01*
X86564Y250817D01*
X90262Y255007D02*
X91822Y251145D01*
X92907Y250684D01*
X94452Y251309D01*
X94912Y252393D01*
X93352Y256255D01*
X94896Y256879D02*
X99858Y253493D01*
X97986Y258128D02*
X96769Y252245D01*
X106038Y255990D02*
X107582Y256614D01*
X106810Y256302D01*
X104938Y260936D01*
X104477Y259852D01*
X112989Y258798D02*
X109900Y257550D01*
X111741Y261888D01*
X111429Y262660D01*
X110345Y263121D01*
X108800Y262496D01*
X108339Y261412D01*
X112662Y264057D02*
X113910Y260967D01*
X116079Y260047D01*
X117000Y262216D01*
X115751Y265305D01*
X126696Y255500D02*
X128362D01*
X127529D01*
Y260498D01*
X126696Y259665D01*
X134194Y255500D02*
X130861D01*
X134194Y258832D01*
Y259665D01*
X133361Y260498D01*
X131694D01*
X130861Y259665D01*
X135860Y260498D02*
Y257166D01*
X137526Y255500D01*
X139192Y257166D01*
Y260498D01*
X149189Y255500D02*
X145856D01*
X149189Y258832D01*
Y259665D01*
X148356Y260498D01*
X146689D01*
X145856Y259665D01*
X150855Y255500D02*
Y256333D01*
X151688D01*
Y255500D01*
X150855D01*
X155020D02*
X156686D01*
X155853D01*
Y260498D01*
X155020Y259665D01*
X159186Y255500D02*
Y258832D01*
X160019D01*
X160852Y257999D01*
Y255500D01*
Y257999D01*
X161685Y258832D01*
X162518Y257999D01*
Y255500D01*
X164184D02*
Y258832D01*
X165017D01*
X165850Y257999D01*
Y255500D01*
Y257999D01*
X166683Y258832D01*
X167516Y257999D01*
Y255500D01*
X255972Y186457D02*
X260895Y187325D01*
X261329Y184863D01*
X260653Y183898D01*
X259012Y183609D01*
X258047Y184285D01*
X257613Y186746D01*
X260122Y182113D02*
X257661Y181679D01*
X256985Y180714D01*
X257419Y178253D01*
X260701Y178831D01*
X257708Y176612D02*
X260990Y177190D01*
X261135Y176370D01*
X260459Y175405D01*
X257998Y174971D01*
X260459Y175405D01*
X261424Y174729D01*
X260748Y173764D01*
X258287Y173330D01*
X256936Y171400D02*
X261858Y172268D01*
X262292Y169807D01*
X261616Y168842D01*
X259975Y168552D01*
X259010Y169228D01*
X258576Y171689D01*
D21*
X101360Y272022D02*
X102287Y272396D01*
X101824Y272209D01*
X100700Y274990D01*
X100424Y274339D01*
X273040Y174680D02*
X273214Y173695D01*
X273127Y174188D01*
X276080Y174708D01*
X275501Y175114D01*
M02*
