G04*
G04 #@! TF.GenerationSoftware,Altium Limited,Altium Designer,18.1.9 (240)*
G04*
G04 Layer_Color=16711935*
%FSLAX25Y25*%
%MOIN*%
G70*
G01*
G75*
%ADD13C,0.01000*%
%ADD128C,0.01500*%
%ADD141C,0.00100*%
D13*
X303661Y144421D02*
X303658Y145421D01*
X303649Y146422D01*
X303633Y147422D01*
X303611Y148422D01*
X303582Y149422D01*
X303547Y150422D01*
X303506Y151422D01*
X303458Y152421D01*
X303404Y153420D01*
X303344Y154419D01*
X303277Y155417D01*
X303204Y156415D01*
X303125Y157412D01*
X303039Y158409D01*
X302947Y159405D01*
X302849Y160401D01*
X302744Y161396D01*
X302633Y162390D01*
X302516Y163384D01*
X302392Y164376D01*
X302262Y165368D01*
X302126Y166360D01*
X301983Y167350D01*
X301835Y168339D01*
X301679Y169328D01*
X301518Y170315D01*
X301350Y171301D01*
X301177Y172287D01*
X300996Y173271D01*
X300810Y174254D01*
X300617Y175235D01*
X300418Y176216D01*
X300213Y177195D01*
X300002Y178173D01*
X299784Y179150D01*
X299561Y180125D01*
X299331Y181099D01*
X299095Y182071D01*
X298852Y183042D01*
X298604Y184011D01*
X298349Y184978D01*
X298089Y185944D01*
X297822Y186908D01*
X297549Y187871D01*
X297270Y188832D01*
X296985Y189791D01*
X296693Y190748D01*
X296396Y191703D01*
X296092Y192656D01*
X295783Y193608D01*
X295467Y194557D01*
X295146Y195505D01*
X294818Y196450D01*
X294485Y197393D01*
X294145Y198334D01*
X293800Y199273D01*
X293448Y200210D01*
X293091Y201144D01*
X292728Y202077D01*
X292358Y203007D01*
X291983Y203934D01*
X291602Y204859D01*
X291215Y205782D01*
X290823Y206702D01*
X290424Y207620D01*
X290019Y208535D01*
X289609Y209447D01*
X289193Y210357D01*
X288772Y211264D01*
X288344Y212169D01*
X287911Y213071D01*
X287472Y213970D01*
X287027Y214866D01*
X286577Y215759D01*
X286121Y216650D01*
X285659Y217537D01*
X285192Y218422D01*
X284719Y219303D01*
X284240Y220182D01*
X283756Y221058D01*
X283266Y221930D01*
X282771Y222799D01*
X282270Y223666D01*
X281764Y224529D01*
X281253Y225388D01*
X280735Y226245D01*
X280213Y227098D01*
X279685Y227948D01*
X279152Y228794D01*
X278613Y229637D01*
X278069Y230477D01*
X277519Y231313D01*
X276965Y232146D01*
X276405Y232975D01*
X275840Y233801D01*
X275269Y234622D01*
X274693Y235441D01*
X274113Y236255D01*
X273527Y237066D01*
X272936Y237873D01*
X272339Y238677D01*
X271738Y239476D01*
X271131Y240272D01*
X270520Y241064D01*
X269903Y241852D01*
X269282Y242636D01*
X268656Y243416D01*
X268024Y244192D01*
X267388Y244964D01*
X266747Y245732D01*
X266101Y246496D01*
X265450Y247256D01*
X264794Y248011D01*
X264134Y248763D01*
X263468Y249510D01*
X262798Y250253D01*
X262124Y250992D01*
X261444Y251726D01*
X260760Y252456D01*
X260071Y253182D01*
X259378Y253904D01*
X258680Y254620D01*
X257978Y255333D01*
X257271Y256041D01*
X256560Y256744D01*
X255844Y257443D01*
X255124Y258138D01*
X254399Y258828D01*
X253670Y259513D01*
X252937Y260193D01*
X252199Y260869D01*
X251457Y261540D01*
X250711Y262207D01*
X249960Y262869D01*
X249206Y263526D01*
X248447Y264178D01*
X247684Y264825D01*
X246917Y265467D01*
X246146Y266105D01*
X245371Y266737D01*
X244592Y267365D01*
X243809Y267988D01*
X243022Y268606D01*
X242231Y269218D01*
X241436Y269826D01*
X240638Y270429D01*
X239835Y271026D01*
X239029Y271619D01*
X238219Y272206D01*
X237405Y272788D01*
X236588Y273365D01*
X235767Y273937D01*
X234943Y274503D01*
X234114Y275064D01*
X233282Y275621D01*
X232447Y276171D01*
X231609Y276717D01*
X230766Y277257D01*
X229921Y277791D01*
X229072Y278321D01*
X228219Y278845D01*
X227364Y279363D01*
X226505Y279876D01*
X225643Y280384D01*
X224777Y280886D01*
X223909Y281382D01*
X223037Y281873D01*
X222162Y282359D01*
X221284Y282839D01*
X220404Y283313D01*
X219520Y283782D01*
X218633Y284245D01*
X217743Y284702D01*
X216850Y285154D01*
X215955Y285600D01*
X215056Y286041D01*
X214155Y286475D01*
X213252Y286904D01*
X212345Y287328D01*
X211436Y287745D01*
X210524Y288157D01*
X209610Y288563D01*
X208692Y288963D01*
X207773Y289357D01*
X206851Y289745D01*
X205926Y290128D01*
X204999Y290504D01*
X204070Y290875D01*
X203139Y291240D01*
X202205Y291599D01*
X201269Y291952D01*
X200330Y292299D01*
X199390Y292640D01*
X198447Y292975D01*
X197502Y293304D01*
X196555Y293627D01*
X195606Y293944D01*
X194655Y294255D01*
X193702Y294560D01*
X192748Y294859D01*
X191791Y295151D01*
X190832Y295438D01*
X189872Y295719D01*
X188910Y295993D01*
X187946Y296262D01*
X186981Y296524D01*
X186013Y296780D01*
X185045Y297030D01*
X184074Y297274D01*
X183103Y297512D01*
X182129Y297743D01*
X181154Y297968D01*
X180178Y298187D01*
X179201Y298400D01*
X178222Y298607D01*
X177242Y298808D01*
X176260Y299002D01*
X175277Y299190D01*
X174294Y299371D01*
X173309Y299547D01*
X172322Y299716D01*
X171335Y299879D01*
X170347Y300036D01*
X169358Y300186D01*
X168368Y300330D01*
X167377Y300468D01*
X166385Y300600D01*
X165393Y300725D01*
X164399Y300844D01*
X163405Y300956D01*
X162410Y301062D01*
X161415Y301162D01*
X160419Y301256D01*
X159422Y301343D01*
X158425Y301424D01*
X157427Y301499D01*
X156429Y301567D01*
X155430Y301629D01*
X154431Y301685D01*
X153432Y301734D01*
X152433Y301777D01*
X151433Y301813D01*
X150433Y301844D01*
X149433Y301867D01*
X148432Y301885D01*
X147432Y301896D01*
X146431Y301901D01*
X145431Y301899D01*
X144430Y301891D01*
X143430Y301877D01*
X142430Y301856D01*
X141430Y301829D01*
X140430Y301796D01*
X139430Y301756D01*
X138431Y301710D01*
X137432Y301658D01*
X136433Y301599D01*
X135434Y301534D01*
X134436Y301462D01*
X133439Y301385D01*
X132442Y301301D01*
X131446Y301210D01*
X130450Y301113D01*
X129455Y301010D01*
X128460Y300901D01*
X127466Y300785D01*
X126473Y300663D01*
X125481Y300535D01*
X124490Y300400D01*
X123499Y300259D01*
X122510Y300112D01*
X121521Y299958D01*
X120533Y299798D01*
X119547Y299632D01*
X118561Y299460D01*
X117577Y299281D01*
X116594Y299096D01*
X115612Y298905D01*
X114631Y298708D01*
X113651Y298504D01*
X112673Y298295D01*
X111696Y298079D01*
X110721Y297857D01*
X109746Y297628D01*
X108774Y297394D01*
X107803Y297153D01*
X106833Y296906D01*
X105865Y296653D01*
X104899Y296394D01*
X103934Y296128D01*
X102971Y295857D01*
X102010Y295579D01*
X101051Y295296D01*
X100093Y295006D01*
X99137Y294710D01*
X98184Y294408D01*
X97232Y294100D01*
X96282Y293786D01*
X95334Y293466D01*
X94388Y293140D01*
X93444Y292808D01*
X92502Y292470D01*
X91563Y292126D01*
X90626Y291776D01*
X89691Y291420D01*
X88758Y291058D01*
X87827Y290690D01*
X86899Y290317D01*
X85974Y289937D01*
X85050Y289552D01*
X84130Y289160D01*
X83211Y288763D01*
X82296Y288360D01*
X81382Y287952D01*
X80472Y287537D01*
X79564Y287117D01*
X78659Y286691D01*
X77756Y286259D01*
X76856Y285821D01*
X75960Y285378D01*
X75065Y284929D01*
X74174Y284474D01*
X73286Y284014D01*
X72400Y283548D01*
X71518Y283077D01*
X70639Y282599D01*
X69762Y282117D01*
X68889Y281628D01*
X68019Y281135D01*
X67152Y280635D01*
X66288Y280131D01*
X65428Y279620D01*
X64570Y279104D01*
X63716Y278583D01*
X62866Y278057D01*
X62018Y277525D01*
X61174Y276987D01*
X60334Y276445D01*
X59497Y275897D01*
X58663Y275343D01*
X57833Y274784D01*
X57007Y274220D01*
X56184Y273651D01*
X55365Y273077D01*
X54549Y272498D01*
X53738Y271913D01*
X52930Y271323D01*
X52125Y270728D01*
X51325Y270128D01*
X50528Y269523D01*
X49735Y268912D01*
X48946Y268297D01*
X48161Y267677D01*
X47380Y267052D01*
X46603Y266422D01*
X45830Y265787D01*
X45061Y265146D01*
X44296Y264502D01*
X43535Y263852D01*
X42779Y263197D01*
X42026Y262538D01*
X41278Y261874D01*
X40534Y261205D01*
X39794Y260532D01*
X39058Y259854D01*
X38327Y259171D01*
X37600Y258483D01*
X36878Y257791D01*
X36160Y257094D01*
X35446Y256393D01*
X34737Y255687D01*
X34033Y254977D01*
X33332Y254262D01*
X32637Y253543D01*
X31946Y252820D01*
X31260Y252092D01*
X30578Y251360D01*
X29901Y250623D01*
X29229Y249882D01*
X28561Y249137D01*
X27898Y248388D01*
X27240Y247634D01*
X26587Y246876D01*
X25938Y246115D01*
X25295Y245349D01*
X24656Y244579D01*
X24022Y243805D01*
X23393Y243026D01*
X22769Y242244D01*
X22150Y241458D01*
X21536Y240669D01*
X20927Y239875D01*
X20323Y239077D01*
X19725Y238276D01*
X19131Y237470D01*
X18542Y236661D01*
X17959Y235848D01*
X17381Y235032D01*
X16807Y234212D01*
X16240Y233388D01*
X15677Y232561D01*
X15120Y231730D01*
X14568Y230896D01*
X14021Y230058D01*
X13480Y229217D01*
X12944Y228372D01*
X12413Y227524D01*
X11888Y226672D01*
X11368Y225817D01*
X10853Y224959D01*
X10345Y224098D01*
X9841Y223233D01*
X9343Y222366D01*
X8851Y221495D01*
X8364Y220621D01*
X7883Y219744D01*
X7407Y218864D01*
X6937Y217980D01*
X6472Y217094D01*
X6013Y216205D01*
X5560Y215313D01*
X5113Y214419D01*
X4671Y213521D01*
X4235Y212620D01*
X3804Y211717D01*
X3380Y210811D01*
X2961Y209903D01*
X2548Y208992D01*
X2140Y208078D01*
X1739Y207162D01*
X1343Y206243D01*
X953Y205321D01*
X569Y204397D01*
X191Y203471D01*
X-181Y202542D01*
X-547Y201611D01*
X-908Y200678D01*
X-1262Y199743D01*
X-1610Y198805D01*
X-1953Y197865D01*
X-2290Y196923D01*
X-2620Y195978D01*
X-2945Y195032D01*
X-3263Y194084D01*
X-3576Y193133D01*
X-3882Y192181D01*
X-4183Y191226D01*
X-4477Y190270D01*
X-4765Y189312D01*
X-5047Y188352D01*
X-5323Y187391D01*
X-5593Y186427D01*
X-5857Y185462D01*
X-6115Y184496D01*
X-6366Y183527D01*
X-6612Y182557D01*
X-6851Y181586D01*
X-7084Y180613D01*
X-7311Y179639D01*
X-7531Y178663D01*
X-7746Y177685D01*
X-7954Y176707D01*
X-8156Y175727D01*
X-8352Y174746D01*
X-8541Y173764D01*
X-8725Y172780D01*
X-8902Y171795D01*
X-9072Y170810D01*
X-9237Y169823D01*
X-9395Y168835D01*
X-9547Y167846D01*
X-9693Y166856D01*
X-9832Y165866D01*
X-9965Y164874D01*
X-10092Y163882D01*
X-10212Y162888D01*
X-10327Y161894D01*
X-10435Y160900D01*
X-10536Y159905D01*
X-10631Y158909D01*
X-10720Y157912D01*
X-10803Y156915D01*
X-10879Y155917D01*
X-10949Y154919D01*
X-11012Y153921D01*
X-11069Y152922D01*
X-11120Y151923D01*
X-11165Y150924D01*
X-11203Y149924D01*
X-11235Y148924D01*
X-11260Y147924D01*
X-11279Y146923D01*
X-11292Y145923D01*
X-11298Y144922D01*
X-11298Y143922D01*
X-11292Y142922D01*
X-11279Y141921D01*
X-11260Y140921D01*
X-11235Y139921D01*
X-11203Y138921D01*
X-11165Y137921D01*
X-11120Y136922D01*
X-11070Y135923D01*
X-11012Y134924D01*
X-10949Y133925D01*
X-10879Y132927D01*
X-10803Y131930D01*
X-10720Y130932D01*
X-10632Y129936D01*
X-10536Y128940D01*
X-10435Y127945D01*
X-10327Y126950D01*
X-10213Y125956D01*
X-10092Y124963D01*
X-9966Y123971D01*
X-9833Y122979D01*
X-9693Y121988D01*
X-9548Y120999D01*
X-9396Y120010D01*
X-9237Y119022D01*
X-9073Y118035D01*
X-8902Y117049D01*
X-8725Y116065D01*
X-8542Y115081D01*
X-8352Y114099D01*
X-8157Y113118D01*
X-7955Y112138D01*
X-7746Y111159D01*
X-7532Y110182D01*
X-7311Y109206D01*
X-7085Y108231D01*
X-6852Y107259D01*
X-6612Y106287D01*
X-6367Y105317D01*
X-6115Y104349D01*
X-5858Y103382D01*
X-5594Y102417D01*
X-5324Y101454D01*
X-5048Y100492D01*
X-4766Y99532D01*
X-4478Y98574D01*
X-4183Y97618D01*
X-3883Y96664D01*
X-3577Y95711D01*
X-3264Y94761D01*
X-2946Y93813D01*
X-2621Y92866D01*
X-2291Y91922D01*
X-1954Y90980D01*
X-1612Y90040D01*
X-1263Y89102D01*
X-909Y88166D01*
X-549Y87233D01*
X-182Y86302D01*
X190Y85373D01*
X568Y84447D01*
X952Y83523D01*
X1342Y82602D01*
X1737Y81683D01*
X2139Y80766D01*
X2546Y79853D01*
X2959Y78941D01*
X3378Y78033D01*
X3803Y77127D01*
X4233Y76224D01*
X4669Y75323D01*
X5111Y74426D01*
X5559Y73531D01*
X6012Y72639D01*
X6471Y71750D01*
X6935Y70864D01*
X7405Y69981D01*
X7881Y69101D01*
X8362Y68224D01*
X8849Y67349D01*
X9342Y66479D01*
X9839Y65611D01*
X10343Y64746D01*
X10852Y63885D01*
X11366Y63027D01*
X11886Y62172D01*
X12411Y61320D01*
X12942Y60472D01*
X13478Y59627D01*
X14019Y58786D01*
X14566Y57948D01*
X15118Y57114D01*
X15675Y56283D01*
X16238Y55456D01*
X16806Y54632D01*
X17379Y53812D01*
X17957Y52995D01*
X18540Y52183D01*
X19129Y51374D01*
X19723Y50568D01*
X20321Y49767D01*
X20925Y48969D01*
X21534Y48175D01*
X22148Y47385D01*
X22767Y46600D01*
X23391Y45817D01*
X24020Y45039D01*
X24654Y44265D01*
X25292Y43495D01*
X25936Y42729D01*
X26585Y41967D01*
X27238Y41210D01*
X27896Y40456D01*
X28559Y39707D01*
X29226Y38962D01*
X29899Y38221D01*
X30576Y37484D01*
X31257Y36752D01*
X31944Y36024D01*
X32635Y35300D01*
X33330Y34581D01*
X34030Y33867D01*
X34735Y33156D01*
X35444Y32451D01*
X36158Y31749D01*
X36876Y31053D01*
X37598Y30360D01*
X38325Y29673D01*
X39056Y28990D01*
X39792Y28312D01*
X40531Y27638D01*
X41275Y26969D01*
X42024Y26305D01*
X42776Y25646D01*
X43533Y24992D01*
X44293Y24342D01*
X45058Y23697D01*
X45827Y23057D01*
X46600Y22422D01*
X47377Y21792D01*
X48159Y21166D01*
X48944Y20546D01*
X49733Y19931D01*
X50525Y19321D01*
X51322Y18715D01*
X52122Y18115D01*
X52927Y17520D01*
X53735Y16931D01*
X54547Y16346D01*
X55362Y15766D01*
X56181Y15192D01*
X57004Y14623D01*
X57831Y14059D01*
X58661Y13500D01*
X59494Y12947D01*
X60331Y12399D01*
X61172Y11856D01*
X62015Y11319D01*
X62863Y10787D01*
X63713Y10260D01*
X64567Y9739D01*
X65425Y9223D01*
X66285Y8713D01*
X67149Y8208D01*
X68016Y7709D01*
X68886Y7215D01*
X69759Y6726D01*
X70635Y6244D01*
X71515Y5767D01*
X72397Y5295D01*
X73282Y4829D01*
X74171Y4369D01*
X75062Y3914D01*
X75956Y3465D01*
X76853Y3022D01*
X77753Y2584D01*
X78655Y2152D01*
X79560Y1726D01*
X80468Y1306D01*
X81379Y891D01*
X82292Y483D01*
X83207Y79D01*
X84126Y-318D01*
X85046Y-709D01*
X85970Y-1094D01*
X86895Y-1474D01*
X87823Y-1848D01*
X88754Y-2215D01*
X89687Y-2577D01*
X90622Y-2933D01*
X91559Y-3283D01*
X92498Y-3627D01*
X93440Y-3965D01*
X94384Y-4297D01*
X95329Y-4623D01*
X96277Y-4944D01*
X97227Y-5257D01*
X98179Y-5565D01*
X99133Y-5867D01*
X100089Y-6163D01*
X101046Y-6453D01*
X102006Y-6737D01*
X102967Y-7014D01*
X103930Y-7286D01*
X104894Y-7551D01*
X105861Y-7811D01*
X106829Y-8063D01*
X107798Y-8310D01*
X108769Y-8551D01*
X109742Y-8786D01*
X110716Y-9014D01*
X111691Y-9236D01*
X112668Y-9453D01*
X113647Y-9662D01*
X114626Y-9866D01*
X115607Y-10063D01*
X116589Y-10254D01*
X117572Y-10439D01*
X118557Y-10618D01*
X119543Y-10790D01*
X120529Y-10956D01*
X121517Y-11116D01*
X122505Y-11270D01*
X123495Y-11417D01*
X124486Y-11558D01*
X125477Y-11693D01*
X126469Y-11821D01*
X127462Y-11943D01*
X128456Y-12059D01*
X129451Y-12168D01*
X130446Y-12271D01*
X131441Y-12368D01*
X132438Y-12459D01*
X133435Y-12543D01*
X134432Y-12621D01*
X135430Y-12692D01*
X136429Y-12757D01*
X137427Y-12816D01*
X138427Y-12869D01*
X139426Y-12915D01*
X140426Y-12955D01*
X141426Y-12988D01*
X142426Y-13015D01*
X143426Y-13036D01*
X144427Y-13050D01*
X145427Y-13058D01*
X146428Y-13059D01*
X147428Y-13055D01*
X148428Y-13044D01*
X149429Y-13026D01*
X150429Y-13002D01*
X151429Y-12972D01*
X152429Y-12936D01*
X153428Y-12893D01*
X154428Y-12844D01*
X155427Y-12788D01*
X156425Y-12726D01*
X157424Y-12658D01*
X158421Y-12583D01*
X159418Y-12502D01*
X160415Y-12415D01*
X161411Y-12321D01*
X162407Y-12222D01*
X163402Y-12115D01*
X164396Y-12003D01*
X165389Y-11884D01*
X166382Y-11759D01*
X167374Y-11627D01*
X168365Y-11489D01*
X169355Y-11345D01*
X170344Y-11195D01*
X171332Y-11038D01*
X172319Y-10875D01*
X173305Y-10706D01*
X174290Y-10531D01*
X175274Y-10349D01*
X176257Y-10161D01*
X177238Y-9967D01*
X178219Y-9766D01*
X179198Y-9560D01*
X180175Y-9347D01*
X181151Y-9128D01*
X182126Y-8903D01*
X183100Y-8671D01*
X184071Y-8433D01*
X185042Y-8190D01*
X186011Y-7940D01*
X186978Y-7684D01*
X187943Y-7421D01*
X188907Y-7153D01*
X189869Y-6878D01*
X190830Y-6598D01*
X191788Y-6311D01*
X192745Y-6018D01*
X193700Y-5720D01*
X194653Y-5415D01*
X195604Y-5104D01*
X196553Y-4787D01*
X197499Y-4464D01*
X198444Y-4135D01*
X199387Y-3799D01*
X200328Y-3458D01*
X201266Y-3111D01*
X202202Y-2758D01*
X203136Y-2400D01*
X204068Y-2035D01*
X204997Y-1664D01*
X205924Y-1288D01*
X206849Y-905D01*
X207770Y-517D01*
X208690Y-122D01*
X209607Y278D01*
X210522Y684D01*
X211434Y1095D01*
X212343Y1513D01*
X213249Y1936D01*
X214153Y2365D01*
X215054Y2799D01*
X215953Y3240D01*
X216848Y3686D01*
X217741Y4138D01*
X218631Y4595D01*
X219518Y5058D01*
X220402Y5527D01*
X221283Y6002D01*
X222160Y6481D01*
X223035Y6967D01*
X223907Y7458D01*
X224776Y7955D01*
X225641Y8457D01*
X226503Y8964D01*
X227362Y9477D01*
X228218Y9996D01*
X229070Y10520D01*
X229919Y11049D01*
X230765Y11584D01*
X231607Y12124D01*
X232446Y12669D01*
X233281Y13220D01*
X234113Y13776D01*
X234941Y14337D01*
X235766Y14904D01*
X236587Y15475D01*
X237404Y16052D01*
X238218Y16635D01*
X239028Y17222D01*
X239834Y17814D01*
X240637Y18412D01*
X241435Y19014D01*
X242230Y19622D01*
X243021Y20235D01*
X243808Y20853D01*
X244591Y21475D01*
X245370Y22103D01*
X246145Y22736D01*
X246916Y23373D01*
X247683Y24016D01*
X248446Y24663D01*
X249205Y25315D01*
X249960Y25972D01*
X250710Y26634D01*
X251456Y27300D01*
X252198Y27971D01*
X252936Y28647D01*
X253669Y29328D01*
X254398Y30013D01*
X255123Y30703D01*
X255843Y31397D01*
X256559Y32096D01*
X257271Y32800D01*
X257978Y33508D01*
X258680Y34220D01*
X259378Y34937D01*
X260071Y35659D01*
X260760Y36384D01*
X261444Y37115D01*
X262123Y37849D01*
X262798Y38588D01*
X263468Y39331D01*
X264133Y40078D01*
X264794Y40830D01*
X265450Y41585D01*
X266100Y42345D01*
X266746Y43109D01*
X267388Y43877D01*
X268024Y44649D01*
X268655Y45425D01*
X269282Y46205D01*
X269903Y46989D01*
X270520Y47777D01*
X271131Y48569D01*
X271738Y49365D01*
X272339Y50165D01*
X272936Y50968D01*
X273527Y51775D01*
X274113Y52586D01*
X274694Y53401D01*
X275269Y54219D01*
X275840Y55041D01*
X276405Y55866D01*
X276965Y56696D01*
X277520Y57528D01*
X278069Y58364D01*
X278613Y59204D01*
X279152Y60047D01*
X279685Y60894D01*
X280213Y61744D01*
X280736Y62597D01*
X281253Y63453D01*
X281765Y64313D01*
X282271Y65176D01*
X282771Y66042D01*
X283267Y66912D01*
X283756Y67784D01*
X284240Y68660D01*
X284719Y69538D01*
X285192Y70420D01*
X285659Y71305D01*
X286121Y72192D01*
X286577Y73083D01*
X287027Y73976D01*
X287472Y74872D01*
X287911Y75771D01*
X288344Y76673D01*
X288772Y77578D01*
X289194Y78485D01*
X289610Y79395D01*
X290020Y80308D01*
X290424Y81223D01*
X290823Y82140D01*
X291216Y83061D01*
X291603Y83983D01*
X291984Y84908D01*
X292359Y85836D01*
X292728Y86766D01*
X293091Y87698D01*
X293449Y88632D01*
X293800Y89569D01*
X294146Y90508D01*
X294485Y91449D01*
X294819Y92392D01*
X295146Y93338D01*
X295468Y94285D01*
X295783Y95235D01*
X296093Y96186D01*
X296396Y97140D01*
X296694Y98095D01*
X296985Y99052D01*
X297270Y100011D01*
X297549Y100972D01*
X297822Y101935D01*
X298089Y102899D01*
X298350Y103865D01*
X298604Y104832D01*
X298853Y105801D01*
X299095Y106772D01*
X299331Y107744D01*
X299561Y108718D01*
X299785Y109693D01*
X300002Y110670D01*
X300214Y111648D01*
X300419Y112627D01*
X300618Y113608D01*
X300810Y114589D01*
X300997Y115572D01*
X301177Y116557D01*
X301351Y117542D01*
X301518Y118528D01*
X301680Y119516D01*
X301835Y120504D01*
X301984Y121493D01*
X302126Y122484D01*
X302262Y123475D01*
X302392Y124467D01*
X302516Y125460D01*
X302633Y126453D01*
X302744Y127448D01*
X302849Y128443D01*
X302947Y129438D01*
X303039Y130435D01*
X303125Y131431D01*
X303204Y132429D01*
X303277Y133427D01*
X303344Y134425D01*
X303404Y135424D01*
X303458Y136423D01*
X303506Y137422D01*
X303547Y138422D01*
X303582Y139422D01*
X303611Y140422D01*
X303633Y141422D01*
X303649Y142422D01*
X303658Y143423D01*
X303661Y144421D01*
X289662Y482748D02*
Y476750D01*
X292661D01*
X293660Y477750D01*
Y478749D01*
X292661Y479749D01*
X289662D01*
X292661D01*
X293660Y480749D01*
Y481748D01*
X292661Y482748D01*
X289662D01*
X296659Y476750D02*
X298659D01*
X299658Y477750D01*
Y479749D01*
X298659Y480749D01*
X296659D01*
X295660Y479749D01*
Y477750D01*
X296659Y476750D01*
X302658Y480749D02*
X304657D01*
X305657Y479749D01*
Y476750D01*
X302658D01*
X301658Y477750D01*
X302658Y478749D01*
X305657D01*
X307656Y480749D02*
Y476750D01*
Y478749D01*
X308656Y479749D01*
X309655Y480749D01*
X310655D01*
X317653Y482748D02*
Y476750D01*
X314654D01*
X313654Y477750D01*
Y479749D01*
X314654Y480749D01*
X317653D01*
X325650Y482748D02*
Y476750D01*
X329649D01*
X332648Y480749D02*
X334647D01*
X335647Y479749D01*
Y476750D01*
X332648D01*
X331648Y477750D01*
X332648Y478749D01*
X335647D01*
X337646Y480749D02*
Y477750D01*
X338646Y476750D01*
X341645D01*
Y475750D01*
X340645Y474751D01*
X339646D01*
X341645Y476750D02*
Y480749D01*
X346643Y476750D02*
X344644D01*
X343644Y477750D01*
Y479749D01*
X344644Y480749D01*
X346643D01*
X347643Y479749D01*
Y478749D01*
X343644D01*
X349642Y480749D02*
Y476750D01*
Y478749D01*
X350642Y479749D01*
X351642Y480749D01*
X352641D01*
X365637Y481748D02*
X364637Y482748D01*
X362638D01*
X361638Y481748D01*
Y480749D01*
X362638Y479749D01*
X364637D01*
X365637Y478749D01*
Y477750D01*
X364637Y476750D01*
X362638D01*
X361638Y477750D01*
X368636Y481748D02*
Y480749D01*
X367636D01*
X369636D01*
X368636D01*
Y477750D01*
X369636Y476750D01*
X373635Y480749D02*
X375634D01*
X376634Y479749D01*
Y476750D01*
X373635D01*
X372635Y477750D01*
X373635Y478749D01*
X376634D01*
X382632Y480749D02*
X379633D01*
X378633Y479749D01*
Y477750D01*
X379633Y476750D01*
X382632D01*
X384631D02*
Y482748D01*
Y478749D02*
X387630Y480749D01*
X384631Y478749D02*
X387630Y476750D01*
X232676Y457748D02*
X233675Y458748D01*
X235675D01*
X236674Y457748D01*
Y456749D01*
X235675Y455749D01*
X234675D01*
X235675D01*
X236674Y454749D01*
Y453750D01*
X235675Y452750D01*
X233675D01*
X232676Y453750D01*
X238674Y452750D02*
Y453750D01*
X239673D01*
Y452750D01*
X238674D01*
X243672Y457748D02*
X244672Y458748D01*
X246671D01*
X247671Y457748D01*
Y456749D01*
X246671Y455749D01*
X247671Y454749D01*
Y453750D01*
X246671Y452750D01*
X244672D01*
X243672Y453750D01*
Y454749D01*
X244672Y455749D01*
X243672Y456749D01*
Y457748D01*
X244672Y455749D02*
X246671D01*
X235675Y428750D02*
Y434748D01*
X232676Y431749D01*
X236674D01*
X238674Y428750D02*
Y429750D01*
X239673D01*
Y428750D01*
X238674D01*
X243672Y433748D02*
X244672Y434748D01*
X246671D01*
X247671Y433748D01*
Y429750D01*
X246671Y428750D01*
X244672D01*
X243672Y429750D01*
Y433748D01*
X253669Y434748D02*
X249670D01*
Y431749D01*
X251670Y432749D01*
X252669D01*
X253669Y431749D01*
Y429750D01*
X252669Y428750D01*
X250670D01*
X249670Y429750D01*
X235675Y404750D02*
Y410748D01*
X232676Y407749D01*
X236674D01*
X238674Y404750D02*
Y405750D01*
X239673D01*
Y404750D01*
X238674D01*
X247671Y410748D02*
X243672D01*
Y407749D01*
X245671Y408749D01*
X246671D01*
X247671Y407749D01*
Y405750D01*
X246671Y404750D01*
X244672D01*
X243672Y405750D01*
X235675Y380750D02*
Y386748D01*
X232676Y383749D01*
X236674D01*
X238674Y380750D02*
Y381750D01*
X239673D01*
Y380750D01*
X238674D01*
X243672Y385748D02*
X244672Y386748D01*
X246671D01*
X247671Y385748D01*
Y381750D01*
X246671Y380750D01*
X244672D01*
X243672Y381750D01*
Y385748D01*
X253669Y386748D02*
X249670D01*
Y383749D01*
X251670Y384749D01*
X252669D01*
X253669Y383749D01*
Y381750D01*
X252669Y380750D01*
X250670D01*
X249670Y381750D01*
X232676Y361748D02*
X233675Y362748D01*
X235675D01*
X236674Y361748D01*
Y360749D01*
X235675Y359749D01*
X234675D01*
X235675D01*
X236674Y358749D01*
Y357750D01*
X235675Y356750D01*
X233675D01*
X232676Y357750D01*
X238674Y356750D02*
Y357750D01*
X239673D01*
Y356750D01*
X238674D01*
X243672Y361748D02*
X244672Y362748D01*
X246671D01*
X247671Y361748D01*
Y360749D01*
X246671Y359749D01*
X247671Y358749D01*
Y357750D01*
X246671Y356750D01*
X244672D01*
X243672Y357750D01*
Y358749D01*
X244672Y359749D01*
X243672Y360749D01*
Y361748D01*
X244672Y359749D02*
X246671D01*
X236674Y481748D02*
X235675Y482748D01*
X233675D01*
X232676Y481748D01*
Y477750D01*
X233675Y476750D01*
X235675D01*
X236674Y477750D01*
X239673Y476750D02*
X241673D01*
X242672Y477750D01*
Y479749D01*
X241673Y480749D01*
X239673D01*
X238674Y479749D01*
Y477750D01*
X239673Y476750D01*
X244672D02*
Y480749D01*
X247671D01*
X248670Y479749D01*
Y476750D01*
X250670D02*
X253669D01*
X254668Y477750D01*
X253669Y478749D01*
X251670D01*
X250670Y479749D01*
X251670Y480749D01*
X254668D01*
X257667Y481748D02*
Y480749D01*
X256668D01*
X258667D01*
X257667D01*
Y477750D01*
X258667Y476750D01*
X262666Y480749D02*
X264665D01*
X265665Y479749D01*
Y476750D01*
X262666D01*
X261666Y477750D01*
X262666Y478749D01*
X265665D01*
X267664Y476750D02*
Y480749D01*
X270663D01*
X271663Y479749D01*
Y476750D01*
X274662Y481748D02*
Y480749D01*
X273662D01*
X275662D01*
X274662D01*
Y477750D01*
X275662Y476750D01*
X167692Y457748D02*
X168692Y458748D01*
X170691D01*
X171691Y457748D01*
Y453750D01*
X170691Y452750D01*
X168692D01*
X167692Y453750D01*
Y457748D01*
X173690Y452750D02*
Y453750D01*
X174690D01*
Y452750D01*
X173690D01*
X182687Y458748D02*
X178689D01*
Y455749D01*
X180688Y456749D01*
X181688D01*
X182687Y455749D01*
Y453750D01*
X181688Y452750D01*
X179688D01*
X178689Y453750D01*
X184687D02*
X185686Y452750D01*
X187686D01*
X188685Y453750D01*
Y457748D01*
X187686Y458748D01*
X185686D01*
X184687Y457748D01*
Y456749D01*
X185686Y455749D01*
X188685D01*
X190685Y452750D02*
Y456749D01*
X191684D01*
X192684Y455749D01*
Y452750D01*
Y455749D01*
X193684Y456749D01*
X194683Y455749D01*
Y452750D01*
X196683D02*
X198682D01*
X197682D01*
Y456749D01*
X196683D01*
X201681Y452750D02*
X203680D01*
X202681D01*
Y458748D01*
X201681D01*
X167692Y440750D02*
X169692D01*
X168692D01*
Y446748D01*
X167692Y445748D01*
X172690Y440750D02*
Y441750D01*
X173690D01*
Y440750D01*
X172690D01*
X177689Y445748D02*
X178689Y446748D01*
X180688D01*
X181688Y445748D01*
Y444749D01*
X180688Y443749D01*
X179688D01*
X180688D01*
X181688Y442749D01*
Y441750D01*
X180688Y440750D01*
X178689D01*
X177689Y441750D01*
X183687Y445748D02*
X184687Y446748D01*
X186686D01*
X187686Y445748D01*
Y444749D01*
X186686Y443749D01*
X187686Y442749D01*
Y441750D01*
X186686Y440750D01*
X184687D01*
X183687Y441750D01*
Y442749D01*
X184687Y443749D01*
X183687Y444749D01*
Y445748D01*
X184687Y443749D02*
X186686D01*
X189685Y440750D02*
Y444749D01*
X190685D01*
X191684Y443749D01*
Y440750D01*
Y443749D01*
X192684Y444749D01*
X193684Y443749D01*
Y440750D01*
X195683D02*
X197682D01*
X196683D01*
Y444749D01*
X195683D01*
X200681Y440750D02*
X202681D01*
X201681D01*
Y446748D01*
X200681D01*
X167692Y433748D02*
X168692Y434748D01*
X170691D01*
X171691Y433748D01*
Y432749D01*
X170691Y431749D01*
X169692D01*
X170691D01*
X171691Y430749D01*
Y429750D01*
X170691Y428750D01*
X168692D01*
X167692Y429750D01*
X173690Y428750D02*
Y429750D01*
X174690D01*
Y428750D01*
X173690D01*
X178689Y429750D02*
X179688Y428750D01*
X181688D01*
X182687Y429750D01*
Y433748D01*
X181688Y434748D01*
X179688D01*
X178689Y433748D01*
Y432749D01*
X179688Y431749D01*
X182687D01*
X187686Y428750D02*
Y434748D01*
X184687Y431749D01*
X188685D01*
X190685Y428750D02*
Y432749D01*
X191684D01*
X192684Y431749D01*
Y428750D01*
Y431749D01*
X193684Y432749D01*
X194683Y431749D01*
Y428750D01*
X196683D02*
X198682D01*
X197682D01*
Y432749D01*
X196683D01*
X201681Y428750D02*
X203680D01*
X202681D01*
Y434748D01*
X201681D01*
X167692Y421748D02*
X168692Y422748D01*
X170691D01*
X171691Y421748D01*
Y417750D01*
X170691Y416750D01*
X168692D01*
X167692Y417750D01*
Y421748D01*
X173690Y416750D02*
Y417750D01*
X174690D01*
Y416750D01*
X173690D01*
X182687Y422748D02*
X180688Y421748D01*
X178689Y419749D01*
Y417750D01*
X179688Y416750D01*
X181688D01*
X182687Y417750D01*
Y418749D01*
X181688Y419749D01*
X178689D01*
X184687Y417750D02*
X185686Y416750D01*
X187686D01*
X188685Y417750D01*
Y421748D01*
X187686Y422748D01*
X185686D01*
X184687Y421748D01*
Y420749D01*
X185686Y419749D01*
X188685D01*
X190685Y416750D02*
Y420749D01*
X191684D01*
X192684Y419749D01*
Y416750D01*
Y419749D01*
X193684Y420749D01*
X194683Y419749D01*
Y416750D01*
X196683D02*
X198682D01*
X197682D01*
Y420749D01*
X196683D01*
X201681Y416750D02*
X203680D01*
X202681D01*
Y422748D01*
X201681D01*
X170691Y404750D02*
Y410748D01*
X167692Y407749D01*
X171691D01*
X173690Y405750D02*
X174690Y404750D01*
X176689D01*
X177689Y405750D01*
Y409748D01*
X176689Y410748D01*
X174690D01*
X173690Y409748D01*
Y408749D01*
X174690Y407749D01*
X177689D01*
X179688Y404750D02*
Y405750D01*
X180688D01*
Y404750D01*
X179688D01*
X184687Y409748D02*
X185686Y410748D01*
X187686D01*
X188685Y409748D01*
Y408749D01*
X187686Y407749D01*
X188685Y406749D01*
Y405750D01*
X187686Y404750D01*
X185686D01*
X184687Y405750D01*
Y406749D01*
X185686Y407749D01*
X184687Y408749D01*
Y409748D01*
X185686Y407749D02*
X187686D01*
X190685Y409748D02*
X191684Y410748D01*
X193684D01*
X194683Y409748D01*
Y405750D01*
X193684Y404750D01*
X191684D01*
X190685Y405750D01*
Y409748D01*
X196683Y404750D02*
Y408749D01*
X197682D01*
X198682Y407749D01*
Y404750D01*
Y407749D01*
X199682Y408749D01*
X200681Y407749D01*
Y404750D01*
X202681D02*
X204680D01*
X203680D01*
Y408749D01*
X202681D01*
X207679Y404750D02*
X209679D01*
X208679D01*
Y410748D01*
X207679D01*
X167692Y397748D02*
X168692Y398748D01*
X170691D01*
X171691Y397748D01*
Y393750D01*
X170691Y392750D01*
X168692D01*
X167692Y393750D01*
Y397748D01*
X173690Y392750D02*
Y393750D01*
X174690D01*
Y392750D01*
X173690D01*
X182687Y398748D02*
X180688Y397748D01*
X178689Y395749D01*
Y393750D01*
X179688Y392750D01*
X181688D01*
X182687Y393750D01*
Y394749D01*
X181688Y395749D01*
X178689D01*
X184687Y393750D02*
X185686Y392750D01*
X187686D01*
X188685Y393750D01*
Y397748D01*
X187686Y398748D01*
X185686D01*
X184687Y397748D01*
Y396749D01*
X185686Y395749D01*
X188685D01*
X190685Y392750D02*
Y396749D01*
X191684D01*
X192684Y395749D01*
Y392750D01*
Y395749D01*
X193684Y396749D01*
X194683Y395749D01*
Y392750D01*
X196683D02*
X198682D01*
X197682D01*
Y396749D01*
X196683D01*
X201681Y392750D02*
X203680D01*
X202681D01*
Y398748D01*
X201681D01*
X167692Y385748D02*
X168692Y386748D01*
X170691D01*
X171691Y385748D01*
Y384749D01*
X170691Y383749D01*
X169692D01*
X170691D01*
X171691Y382749D01*
Y381750D01*
X170691Y380750D01*
X168692D01*
X167692Y381750D01*
X173690Y380750D02*
Y381750D01*
X174690D01*
Y380750D01*
X173690D01*
X178689Y381750D02*
X179688Y380750D01*
X181688D01*
X182687Y381750D01*
Y385748D01*
X181688Y386748D01*
X179688D01*
X178689Y385748D01*
Y384749D01*
X179688Y383749D01*
X182687D01*
X187686Y380750D02*
Y386748D01*
X184687Y383749D01*
X188685D01*
X190685Y380750D02*
Y384749D01*
X191684D01*
X192684Y383749D01*
Y380750D01*
Y383749D01*
X193684Y384749D01*
X194683Y383749D01*
Y380750D01*
X196683D02*
X198682D01*
X197682D01*
Y384749D01*
X196683D01*
X201681Y380750D02*
X203680D01*
X202681D01*
Y386748D01*
X201681D01*
X167692Y368750D02*
X169692D01*
X168692D01*
Y374748D01*
X167692Y373748D01*
X172690Y368750D02*
Y369750D01*
X173690D01*
Y368750D01*
X172690D01*
X177689Y373748D02*
X178689Y374748D01*
X180688D01*
X181688Y373748D01*
Y372749D01*
X180688Y371749D01*
X179688D01*
X180688D01*
X181688Y370749D01*
Y369750D01*
X180688Y368750D01*
X178689D01*
X177689Y369750D01*
X183687Y373748D02*
X184687Y374748D01*
X186686D01*
X187686Y373748D01*
Y372749D01*
X186686Y371749D01*
X187686Y370749D01*
Y369750D01*
X186686Y368750D01*
X184687D01*
X183687Y369750D01*
Y370749D01*
X184687Y371749D01*
X183687Y372749D01*
Y373748D01*
X184687Y371749D02*
X186686D01*
X189685Y368750D02*
Y372749D01*
X190685D01*
X191684Y371749D01*
Y368750D01*
Y371749D01*
X192684Y372749D01*
X193684Y371749D01*
Y368750D01*
X195683D02*
X197682D01*
X196683D01*
Y372749D01*
X195683D01*
X200681Y368750D02*
X202681D01*
X201681D01*
Y374748D01*
X200681D01*
X167692Y361748D02*
X168692Y362748D01*
X170691D01*
X171691Y361748D01*
Y357750D01*
X170691Y356750D01*
X168692D01*
X167692Y357750D01*
Y361748D01*
X173690Y356750D02*
Y357750D01*
X174690D01*
Y356750D01*
X173690D01*
X182687Y362748D02*
X178689D01*
Y359749D01*
X180688Y360749D01*
X181688D01*
X182687Y359749D01*
Y357750D01*
X181688Y356750D01*
X179688D01*
X178689Y357750D01*
X184687D02*
X185686Y356750D01*
X187686D01*
X188685Y357750D01*
Y361748D01*
X187686Y362748D01*
X185686D01*
X184687Y361748D01*
Y360749D01*
X185686Y359749D01*
X188685D01*
X190685Y356750D02*
Y360749D01*
X191684D01*
X192684Y359749D01*
Y356750D01*
Y359749D01*
X193684Y360749D01*
X194683Y359749D01*
Y356750D01*
X196683D02*
X198682D01*
X197682D01*
Y360749D01*
X196683D01*
X201681Y356750D02*
X203680D01*
X202681D01*
Y362748D01*
X201681D01*
X167692Y482748D02*
X171691D01*
X169692D01*
Y476750D01*
X173690Y482748D02*
Y476750D01*
Y479749D01*
X174690Y480749D01*
X176689D01*
X177689Y479749D01*
Y476750D01*
X179688D02*
X181688D01*
X180688D01*
Y480749D01*
X179688D01*
X188685D02*
X185686D01*
X184687Y479749D01*
Y477750D01*
X185686Y476750D01*
X188685D01*
X190685D02*
Y482748D01*
Y478749D02*
X193684Y480749D01*
X190685Y478749D02*
X193684Y476750D01*
X196683D02*
Y480749D01*
X199682D01*
X200681Y479749D01*
Y476750D01*
X205680D02*
X203680D01*
X202681Y477750D01*
Y479749D01*
X203680Y480749D01*
X205680D01*
X206680Y479749D01*
Y478749D01*
X202681D01*
X208679Y476750D02*
X211678D01*
X212678Y477750D01*
X211678Y478749D01*
X209679D01*
X208679Y479749D01*
X209679Y480749D01*
X212678D01*
X214677Y476750D02*
X217676D01*
X218676Y477750D01*
X217676Y478749D01*
X215677D01*
X214677Y479749D01*
X215677Y480749D01*
X218676D01*
X85714Y457748D02*
X84714Y458748D01*
X82715D01*
X81715Y457748D01*
Y456749D01*
X82715Y455749D01*
X84714D01*
X85714Y454749D01*
Y453750D01*
X84714Y452750D01*
X82715D01*
X81715Y453750D01*
X88713Y452750D02*
X90712D01*
X91712Y453750D01*
Y455749D01*
X90712Y456749D01*
X88713D01*
X87713Y455749D01*
Y453750D01*
X88713Y452750D01*
X93712D02*
X95711D01*
X94711D01*
Y458748D01*
X93712D01*
X102709D02*
Y452750D01*
X99710D01*
X98710Y453750D01*
Y455749D01*
X99710Y456749D01*
X102709D01*
X107707Y452750D02*
X105708D01*
X104708Y453750D01*
Y455749D01*
X105708Y456749D01*
X107707D01*
X108707Y455749D01*
Y454749D01*
X104708D01*
X110706Y456749D02*
Y452750D01*
Y454749D01*
X111706Y455749D01*
X112705Y456749D01*
X113705D01*
X122702Y452750D02*
Y458748D01*
X125701D01*
X126701Y457748D01*
Y455749D01*
X125701Y454749D01*
X122702D01*
X124701D02*
X126701Y452750D01*
X131699D02*
X129700D01*
X128700Y453750D01*
Y455749D01*
X129700Y456749D01*
X131699D01*
X132699Y455749D01*
Y454749D01*
X128700D01*
X134698Y452750D02*
X137697D01*
X138697Y453750D01*
X137697Y454749D01*
X135698D01*
X134698Y455749D01*
X135698Y456749D01*
X138697D01*
X140696Y452750D02*
X142696D01*
X141696D01*
Y456749D01*
X140696D01*
X145695Y452750D02*
X148694D01*
X149693Y453750D01*
X148694Y454749D01*
X146694D01*
X145695Y455749D01*
X146694Y456749D01*
X149693D01*
X152692Y457748D02*
Y456749D01*
X151693D01*
X153692D01*
X152692D01*
Y453750D01*
X153692Y452750D01*
X85714Y445748D02*
X84714Y446748D01*
X82715D01*
X81715Y445748D01*
Y441750D01*
X82715Y440750D01*
X84714D01*
X85714Y441750D01*
X88713Y440750D02*
X90712D01*
X91712Y441750D01*
Y443749D01*
X90712Y444749D01*
X88713D01*
X87713Y443749D01*
Y441750D01*
X88713Y440750D01*
X93712Y438751D02*
Y444749D01*
X96711D01*
X97710Y443749D01*
Y441750D01*
X96711Y440750D01*
X93712D01*
X99710Y438751D02*
Y444749D01*
X102709D01*
X103708Y443749D01*
Y441750D01*
X102709Y440750D01*
X99710D01*
X108707D02*
X106707D01*
X105708Y441750D01*
Y443749D01*
X106707Y444749D01*
X108707D01*
X109706Y443749D01*
Y442749D01*
X105708D01*
X111706Y444749D02*
Y440750D01*
Y442749D01*
X112705Y443749D01*
X113705Y444749D01*
X114705D01*
X85714Y428750D02*
X81715D01*
X85714Y432749D01*
Y433748D01*
X84714Y434748D01*
X82715D01*
X81715Y433748D01*
X87713D02*
X88713Y434748D01*
X90712D01*
X91712Y433748D01*
Y432749D01*
X90712Y431749D01*
X89713D01*
X90712D01*
X91712Y430749D01*
Y429750D01*
X90712Y428750D01*
X88713D01*
X87713Y429750D01*
X93712Y428750D02*
X95711D01*
X94711D01*
Y434748D01*
X93712Y433748D01*
X98710D02*
X99710Y434748D01*
X101709D01*
X102709Y433748D01*
Y432749D01*
X101709Y431749D01*
X100709D01*
X101709D01*
X102709Y430749D01*
Y429750D01*
X101709Y428750D01*
X99710D01*
X98710Y429750D01*
X85714Y421748D02*
X84714Y422748D01*
X82715D01*
X81715Y421748D01*
Y417750D01*
X82715Y416750D01*
X84714D01*
X85714Y417750D01*
X88713Y416750D02*
X90712D01*
X91712Y417750D01*
Y419749D01*
X90712Y420749D01*
X88713D01*
X87713Y419749D01*
Y417750D01*
X88713Y416750D01*
X93712Y414751D02*
Y420749D01*
X96711D01*
X97710Y419749D01*
Y417750D01*
X96711Y416750D01*
X93712D01*
X99710Y414751D02*
Y420749D01*
X102709D01*
X103708Y419749D01*
Y417750D01*
X102709Y416750D01*
X99710D01*
X108707D02*
X106707D01*
X105708Y417750D01*
Y419749D01*
X106707Y420749D01*
X108707D01*
X109706Y419749D01*
Y418749D01*
X105708D01*
X111706Y420749D02*
Y416750D01*
Y418749D01*
X112705Y419749D01*
X113705Y420749D01*
X114705D01*
X85714Y410748D02*
X81715D01*
Y407749D01*
X83715D01*
X81715D01*
Y404750D01*
X87713D02*
Y410748D01*
X90712D01*
X91712Y409748D01*
Y407749D01*
X90712Y406749D01*
X87713D01*
X89713D02*
X91712Y404750D01*
X93712Y407749D02*
X97710D01*
X102709Y404750D02*
Y410748D01*
X99710Y407749D01*
X103708D01*
X85714Y397748D02*
X84714Y398748D01*
X82715D01*
X81715Y397748D01*
Y393750D01*
X82715Y392750D01*
X84714D01*
X85714Y393750D01*
X88713Y392750D02*
X90712D01*
X91712Y393750D01*
Y395749D01*
X90712Y396749D01*
X88713D01*
X87713Y395749D01*
Y393750D01*
X88713Y392750D01*
X93712Y390751D02*
Y396749D01*
X96711D01*
X97710Y395749D01*
Y393750D01*
X96711Y392750D01*
X93712D01*
X99710Y390751D02*
Y396749D01*
X102709D01*
X103708Y395749D01*
Y393750D01*
X102709Y392750D01*
X99710D01*
X108707D02*
X106707D01*
X105708Y393750D01*
Y395749D01*
X106707Y396749D01*
X108707D01*
X109706Y395749D01*
Y394749D01*
X105708D01*
X111706Y396749D02*
Y392750D01*
Y394749D01*
X112705Y395749D01*
X113705Y396749D01*
X114705D01*
X85714Y380750D02*
X81715D01*
X85714Y384749D01*
Y385748D01*
X84714Y386748D01*
X82715D01*
X81715Y385748D01*
X87713D02*
X88713Y386748D01*
X90712D01*
X91712Y385748D01*
Y384749D01*
X90712Y383749D01*
X89713D01*
X90712D01*
X91712Y382749D01*
Y381750D01*
X90712Y380750D01*
X88713D01*
X87713Y381750D01*
X93712Y380750D02*
X95711D01*
X94711D01*
Y386748D01*
X93712Y385748D01*
X98710D02*
X99710Y386748D01*
X101709D01*
X102709Y385748D01*
Y384749D01*
X101709Y383749D01*
X100709D01*
X101709D01*
X102709Y382749D01*
Y381750D01*
X101709Y380750D01*
X99710D01*
X98710Y381750D01*
X85714Y373748D02*
X84714Y374748D01*
X82715D01*
X81715Y373748D01*
Y369750D01*
X82715Y368750D01*
X84714D01*
X85714Y369750D01*
X88713Y368750D02*
X90712D01*
X91712Y369750D01*
Y371749D01*
X90712Y372749D01*
X88713D01*
X87713Y371749D01*
Y369750D01*
X88713Y368750D01*
X93712Y366751D02*
Y372749D01*
X96711D01*
X97710Y371749D01*
Y369750D01*
X96711Y368750D01*
X93712D01*
X99710Y366751D02*
Y372749D01*
X102709D01*
X103708Y371749D01*
Y369750D01*
X102709Y368750D01*
X99710D01*
X108707D02*
X106707D01*
X105708Y369750D01*
Y371749D01*
X106707Y372749D01*
X108707D01*
X109706Y371749D01*
Y370749D01*
X105708D01*
X111706Y372749D02*
Y368750D01*
Y370749D01*
X112705Y371749D01*
X113705Y372749D01*
X114705D01*
X85714Y361748D02*
X84714Y362748D01*
X82715D01*
X81715Y361748D01*
Y360749D01*
X82715Y359749D01*
X84714D01*
X85714Y358749D01*
Y357750D01*
X84714Y356750D01*
X82715D01*
X81715Y357750D01*
X88713Y356750D02*
X90712D01*
X91712Y357750D01*
Y359749D01*
X90712Y360749D01*
X88713D01*
X87713Y359749D01*
Y357750D01*
X88713Y356750D01*
X93712D02*
X95711D01*
X94711D01*
Y362748D01*
X93712D01*
X102709D02*
Y356750D01*
X99710D01*
X98710Y357750D01*
Y359749D01*
X99710Y360749D01*
X102709D01*
X107707Y356750D02*
X105708D01*
X104708Y357750D01*
Y359749D01*
X105708Y360749D01*
X107707D01*
X108707Y359749D01*
Y358749D01*
X104708D01*
X110706Y360749D02*
Y356750D01*
Y358749D01*
X111706Y359749D01*
X112705Y360749D01*
X113705D01*
X122702Y356750D02*
Y362748D01*
X125701D01*
X126701Y361748D01*
Y359749D01*
X125701Y358749D01*
X122702D01*
X124701D02*
X126701Y356750D01*
X131699D02*
X129700D01*
X128700Y357750D01*
Y359749D01*
X129700Y360749D01*
X131699D01*
X132699Y359749D01*
Y358749D01*
X128700D01*
X134698Y356750D02*
X137697D01*
X138697Y357750D01*
X137697Y358749D01*
X135698D01*
X134698Y359749D01*
X135698Y360749D01*
X138697D01*
X140696Y356750D02*
X142696D01*
X141696D01*
Y360749D01*
X140696D01*
X145695Y356750D02*
X148694D01*
X149693Y357750D01*
X148694Y358749D01*
X146694D01*
X145695Y359749D01*
X146694Y360749D01*
X149693D01*
X152692Y361748D02*
Y360749D01*
X151693D01*
X153692D01*
X152692D01*
Y357750D01*
X153692Y356750D01*
X81715Y476750D02*
Y482748D01*
X83715Y480749D01*
X85714Y482748D01*
Y476750D01*
X88713Y480749D02*
X90712D01*
X91712Y479749D01*
Y476750D01*
X88713D01*
X87713Y477750D01*
X88713Y478749D01*
X91712D01*
X94711Y481748D02*
Y480749D01*
X93712D01*
X95711D01*
X94711D01*
Y477750D01*
X95711Y476750D01*
X101709D02*
X99710D01*
X98710Y477750D01*
Y479749D01*
X99710Y480749D01*
X101709D01*
X102709Y479749D01*
Y478749D01*
X98710D01*
X104708Y480749D02*
Y476750D01*
Y478749D01*
X105708Y479749D01*
X106707Y480749D01*
X107707D01*
X110706Y476750D02*
X112705D01*
X111706D01*
Y480749D01*
X110706D01*
X116704D02*
X118703D01*
X119703Y479749D01*
Y476750D01*
X116704D01*
X115704Y477750D01*
X116704Y478749D01*
X119703D01*
X121703Y476750D02*
X123702D01*
X122702D01*
Y482748D01*
X121703D01*
X-12259Y470748D02*
X-8260D01*
X-10259D01*
Y464750D01*
X-5261D02*
X-3262D01*
X-2262Y465750D01*
Y467749D01*
X-3262Y468749D01*
X-5261D01*
X-6261Y467749D01*
Y465750D01*
X-5261Y464750D01*
X-263Y462751D02*
Y468749D01*
X2736D01*
X3736Y467749D01*
Y465750D01*
X2736Y464750D01*
X-263D01*
X14732Y470748D02*
X12733D01*
X11733Y469748D01*
Y465750D01*
X12733Y464750D01*
X14732D01*
X15732Y465750D01*
Y469748D01*
X14732Y470748D01*
X17732Y468749D02*
X19731Y464750D01*
X21730Y468749D01*
X26729Y464750D02*
X24729D01*
X23730Y465750D01*
Y467749D01*
X24729Y468749D01*
X26729D01*
X27728Y467749D01*
Y466749D01*
X23730D01*
X29728Y468749D02*
Y464750D01*
Y466749D01*
X30727Y467749D01*
X31727Y468749D01*
X32727D01*
X35726Y464750D02*
X37725D01*
X36725D01*
Y470748D01*
X35726D01*
X41724Y468749D02*
X43723D01*
X44723Y467749D01*
Y464750D01*
X41724D01*
X40724Y465750D01*
X41724Y466749D01*
X44723D01*
X46722Y468749D02*
Y465750D01*
X47722Y464750D01*
X50721D01*
Y463750D01*
X49721Y462751D01*
X48722D01*
X50721Y464750D02*
Y468749D01*
X-12259Y458748D02*
X-8260D01*
X-10259D01*
Y452750D01*
X-5261D02*
X-3262D01*
X-2262Y453750D01*
Y455749D01*
X-3262Y456749D01*
X-5261D01*
X-6261Y455749D01*
Y453750D01*
X-5261Y452750D01*
X-263Y450751D02*
Y456749D01*
X2736D01*
X3736Y455749D01*
Y453750D01*
X2736Y452750D01*
X-263D01*
X11733D02*
Y458748D01*
X13733Y456749D01*
X15732Y458748D01*
Y452750D01*
X18731Y456749D02*
X20731D01*
X21730Y455749D01*
Y452750D01*
X18731D01*
X17732Y453750D01*
X18731Y454749D01*
X21730D01*
X23730Y452750D02*
X26729D01*
X27728Y453750D01*
X26729Y454749D01*
X24729D01*
X23730Y455749D01*
X24729Y456749D01*
X27728D01*
X29728Y452750D02*
Y458748D01*
Y454749D02*
X32727Y456749D01*
X29728Y454749D02*
X32727Y452750D01*
X-12259Y446748D02*
X-8260D01*
X-10259D01*
Y440750D01*
X-5261D02*
X-3262D01*
X-2262Y441750D01*
Y443749D01*
X-3262Y444749D01*
X-5261D01*
X-6261Y443749D01*
Y441750D01*
X-5261Y440750D01*
X-263Y438751D02*
Y444749D01*
X2736D01*
X3736Y443749D01*
Y441750D01*
X2736Y440750D01*
X-263D01*
X15732Y445748D02*
X14732Y446748D01*
X12733D01*
X11733Y445748D01*
Y441750D01*
X12733Y440750D01*
X14732D01*
X15732Y441750D01*
X18731Y440750D02*
X20731D01*
X21730Y441750D01*
Y443749D01*
X20731Y444749D01*
X18731D01*
X17732Y443749D01*
Y441750D01*
X18731Y440750D01*
X23730Y438751D02*
Y444749D01*
X26729D01*
X27728Y443749D01*
Y441750D01*
X26729Y440750D01*
X23730D01*
X29728Y438751D02*
Y444749D01*
X32727D01*
X33726Y443749D01*
Y441750D01*
X32727Y440750D01*
X29728D01*
X38725D02*
X36725D01*
X35726Y441750D01*
Y443749D01*
X36725Y444749D01*
X38725D01*
X39724Y443749D01*
Y442749D01*
X35726D01*
X41724Y444749D02*
Y440750D01*
Y442749D01*
X42724Y443749D01*
X43723Y444749D01*
X44723D01*
X-12259Y434748D02*
Y428750D01*
X-9260D01*
X-8260Y429750D01*
Y433748D01*
X-9260Y434748D01*
X-12259D01*
X-6261Y428750D02*
X-4261D01*
X-5261D01*
Y432749D01*
X-6261D01*
X1737Y428750D02*
X-263D01*
X-1262Y429750D01*
Y431749D01*
X-263Y432749D01*
X1737D01*
X2736Y431749D01*
Y430749D01*
X-1262D01*
X4736Y428750D02*
X6735D01*
X5736D01*
Y434748D01*
X4736D01*
X12733Y428750D02*
X10734D01*
X9734Y429750D01*
Y431749D01*
X10734Y432749D01*
X12733D01*
X13733Y431749D01*
Y430749D01*
X9734D01*
X19731Y432749D02*
X16732D01*
X15732Y431749D01*
Y429750D01*
X16732Y428750D01*
X19731D01*
X22730Y433748D02*
Y432749D01*
X21730D01*
X23730D01*
X22730D01*
Y429750D01*
X23730Y428750D01*
X26729Y432749D02*
Y428750D01*
Y430749D01*
X27728Y431749D01*
X28728Y432749D01*
X29728D01*
X32727Y428750D02*
X34726D01*
X33726D01*
Y432749D01*
X32727D01*
X41724D02*
X38725D01*
X37725Y431749D01*
Y429750D01*
X38725Y428750D01*
X41724D01*
X49721D02*
X51721D01*
X50721D01*
Y434748D01*
X49721Y433748D01*
X-8260Y421748D02*
X-9260Y422748D01*
X-11259D01*
X-12259Y421748D01*
Y420749D01*
X-11259Y419749D01*
X-9260D01*
X-8260Y418749D01*
Y417750D01*
X-9260Y416750D01*
X-11259D01*
X-12259Y417750D01*
X-6261Y416750D02*
X-4261D01*
X-5261D01*
Y420749D01*
X-6261D01*
X737Y414751D02*
X1737D01*
X2736Y415750D01*
Y420749D01*
X-263D01*
X-1262Y419749D01*
Y417750D01*
X-263Y416750D01*
X2736D01*
X4736D02*
Y420749D01*
X7735D01*
X8734Y419749D01*
Y416750D01*
X11733Y420749D02*
X13733D01*
X14732Y419749D01*
Y416750D01*
X11733D01*
X10734Y417750D01*
X11733Y418749D01*
X14732D01*
X16732Y416750D02*
X18731D01*
X17732D01*
Y422748D01*
X16732D01*
X27728D02*
Y416750D01*
X31727D01*
X34726Y420749D02*
X36725D01*
X37725Y419749D01*
Y416750D01*
X34726D01*
X33726Y417750D01*
X34726Y418749D01*
X37725D01*
X39724Y420749D02*
Y417750D01*
X40724Y416750D01*
X43723D01*
Y415750D01*
X42724Y414751D01*
X41724D01*
X43723Y416750D02*
Y420749D01*
X48722Y416750D02*
X46722D01*
X45722Y417750D01*
Y419749D01*
X46722Y420749D01*
X48722D01*
X49721Y419749D01*
Y418749D01*
X45722D01*
X51721Y420749D02*
Y416750D01*
Y418749D01*
X52720Y419749D01*
X53720Y420749D01*
X54720D01*
X63717Y416750D02*
X65716D01*
X64716D01*
Y422748D01*
X63717Y421748D01*
X-8260Y409748D02*
X-9260Y410748D01*
X-11259D01*
X-12259Y409748D01*
Y405750D01*
X-11259Y404750D01*
X-9260D01*
X-8260Y405750D01*
X-5261Y404750D02*
X-3262D01*
X-2262Y405750D01*
Y407749D01*
X-3262Y408749D01*
X-5261D01*
X-6261Y407749D01*
Y405750D01*
X-5261Y404750D01*
X-263Y408749D02*
Y404750D01*
Y406749D01*
X737Y407749D01*
X1737Y408749D01*
X2736D01*
X8734Y404750D02*
X6735D01*
X5736Y405750D01*
Y407749D01*
X6735Y408749D01*
X8734D01*
X9734Y407749D01*
Y406749D01*
X5736D01*
X-8260Y397748D02*
X-9260Y398748D01*
X-11259D01*
X-12259Y397748D01*
Y396749D01*
X-11259Y395749D01*
X-9260D01*
X-8260Y394749D01*
Y393750D01*
X-9260Y392750D01*
X-11259D01*
X-12259Y393750D01*
X-6261Y392750D02*
X-4261D01*
X-5261D01*
Y396749D01*
X-6261D01*
X737Y390751D02*
X1737D01*
X2736Y391750D01*
Y396749D01*
X-263D01*
X-1262Y395749D01*
Y393750D01*
X-263Y392750D01*
X2736D01*
X4736D02*
Y396749D01*
X7735D01*
X8734Y395749D01*
Y392750D01*
X11733Y396749D02*
X13733D01*
X14732Y395749D01*
Y392750D01*
X11733D01*
X10734Y393750D01*
X11733Y394749D01*
X14732D01*
X16732Y392750D02*
X18731D01*
X17732D01*
Y398748D01*
X16732D01*
X27728D02*
Y392750D01*
X31727D01*
X34726Y396749D02*
X36725D01*
X37725Y395749D01*
Y392750D01*
X34726D01*
X33726Y393750D01*
X34726Y394749D01*
X37725D01*
X39724Y396749D02*
Y393750D01*
X40724Y392750D01*
X43723D01*
Y391750D01*
X42724Y390751D01*
X41724D01*
X43723Y392750D02*
Y396749D01*
X48722Y392750D02*
X46722D01*
X45722Y393750D01*
Y395749D01*
X46722Y396749D01*
X48722D01*
X49721Y395749D01*
Y394749D01*
X45722D01*
X51721Y396749D02*
Y392750D01*
Y394749D01*
X52720Y395749D01*
X53720Y396749D01*
X54720D01*
X67715Y392750D02*
X63717D01*
X67715Y396749D01*
Y397748D01*
X66716Y398748D01*
X64716D01*
X63717Y397748D01*
X-12259Y386748D02*
Y380750D01*
X-9260D01*
X-8260Y381750D01*
Y385748D01*
X-9260Y386748D01*
X-12259D01*
X-6261Y380750D02*
X-4261D01*
X-5261D01*
Y384749D01*
X-6261D01*
X1737Y380750D02*
X-263D01*
X-1262Y381750D01*
Y383749D01*
X-263Y384749D01*
X1737D01*
X2736Y383749D01*
Y382749D01*
X-1262D01*
X4736Y380750D02*
X6735D01*
X5736D01*
Y386748D01*
X4736D01*
X12733Y380750D02*
X10734D01*
X9734Y381750D01*
Y383749D01*
X10734Y384749D01*
X12733D01*
X13733Y383749D01*
Y382749D01*
X9734D01*
X19731Y384749D02*
X16732D01*
X15732Y383749D01*
Y381750D01*
X16732Y380750D01*
X19731D01*
X22730Y385748D02*
Y384749D01*
X21730D01*
X23730D01*
X22730D01*
Y381750D01*
X23730Y380750D01*
X26729Y384749D02*
Y380750D01*
Y382749D01*
X27728Y383749D01*
X28728Y384749D01*
X29728D01*
X32727Y380750D02*
X34726D01*
X33726D01*
Y384749D01*
X32727D01*
X41724D02*
X38725D01*
X37725Y383749D01*
Y381750D01*
X38725Y380750D01*
X41724D01*
X53720D02*
X49721D01*
X53720Y384749D01*
Y385748D01*
X52720Y386748D01*
X50721D01*
X49721Y385748D01*
X-12259Y374748D02*
Y368750D01*
X-9260D01*
X-8260Y369750D01*
Y370749D01*
X-9260Y371749D01*
X-12259D01*
X-9260D01*
X-8260Y372749D01*
Y373748D01*
X-9260Y374748D01*
X-12259D01*
X-5261Y368750D02*
X-3262D01*
X-2262Y369750D01*
Y371749D01*
X-3262Y372749D01*
X-5261D01*
X-6261Y371749D01*
Y369750D01*
X-5261Y368750D01*
X737Y373748D02*
Y372749D01*
X-263D01*
X1737D01*
X737D01*
Y369750D01*
X1737Y368750D01*
X5736Y373748D02*
Y372749D01*
X4736D01*
X6735D01*
X5736D01*
Y369750D01*
X6735Y368750D01*
X10734D02*
X12733D01*
X13733Y369750D01*
Y371749D01*
X12733Y372749D01*
X10734D01*
X9734Y371749D01*
Y369750D01*
X10734Y368750D01*
X15732D02*
Y372749D01*
X16732D01*
X17732Y371749D01*
Y368750D01*
Y371749D01*
X18731Y372749D01*
X19731Y371749D01*
Y368750D01*
X31727Y373748D02*
X30727Y374748D01*
X28728D01*
X27728Y373748D01*
Y369750D01*
X28728Y368750D01*
X30727D01*
X31727Y369750D01*
X34726Y368750D02*
X36725D01*
X37725Y369750D01*
Y371749D01*
X36725Y372749D01*
X34726D01*
X33726Y371749D01*
Y369750D01*
X34726Y368750D01*
X39724Y366751D02*
Y372749D01*
X42724D01*
X43723Y371749D01*
Y369750D01*
X42724Y368750D01*
X39724D01*
X45722Y366751D02*
Y372749D01*
X48722D01*
X49721Y371749D01*
Y369750D01*
X48722Y368750D01*
X45722D01*
X54720D02*
X52720D01*
X51721Y369750D01*
Y371749D01*
X52720Y372749D01*
X54720D01*
X55719Y371749D01*
Y370749D01*
X51721D01*
X57719Y372749D02*
Y368750D01*
Y370749D01*
X58718Y371749D01*
X59718Y372749D01*
X60718D01*
X-12259Y362748D02*
Y356750D01*
X-9260D01*
X-8260Y357750D01*
Y358749D01*
X-9260Y359749D01*
X-12259D01*
X-9260D01*
X-8260Y360749D01*
Y361748D01*
X-9260Y362748D01*
X-12259D01*
X-5261Y356750D02*
X-3262D01*
X-2262Y357750D01*
Y359749D01*
X-3262Y360749D01*
X-5261D01*
X-6261Y359749D01*
Y357750D01*
X-5261Y356750D01*
X737Y361748D02*
Y360749D01*
X-263D01*
X1737D01*
X737D01*
Y357750D01*
X1737Y356750D01*
X5736Y361748D02*
Y360749D01*
X4736D01*
X6735D01*
X5736D01*
Y357750D01*
X6735Y356750D01*
X10734D02*
X12733D01*
X13733Y357750D01*
Y359749D01*
X12733Y360749D01*
X10734D01*
X9734Y359749D01*
Y357750D01*
X10734Y356750D01*
X15732D02*
Y360749D01*
X16732D01*
X17732Y359749D01*
Y356750D01*
Y359749D01*
X18731Y360749D01*
X19731Y359749D01*
Y356750D01*
X27728D02*
Y362748D01*
X29728Y360749D01*
X31727Y362748D01*
Y356750D01*
X34726Y360749D02*
X36725D01*
X37725Y359749D01*
Y356750D01*
X34726D01*
X33726Y357750D01*
X34726Y358749D01*
X37725D01*
X39724Y356750D02*
X42724D01*
X43723Y357750D01*
X42724Y358749D01*
X40724D01*
X39724Y359749D01*
X40724Y360749D01*
X43723D01*
X45722Y356750D02*
Y362748D01*
Y358749D02*
X48722Y360749D01*
X45722Y358749D02*
X48722Y356750D01*
X-12259Y350748D02*
Y344750D01*
X-9260D01*
X-8260Y345750D01*
Y346749D01*
X-9260Y347749D01*
X-12259D01*
X-9260D01*
X-8260Y348749D01*
Y349748D01*
X-9260Y350748D01*
X-12259D01*
X-5261Y344750D02*
X-3262D01*
X-2262Y345750D01*
Y347749D01*
X-3262Y348749D01*
X-5261D01*
X-6261Y347749D01*
Y345750D01*
X-5261Y344750D01*
X737Y349748D02*
Y348749D01*
X-263D01*
X1737D01*
X737D01*
Y345750D01*
X1737Y344750D01*
X5736Y349748D02*
Y348749D01*
X4736D01*
X6735D01*
X5736D01*
Y345750D01*
X6735Y344750D01*
X10734D02*
X12733D01*
X13733Y345750D01*
Y347749D01*
X12733Y348749D01*
X10734D01*
X9734Y347749D01*
Y345750D01*
X10734Y344750D01*
X15732D02*
Y348749D01*
X16732D01*
X17732Y347749D01*
Y344750D01*
Y347749D01*
X18731Y348749D01*
X19731Y347749D01*
Y344750D01*
X30727Y350748D02*
X28728D01*
X27728Y349748D01*
Y345750D01*
X28728Y344750D01*
X30727D01*
X31727Y345750D01*
Y349748D01*
X30727Y350748D01*
X33726Y348749D02*
X35726Y344750D01*
X37725Y348749D01*
X42724Y344750D02*
X40724D01*
X39724Y345750D01*
Y347749D01*
X40724Y348749D01*
X42724D01*
X43723Y347749D01*
Y346749D01*
X39724D01*
X45722Y348749D02*
Y344750D01*
Y346749D01*
X46722Y347749D01*
X47722Y348749D01*
X48722D01*
X51721Y344750D02*
X53720D01*
X52720D01*
Y350748D01*
X51721D01*
X57719Y348749D02*
X59718D01*
X60718Y347749D01*
Y344750D01*
X57719D01*
X56719Y345750D01*
X57719Y346749D01*
X60718D01*
X62717Y348749D02*
Y345750D01*
X63717Y344750D01*
X66716D01*
Y343750D01*
X65716Y342751D01*
X64716D01*
X66716Y344750D02*
Y348749D01*
X-12259Y476750D02*
Y482748D01*
X-8260Y476750D01*
Y482748D01*
X-5261Y480749D02*
X-3262D01*
X-2262Y479749D01*
Y476750D01*
X-5261D01*
X-6261Y477750D01*
X-5261Y478749D01*
X-2262D01*
X-263Y476750D02*
Y480749D01*
X737D01*
X1737Y479749D01*
Y476750D01*
Y479749D01*
X2736Y480749D01*
X3736Y479749D01*
Y476750D01*
X8734D02*
X6735D01*
X5736Y477750D01*
Y479749D01*
X6735Y480749D01*
X8734D01*
X9734Y479749D01*
Y478749D01*
X5736D01*
X-53250Y464750D02*
X-51251D01*
X-52250D01*
Y470748D01*
X-53250Y469748D01*
X-49251Y452750D02*
X-53250D01*
X-49251Y456749D01*
Y457748D01*
X-50251Y458748D01*
X-52250D01*
X-53250Y457748D01*
Y445748D02*
X-52250Y446748D01*
X-50251D01*
X-49251Y445748D01*
Y444749D01*
X-50251Y443749D01*
X-51251D01*
X-50251D01*
X-49251Y442749D01*
Y441750D01*
X-50251Y440750D01*
X-52250D01*
X-53250Y441750D01*
X-50251Y428750D02*
Y434748D01*
X-53250Y431749D01*
X-49251D01*
Y422748D02*
X-53250D01*
Y419749D01*
X-51251Y420749D01*
X-50251D01*
X-49251Y419749D01*
Y417750D01*
X-50251Y416750D01*
X-52250D01*
X-53250Y417750D01*
X-49251Y410748D02*
X-51251Y409748D01*
X-53250Y407749D01*
Y405750D01*
X-52250Y404750D01*
X-50251D01*
X-49251Y405750D01*
Y406749D01*
X-50251Y407749D01*
X-53250D01*
Y398748D02*
X-49251D01*
Y397748D01*
X-53250Y393750D01*
Y392750D01*
Y385748D02*
X-52250Y386748D01*
X-50251D01*
X-49251Y385748D01*
Y384749D01*
X-50251Y383749D01*
X-49251Y382749D01*
Y381750D01*
X-50251Y380750D01*
X-52250D01*
X-53250Y381750D01*
Y382749D01*
X-52250Y383749D01*
X-53250Y384749D01*
Y385748D01*
X-52250Y383749D02*
X-50251D01*
X-53250Y369750D02*
X-52250Y368750D01*
X-50251D01*
X-49251Y369750D01*
Y373748D01*
X-50251Y374748D01*
X-52250D01*
X-53250Y373748D01*
Y372749D01*
X-52250Y371749D01*
X-49251D01*
X-53250Y356750D02*
X-51251D01*
X-52250D01*
Y362748D01*
X-53250Y361748D01*
X-48252D02*
X-47252Y362748D01*
X-45253D01*
X-44253Y361748D01*
Y357750D01*
X-45253Y356750D01*
X-47252D01*
X-48252Y357750D01*
Y361748D01*
X-53250Y344750D02*
X-51251D01*
X-52250D01*
Y350748D01*
X-53250Y349748D01*
X-48252Y344750D02*
X-46252D01*
X-47252D01*
Y350748D01*
X-48252Y349748D01*
X-53250Y482748D02*
Y476750D01*
X-49251D01*
X-46252Y480749D02*
X-44253D01*
X-43253Y479749D01*
Y476750D01*
X-46252D01*
X-47252Y477750D01*
X-46252Y478749D01*
X-43253D01*
X-41254Y480749D02*
Y477750D01*
X-40254Y476750D01*
X-37255D01*
Y475750D01*
X-38255Y474751D01*
X-39255D01*
X-37255Y476750D02*
Y480749D01*
X-32257Y476750D02*
X-34256D01*
X-35256Y477750D01*
Y479749D01*
X-34256Y480749D01*
X-32257D01*
X-31257Y479749D01*
Y478749D01*
X-35256D01*
X-29258Y480749D02*
Y476750D01*
Y478749D01*
X-28258Y479749D01*
X-27258Y480749D01*
X-26259D01*
D128*
X395630Y341750D02*
Y485750D01*
X283662Y461750D02*
X395630D01*
X283662Y449750D02*
X395630D01*
X283662Y437750D02*
X395630D01*
X283662Y425750D02*
X395630D01*
X283662Y413750D02*
X395630D01*
X283662Y401750D02*
X395630D01*
X283662Y389750D02*
X395630D01*
X283662Y377750D02*
X395630D01*
X283662Y365750D02*
X395630D01*
X283662Y353750D02*
X395630D01*
X283662Y341750D02*
X395630D01*
X283662D02*
Y485750D01*
X226676Y461750D02*
X283662D01*
X226676Y449750D02*
X283662D01*
X226676Y437750D02*
X283662D01*
X226676Y425750D02*
X283662D01*
X226676Y413750D02*
X283662D01*
X226676Y401750D02*
X283662D01*
X226676Y389750D02*
X283662D01*
X226676Y377750D02*
X283662D01*
X226676Y365750D02*
X283662D01*
X226676Y353750D02*
X283662D01*
X226676Y341750D02*
X283662D01*
X226676D02*
Y485750D01*
X161692Y461750D02*
X226676D01*
X161692Y449750D02*
X226676D01*
X161692Y437750D02*
X226676D01*
X161692Y425750D02*
X226676D01*
X161692Y413750D02*
X226676D01*
X161692Y401750D02*
X226676D01*
X161692Y389750D02*
X226676D01*
X161692Y377750D02*
X226676D01*
X161692Y365750D02*
X226676D01*
X161692Y353750D02*
X226676D01*
X161692Y341750D02*
X226676D01*
X161692D02*
Y485750D01*
X75715Y461750D02*
X161692D01*
X75715Y449750D02*
X161692D01*
X75715Y437750D02*
X161692D01*
X75715Y425750D02*
X161692D01*
X75715Y413750D02*
X161692D01*
X75715Y401750D02*
X161692D01*
X75715Y389750D02*
X161692D01*
X75715Y377750D02*
X161692D01*
X75715Y365750D02*
X161692D01*
X75715Y353750D02*
X161692D01*
X75715Y341750D02*
X161692D01*
X75715D02*
Y485750D01*
X-18259Y461750D02*
X75715D01*
X-18259Y449750D02*
X75715D01*
X-18259Y437750D02*
X75715D01*
X-18259Y425750D02*
X75715D01*
X-18259Y413750D02*
X75715D01*
X-18259Y401750D02*
X75715D01*
X-18259Y389750D02*
X75715D01*
X-18259Y377750D02*
X75715D01*
X-18259Y365750D02*
X75715D01*
X-18259Y353750D02*
X75715D01*
X-18259Y341750D02*
X75715D01*
X-18259D02*
Y485750D01*
X-59250Y461750D02*
X-18259D01*
X-59250Y449750D02*
X-18259D01*
X-59250Y437750D02*
X-18259D01*
X-59250Y425750D02*
X-18259D01*
X-59250Y413750D02*
X-18259D01*
X-59250Y401750D02*
X-18259D01*
X-59250Y389750D02*
X-18259D01*
X-59250Y377750D02*
X-18259D01*
X-59250Y365750D02*
X-18259D01*
X-59250Y353750D02*
X-18259D01*
X-59250Y341750D02*
X-18259D01*
X-59250D02*
Y485750D01*
X395630D01*
X-59250Y473750D02*
X395630D01*
D141*
X283662Y469782D02*
X287630Y473750D01*
X283662Y463782D02*
X293630Y473750D01*
X287630Y461750D02*
X299630Y473750D01*
X293630Y461750D02*
X305630Y473750D01*
X299630Y461750D02*
X311630Y473750D01*
X305630Y461750D02*
X317630Y473750D01*
X311630Y461750D02*
X323630Y473750D01*
X317630Y461750D02*
X329630Y473750D01*
X323630Y461750D02*
X335630Y473750D01*
X329630Y461750D02*
X341630Y473750D01*
X335630Y461750D02*
X347630Y473750D01*
X341630Y461750D02*
X353630Y473750D01*
X347630Y461750D02*
X359630Y473750D01*
X353630Y461750D02*
X365630Y473750D01*
X359630Y461750D02*
X371630Y473750D01*
X365630Y461750D02*
X377630Y473750D01*
X371630Y461750D02*
X383630Y473750D01*
X377630Y461750D02*
X389630Y473750D01*
X383630Y461750D02*
X395630Y473750D01*
X389630Y461750D02*
X395630Y467750D01*
X283662Y457782D02*
X287630Y461750D01*
X283662Y451782D02*
X293630Y461750D01*
X287630Y449750D02*
X299630Y461750D01*
X293630Y449750D02*
X305630Y461750D01*
X299630Y449750D02*
X311630Y461750D01*
X305630Y449750D02*
X317630Y461750D01*
X311630Y449750D02*
X323630Y461750D01*
X317630Y449750D02*
X329630Y461750D01*
X323630Y449750D02*
X335630Y461750D01*
X329630Y449750D02*
X341630Y461750D01*
X335630Y449750D02*
X347630Y461750D01*
X341630Y449750D02*
X353630Y461750D01*
X347630Y449750D02*
X359630Y461750D01*
X353630Y449750D02*
X365630Y461750D01*
X359630Y449750D02*
X371630Y461750D01*
X365630Y449750D02*
X377630Y461750D01*
X371630Y449750D02*
X383630Y461750D01*
X377630Y449750D02*
X389630Y461750D01*
X383630Y449750D02*
X395630Y461750D01*
X389630Y449750D02*
X395630Y455750D01*
X283662Y445782D02*
X287630Y449750D01*
X283662Y439782D02*
X293630Y449750D01*
X287630Y437750D02*
X299630Y449750D01*
X293630Y437750D02*
X305630Y449750D01*
X299630Y437750D02*
X311630Y449750D01*
X305630Y437750D02*
X317630Y449750D01*
X311630Y437750D02*
X323630Y449750D01*
X317630Y437750D02*
X329630Y449750D01*
X323630Y437750D02*
X335630Y449750D01*
X329630Y437750D02*
X341630Y449750D01*
X335630Y437750D02*
X347630Y449750D01*
X341630Y437750D02*
X353630Y449750D01*
X347630Y437750D02*
X359630Y449750D01*
X353630Y437750D02*
X365630Y449750D01*
X359630Y437750D02*
X371630Y449750D01*
X365630Y437750D02*
X377630Y449750D01*
X371630Y437750D02*
X383630Y449750D01*
X377630Y437750D02*
X389630Y449750D01*
X383630Y437750D02*
X395630Y449750D01*
X389630Y437750D02*
X395630Y443750D01*
X283662Y433782D02*
X287630Y437750D01*
X283662Y427782D02*
X293630Y437750D01*
X287630Y425750D02*
X299630Y437750D01*
X293630Y425750D02*
X305630Y437750D01*
X299630Y425750D02*
X311630Y437750D01*
X305630Y425750D02*
X317630Y437750D01*
X311630Y425750D02*
X323630Y437750D01*
X317630Y425750D02*
X329630Y437750D01*
X323630Y425750D02*
X335630Y437750D01*
X329630Y425750D02*
X341630Y437750D01*
X335630Y425750D02*
X347630Y437750D01*
X341630Y425750D02*
X353630Y437750D01*
X347630Y425750D02*
X359630Y437750D01*
X353630Y425750D02*
X365630Y437750D01*
X359630Y425750D02*
X371630Y437750D01*
X365630Y425750D02*
X377630Y437750D01*
X371630Y425750D02*
X383630Y437750D01*
X377630Y425750D02*
X389630Y437750D01*
X383630Y425750D02*
X395630Y437750D01*
X389630Y425750D02*
X395630Y431750D01*
X283662Y421782D02*
X287630Y425750D01*
X283662Y415782D02*
X293630Y425750D01*
X287630Y413750D02*
X299630Y425750D01*
X293630Y413750D02*
X305630Y425750D01*
X299630Y413750D02*
X311630Y425750D01*
X305630Y413750D02*
X317630Y425750D01*
X311630Y413750D02*
X323630Y425750D01*
X317630Y413750D02*
X329630Y425750D01*
X323630Y413750D02*
X335630Y425750D01*
X329630Y413750D02*
X341630Y425750D01*
X335630Y413750D02*
X347630Y425750D01*
X341630Y413750D02*
X353630Y425750D01*
X347630Y413750D02*
X359630Y425750D01*
X353630Y413750D02*
X365630Y425750D01*
X359630Y413750D02*
X371630Y425750D01*
X365630Y413750D02*
X377630Y425750D01*
X371630Y413750D02*
X383630Y425750D01*
X377630Y413750D02*
X389630Y425750D01*
X383630Y413750D02*
X395630Y425750D01*
X389630Y413750D02*
X395630Y419750D01*
X283662Y409782D02*
X287630Y413750D01*
X283662Y403782D02*
X293630Y413750D01*
X287630Y401750D02*
X299630Y413750D01*
X293630Y401750D02*
X305630Y413750D01*
X299630Y401750D02*
X311630Y413750D01*
X305630Y401750D02*
X317630Y413750D01*
X311630Y401750D02*
X323630Y413750D01*
X317630Y401750D02*
X329630Y413750D01*
X323630Y401750D02*
X335630Y413750D01*
X329630Y401750D02*
X341630Y413750D01*
X335630Y401750D02*
X347630Y413750D01*
X341630Y401750D02*
X353630Y413750D01*
X347630Y401750D02*
X359630Y413750D01*
X353630Y401750D02*
X365630Y413750D01*
X359630Y401750D02*
X371630Y413750D01*
X365630Y401750D02*
X377630Y413750D01*
X371630Y401750D02*
X383630Y413750D01*
X377630Y401750D02*
X389630Y413750D01*
X383630Y401750D02*
X395630Y413750D01*
X389630Y401750D02*
X395630Y407750D01*
X283662Y397782D02*
X287630Y401750D01*
X283662Y391782D02*
X293630Y401750D01*
X287630Y389750D02*
X299630Y401750D01*
X293630Y389750D02*
X305630Y401750D01*
X299630Y389750D02*
X311630Y401750D01*
X305630Y389750D02*
X317630Y401750D01*
X311630Y389750D02*
X323630Y401750D01*
X317630Y389750D02*
X329630Y401750D01*
X323630Y389750D02*
X335630Y401750D01*
X329630Y389750D02*
X341630Y401750D01*
X335630Y389750D02*
X347630Y401750D01*
X341630Y389750D02*
X353630Y401750D01*
X347630Y389750D02*
X359630Y401750D01*
X353630Y389750D02*
X365630Y401750D01*
X359630Y389750D02*
X371630Y401750D01*
X365630Y389750D02*
X377630Y401750D01*
X371630Y389750D02*
X383630Y401750D01*
X377630Y389750D02*
X389630Y401750D01*
X383630Y389750D02*
X395630Y401750D01*
X389630Y389750D02*
X395630Y395750D01*
X283662Y385782D02*
X287630Y389750D01*
X283662Y379782D02*
X293630Y389750D01*
X287630Y377750D02*
X299630Y389750D01*
X293630Y377750D02*
X305630Y389750D01*
X299630Y377750D02*
X311630Y389750D01*
X305630Y377750D02*
X317630Y389750D01*
X311630Y377750D02*
X323630Y389750D01*
X317630Y377750D02*
X329630Y389750D01*
X323630Y377750D02*
X335630Y389750D01*
X329630Y377750D02*
X341630Y389750D01*
X335630Y377750D02*
X347630Y389750D01*
X341630Y377750D02*
X353630Y389750D01*
X347630Y377750D02*
X359630Y389750D01*
X353630Y377750D02*
X365630Y389750D01*
X359630Y377750D02*
X371630Y389750D01*
X365630Y377750D02*
X377630Y389750D01*
X371630Y377750D02*
X383630Y389750D01*
X377630Y377750D02*
X389630Y389750D01*
X383630Y377750D02*
X395630Y389750D01*
X389630Y377750D02*
X395630Y383750D01*
X283662Y373782D02*
X287630Y377750D01*
X283662Y367782D02*
X293630Y377750D01*
X287630Y365750D02*
X299630Y377750D01*
X293630Y365750D02*
X305630Y377750D01*
X299630Y365750D02*
X311630Y377750D01*
X305630Y365750D02*
X317630Y377750D01*
X311630Y365750D02*
X323630Y377750D01*
X317630Y365750D02*
X329630Y377750D01*
X323630Y365750D02*
X335630Y377750D01*
X329630Y365750D02*
X341630Y377750D01*
X335630Y365750D02*
X347630Y377750D01*
X341630Y365750D02*
X353630Y377750D01*
X347630Y365750D02*
X359630Y377750D01*
X353630Y365750D02*
X365630Y377750D01*
X359630Y365750D02*
X371630Y377750D01*
X365630Y365750D02*
X377630Y377750D01*
X371630Y365750D02*
X383630Y377750D01*
X377630Y365750D02*
X389630Y377750D01*
X383630Y365750D02*
X395630Y377750D01*
X389630Y365750D02*
X395630Y371750D01*
X283662Y361782D02*
X287630Y365750D01*
X283662Y355782D02*
X293630Y365750D01*
X287630Y353750D02*
X299630Y365750D01*
X293630Y353750D02*
X305630Y365750D01*
X299630Y353750D02*
X311630Y365750D01*
X305630Y353750D02*
X317630Y365750D01*
X311630Y353750D02*
X323630Y365750D01*
X317630Y353750D02*
X329630Y365750D01*
X323630Y353750D02*
X335630Y365750D01*
X329630Y353750D02*
X341630Y365750D01*
X335630Y353750D02*
X347630Y365750D01*
X341630Y353750D02*
X353630Y365750D01*
X347630Y353750D02*
X359630Y365750D01*
X353630Y353750D02*
X365630Y365750D01*
X359630Y353750D02*
X371630Y365750D01*
X365630Y353750D02*
X377630Y365750D01*
X371630Y353750D02*
X383630Y365750D01*
X377630Y353750D02*
X389630Y365750D01*
X383630Y353750D02*
X395630Y365750D01*
X389630Y353750D02*
X395630Y359750D01*
X283662Y349782D02*
X287630Y353750D01*
X283662Y343782D02*
X293630Y353750D01*
X287630Y341750D02*
X299630Y353750D01*
X293630Y341750D02*
X305630Y353750D01*
X299630Y341750D02*
X311630Y353750D01*
X305630Y341750D02*
X317630Y353750D01*
X311630Y341750D02*
X323630Y353750D01*
X317630Y341750D02*
X329630Y353750D01*
X323630Y341750D02*
X335630Y353750D01*
X329630Y341750D02*
X341630Y353750D01*
X335630Y341750D02*
X347630Y353750D01*
X341630Y341750D02*
X353630Y353750D01*
X347630Y341750D02*
X359630Y353750D01*
X353630Y341750D02*
X365630Y353750D01*
X359630Y341750D02*
X371630Y353750D01*
X365630Y341750D02*
X377630Y353750D01*
X371630Y341750D02*
X383630Y353750D01*
X377630Y341750D02*
X389630Y353750D01*
X383630Y341750D02*
X395630Y353750D01*
X389630Y341750D02*
X395630Y347750D01*
M02*
