G04*
G04 #@! TF.GenerationSoftware,Altium Limited,Altium Designer,18.1.9 (240)*
G04*
G04 Layer_Color=255*
%FSLAX25Y25*%
%MOIN*%
G70*
G01*
G75*
%ADD131C,0.06000*%
%ADD132R,0.05810X0.05810*%
%ADD133C,0.07000*%
%ADD134C,0.10000*%
%ADD135C,0.23622*%
G04:AMPARAMS|DCode=138|XSize=50mil|YSize=60mil|CornerRadius=0mil|HoleSize=0mil|Usage=FLASHONLY|Rotation=180.000|XOffset=0mil|YOffset=0mil|HoleType=Round|Shape=Octagon|*
%AMOCTAGOND138*
4,1,8,0.01250,-0.03000,-0.01250,-0.03000,-0.02500,-0.01750,-0.02500,0.01750,-0.01250,0.03000,0.01250,0.03000,0.02500,0.01750,0.02500,-0.01750,0.01250,-0.03000,0.0*
%
%ADD138OCTAGOND138*%

D131*
X100787Y111929D02*
D03*
Y121929D02*
D03*
Y131929D02*
D03*
Y141929D02*
D03*
Y151929D02*
D03*
Y161929D02*
D03*
Y171929D02*
D03*
X190787Y111929D02*
D03*
Y121929D02*
D03*
Y131929D02*
D03*
Y141929D02*
D03*
Y151929D02*
D03*
Y161929D02*
D03*
Y171929D02*
D03*
D132*
X100787Y181929D02*
D03*
X190787D02*
D03*
D133*
X27933Y94731D02*
D03*
X31583Y83498D02*
D03*
X42816Y87147D02*
D03*
X39166Y98380D02*
D03*
X268565Y101978D02*
D03*
X272605Y113077D02*
D03*
X264526Y90880D02*
D03*
X48807Y230075D02*
D03*
X34264Y211460D02*
D03*
X41535Y220768D02*
D03*
X90575Y282951D02*
D03*
X95000Y272000D02*
D03*
X285972Y182957D02*
D03*
X274341Y180906D02*
D03*
D134*
X127496Y280189D02*
D03*
X146000Y292000D02*
D03*
Y268378D02*
D03*
D135*
X77205Y76205D02*
D03*
X215000D02*
D03*
X214500Y214000D02*
D03*
X77205D02*
D03*
D138*
X172000Y131929D02*
D03*
X218307Y167717D02*
D03*
X218602Y142520D02*
D03*
X146800Y25600D02*
D03*
X124802Y131929D02*
D03*
X158760Y6102D02*
D03*
M02*
